G04 #@! TF.GenerationSoftware,KiCad,Pcbnew,8.0.2*
G04 #@! TF.CreationDate,2024-05-18T01:19:45+05:00*
G04 #@! TF.ProjectId,EDP Converter,45445020-436f-46e7-9665-727465722e6b,rev?*
G04 #@! TF.SameCoordinates,Original*
G04 #@! TF.FileFunction,Soldermask,Bot*
G04 #@! TF.FilePolarity,Negative*
%FSLAX46Y46*%
G04 Gerber Fmt 4.6, Leading zero omitted, Abs format (unit mm)*
G04 Created by KiCad (PCBNEW 8.0.2) date 2024-05-18 01:19:45*
%MOMM*%
%LPD*%
G01*
G04 APERTURE LIST*
%ADD10C,1.400000*%
%ADD11O,2.952400X1.552400*%
%ADD12O,2.552400X1.352400*%
%ADD13R,1.700000X1.700000*%
%ADD14O,1.700000X1.700000*%
G04 APERTURE END LIST*
D10*
X147300000Y-86300000D03*
D11*
X139620000Y-94550000D03*
X139620000Y-78050000D03*
D12*
X146400000Y-94550000D03*
X146400000Y-78050000D03*
D13*
X99440000Y-125640000D03*
D14*
X96900000Y-125640000D03*
X99440000Y-123100000D03*
X96900000Y-123100000D03*
X99440000Y-120560000D03*
X96900000Y-120560000D03*
X99440000Y-118020000D03*
X96900000Y-118020000D03*
X99440000Y-115480000D03*
X96900000Y-115480000D03*
X99440000Y-112940000D03*
X96900000Y-112940000D03*
X99440000Y-110400000D03*
X96900000Y-110400000D03*
X99440000Y-107860000D03*
X96900000Y-107860000D03*
X99440000Y-105320000D03*
X96900000Y-105320000D03*
X99440000Y-102780000D03*
X96900000Y-102780000D03*
X99440000Y-100240000D03*
X96900000Y-100240000D03*
X99440000Y-97700000D03*
X96900000Y-97700000D03*
X99440000Y-95160000D03*
X96900000Y-95160000D03*
X99440000Y-92620000D03*
X96900000Y-92620000D03*
X99440000Y-90080000D03*
X96900000Y-90080000D03*
X99440000Y-87540000D03*
X96900000Y-87540000D03*
X99440000Y-85000000D03*
X96900000Y-85000000D03*
X99440000Y-82460000D03*
X96900000Y-82460000D03*
X99440000Y-79920000D03*
X96900000Y-79920000D03*
X99440000Y-77380000D03*
X96900000Y-77380000D03*
M02*
