G04 #@! TF.GenerationSoftware,KiCad,Pcbnew,8.0.1*
G04 #@! TF.CreationDate,2024-05-20T13:32:06+05:00*
G04 #@! TF.ProjectId,EDP Converter,45445020-436f-46e7-9665-727465722e6b,rev?*
G04 #@! TF.SameCoordinates,Original*
G04 #@! TF.FileFunction,Soldermask,Top*
G04 #@! TF.FilePolarity,Negative*
%FSLAX46Y46*%
G04 Gerber Fmt 4.6, Leading zero omitted, Abs format (unit mm)*
G04 Created by KiCad (PCBNEW 8.0.1) date 2024-05-20 13:32:06*
%MOMM*%
%LPD*%
G01*
G04 APERTURE LIST*
G04 Aperture macros list*
%AMRoundRect*
0 Rectangle with rounded corners*
0 $1 Rounding radius*
0 $2 $3 $4 $5 $6 $7 $8 $9 X,Y pos of 4 corners*
0 Add a 4 corners polygon primitive as box body*
4,1,4,$2,$3,$4,$5,$6,$7,$8,$9,$2,$3,0*
0 Add four circle primitives for the rounded corners*
1,1,$1+$1,$2,$3*
1,1,$1+$1,$4,$5*
1,1,$1+$1,$6,$7*
1,1,$1+$1,$8,$9*
0 Add four rect primitives between the rounded corners*
20,1,$1+$1,$2,$3,$4,$5,0*
20,1,$1+$1,$4,$5,$6,$7,0*
20,1,$1+$1,$6,$7,$8,$9,0*
20,1,$1+$1,$8,$9,$2,$3,0*%
G04 Aperture macros list end*
%ADD10R,0.500000X0.600000*%
%ADD11RoundRect,0.140000X0.170000X-0.140000X0.170000X0.140000X-0.170000X0.140000X-0.170000X-0.140000X0*%
%ADD12RoundRect,0.140000X-0.170000X0.140000X-0.170000X-0.140000X0.170000X-0.140000X0.170000X0.140000X0*%
%ADD13RoundRect,0.140000X0.140000X0.170000X-0.140000X0.170000X-0.140000X-0.170000X0.140000X-0.170000X0*%
%ADD14RoundRect,0.140000X-0.140000X-0.170000X0.140000X-0.170000X0.140000X0.170000X-0.140000X0.170000X0*%
%ADD15RoundRect,0.135000X-0.135000X-0.185000X0.135000X-0.185000X0.135000X0.185000X-0.135000X0.185000X0*%
%ADD16RoundRect,0.135000X0.185000X-0.135000X0.185000X0.135000X-0.185000X0.135000X-0.185000X-0.135000X0*%
%ADD17RoundRect,0.135000X-0.185000X0.135000X-0.185000X-0.135000X0.185000X-0.135000X0.185000X0.135000X0*%
%ADD18RoundRect,0.150000X-0.150000X0.587500X-0.150000X-0.587500X0.150000X-0.587500X0.150000X0.587500X0*%
%ADD19RoundRect,0.135000X0.135000X0.185000X-0.135000X0.185000X-0.135000X-0.185000X0.135000X-0.185000X0*%
%ADD20R,2.000000X2.000000*%
%ADD21C,1.400000*%
%ADD22RoundRect,0.076200X1.200000X0.140000X-1.200000X0.140000X-1.200000X-0.140000X1.200000X-0.140000X0*%
%ADD23O,2.952400X1.552400*%
%ADD24O,2.552400X1.352400*%
%ADD25R,0.279400X1.346200*%
%ADD26R,1.346200X0.279400*%
%ADD27R,3.302000X3.302000*%
%ADD28RoundRect,0.147500X0.172500X-0.147500X0.172500X0.147500X-0.172500X0.147500X-0.172500X-0.147500X0*%
%ADD29R,0.850000X0.280000*%
%ADD30R,0.280000X0.850000*%
%ADD31R,2.050000X2.050000*%
%ADD32RoundRect,0.100000X0.100000X-0.225000X0.100000X0.225000X-0.100000X0.225000X-0.100000X-0.225000X0*%
%ADD33R,1.100000X0.300000*%
%ADD34R,3.100000X2.300000*%
%ADD35RoundRect,0.225000X-0.250000X0.225000X-0.250000X-0.225000X0.250000X-0.225000X0.250000X0.225000X0*%
%ADD36R,1.700000X1.700000*%
%ADD37O,1.700000X1.700000*%
G04 APERTURE END LIST*
D10*
X115250000Y-108100000D03*
X115250000Y-109200000D03*
X116050000Y-109200000D03*
X116050000Y-108100000D03*
D11*
X113750000Y-109080000D03*
X113750000Y-108120000D03*
D12*
X118600000Y-107170000D03*
X118600000Y-108130000D03*
D13*
X132205000Y-127975000D03*
X131245000Y-127975000D03*
D12*
X117950000Y-118120000D03*
X117950000Y-119080000D03*
D14*
X124540000Y-104050000D03*
X125500000Y-104050000D03*
D15*
X105642500Y-116750000D03*
X106662500Y-116750000D03*
D14*
X134520000Y-110400000D03*
X135480000Y-110400000D03*
D16*
X104387500Y-106885000D03*
X104387500Y-105865000D03*
D17*
X115400000Y-111640000D03*
X115400000Y-112660000D03*
D14*
X133920000Y-118900000D03*
X134880000Y-118900000D03*
D11*
X128250000Y-101615000D03*
X128250000Y-100655000D03*
D12*
X123425000Y-122845000D03*
X123425000Y-123805000D03*
D14*
X124520000Y-105200000D03*
X125480000Y-105200000D03*
X133920000Y-120100000D03*
X134880000Y-120100000D03*
D11*
X117150000Y-112655000D03*
X117150000Y-111695000D03*
D18*
X105450000Y-111587500D03*
X103550000Y-111587500D03*
X104500000Y-113462500D03*
D19*
X132910000Y-99200000D03*
X131890000Y-99200000D03*
D12*
X114800000Y-117520000D03*
X114800000Y-118480000D03*
D14*
X124495000Y-102900000D03*
X125455000Y-102900000D03*
X104407500Y-109500000D03*
X105367500Y-109500000D03*
D20*
X111875000Y-89850000D03*
D12*
X128200000Y-122800000D03*
X128200000Y-123760000D03*
D21*
X147300000Y-86300000D03*
D22*
X137020000Y-80800000D03*
X137020000Y-81300000D03*
X137020000Y-81800000D03*
X137020000Y-82300000D03*
X137020000Y-82800000D03*
X137020000Y-83300000D03*
X137020000Y-83800000D03*
X137020000Y-84300000D03*
X137020000Y-84800000D03*
X137020000Y-85300000D03*
X137020000Y-85800000D03*
X137020000Y-86300000D03*
X137020000Y-86800000D03*
X137020000Y-87300000D03*
X137020000Y-87800000D03*
X137020000Y-88300000D03*
X137020000Y-88800000D03*
X137020000Y-89300000D03*
X137020000Y-89800000D03*
X137020000Y-90300000D03*
D23*
X139620000Y-94550000D03*
X139620000Y-78050000D03*
D24*
X146400000Y-94550000D03*
X146400000Y-78050000D03*
D11*
X123525000Y-101300000D03*
X123525000Y-100340000D03*
D25*
X122450000Y-120078500D03*
X122949999Y-120078500D03*
X123450000Y-120078500D03*
X123949999Y-120078500D03*
X124450001Y-120078500D03*
X124950000Y-120078500D03*
X125449999Y-120078500D03*
X125950000Y-120078500D03*
X126450000Y-120078500D03*
X126950001Y-120078500D03*
X127450000Y-120078500D03*
X127949999Y-120078500D03*
X128450001Y-120078500D03*
X128950000Y-120078500D03*
X129450001Y-120078500D03*
X129950000Y-120078500D03*
D26*
X131978500Y-118050000D03*
X131978500Y-117550001D03*
X131978500Y-117050000D03*
X131978500Y-116550001D03*
X131978500Y-116049999D03*
X131978500Y-115550000D03*
X131978500Y-115050001D03*
X131978500Y-114550000D03*
X131978500Y-114050000D03*
X131978500Y-113549999D03*
X131978500Y-113050000D03*
X131978500Y-112550001D03*
X131978500Y-112049999D03*
X131978500Y-111550000D03*
X131978500Y-111049999D03*
X131978500Y-110550000D03*
D25*
X129950000Y-108521500D03*
X129450001Y-108521500D03*
X128950000Y-108521500D03*
X128450001Y-108521500D03*
X127949999Y-108521500D03*
X127450000Y-108521500D03*
X126950001Y-108521500D03*
X126450000Y-108521500D03*
X125950000Y-108521500D03*
X125449999Y-108521500D03*
X124950000Y-108521500D03*
X124450001Y-108521500D03*
X123949999Y-108521500D03*
X123450000Y-108521500D03*
X122949999Y-108521500D03*
X122450000Y-108521500D03*
D26*
X120421500Y-110550000D03*
X120421500Y-111049999D03*
X120421500Y-111550000D03*
X120421500Y-112049999D03*
X120421500Y-112550001D03*
X120421500Y-113050000D03*
X120421500Y-113549999D03*
X120421500Y-114050000D03*
X120421500Y-114550000D03*
X120421500Y-115050001D03*
X120421500Y-115550000D03*
X120421500Y-116049999D03*
X120421500Y-116550001D03*
X120421500Y-117050000D03*
X120421500Y-117550001D03*
X120421500Y-118050000D03*
D27*
X126200000Y-114300000D03*
D28*
X137500000Y-126885000D03*
X137500000Y-125915000D03*
D11*
X127150000Y-101630000D03*
X127150000Y-100670000D03*
X128700000Y-106130000D03*
X128700000Y-105170000D03*
D12*
X110050000Y-128195000D03*
X110050000Y-129155000D03*
D11*
X120300000Y-101295000D03*
X120300000Y-100335000D03*
D14*
X104507500Y-115500000D03*
X105467500Y-115500000D03*
D19*
X130860000Y-99200000D03*
X129840000Y-99200000D03*
D12*
X111175000Y-128170000D03*
X111175000Y-129130000D03*
D11*
X131900000Y-101555000D03*
X131900000Y-100595000D03*
X130850000Y-101580000D03*
X130850000Y-100620000D03*
D17*
X135100000Y-125890000D03*
X135100000Y-126910000D03*
D20*
X111800000Y-85600000D03*
X111775000Y-81325000D03*
D16*
X114000000Y-131210000D03*
X114000000Y-130190000D03*
D14*
X144020000Y-97400000D03*
X144980000Y-97400000D03*
D29*
X112575000Y-127350000D03*
D30*
X113300000Y-128325000D03*
X113800000Y-128325000D03*
X114300000Y-128325000D03*
X114800000Y-128325000D03*
X115300000Y-128325000D03*
D29*
X116025000Y-127350000D03*
X116025000Y-125850000D03*
D30*
X115300000Y-124875000D03*
X114800000Y-124875000D03*
X114300000Y-124875000D03*
X113800000Y-124875000D03*
X113300000Y-124875000D03*
D29*
X112575000Y-125850000D03*
D31*
X114300000Y-126600000D03*
D14*
X104682500Y-126962500D03*
X105642500Y-126962500D03*
D16*
X136470000Y-100510000D03*
X136470000Y-99490000D03*
D11*
X129400000Y-101590000D03*
X129400000Y-100630000D03*
D32*
X133750000Y-130450000D03*
X134400000Y-130450000D03*
X135050000Y-130450000D03*
X135050000Y-128550000D03*
X133750000Y-128550000D03*
D33*
X144875000Y-117875000D03*
X144875000Y-117375000D03*
X144875000Y-116875000D03*
X144875000Y-116375000D03*
X144875000Y-115875000D03*
X144875000Y-115375000D03*
X144875000Y-114875000D03*
X144875000Y-114375000D03*
X144875000Y-113875000D03*
X144875000Y-113375000D03*
X144875000Y-112875000D03*
X144875000Y-112375000D03*
X144875000Y-111875000D03*
X144875000Y-111375000D03*
X144875000Y-110875000D03*
X144875000Y-110375000D03*
X144875000Y-109875000D03*
X144875000Y-109375000D03*
X144875000Y-108875000D03*
X144875000Y-108375000D03*
X144875000Y-107875000D03*
X144875000Y-107375000D03*
D34*
X146575000Y-119545000D03*
X146575000Y-105705000D03*
D11*
X120100000Y-108130000D03*
X120100000Y-107170000D03*
D18*
X105625000Y-123075000D03*
X103725000Y-123075000D03*
X104675000Y-124950000D03*
D13*
X138600000Y-100400000D03*
X137640000Y-100400000D03*
D11*
X121420000Y-101300000D03*
X121420000Y-100340000D03*
D16*
X136300000Y-126910000D03*
X136300000Y-125890000D03*
D19*
X145110000Y-101400000D03*
X144090000Y-101400000D03*
D11*
X131200000Y-108030000D03*
X131200000Y-107070000D03*
X122500000Y-101300000D03*
X122500000Y-100340000D03*
D14*
X104407500Y-120325000D03*
X105367500Y-120325000D03*
D15*
X116090000Y-110600000D03*
X117110000Y-110600000D03*
D11*
X111225000Y-125280000D03*
X111225000Y-124320000D03*
D15*
X105617500Y-117925000D03*
X106637500Y-117925000D03*
D11*
X126100000Y-101630000D03*
X126100000Y-100670000D03*
D14*
X104382500Y-119300000D03*
X105342500Y-119300000D03*
D19*
X145080000Y-98675000D03*
X144060000Y-98675000D03*
D20*
X111800000Y-77350000D03*
D35*
X116500000Y-118300000D03*
X116500000Y-119850000D03*
D16*
X112675000Y-131210000D03*
X112675000Y-130190000D03*
D14*
X104407500Y-121375000D03*
X105367500Y-121375000D03*
D36*
X99440000Y-125640000D03*
D37*
X96900000Y-125640000D03*
X99440000Y-123100000D03*
X96900000Y-123100000D03*
X99440000Y-120560000D03*
X96900000Y-120560000D03*
X99440000Y-118020000D03*
X96900000Y-118020000D03*
X99440000Y-115480000D03*
X96900000Y-115480000D03*
X99440000Y-112940000D03*
X96900000Y-112940000D03*
X99440000Y-110400000D03*
X96900000Y-110400000D03*
X99440000Y-107860000D03*
X96900000Y-107860000D03*
X99440000Y-105320000D03*
X96900000Y-105320000D03*
X99440000Y-102780000D03*
X96900000Y-102780000D03*
X99440000Y-100240000D03*
X96900000Y-100240000D03*
X99440000Y-97700000D03*
X96900000Y-97700000D03*
X99440000Y-95160000D03*
X96900000Y-95160000D03*
X99440000Y-92620000D03*
X96900000Y-92620000D03*
X99440000Y-90080000D03*
X96900000Y-90080000D03*
X99440000Y-87540000D03*
X96900000Y-87540000D03*
X99440000Y-85000000D03*
X96900000Y-85000000D03*
X99440000Y-82460000D03*
X96900000Y-82460000D03*
X99440000Y-79920000D03*
X96900000Y-79920000D03*
X99440000Y-77380000D03*
X96900000Y-77380000D03*
M02*
