G04 #@! TF.GenerationSoftware,KiCad,Pcbnew,8.0.2*
G04 #@! TF.CreationDate,2024-05-18T01:19:45+05:00*
G04 #@! TF.ProjectId,EDP Converter,45445020-436f-46e7-9665-727465722e6b,rev?*
G04 #@! TF.SameCoordinates,Original*
G04 #@! TF.FileFunction,Copper,L2,Inr*
G04 #@! TF.FilePolarity,Positive*
%FSLAX46Y46*%
G04 Gerber Fmt 4.6, Leading zero omitted, Abs format (unit mm)*
G04 Created by KiCad (PCBNEW 8.0.2) date 2024-05-18 01:19:45*
%MOMM*%
%LPD*%
G01*
G04 APERTURE LIST*
G04 #@! TA.AperFunction,ComponentPad*
%ADD10O,2.800000X1.400000*%
G04 #@! TD*
G04 #@! TA.AperFunction,ComponentPad*
%ADD11O,2.400000X1.200000*%
G04 #@! TD*
G04 #@! TA.AperFunction,ComponentPad*
%ADD12R,1.700000X1.700000*%
G04 #@! TD*
G04 #@! TA.AperFunction,ComponentPad*
%ADD13O,1.700000X1.700000*%
G04 #@! TD*
G04 #@! TA.AperFunction,ViaPad*
%ADD14C,0.600000*%
G04 #@! TD*
G04 #@! TA.AperFunction,ViaPad*
%ADD15C,0.800000*%
G04 #@! TD*
G04 APERTURE END LIST*
D10*
X139620000Y-94550000D03*
X139620000Y-78050000D03*
D11*
X146400000Y-94550000D03*
X146400000Y-78050000D03*
D12*
X99440000Y-125640000D03*
D13*
X96900000Y-125640000D03*
X99440000Y-123100000D03*
X96900000Y-123100000D03*
X99440000Y-120560000D03*
X96900000Y-120560000D03*
X99440000Y-118020000D03*
X96900000Y-118020000D03*
X99440000Y-115480000D03*
X96900000Y-115480000D03*
X99440000Y-112940000D03*
X96900000Y-112940000D03*
X99440000Y-110400000D03*
X96900000Y-110400000D03*
X99440000Y-107860000D03*
X96900000Y-107860000D03*
X99440000Y-105320000D03*
X96900000Y-105320000D03*
X99440000Y-102780000D03*
X96900000Y-102780000D03*
X99440000Y-100240000D03*
X96900000Y-100240000D03*
X99440000Y-97700000D03*
X96900000Y-97700000D03*
X99440000Y-95160000D03*
X96900000Y-95160000D03*
X99440000Y-92620000D03*
X96900000Y-92620000D03*
X99440000Y-90080000D03*
X96900000Y-90080000D03*
X99440000Y-87540000D03*
X96900000Y-87540000D03*
X99440000Y-85000000D03*
X96900000Y-85000000D03*
X99440000Y-82460000D03*
X96900000Y-82460000D03*
X99440000Y-79920000D03*
X96900000Y-79920000D03*
X99440000Y-77380000D03*
X96900000Y-77380000D03*
D14*
X101100000Y-105300000D03*
X102000000Y-105200000D03*
X146200000Y-116300000D03*
X127000000Y-115200000D03*
X125400000Y-115200000D03*
X127000000Y-113500000D03*
X125400000Y-113500000D03*
X126200000Y-114300000D03*
X126100000Y-81300000D03*
X134400000Y-86900000D03*
X130200000Y-107000000D03*
X132300000Y-96900000D03*
X129700000Y-97100000D03*
X127600000Y-99700000D03*
X121900000Y-99100000D03*
X121700000Y-86600000D03*
X120500000Y-84300000D03*
X123850000Y-102250000D03*
X122300000Y-106900000D03*
X101400000Y-129700000D03*
X110600000Y-126600000D03*
X114900000Y-127100000D03*
X113700000Y-127100000D03*
X113700000Y-126000000D03*
X114900000Y-126000000D03*
X114300000Y-126600000D03*
X137500000Y-127800000D03*
X136300000Y-130500000D03*
X140300000Y-114000000D03*
D15*
X135500000Y-109300000D03*
X138600000Y-102200000D03*
X139100000Y-81300000D03*
X139200000Y-82900000D03*
X139200000Y-84400000D03*
X139100000Y-85800000D03*
X140000000Y-87600000D03*
X139100000Y-88300000D03*
X139200000Y-89400000D03*
X145900000Y-97400000D03*
X148000000Y-98700000D03*
X147900000Y-101400000D03*
X106600000Y-105900000D03*
X110000000Y-105900000D03*
X121700000Y-112700000D03*
X121800000Y-117700000D03*
X129900000Y-110000000D03*
X122800000Y-110900000D03*
X132000000Y-119400000D03*
X111800000Y-115300000D03*
X106900000Y-115600000D03*
X139300000Y-90700000D03*
X133100000Y-98000000D03*
X129900000Y-98200000D03*
X143200000Y-106500000D03*
X135100000Y-124900000D03*
X111300000Y-131200000D03*
X108300000Y-128200000D03*
X107300000Y-128200000D03*
X117600000Y-124800000D03*
X107900000Y-124700000D03*
X108000000Y-121000000D03*
D14*
X127300000Y-80850000D03*
X131850000Y-80850000D03*
X131850000Y-81700000D03*
X127300000Y-81700000D03*
X133400000Y-82315823D03*
X126282843Y-82334314D03*
X133400000Y-83115823D03*
X125717157Y-82900000D03*
X134000000Y-87900000D03*
X130200000Y-87900000D03*
X134000000Y-88700000D03*
X130200000Y-88700000D03*
X121550000Y-83900000D03*
X131865007Y-83900000D03*
X121550000Y-84700000D03*
X131865007Y-84700000D03*
X120682843Y-85384314D03*
X133650000Y-85400000D03*
X133650000Y-86200000D03*
X120117157Y-85950000D03*
X132270000Y-107070000D03*
X106300000Y-109500000D03*
X101750000Y-95150000D03*
X135800000Y-118950000D03*
X127100000Y-123755000D03*
X115100000Y-119875000D03*
X128700000Y-104400000D03*
X101400000Y-109300000D03*
X117300000Y-127700000D03*
X117950000Y-119900000D03*
X130650001Y-115050001D03*
X124400000Y-123800000D03*
X130000000Y-128600000D03*
X119300000Y-119200000D03*
X101500000Y-101500000D03*
X135800000Y-120100000D03*
X116400000Y-111700000D03*
X124900000Y-102000000D03*
X106700000Y-123075000D03*
X106487500Y-111587500D03*
X101200000Y-86300000D03*
X101200000Y-119400000D03*
X120100000Y-106200000D03*
X106000000Y-113500000D03*
X101100000Y-88900000D03*
X101000000Y-111800000D03*
X107000000Y-126800000D03*
X143500000Y-118200000D03*
X109200000Y-129200000D03*
X101700000Y-77400000D03*
X130700000Y-113500000D03*
X111225000Y-123275000D03*
X111700000Y-117520000D03*
X112900000Y-104500000D03*
X125449999Y-106500000D03*
X134900000Y-90400000D03*
X134800000Y-95100000D03*
X142950000Y-117500000D03*
X134250000Y-116350000D03*
X140250000Y-110750000D03*
X133850000Y-112050000D03*
X135350000Y-113350000D03*
X143200000Y-112200000D03*
X134100000Y-114750000D03*
X139500000Y-114750000D03*
X141550000Y-115200000D03*
X135550000Y-115900000D03*
X142950000Y-116700000D03*
X134250000Y-117150000D03*
X112675000Y-129500000D03*
X147150000Y-122950000D03*
X142200000Y-108300000D03*
X118475000Y-132675000D03*
X118800000Y-129900000D03*
X142900000Y-107700000D03*
X146200000Y-123000000D03*
X113800000Y-129400000D03*
X134100000Y-113950000D03*
X139500000Y-113950000D03*
X143200000Y-113000000D03*
X135350000Y-112550000D03*
X141550000Y-116000000D03*
X135550000Y-115100000D03*
X133850000Y-111250000D03*
X140250000Y-111550000D03*
X103100000Y-115400000D03*
X112800000Y-110500000D03*
X110900000Y-116600000D03*
X102100000Y-115100000D03*
X118600000Y-124500000D03*
X116100000Y-108500000D03*
X115400000Y-113600000D03*
X110700000Y-104800000D03*
X110700000Y-107700000D03*
X114500000Y-84500000D03*
X114500000Y-107800000D03*
X114400000Y-82000000D03*
X114600000Y-113900000D03*
X117300000Y-80500000D03*
X118200000Y-113300000D03*
X117200000Y-78100000D03*
X117300000Y-109200000D03*
X113700000Y-113800000D03*
X113700000Y-107700000D03*
X122700000Y-125600000D03*
X122600000Y-121500000D03*
X101300000Y-114500000D03*
X146175000Y-108875000D03*
X146300000Y-109900000D03*
X146600000Y-111900000D03*
X146150000Y-113350000D03*
X146200000Y-114900000D03*
X142208180Y-116380000D03*
G04 #@! TA.AperFunction,Conductor*
G36*
X150167539Y-75895185D02*
G01*
X150213294Y-75947989D01*
X150224500Y-75999500D01*
X150224500Y-133175500D01*
X150204815Y-133242539D01*
X150152011Y-133288294D01*
X150100500Y-133299500D01*
X119252370Y-133299500D01*
X119185331Y-133279815D01*
X119139576Y-133227011D01*
X119129632Y-133157853D01*
X119147376Y-133109528D01*
X119200789Y-133024522D01*
X119260368Y-132854255D01*
X119280565Y-132675000D01*
X119260368Y-132495745D01*
X119200789Y-132325478D01*
X119104816Y-132172738D01*
X118977262Y-132045184D01*
X118824523Y-131949211D01*
X118654254Y-131889631D01*
X118654249Y-131889630D01*
X118475004Y-131869435D01*
X118474996Y-131869435D01*
X118295750Y-131889630D01*
X118295745Y-131889631D01*
X118125476Y-131949211D01*
X117972737Y-132045184D01*
X117845184Y-132172737D01*
X117749211Y-132325476D01*
X117689631Y-132495745D01*
X117689630Y-132495750D01*
X117669435Y-132674996D01*
X117669435Y-132675003D01*
X117689630Y-132854249D01*
X117689631Y-132854254D01*
X117749211Y-133024522D01*
X117802624Y-133109528D01*
X117821624Y-133176764D01*
X117801256Y-133243600D01*
X117747989Y-133288814D01*
X117697630Y-133299500D01*
X95574500Y-133299500D01*
X95507461Y-133279815D01*
X95461706Y-133227011D01*
X95450500Y-133175500D01*
X95450500Y-129699996D01*
X100594435Y-129699996D01*
X100594435Y-129700003D01*
X100614630Y-129879249D01*
X100614631Y-129879254D01*
X100674211Y-130049523D01*
X100737646Y-130150478D01*
X100770184Y-130202262D01*
X100897738Y-130329816D01*
X101050478Y-130425789D01*
X101220745Y-130485368D01*
X101220750Y-130485369D01*
X101399996Y-130505565D01*
X101400000Y-130505565D01*
X101400004Y-130505565D01*
X101579249Y-130485369D01*
X101579252Y-130485368D01*
X101579255Y-130485368D01*
X101749522Y-130425789D01*
X101902262Y-130329816D01*
X102029816Y-130202262D01*
X102125789Y-130049522D01*
X102185368Y-129879255D01*
X102188718Y-129849522D01*
X102205565Y-129700003D01*
X102205565Y-129699996D01*
X102185369Y-129520750D01*
X102185368Y-129520745D01*
X102145065Y-129405565D01*
X102125789Y-129350478D01*
X102107106Y-129320745D01*
X102031237Y-129200000D01*
X102031234Y-129199996D01*
X108394435Y-129199996D01*
X108394435Y-129200003D01*
X108414630Y-129379249D01*
X108414631Y-129379254D01*
X108474211Y-129549523D01*
X108555724Y-129679249D01*
X108570184Y-129702262D01*
X108697738Y-129829816D01*
X108850478Y-129925789D01*
X109020745Y-129985368D01*
X109020750Y-129985369D01*
X109199996Y-130005565D01*
X109200000Y-130005565D01*
X109200004Y-130005565D01*
X109379249Y-129985369D01*
X109379252Y-129985368D01*
X109379255Y-129985368D01*
X109549522Y-129925789D01*
X109702262Y-129829816D01*
X109829816Y-129702262D01*
X109925789Y-129549522D01*
X109943119Y-129499996D01*
X111869435Y-129499996D01*
X111869435Y-129500003D01*
X111889630Y-129679249D01*
X111889631Y-129679254D01*
X111949211Y-129849523D01*
X112034569Y-129985368D01*
X112045184Y-130002262D01*
X112172738Y-130129816D01*
X112325478Y-130225789D01*
X112393306Y-130249523D01*
X112495745Y-130285368D01*
X112495750Y-130285369D01*
X112674996Y-130305565D01*
X112675000Y-130305565D01*
X112675004Y-130305565D01*
X112854249Y-130285369D01*
X112854252Y-130285368D01*
X112854255Y-130285368D01*
X113024522Y-130225789D01*
X113177262Y-130129816D01*
X113215240Y-130091837D01*
X113276560Y-130058353D01*
X113346252Y-130063337D01*
X113368891Y-130074524D01*
X113450478Y-130125789D01*
X113620745Y-130185368D01*
X113620750Y-130185369D01*
X113799996Y-130205565D01*
X113800000Y-130205565D01*
X113800004Y-130205565D01*
X113979249Y-130185369D01*
X113979252Y-130185368D01*
X113979255Y-130185368D01*
X114149522Y-130125789D01*
X114302262Y-130029816D01*
X114429816Y-129902262D01*
X114431240Y-129899996D01*
X117994435Y-129899996D01*
X117994435Y-129900003D01*
X118014630Y-130079249D01*
X118014631Y-130079254D01*
X118074211Y-130249523D01*
X118124662Y-130329815D01*
X118170184Y-130402262D01*
X118297738Y-130529816D01*
X118450478Y-130625789D01*
X118603258Y-130679249D01*
X118620745Y-130685368D01*
X118620750Y-130685369D01*
X118799996Y-130705565D01*
X118800000Y-130705565D01*
X118800004Y-130705565D01*
X118979249Y-130685369D01*
X118979252Y-130685368D01*
X118979255Y-130685368D01*
X119149522Y-130625789D01*
X119302262Y-130529816D01*
X119332082Y-130499996D01*
X135494435Y-130499996D01*
X135494435Y-130500003D01*
X135514630Y-130679249D01*
X135514631Y-130679254D01*
X135574211Y-130849523D01*
X135670184Y-131002262D01*
X135797738Y-131129816D01*
X135950478Y-131225789D01*
X136120745Y-131285368D01*
X136120750Y-131285369D01*
X136299996Y-131305565D01*
X136300000Y-131305565D01*
X136300004Y-131305565D01*
X136479249Y-131285369D01*
X136479252Y-131285368D01*
X136479255Y-131285368D01*
X136649522Y-131225789D01*
X136802262Y-131129816D01*
X136929816Y-131002262D01*
X137025789Y-130849522D01*
X137085368Y-130679255D01*
X137091392Y-130625789D01*
X137105565Y-130500003D01*
X137105565Y-130499996D01*
X137085369Y-130320750D01*
X137085368Y-130320745D01*
X137037998Y-130185369D01*
X137025789Y-130150478D01*
X136929816Y-129997738D01*
X136802262Y-129870184D01*
X136738017Y-129829816D01*
X136649523Y-129774211D01*
X136479254Y-129714631D01*
X136479249Y-129714630D01*
X136300004Y-129694435D01*
X136299996Y-129694435D01*
X136120750Y-129714630D01*
X136120745Y-129714631D01*
X135950476Y-129774211D01*
X135797737Y-129870184D01*
X135670184Y-129997737D01*
X135574211Y-130150476D01*
X135514631Y-130320745D01*
X135514630Y-130320750D01*
X135494435Y-130499996D01*
X119332082Y-130499996D01*
X119429816Y-130402262D01*
X119525789Y-130249522D01*
X119585368Y-130079255D01*
X119588718Y-130049522D01*
X119605565Y-129900003D01*
X119605565Y-129899996D01*
X119585369Y-129720750D01*
X119585368Y-129720745D01*
X119583228Y-129714630D01*
X119525789Y-129550478D01*
X119525188Y-129549522D01*
X119431237Y-129400000D01*
X119429816Y-129397738D01*
X119302262Y-129270184D01*
X119238017Y-129229816D01*
X119149523Y-129174211D01*
X118979254Y-129114631D01*
X118979249Y-129114630D01*
X118800004Y-129094435D01*
X118799996Y-129094435D01*
X118620750Y-129114630D01*
X118620745Y-129114631D01*
X118450476Y-129174211D01*
X118297737Y-129270184D01*
X118170184Y-129397737D01*
X118074211Y-129550476D01*
X118014631Y-129720745D01*
X118014630Y-129720750D01*
X117994435Y-129899996D01*
X114431240Y-129899996D01*
X114525789Y-129749522D01*
X114585368Y-129579255D01*
X114585369Y-129579249D01*
X114605565Y-129400003D01*
X114605565Y-129399996D01*
X114585369Y-129220750D01*
X114585368Y-129220745D01*
X114578108Y-129199996D01*
X114525789Y-129050478D01*
X114507106Y-129020745D01*
X114440431Y-128914632D01*
X114429816Y-128897738D01*
X114302262Y-128770184D01*
X114213852Y-128714632D01*
X114149523Y-128674211D01*
X113979254Y-128614631D01*
X113979249Y-128614630D01*
X113849362Y-128599996D01*
X129194435Y-128599996D01*
X129194435Y-128600003D01*
X129214630Y-128779249D01*
X129214631Y-128779254D01*
X129274211Y-128949523D01*
X129337646Y-129050478D01*
X129370184Y-129102262D01*
X129497738Y-129229816D01*
X129561983Y-129270184D01*
X129642450Y-129320745D01*
X129650478Y-129325789D01*
X129803258Y-129379249D01*
X129820745Y-129385368D01*
X129820750Y-129385369D01*
X129999996Y-129405565D01*
X130000000Y-129405565D01*
X130000004Y-129405565D01*
X130179249Y-129385369D01*
X130179252Y-129385368D01*
X130179255Y-129385368D01*
X130349522Y-129325789D01*
X130502262Y-129229816D01*
X130629816Y-129102262D01*
X130725789Y-128949522D01*
X130785368Y-128779255D01*
X130785369Y-128779249D01*
X130805565Y-128600003D01*
X130805565Y-128599996D01*
X130785369Y-128420750D01*
X130785368Y-128420745D01*
X130776162Y-128394435D01*
X130725789Y-128250478D01*
X130629816Y-128097738D01*
X130502262Y-127970184D01*
X130399422Y-127905565D01*
X130349523Y-127874211D01*
X130179254Y-127814631D01*
X130179249Y-127814630D01*
X130049362Y-127799996D01*
X136694435Y-127799996D01*
X136694435Y-127800003D01*
X136714630Y-127979249D01*
X136714631Y-127979254D01*
X136774211Y-128149523D01*
X136837646Y-128250478D01*
X136870184Y-128302262D01*
X136997738Y-128429816D01*
X137150478Y-128525789D01*
X137277352Y-128570184D01*
X137320745Y-128585368D01*
X137320750Y-128585369D01*
X137499996Y-128605565D01*
X137500000Y-128605565D01*
X137500004Y-128605565D01*
X137679249Y-128585369D01*
X137679252Y-128585368D01*
X137679255Y-128585368D01*
X137849522Y-128525789D01*
X138002262Y-128429816D01*
X138129816Y-128302262D01*
X138225789Y-128149522D01*
X138285368Y-127979255D01*
X138293671Y-127905565D01*
X138305565Y-127800003D01*
X138305565Y-127799996D01*
X138285369Y-127620750D01*
X138285368Y-127620745D01*
X138280056Y-127605565D01*
X138225789Y-127450478D01*
X138225188Y-127449522D01*
X138162955Y-127350478D01*
X138129816Y-127297738D01*
X138002262Y-127170184D01*
X137969379Y-127149522D01*
X137849523Y-127074211D01*
X137679254Y-127014631D01*
X137679249Y-127014630D01*
X137500004Y-126994435D01*
X137499996Y-126994435D01*
X137320750Y-127014630D01*
X137320745Y-127014631D01*
X137150476Y-127074211D01*
X136997737Y-127170184D01*
X136870184Y-127297737D01*
X136774211Y-127450476D01*
X136714631Y-127620745D01*
X136714630Y-127620750D01*
X136694435Y-127799996D01*
X130049362Y-127799996D01*
X130000004Y-127794435D01*
X129999996Y-127794435D01*
X129820750Y-127814630D01*
X129820745Y-127814631D01*
X129650476Y-127874211D01*
X129497737Y-127970184D01*
X129370184Y-128097737D01*
X129274211Y-128250476D01*
X129214631Y-128420745D01*
X129214630Y-128420750D01*
X129194435Y-128599996D01*
X113849362Y-128599996D01*
X113800004Y-128594435D01*
X113799996Y-128594435D01*
X113620750Y-128614630D01*
X113620745Y-128614631D01*
X113450476Y-128674211D01*
X113297737Y-128770184D01*
X113259759Y-128808162D01*
X113198436Y-128841647D01*
X113128744Y-128836661D01*
X113106107Y-128825474D01*
X113024523Y-128774211D01*
X112854254Y-128714631D01*
X112854249Y-128714630D01*
X112675004Y-128694435D01*
X112674996Y-128694435D01*
X112495750Y-128714630D01*
X112495745Y-128714631D01*
X112325476Y-128774211D01*
X112172737Y-128870184D01*
X112045184Y-128997737D01*
X111949211Y-129150476D01*
X111889631Y-129320745D01*
X111889630Y-129320750D01*
X111869435Y-129499996D01*
X109943119Y-129499996D01*
X109985368Y-129379255D01*
X109985369Y-129379249D01*
X110005565Y-129200003D01*
X110005565Y-129199996D01*
X109985369Y-129020750D01*
X109985368Y-129020745D01*
X109925789Y-128850478D01*
X109829816Y-128697738D01*
X109702262Y-128570184D01*
X109631608Y-128525789D01*
X109549523Y-128474211D01*
X109379254Y-128414631D01*
X109379249Y-128414630D01*
X109200004Y-128394435D01*
X109199996Y-128394435D01*
X109020750Y-128414630D01*
X109020745Y-128414631D01*
X108850476Y-128474211D01*
X108697737Y-128570184D01*
X108570184Y-128697737D01*
X108474211Y-128850476D01*
X108414631Y-129020745D01*
X108414630Y-129020750D01*
X108394435Y-129199996D01*
X102031234Y-129199996D01*
X102029816Y-129197738D01*
X101902262Y-129070184D01*
X101870897Y-129050476D01*
X101749523Y-128974211D01*
X101579254Y-128914631D01*
X101579249Y-128914630D01*
X101400004Y-128894435D01*
X101399996Y-128894435D01*
X101220750Y-128914630D01*
X101220745Y-128914631D01*
X101050476Y-128974211D01*
X100897737Y-129070184D01*
X100770184Y-129197737D01*
X100674211Y-129350476D01*
X100614631Y-129520745D01*
X100614630Y-129520750D01*
X100594435Y-129699996D01*
X95450500Y-129699996D01*
X95450500Y-126286420D01*
X95470185Y-126219381D01*
X95522989Y-126173626D01*
X95592147Y-126163682D01*
X95655703Y-126192707D01*
X95686882Y-126234016D01*
X95725963Y-126317826D01*
X95725967Y-126317834D01*
X95798027Y-126420745D01*
X95861505Y-126511401D01*
X96028599Y-126678495D01*
X96105135Y-126732086D01*
X96222165Y-126814032D01*
X96222167Y-126814033D01*
X96222170Y-126814035D01*
X96436337Y-126913903D01*
X96436343Y-126913904D01*
X96436344Y-126913905D01*
X96491285Y-126928626D01*
X96664592Y-126975063D01*
X96835319Y-126990000D01*
X96899999Y-126995659D01*
X96900000Y-126995659D01*
X96900001Y-126995659D01*
X96964681Y-126990000D01*
X97135408Y-126975063D01*
X97363663Y-126913903D01*
X97577830Y-126814035D01*
X97771401Y-126678495D01*
X97893717Y-126556178D01*
X97955036Y-126522696D01*
X98024728Y-126527680D01*
X98080662Y-126569551D01*
X98097577Y-126600528D01*
X98146646Y-126732088D01*
X98146649Y-126732093D01*
X98232809Y-126847187D01*
X98232812Y-126847190D01*
X98347906Y-126933350D01*
X98347913Y-126933354D01*
X98482620Y-126983596D01*
X98482627Y-126983598D01*
X98542155Y-126989999D01*
X98542172Y-126990000D01*
X99190000Y-126990000D01*
X99190000Y-126073012D01*
X99247007Y-126105925D01*
X99374174Y-126140000D01*
X99505826Y-126140000D01*
X99632993Y-126105925D01*
X99690000Y-126073012D01*
X99690000Y-126990000D01*
X100337828Y-126990000D01*
X100337844Y-126989999D01*
X100397372Y-126983598D01*
X100397379Y-126983596D01*
X100532086Y-126933354D01*
X100532093Y-126933350D01*
X100647187Y-126847190D01*
X100647190Y-126847187D01*
X100682517Y-126799996D01*
X106194435Y-126799996D01*
X106194435Y-126800003D01*
X106214630Y-126979249D01*
X106214631Y-126979254D01*
X106274211Y-127149523D01*
X106304507Y-127197738D01*
X106370184Y-127302262D01*
X106497738Y-127429816D01*
X106588080Y-127486582D01*
X106642450Y-127520745D01*
X106650478Y-127525789D01*
X106820745Y-127585368D01*
X106820750Y-127585369D01*
X106999996Y-127605565D01*
X107000000Y-127605565D01*
X107000004Y-127605565D01*
X107179249Y-127585369D01*
X107179252Y-127585368D01*
X107179255Y-127585368D01*
X107349522Y-127525789D01*
X107502262Y-127429816D01*
X107629816Y-127302262D01*
X107725789Y-127149522D01*
X107785368Y-126979255D01*
X107785369Y-126979249D01*
X107805565Y-126800003D01*
X107805565Y-126799996D01*
X107785369Y-126620750D01*
X107785368Y-126620745D01*
X107778108Y-126599996D01*
X109794435Y-126599996D01*
X109794435Y-126600003D01*
X109814630Y-126779249D01*
X109814631Y-126779254D01*
X109874211Y-126949523D01*
X109915122Y-127014632D01*
X109970184Y-127102262D01*
X110097738Y-127229816D01*
X110176410Y-127279249D01*
X110205833Y-127297737D01*
X110250478Y-127325789D01*
X110420745Y-127385368D01*
X110420750Y-127385369D01*
X110599996Y-127405565D01*
X110600000Y-127405565D01*
X110600004Y-127405565D01*
X110779249Y-127385369D01*
X110779252Y-127385368D01*
X110779255Y-127385368D01*
X110949522Y-127325789D01*
X111102262Y-127229816D01*
X111229816Y-127102262D01*
X111325789Y-126949522D01*
X111385368Y-126779255D01*
X111385369Y-126779249D01*
X111405565Y-126600003D01*
X111405565Y-126599996D01*
X111385369Y-126420750D01*
X111385368Y-126420745D01*
X111342326Y-126297738D01*
X111325789Y-126250478D01*
X111306249Y-126219381D01*
X111233539Y-126103663D01*
X111229816Y-126097738D01*
X111132074Y-125999996D01*
X112894435Y-125999996D01*
X112894435Y-126000003D01*
X112914630Y-126179249D01*
X112914631Y-126179254D01*
X112974211Y-126349523D01*
X113058727Y-126484028D01*
X113077727Y-126551264D01*
X113058727Y-126615972D01*
X112974211Y-126750476D01*
X112914631Y-126920745D01*
X112914630Y-126920750D01*
X112894435Y-127099996D01*
X112894435Y-127100003D01*
X112914630Y-127279249D01*
X112914631Y-127279254D01*
X112974211Y-127449523D01*
X113059569Y-127585368D01*
X113070184Y-127602262D01*
X113197738Y-127729816D01*
X113288080Y-127786582D01*
X113332721Y-127814632D01*
X113350478Y-127825789D01*
X113488860Y-127874211D01*
X113520745Y-127885368D01*
X113520750Y-127885369D01*
X113699996Y-127905565D01*
X113700000Y-127905565D01*
X113700004Y-127905565D01*
X113879249Y-127885369D01*
X113879252Y-127885368D01*
X113879255Y-127885368D01*
X114049522Y-127825789D01*
X114202262Y-127729816D01*
X114212319Y-127719759D01*
X114273642Y-127686274D01*
X114343334Y-127691258D01*
X114387681Y-127719759D01*
X114397738Y-127729816D01*
X114488080Y-127786582D01*
X114532721Y-127814632D01*
X114550478Y-127825789D01*
X114688860Y-127874211D01*
X114720745Y-127885368D01*
X114720750Y-127885369D01*
X114899996Y-127905565D01*
X114900000Y-127905565D01*
X114900004Y-127905565D01*
X115079249Y-127885369D01*
X115079252Y-127885368D01*
X115079255Y-127885368D01*
X115249522Y-127825789D01*
X115402262Y-127729816D01*
X115432082Y-127699996D01*
X116494435Y-127699996D01*
X116494435Y-127700003D01*
X116514630Y-127879249D01*
X116514631Y-127879254D01*
X116574211Y-128049523D01*
X116604507Y-128097738D01*
X116670184Y-128202262D01*
X116797738Y-128329816D01*
X116888080Y-128386582D01*
X116942450Y-128420745D01*
X116950478Y-128425789D01*
X116961984Y-128429815D01*
X117120745Y-128485368D01*
X117120750Y-128485369D01*
X117299996Y-128505565D01*
X117300000Y-128505565D01*
X117300004Y-128505565D01*
X117479249Y-128485369D01*
X117479252Y-128485368D01*
X117479255Y-128485368D01*
X117649522Y-128425789D01*
X117802262Y-128329816D01*
X117929816Y-128202262D01*
X118025789Y-128049522D01*
X118085368Y-127879255D01*
X118085369Y-127879249D01*
X118105565Y-127700003D01*
X118105565Y-127699996D01*
X118085369Y-127520750D01*
X118085368Y-127520745D01*
X118025789Y-127350478D01*
X117929816Y-127197738D01*
X117802262Y-127070184D01*
X117713852Y-127014632D01*
X117649523Y-126974211D01*
X117479254Y-126914631D01*
X117479249Y-126914630D01*
X117300004Y-126894435D01*
X117299996Y-126894435D01*
X117120750Y-126914630D01*
X117120745Y-126914631D01*
X116950476Y-126974211D01*
X116797737Y-127070184D01*
X116670184Y-127197737D01*
X116574211Y-127350476D01*
X116514631Y-127520745D01*
X116514630Y-127520750D01*
X116494435Y-127699996D01*
X115432082Y-127699996D01*
X115529816Y-127602262D01*
X115625789Y-127449522D01*
X115685368Y-127279255D01*
X115685369Y-127279249D01*
X115705565Y-127100003D01*
X115705565Y-127099996D01*
X115685369Y-126920750D01*
X115685368Y-126920745D01*
X115625788Y-126750475D01*
X115544272Y-126620745D01*
X115541272Y-126615970D01*
X115522272Y-126548736D01*
X115541273Y-126484028D01*
X115625789Y-126349522D01*
X115685368Y-126179255D01*
X115685369Y-126179249D01*
X115705565Y-126000003D01*
X115705565Y-125999996D01*
X115685369Y-125820750D01*
X115685368Y-125820745D01*
X115625788Y-125650476D01*
X115529815Y-125497737D01*
X115402262Y-125370184D01*
X115249523Y-125274211D01*
X115079254Y-125214631D01*
X115079249Y-125214630D01*
X114900004Y-125194435D01*
X114899996Y-125194435D01*
X114720750Y-125214630D01*
X114720745Y-125214631D01*
X114550476Y-125274211D01*
X114397737Y-125370184D01*
X114387681Y-125380241D01*
X114326358Y-125413726D01*
X114256666Y-125408742D01*
X114212319Y-125380241D01*
X114202262Y-125370184D01*
X114049523Y-125274211D01*
X113879254Y-125214631D01*
X113879249Y-125214630D01*
X113700004Y-125194435D01*
X113699996Y-125194435D01*
X113520750Y-125214630D01*
X113520745Y-125214631D01*
X113350476Y-125274211D01*
X113197737Y-125370184D01*
X113070184Y-125497737D01*
X112974211Y-125650476D01*
X112914631Y-125820745D01*
X112914630Y-125820750D01*
X112894435Y-125999996D01*
X111132074Y-125999996D01*
X111102262Y-125970184D01*
X111065376Y-125947007D01*
X110949523Y-125874211D01*
X110779254Y-125814631D01*
X110779249Y-125814630D01*
X110600004Y-125794435D01*
X110599996Y-125794435D01*
X110420750Y-125814630D01*
X110420745Y-125814631D01*
X110250476Y-125874211D01*
X110097737Y-125970184D01*
X109970184Y-126097737D01*
X109874211Y-126250476D01*
X109814631Y-126420745D01*
X109814630Y-126420750D01*
X109794435Y-126599996D01*
X107778108Y-126599996D01*
X107725789Y-126450478D01*
X107707106Y-126420745D01*
X107662354Y-126349522D01*
X107629816Y-126297738D01*
X107502262Y-126170184D01*
X107491914Y-126163682D01*
X107349523Y-126074211D01*
X107179254Y-126014631D01*
X107179249Y-126014630D01*
X107000004Y-125994435D01*
X106999996Y-125994435D01*
X106820750Y-126014630D01*
X106820745Y-126014631D01*
X106650476Y-126074211D01*
X106497737Y-126170184D01*
X106370184Y-126297737D01*
X106274211Y-126450476D01*
X106214631Y-126620745D01*
X106214630Y-126620750D01*
X106194435Y-126799996D01*
X100682517Y-126799996D01*
X100733350Y-126732093D01*
X100733354Y-126732086D01*
X100783596Y-126597379D01*
X100783598Y-126597372D01*
X100789999Y-126537844D01*
X100790000Y-126537827D01*
X100790000Y-125890000D01*
X99873012Y-125890000D01*
X99905925Y-125832993D01*
X99940000Y-125705826D01*
X99940000Y-125574174D01*
X99905925Y-125447007D01*
X99873012Y-125390000D01*
X100790000Y-125390000D01*
X100790000Y-124742172D01*
X100789999Y-124742155D01*
X100785466Y-124700000D01*
X106994540Y-124700000D01*
X107014326Y-124888256D01*
X107014327Y-124888259D01*
X107072818Y-125068277D01*
X107072821Y-125068284D01*
X107167467Y-125232216D01*
X107291694Y-125370184D01*
X107294129Y-125372888D01*
X107447265Y-125484148D01*
X107447270Y-125484151D01*
X107620192Y-125561142D01*
X107620197Y-125561144D01*
X107805354Y-125600500D01*
X107805355Y-125600500D01*
X107994644Y-125600500D01*
X107994646Y-125600500D01*
X108179803Y-125561144D01*
X108352730Y-125484151D01*
X108505871Y-125372888D01*
X108632533Y-125232216D01*
X108727179Y-125068284D01*
X108785674Y-124888256D01*
X108794950Y-124800000D01*
X116694540Y-124800000D01*
X116714326Y-124988256D01*
X116714327Y-124988259D01*
X116772818Y-125168277D01*
X116772821Y-125168284D01*
X116867467Y-125332216D01*
X116929586Y-125401206D01*
X116994129Y-125472888D01*
X117147265Y-125584148D01*
X117147270Y-125584151D01*
X117320192Y-125661142D01*
X117320197Y-125661144D01*
X117505354Y-125700500D01*
X117505355Y-125700500D01*
X117694644Y-125700500D01*
X117694646Y-125700500D01*
X117879803Y-125661144D01*
X118017142Y-125599996D01*
X121894435Y-125599996D01*
X121894435Y-125600003D01*
X121914630Y-125779249D01*
X121914631Y-125779254D01*
X121974211Y-125949523D01*
X122015122Y-126014632D01*
X122070184Y-126102262D01*
X122197738Y-126229816D01*
X122287823Y-126286420D01*
X122337817Y-126317834D01*
X122350478Y-126325789D01*
X122418306Y-126349523D01*
X122520745Y-126385368D01*
X122520750Y-126385369D01*
X122699996Y-126405565D01*
X122700000Y-126405565D01*
X122700004Y-126405565D01*
X122879249Y-126385369D01*
X122879252Y-126385368D01*
X122879255Y-126385368D01*
X123049522Y-126325789D01*
X123202262Y-126229816D01*
X123329816Y-126102262D01*
X123425789Y-125949522D01*
X123485368Y-125779255D01*
X123485369Y-125779249D01*
X123505565Y-125600003D01*
X123505565Y-125599996D01*
X123485369Y-125420750D01*
X123485368Y-125420745D01*
X123454390Y-125332214D01*
X123425789Y-125250478D01*
X123403265Y-125214632D01*
X123329815Y-125097737D01*
X123202262Y-124970184D01*
X123049523Y-124874211D01*
X122879254Y-124814631D01*
X122879249Y-124814630D01*
X122700004Y-124794435D01*
X122699996Y-124794435D01*
X122520750Y-124814630D01*
X122520745Y-124814631D01*
X122350476Y-124874211D01*
X122197737Y-124970184D01*
X122070184Y-125097737D01*
X121974211Y-125250476D01*
X121914631Y-125420745D01*
X121914630Y-125420750D01*
X121894435Y-125599996D01*
X118017142Y-125599996D01*
X118052730Y-125584151D01*
X118205871Y-125472888D01*
X118314117Y-125352668D01*
X118336287Y-125328047D01*
X118395774Y-125291398D01*
X118442321Y-125287799D01*
X118599997Y-125305565D01*
X118600000Y-125305565D01*
X118600004Y-125305565D01*
X118779249Y-125285369D01*
X118779252Y-125285368D01*
X118779255Y-125285368D01*
X118949522Y-125225789D01*
X119102262Y-125129816D01*
X119229816Y-125002262D01*
X119325789Y-124849522D01*
X119385368Y-124679255D01*
X119393671Y-124605565D01*
X119405565Y-124500003D01*
X119405565Y-124499996D01*
X119385369Y-124320750D01*
X119385368Y-124320745D01*
X119325789Y-124150478D01*
X119325188Y-124149522D01*
X119229815Y-123997737D01*
X119102262Y-123870184D01*
X118990559Y-123799996D01*
X123594435Y-123799996D01*
X123594435Y-123800003D01*
X123614630Y-123979249D01*
X123614631Y-123979254D01*
X123674211Y-124149523D01*
X123748520Y-124267784D01*
X123770184Y-124302262D01*
X123897738Y-124429816D01*
X123938867Y-124455659D01*
X124028125Y-124511744D01*
X124050478Y-124525789D01*
X124113685Y-124547906D01*
X124220745Y-124585368D01*
X124220750Y-124585369D01*
X124399996Y-124605565D01*
X124400000Y-124605565D01*
X124400004Y-124605565D01*
X124579249Y-124585369D01*
X124579252Y-124585368D01*
X124579255Y-124585368D01*
X124749522Y-124525789D01*
X124902262Y-124429816D01*
X125029816Y-124302262D01*
X125125789Y-124149522D01*
X125185368Y-123979255D01*
X125186253Y-123971401D01*
X125205565Y-123800003D01*
X125205565Y-123799996D01*
X125200495Y-123754996D01*
X126294435Y-123754996D01*
X126294435Y-123755003D01*
X126314630Y-123934249D01*
X126314631Y-123934254D01*
X126374211Y-124104523D01*
X126428072Y-124190241D01*
X126470184Y-124257262D01*
X126597738Y-124384816D01*
X126750478Y-124480789D01*
X126879078Y-124525788D01*
X126920745Y-124540368D01*
X126920750Y-124540369D01*
X127099996Y-124560565D01*
X127100000Y-124560565D01*
X127100004Y-124560565D01*
X127279249Y-124540369D01*
X127279252Y-124540368D01*
X127279255Y-124540368D01*
X127449522Y-124480789D01*
X127602262Y-124384816D01*
X127729816Y-124257262D01*
X127825789Y-124104522D01*
X127885368Y-123934255D01*
X127885369Y-123934249D01*
X127905565Y-123755003D01*
X127905565Y-123754996D01*
X127885369Y-123575750D01*
X127885368Y-123575745D01*
X127842856Y-123454254D01*
X127825789Y-123405478D01*
X127790629Y-123349522D01*
X127743804Y-123275000D01*
X127729816Y-123252738D01*
X127602262Y-123125184D01*
X127562182Y-123100000D01*
X127449523Y-123029211D01*
X127366032Y-122999996D01*
X145394435Y-122999996D01*
X145394435Y-123000003D01*
X145414630Y-123179249D01*
X145414631Y-123179254D01*
X145474211Y-123349523D01*
X145540019Y-123454255D01*
X145570184Y-123502262D01*
X145697738Y-123629816D01*
X145734169Y-123652707D01*
X145832721Y-123714632D01*
X145850478Y-123725789D01*
X145933967Y-123755003D01*
X146020745Y-123785368D01*
X146020750Y-123785369D01*
X146199996Y-123805565D01*
X146200000Y-123805565D01*
X146200004Y-123805565D01*
X146379249Y-123785369D01*
X146379252Y-123785368D01*
X146379255Y-123785368D01*
X146549522Y-123725789D01*
X146567282Y-123714630D01*
X146582902Y-123704815D01*
X146648815Y-123663398D01*
X146716051Y-123644398D01*
X146780760Y-123663399D01*
X146800478Y-123675789D01*
X146943367Y-123725788D01*
X146970745Y-123735368D01*
X146970750Y-123735369D01*
X147149996Y-123755565D01*
X147150000Y-123755565D01*
X147150004Y-123755565D01*
X147329249Y-123735369D01*
X147329252Y-123735368D01*
X147329255Y-123735368D01*
X147499522Y-123675789D01*
X147652262Y-123579816D01*
X147779816Y-123452262D01*
X147875789Y-123299522D01*
X147935368Y-123129255D01*
X147935827Y-123125184D01*
X147955565Y-122950003D01*
X147955565Y-122949996D01*
X147935369Y-122770750D01*
X147935368Y-122770745D01*
X147888339Y-122636344D01*
X147875789Y-122600478D01*
X147779816Y-122447738D01*
X147652262Y-122320184D01*
X147603639Y-122289632D01*
X147499523Y-122224211D01*
X147329254Y-122164631D01*
X147329249Y-122164630D01*
X147150004Y-122144435D01*
X147149996Y-122144435D01*
X146970750Y-122164630D01*
X146970745Y-122164631D01*
X146800474Y-122224212D01*
X146701183Y-122286600D01*
X146633946Y-122305600D01*
X146569241Y-122286600D01*
X146549525Y-122274212D01*
X146379254Y-122214631D01*
X146379249Y-122214630D01*
X146200004Y-122194435D01*
X146199996Y-122194435D01*
X146020750Y-122214630D01*
X146020745Y-122214631D01*
X145850476Y-122274211D01*
X145697737Y-122370184D01*
X145570184Y-122497737D01*
X145474211Y-122650476D01*
X145414631Y-122820745D01*
X145414630Y-122820750D01*
X145394435Y-122999996D01*
X127366032Y-122999996D01*
X127279254Y-122969631D01*
X127279249Y-122969630D01*
X127100004Y-122949435D01*
X127099996Y-122949435D01*
X126920750Y-122969630D01*
X126920745Y-122969631D01*
X126750476Y-123029211D01*
X126597737Y-123125184D01*
X126470184Y-123252737D01*
X126374211Y-123405476D01*
X126314631Y-123575745D01*
X126314630Y-123575750D01*
X126294435Y-123754996D01*
X125200495Y-123754996D01*
X125185369Y-123620750D01*
X125185368Y-123620745D01*
X125170153Y-123577262D01*
X125125789Y-123450478D01*
X125109480Y-123424523D01*
X125053489Y-123335413D01*
X125029816Y-123297738D01*
X124902262Y-123170184D01*
X124837124Y-123129255D01*
X124749523Y-123074211D01*
X124579254Y-123014631D01*
X124579249Y-123014630D01*
X124400004Y-122994435D01*
X124399996Y-122994435D01*
X124220750Y-123014630D01*
X124220745Y-123014631D01*
X124050476Y-123074211D01*
X123897737Y-123170184D01*
X123770184Y-123297737D01*
X123674211Y-123450476D01*
X123614631Y-123620745D01*
X123614630Y-123620750D01*
X123594435Y-123799996D01*
X118990559Y-123799996D01*
X118949523Y-123774211D01*
X118779254Y-123714631D01*
X118779249Y-123714630D01*
X118600004Y-123694435D01*
X118599996Y-123694435D01*
X118420750Y-123714630D01*
X118420745Y-123714631D01*
X118250476Y-123774211D01*
X118097736Y-123870185D01*
X118043342Y-123924578D01*
X117982018Y-123958062D01*
X117912326Y-123953076D01*
X117905228Y-123950175D01*
X117879807Y-123938857D01*
X117879802Y-123938855D01*
X117719651Y-123904815D01*
X117694646Y-123899500D01*
X117505354Y-123899500D01*
X117480349Y-123904815D01*
X117320197Y-123938855D01*
X117320192Y-123938857D01*
X117147270Y-124015848D01*
X117147265Y-124015851D01*
X116994129Y-124127111D01*
X116867466Y-124267785D01*
X116772821Y-124431715D01*
X116772818Y-124431722D01*
X116714327Y-124611740D01*
X116714326Y-124611744D01*
X116694540Y-124800000D01*
X108794950Y-124800000D01*
X108805460Y-124700000D01*
X108785674Y-124511744D01*
X108727179Y-124331716D01*
X108632533Y-124167784D01*
X108505871Y-124027112D01*
X108490369Y-124015849D01*
X108352734Y-123915851D01*
X108352729Y-123915848D01*
X108179807Y-123838857D01*
X108179802Y-123838855D01*
X108023180Y-123805565D01*
X107994646Y-123799500D01*
X107805354Y-123799500D01*
X107799290Y-123800789D01*
X107620197Y-123838855D01*
X107620192Y-123838857D01*
X107447270Y-123915848D01*
X107447265Y-123915851D01*
X107294129Y-124027111D01*
X107167466Y-124167785D01*
X107072821Y-124331715D01*
X107072818Y-124331722D01*
X107024384Y-124480788D01*
X107014326Y-124511744D01*
X106994540Y-124700000D01*
X100785466Y-124700000D01*
X100783598Y-124682627D01*
X100783596Y-124682620D01*
X100733354Y-124547913D01*
X100733350Y-124547906D01*
X100647190Y-124432812D01*
X100647187Y-124432809D01*
X100532093Y-124346649D01*
X100532088Y-124346646D01*
X100400528Y-124297577D01*
X100344595Y-124255705D01*
X100320178Y-124190241D01*
X100335030Y-124121968D01*
X100356175Y-124093720D01*
X100478495Y-123971401D01*
X100614035Y-123777830D01*
X100713903Y-123563663D01*
X100775063Y-123335408D01*
X100795659Y-123100000D01*
X100793471Y-123074996D01*
X105894435Y-123074996D01*
X105894435Y-123075003D01*
X105914630Y-123254249D01*
X105914631Y-123254254D01*
X105974211Y-123424523D01*
X106023058Y-123502262D01*
X106070184Y-123577262D01*
X106197738Y-123704816D01*
X106288080Y-123761582D01*
X106348426Y-123799500D01*
X106350478Y-123800789D01*
X106459270Y-123838857D01*
X106520745Y-123860368D01*
X106520750Y-123860369D01*
X106699996Y-123880565D01*
X106700000Y-123880565D01*
X106700004Y-123880565D01*
X106879249Y-123860369D01*
X106879252Y-123860368D01*
X106879255Y-123860368D01*
X107049522Y-123800789D01*
X107202262Y-123704816D01*
X107329816Y-123577262D01*
X107425789Y-123424522D01*
X107478110Y-123274996D01*
X110419435Y-123274996D01*
X110419435Y-123275003D01*
X110439630Y-123454249D01*
X110439631Y-123454254D01*
X110499211Y-123624523D01*
X110562841Y-123725789D01*
X110595184Y-123777262D01*
X110722738Y-123904816D01*
X110776914Y-123938857D01*
X110870620Y-123997737D01*
X110875478Y-124000789D01*
X110918523Y-124015851D01*
X111045745Y-124060368D01*
X111045750Y-124060369D01*
X111224996Y-124080565D01*
X111225000Y-124080565D01*
X111225004Y-124080565D01*
X111404249Y-124060369D01*
X111404252Y-124060368D01*
X111404255Y-124060368D01*
X111574522Y-124000789D01*
X111727262Y-123904816D01*
X111854816Y-123777262D01*
X111950789Y-123624522D01*
X112010368Y-123454255D01*
X112015864Y-123405476D01*
X112030565Y-123275003D01*
X112030565Y-123274996D01*
X112010369Y-123095750D01*
X112010368Y-123095745D01*
X111981985Y-123014631D01*
X111950789Y-122925478D01*
X111932106Y-122895745D01*
X111854815Y-122772737D01*
X111727262Y-122645184D01*
X111574523Y-122549211D01*
X111404254Y-122489631D01*
X111404249Y-122489630D01*
X111225004Y-122469435D01*
X111224996Y-122469435D01*
X111045750Y-122489630D01*
X111045745Y-122489631D01*
X110875476Y-122549211D01*
X110722737Y-122645184D01*
X110595184Y-122772737D01*
X110499211Y-122925476D01*
X110439631Y-123095745D01*
X110439630Y-123095750D01*
X110419435Y-123274996D01*
X107478110Y-123274996D01*
X107485368Y-123254255D01*
X107485539Y-123252737D01*
X107505565Y-123075003D01*
X107505565Y-123074996D01*
X107485369Y-122895750D01*
X107485368Y-122895745D01*
X107442326Y-122772738D01*
X107425789Y-122725478D01*
X107329816Y-122572738D01*
X107202262Y-122445184D01*
X107165634Y-122422169D01*
X107049523Y-122349211D01*
X106879254Y-122289631D01*
X106879249Y-122289630D01*
X106700004Y-122269435D01*
X106699996Y-122269435D01*
X106520750Y-122289630D01*
X106520745Y-122289631D01*
X106350476Y-122349211D01*
X106197737Y-122445184D01*
X106070184Y-122572737D01*
X105974211Y-122725476D01*
X105914631Y-122895745D01*
X105914630Y-122895750D01*
X105894435Y-123074996D01*
X100793471Y-123074996D01*
X100775063Y-122864592D01*
X100717692Y-122650478D01*
X100713905Y-122636344D01*
X100713904Y-122636343D01*
X100713903Y-122636337D01*
X100614035Y-122422171D01*
X100608425Y-122414158D01*
X100478494Y-122228597D01*
X100311402Y-122061506D01*
X100311396Y-122061501D01*
X100125842Y-121931575D01*
X100082217Y-121876998D01*
X100075023Y-121807500D01*
X100106546Y-121745145D01*
X100125842Y-121728425D01*
X100205157Y-121672888D01*
X100311401Y-121598495D01*
X100478495Y-121431401D01*
X100614035Y-121237830D01*
X100713903Y-121023663D01*
X100720243Y-121000000D01*
X107094540Y-121000000D01*
X107114326Y-121188256D01*
X107114327Y-121188259D01*
X107172818Y-121368277D01*
X107172821Y-121368284D01*
X107267467Y-121532216D01*
X107327145Y-121598495D01*
X107394129Y-121672888D01*
X107547265Y-121784148D01*
X107547270Y-121784151D01*
X107720192Y-121861142D01*
X107720197Y-121861144D01*
X107905354Y-121900500D01*
X107905355Y-121900500D01*
X108094644Y-121900500D01*
X108094646Y-121900500D01*
X108279803Y-121861144D01*
X108452730Y-121784151D01*
X108605871Y-121672888D01*
X108732533Y-121532216D01*
X108751135Y-121499996D01*
X121794435Y-121499996D01*
X121794435Y-121500003D01*
X121814630Y-121679249D01*
X121814631Y-121679254D01*
X121874211Y-121849523D01*
X121915262Y-121914855D01*
X121970184Y-122002262D01*
X122097738Y-122129816D01*
X122188080Y-122186582D01*
X122247966Y-122224211D01*
X122250478Y-122225789D01*
X122258509Y-122228599D01*
X122420745Y-122285368D01*
X122420750Y-122285369D01*
X122599996Y-122305565D01*
X122600000Y-122305565D01*
X122600004Y-122305565D01*
X122779249Y-122285369D01*
X122779252Y-122285368D01*
X122779255Y-122285368D01*
X122949522Y-122225789D01*
X123102262Y-122129816D01*
X123229816Y-122002262D01*
X123325789Y-121849522D01*
X123385368Y-121679255D01*
X123385369Y-121679249D01*
X123405565Y-121500003D01*
X123405565Y-121499996D01*
X123385369Y-121320750D01*
X123385368Y-121320745D01*
X123325788Y-121150476D01*
X123246106Y-121023663D01*
X123229816Y-120997738D01*
X123102262Y-120870184D01*
X123031608Y-120825789D01*
X122949523Y-120774211D01*
X122779254Y-120714631D01*
X122779249Y-120714630D01*
X122600004Y-120694435D01*
X122599996Y-120694435D01*
X122420750Y-120714630D01*
X122420745Y-120714631D01*
X122250476Y-120774211D01*
X122097737Y-120870184D01*
X121970184Y-120997737D01*
X121874211Y-121150476D01*
X121814631Y-121320745D01*
X121814630Y-121320750D01*
X121794435Y-121499996D01*
X108751135Y-121499996D01*
X108827179Y-121368284D01*
X108885674Y-121188256D01*
X108905460Y-121000000D01*
X108885674Y-120811744D01*
X108827179Y-120631716D01*
X108732533Y-120467784D01*
X108605871Y-120327112D01*
X108602403Y-120324592D01*
X108452734Y-120215851D01*
X108452729Y-120215848D01*
X108279807Y-120138857D01*
X108279802Y-120138855D01*
X108097012Y-120100003D01*
X108094646Y-120099500D01*
X107905354Y-120099500D01*
X107902988Y-120100003D01*
X107720197Y-120138855D01*
X107720192Y-120138857D01*
X107547270Y-120215848D01*
X107547265Y-120215851D01*
X107394129Y-120327111D01*
X107267466Y-120467785D01*
X107172821Y-120631715D01*
X107172818Y-120631722D01*
X107119634Y-120795408D01*
X107114326Y-120811744D01*
X107094540Y-121000000D01*
X100720243Y-121000000D01*
X100775063Y-120795408D01*
X100795659Y-120560000D01*
X100775063Y-120324592D01*
X100769204Y-120302725D01*
X100770867Y-120232876D01*
X100810030Y-120175014D01*
X100874258Y-120147510D01*
X100929934Y-120153591D01*
X100949566Y-120160461D01*
X101020740Y-120185367D01*
X101020750Y-120185369D01*
X101199996Y-120205565D01*
X101200000Y-120205565D01*
X101200004Y-120205565D01*
X101379249Y-120185369D01*
X101379252Y-120185368D01*
X101379255Y-120185368D01*
X101549522Y-120125789D01*
X101702262Y-120029816D01*
X101829816Y-119902262D01*
X101846948Y-119874996D01*
X114294435Y-119874996D01*
X114294435Y-119875003D01*
X114314630Y-120054249D01*
X114314631Y-120054254D01*
X114374211Y-120224523D01*
X114470184Y-120377262D01*
X114597738Y-120504816D01*
X114750478Y-120600789D01*
X114920745Y-120660368D01*
X114920750Y-120660369D01*
X115099996Y-120680565D01*
X115100000Y-120680565D01*
X115100004Y-120680565D01*
X115279249Y-120660369D01*
X115279252Y-120660368D01*
X115279255Y-120660368D01*
X115449522Y-120600789D01*
X115602262Y-120504816D01*
X115729816Y-120377262D01*
X115825789Y-120224522D01*
X115885368Y-120054255D01*
X115885369Y-120054249D01*
X115902749Y-119899996D01*
X117144435Y-119899996D01*
X117144435Y-119900003D01*
X117164630Y-120079249D01*
X117164631Y-120079254D01*
X117224211Y-120249523D01*
X117271383Y-120324596D01*
X117320184Y-120402262D01*
X117447738Y-120529816D01*
X117600478Y-120625789D01*
X117617434Y-120631722D01*
X117770745Y-120685368D01*
X117770750Y-120685369D01*
X117949996Y-120705565D01*
X117950000Y-120705565D01*
X117950004Y-120705565D01*
X118129249Y-120685369D01*
X118129252Y-120685368D01*
X118129255Y-120685368D01*
X118299522Y-120625789D01*
X118452262Y-120529816D01*
X118579816Y-120402262D01*
X118675789Y-120249522D01*
X118735368Y-120079255D01*
X118736086Y-120072888D01*
X118743643Y-120005814D01*
X118770709Y-119941400D01*
X118828304Y-119901845D01*
X118898141Y-119899707D01*
X118932836Y-119914704D01*
X118950475Y-119925788D01*
X119120745Y-119985368D01*
X119120750Y-119985369D01*
X119299996Y-120005565D01*
X119300000Y-120005565D01*
X119300004Y-120005565D01*
X119479249Y-119985369D01*
X119479252Y-119985368D01*
X119479255Y-119985368D01*
X119649522Y-119925789D01*
X119802262Y-119829816D01*
X119929816Y-119702262D01*
X120025789Y-119549522D01*
X120078109Y-119400000D01*
X131094540Y-119400000D01*
X131114326Y-119588256D01*
X131115491Y-119591842D01*
X131172818Y-119768277D01*
X131172821Y-119768284D01*
X131267467Y-119932216D01*
X131355346Y-120029815D01*
X131394129Y-120072888D01*
X131547265Y-120184148D01*
X131547270Y-120184151D01*
X131720192Y-120261142D01*
X131720197Y-120261144D01*
X131905354Y-120300500D01*
X131905355Y-120300500D01*
X132094644Y-120300500D01*
X132094646Y-120300500D01*
X132279803Y-120261144D01*
X132452730Y-120184151D01*
X132605871Y-120072888D01*
X132732533Y-119932216D01*
X132827179Y-119768284D01*
X132885674Y-119588256D01*
X132905460Y-119400000D01*
X132885674Y-119211744D01*
X132827179Y-119031716D01*
X132779998Y-118949996D01*
X134994435Y-118949996D01*
X134994435Y-118950003D01*
X135014630Y-119129249D01*
X135014631Y-119129254D01*
X135074211Y-119299523D01*
X135173889Y-119458158D01*
X135171449Y-119459690D01*
X135192951Y-119512443D01*
X135180156Y-119581132D01*
X135173450Y-119591566D01*
X135173889Y-119591842D01*
X135074211Y-119750476D01*
X135014631Y-119920745D01*
X135014630Y-119920750D01*
X134994435Y-120099996D01*
X134994435Y-120100003D01*
X135014630Y-120279249D01*
X135014631Y-120279254D01*
X135074211Y-120449523D01*
X135124662Y-120529815D01*
X135170184Y-120602262D01*
X135297738Y-120729816D01*
X135368392Y-120774211D01*
X135428125Y-120811744D01*
X135450478Y-120825789D01*
X135577352Y-120870184D01*
X135620745Y-120885368D01*
X135620750Y-120885369D01*
X135799996Y-120905565D01*
X135800000Y-120905565D01*
X135800004Y-120905565D01*
X135979249Y-120885369D01*
X135979252Y-120885368D01*
X135979255Y-120885368D01*
X136149522Y-120825789D01*
X136302262Y-120729816D01*
X136429816Y-120602262D01*
X136525789Y-120449522D01*
X136585368Y-120279255D01*
X136592512Y-120215849D01*
X136605565Y-120100003D01*
X136605565Y-120099996D01*
X136585369Y-119920750D01*
X136585368Y-119920745D01*
X136583254Y-119914704D01*
X136525789Y-119750478D01*
X136525188Y-119749522D01*
X136426111Y-119591842D01*
X136428563Y-119590300D01*
X136407057Y-119537643D01*
X136419804Y-119468946D01*
X136426557Y-119458438D01*
X136426111Y-119458158D01*
X136429816Y-119452262D01*
X136525789Y-119299522D01*
X136585368Y-119129255D01*
X136587016Y-119114630D01*
X136605565Y-118950003D01*
X136605565Y-118949996D01*
X136585369Y-118770750D01*
X136585368Y-118770745D01*
X136559854Y-118697830D01*
X136525789Y-118600478D01*
X136429816Y-118447738D01*
X136302262Y-118320184D01*
X136278684Y-118305369D01*
X136149523Y-118224211D01*
X135979254Y-118164631D01*
X135979249Y-118164630D01*
X135800004Y-118144435D01*
X135799996Y-118144435D01*
X135620750Y-118164630D01*
X135620745Y-118164631D01*
X135450476Y-118224211D01*
X135297737Y-118320184D01*
X135170184Y-118447737D01*
X135074211Y-118600476D01*
X135014631Y-118770745D01*
X135014630Y-118770750D01*
X134994435Y-118949996D01*
X132779998Y-118949996D01*
X132732533Y-118867784D01*
X132605871Y-118727112D01*
X132605870Y-118727111D01*
X132452734Y-118615851D01*
X132452729Y-118615848D01*
X132279807Y-118538857D01*
X132279802Y-118538855D01*
X132134001Y-118507865D01*
X132094646Y-118499500D01*
X131905354Y-118499500D01*
X131872897Y-118506398D01*
X131720197Y-118538855D01*
X131720192Y-118538857D01*
X131547270Y-118615848D01*
X131547265Y-118615851D01*
X131394129Y-118727111D01*
X131267466Y-118867785D01*
X131172821Y-119031715D01*
X131172818Y-119031722D01*
X131120080Y-119194035D01*
X131114326Y-119211744D01*
X131094540Y-119400000D01*
X120078109Y-119400000D01*
X120085368Y-119379255D01*
X120085864Y-119374855D01*
X120105565Y-119200003D01*
X120105565Y-119199996D01*
X120085369Y-119020750D01*
X120085368Y-119020745D01*
X120042326Y-118897738D01*
X120025789Y-118850478D01*
X119929816Y-118697738D01*
X119802262Y-118570184D01*
X119769377Y-118549521D01*
X119649523Y-118474211D01*
X119479254Y-118414631D01*
X119479249Y-118414630D01*
X119300004Y-118394435D01*
X119299996Y-118394435D01*
X119120750Y-118414630D01*
X119120745Y-118414631D01*
X118950476Y-118474211D01*
X118797737Y-118570184D01*
X118670184Y-118697737D01*
X118574211Y-118850476D01*
X118514631Y-119020745D01*
X118514631Y-119020748D01*
X118506356Y-119094187D01*
X118479289Y-119158600D01*
X118421694Y-119198155D01*
X118351857Y-119200292D01*
X118317164Y-119185296D01*
X118299523Y-119174211D01*
X118129254Y-119114631D01*
X118129249Y-119114630D01*
X117950004Y-119094435D01*
X117949996Y-119094435D01*
X117770750Y-119114630D01*
X117770745Y-119114631D01*
X117600476Y-119174211D01*
X117447737Y-119270184D01*
X117320184Y-119397737D01*
X117224211Y-119550476D01*
X117164631Y-119720745D01*
X117164630Y-119720750D01*
X117144435Y-119899996D01*
X115902749Y-119899996D01*
X115905565Y-119875003D01*
X115905565Y-119874996D01*
X115885369Y-119695750D01*
X115885368Y-119695745D01*
X115825789Y-119525478D01*
X115729816Y-119372738D01*
X115602262Y-119245184D01*
X115549043Y-119211744D01*
X115449523Y-119149211D01*
X115279254Y-119089631D01*
X115279249Y-119089630D01*
X115100004Y-119069435D01*
X115099996Y-119069435D01*
X114920750Y-119089630D01*
X114920745Y-119089631D01*
X114750476Y-119149211D01*
X114597737Y-119245184D01*
X114470184Y-119372737D01*
X114374211Y-119525476D01*
X114314631Y-119695745D01*
X114314630Y-119695750D01*
X114294435Y-119874996D01*
X101846948Y-119874996D01*
X101925789Y-119749522D01*
X101985368Y-119579255D01*
X101985369Y-119579249D01*
X102005565Y-119400003D01*
X102005565Y-119399996D01*
X101985369Y-119220750D01*
X101985368Y-119220745D01*
X101969085Y-119174211D01*
X101925789Y-119050478D01*
X101913999Y-119031715D01*
X101862652Y-118949996D01*
X101829816Y-118897738D01*
X101702262Y-118770184D01*
X101549523Y-118674211D01*
X101379254Y-118614631D01*
X101379249Y-118614630D01*
X101200004Y-118594435D01*
X101199996Y-118594435D01*
X101020750Y-118614630D01*
X101020742Y-118614632D01*
X100858748Y-118671316D01*
X100788969Y-118674877D01*
X100728342Y-118640148D01*
X100696115Y-118578154D01*
X100702521Y-118508579D01*
X100705393Y-118501912D01*
X100713903Y-118483663D01*
X100775063Y-118255408D01*
X100795659Y-118020000D01*
X100775063Y-117784592D01*
X100713903Y-117556337D01*
X100614035Y-117342171D01*
X100608425Y-117334158D01*
X100478494Y-117148597D01*
X100311402Y-116981506D01*
X100311396Y-116981501D01*
X100125842Y-116851575D01*
X100082217Y-116796998D01*
X100075023Y-116727500D01*
X100106546Y-116665145D01*
X100125842Y-116648425D01*
X100193513Y-116601041D01*
X100195005Y-116599996D01*
X110094435Y-116599996D01*
X110094435Y-116600003D01*
X110114630Y-116779249D01*
X110114631Y-116779254D01*
X110174211Y-116949523D01*
X110222963Y-117027111D01*
X110270184Y-117102262D01*
X110397738Y-117229816D01*
X110435105Y-117253295D01*
X110542450Y-117320745D01*
X110550478Y-117325789D01*
X110687054Y-117373579D01*
X110720745Y-117385368D01*
X110720750Y-117385369D01*
X110784317Y-117392531D01*
X110848732Y-117419597D01*
X110888287Y-117477191D01*
X110894435Y-117515751D01*
X110894435Y-117520003D01*
X110914630Y-117699249D01*
X110914631Y-117699254D01*
X110974211Y-117869523D01*
X111015585Y-117935369D01*
X111070184Y-118022262D01*
X111197738Y-118149816D01*
X111221316Y-118164631D01*
X111328876Y-118232216D01*
X111350478Y-118245789D01*
X111436985Y-118276059D01*
X111520745Y-118305368D01*
X111520750Y-118305369D01*
X111699996Y-118325565D01*
X111700000Y-118325565D01*
X111700004Y-118325565D01*
X111879249Y-118305369D01*
X111879252Y-118305368D01*
X111879255Y-118305368D01*
X112049522Y-118245789D01*
X112202262Y-118149816D01*
X112329816Y-118022262D01*
X112425789Y-117869522D01*
X112485107Y-117700000D01*
X120894540Y-117700000D01*
X120914326Y-117888256D01*
X120914327Y-117888259D01*
X120972818Y-118068277D01*
X120972821Y-118068284D01*
X121067467Y-118232216D01*
X121146674Y-118320184D01*
X121194129Y-118372888D01*
X121347265Y-118484148D01*
X121347270Y-118484151D01*
X121520192Y-118561142D01*
X121520197Y-118561144D01*
X121705354Y-118600500D01*
X121705355Y-118600500D01*
X121894644Y-118600500D01*
X121894646Y-118600500D01*
X122079803Y-118561144D01*
X122252730Y-118484151D01*
X122405871Y-118372888D01*
X122532533Y-118232216D01*
X122627179Y-118068284D01*
X122685674Y-117888256D01*
X122705460Y-117700000D01*
X122685674Y-117511744D01*
X122627179Y-117331716D01*
X122532533Y-117167784D01*
X122405871Y-117027112D01*
X122392969Y-117017738D01*
X122252734Y-116915851D01*
X122252729Y-116915848D01*
X122079807Y-116838857D01*
X122079802Y-116838855D01*
X121907640Y-116802262D01*
X121894646Y-116799500D01*
X121705354Y-116799500D01*
X121692360Y-116802262D01*
X121520197Y-116838855D01*
X121520192Y-116838857D01*
X121347270Y-116915848D01*
X121347265Y-116915851D01*
X121194129Y-117027111D01*
X121067466Y-117167785D01*
X120972821Y-117331715D01*
X120972818Y-117331722D01*
X120918297Y-117499522D01*
X120914326Y-117511744D01*
X120894540Y-117700000D01*
X112485107Y-117700000D01*
X112485368Y-117699255D01*
X112485539Y-117697737D01*
X112505565Y-117520003D01*
X112505565Y-117519996D01*
X112485369Y-117340750D01*
X112485368Y-117340745D01*
X112446552Y-117229815D01*
X112425789Y-117170478D01*
X112424630Y-117168634D01*
X112335705Y-117027111D01*
X112329816Y-117017738D01*
X112202262Y-116890184D01*
X112189654Y-116882262D01*
X112049523Y-116794211D01*
X111879254Y-116734631D01*
X111879250Y-116734630D01*
X111815681Y-116727468D01*
X111751267Y-116700401D01*
X111711712Y-116642806D01*
X111705565Y-116604248D01*
X111705565Y-116599996D01*
X111685369Y-116420750D01*
X111685366Y-116420737D01*
X111666022Y-116365455D01*
X111662460Y-116295676D01*
X111697188Y-116235049D01*
X111759182Y-116202821D01*
X111783063Y-116200500D01*
X111894644Y-116200500D01*
X111894646Y-116200500D01*
X112079803Y-116161144D01*
X112252730Y-116084151D01*
X112405871Y-115972888D01*
X112532533Y-115832216D01*
X112627179Y-115668284D01*
X112685674Y-115488256D01*
X112705460Y-115300000D01*
X112685674Y-115111744D01*
X112627179Y-114931716D01*
X112532533Y-114767784D01*
X112405871Y-114627112D01*
X112388694Y-114614632D01*
X112252734Y-114515851D01*
X112252729Y-114515848D01*
X112079807Y-114438857D01*
X112079802Y-114438855D01*
X111907640Y-114402262D01*
X111894646Y-114399500D01*
X111705354Y-114399500D01*
X111692360Y-114402262D01*
X111520197Y-114438855D01*
X111520192Y-114438857D01*
X111347270Y-114515848D01*
X111347265Y-114515851D01*
X111194129Y-114627111D01*
X111067466Y-114767785D01*
X110972821Y-114931715D01*
X110972818Y-114931722D01*
X110914327Y-115111740D01*
X110914326Y-115111744D01*
X110894540Y-115300000D01*
X110914326Y-115488256D01*
X110914327Y-115488259D01*
X110962831Y-115637540D01*
X110964826Y-115707381D01*
X110928746Y-115767214D01*
X110866045Y-115798042D01*
X110858784Y-115799078D01*
X110720749Y-115814630D01*
X110720745Y-115814631D01*
X110550476Y-115874211D01*
X110397737Y-115970184D01*
X110270184Y-116097737D01*
X110174211Y-116250476D01*
X110114631Y-116420745D01*
X110114630Y-116420750D01*
X110094435Y-116599996D01*
X100195005Y-116599996D01*
X100311401Y-116518495D01*
X100478495Y-116351401D01*
X100614035Y-116157830D01*
X100713903Y-115943663D01*
X100775063Y-115715408D01*
X100795659Y-115480000D01*
X100795444Y-115477548D01*
X100793595Y-115456411D01*
X100784559Y-115353133D01*
X100798325Y-115284636D01*
X100846940Y-115234453D01*
X100914969Y-115218519D01*
X100949042Y-115225287D01*
X101120737Y-115285366D01*
X101120743Y-115285367D01*
X101120745Y-115285368D01*
X101120746Y-115285368D01*
X101120750Y-115285369D01*
X101192712Y-115293476D01*
X101247391Y-115299637D01*
X101311805Y-115326703D01*
X101350549Y-115381902D01*
X101374209Y-115449518D01*
X101374210Y-115449522D01*
X101458221Y-115583223D01*
X101470184Y-115602262D01*
X101597738Y-115729816D01*
X101657257Y-115767214D01*
X101742450Y-115820745D01*
X101750478Y-115825789D01*
X101865049Y-115865879D01*
X101920745Y-115885368D01*
X101920750Y-115885369D01*
X102099996Y-115905565D01*
X102100000Y-115905565D01*
X102100004Y-115905565D01*
X102279251Y-115885369D01*
X102279253Y-115885368D01*
X102279255Y-115885368D01*
X102334950Y-115865878D01*
X102404728Y-115862316D01*
X102465356Y-115897045D01*
X102468093Y-115900171D01*
X102470184Y-115902262D01*
X102597738Y-116029816D01*
X102661983Y-116070184D01*
X102742450Y-116120745D01*
X102750478Y-116125789D01*
X102851511Y-116161142D01*
X102920745Y-116185368D01*
X102920750Y-116185369D01*
X103099996Y-116205565D01*
X103100000Y-116205565D01*
X103100004Y-116205565D01*
X103279249Y-116185369D01*
X103279252Y-116185368D01*
X103279255Y-116185368D01*
X103449522Y-116125789D01*
X103602262Y-116029816D01*
X103729816Y-115902262D01*
X103825789Y-115749522D01*
X103878109Y-115600000D01*
X105994540Y-115600000D01*
X106014326Y-115788256D01*
X106014327Y-115788259D01*
X106072818Y-115968277D01*
X106072821Y-115968284D01*
X106167467Y-116132216D01*
X106233511Y-116205565D01*
X106294129Y-116272888D01*
X106447265Y-116384148D01*
X106447270Y-116384151D01*
X106620192Y-116461142D01*
X106620197Y-116461144D01*
X106805354Y-116500500D01*
X106805355Y-116500500D01*
X106994644Y-116500500D01*
X106994646Y-116500500D01*
X107179803Y-116461144D01*
X107352730Y-116384151D01*
X107505871Y-116272888D01*
X107632533Y-116132216D01*
X107727179Y-115968284D01*
X107785674Y-115788256D01*
X107805460Y-115600000D01*
X107785674Y-115411744D01*
X107727179Y-115231716D01*
X107632533Y-115067784D01*
X107505871Y-114927112D01*
X107505870Y-114927111D01*
X107352734Y-114815851D01*
X107352729Y-114815848D01*
X107179807Y-114738857D01*
X107179802Y-114738855D01*
X107023180Y-114705565D01*
X106994646Y-114699500D01*
X106805354Y-114699500D01*
X106776820Y-114705565D01*
X106620197Y-114738855D01*
X106620192Y-114738857D01*
X106447270Y-114815848D01*
X106447265Y-114815851D01*
X106294129Y-114927111D01*
X106167466Y-115067785D01*
X106072821Y-115231715D01*
X106072818Y-115231722D01*
X106018143Y-115399996D01*
X106014326Y-115411744D01*
X105994540Y-115600000D01*
X103878109Y-115600000D01*
X103885368Y-115579255D01*
X103885369Y-115579249D01*
X103905565Y-115400003D01*
X103905565Y-115399996D01*
X103885369Y-115220750D01*
X103885368Y-115220745D01*
X103860826Y-115150608D01*
X103825789Y-115050478D01*
X103825489Y-115050001D01*
X103755380Y-114938423D01*
X103729816Y-114897738D01*
X103602262Y-114770184D01*
X103598442Y-114767784D01*
X103449523Y-114674211D01*
X103279254Y-114614631D01*
X103279249Y-114614630D01*
X103100004Y-114594435D01*
X103099996Y-114594435D01*
X102920746Y-114614631D01*
X102920745Y-114614631D01*
X102865047Y-114634120D01*
X102795268Y-114637681D01*
X102734641Y-114602951D01*
X102731911Y-114599833D01*
X102602262Y-114470184D01*
X102449523Y-114374211D01*
X102279254Y-114314631D01*
X102279250Y-114314630D01*
X102152607Y-114300361D01*
X102088193Y-114273294D01*
X102049449Y-114218095D01*
X102027569Y-114155565D01*
X102025789Y-114150478D01*
X102025188Y-114149522D01*
X101949489Y-114029048D01*
X101929816Y-113997738D01*
X101802262Y-113870184D01*
X101649523Y-113774211D01*
X101479254Y-113714631D01*
X101479249Y-113714630D01*
X101300004Y-113694435D01*
X101299996Y-113694435D01*
X101120750Y-113714630D01*
X101120745Y-113714631D01*
X100950476Y-113774211D01*
X100797737Y-113870184D01*
X100670184Y-113997737D01*
X100574211Y-114150476D01*
X100514631Y-114320745D01*
X100514630Y-114320749D01*
X100510523Y-114357207D01*
X100483456Y-114421621D01*
X100425861Y-114461176D01*
X100356024Y-114463313D01*
X100316873Y-114443128D01*
X100315836Y-114444610D01*
X100125842Y-114311575D01*
X100082217Y-114256998D01*
X100075023Y-114187500D01*
X100106546Y-114125145D01*
X100125842Y-114108425D01*
X100243858Y-114025789D01*
X100311401Y-113978495D01*
X100478495Y-113811401D01*
X100614035Y-113617830D01*
X100668982Y-113499996D01*
X105194435Y-113499996D01*
X105194435Y-113500003D01*
X105214630Y-113679249D01*
X105214631Y-113679254D01*
X105274211Y-113849523D01*
X105337347Y-113950003D01*
X105370184Y-114002262D01*
X105497738Y-114129816D01*
X105546167Y-114160246D01*
X105642776Y-114220950D01*
X105650478Y-114225789D01*
X105789152Y-114274313D01*
X105820745Y-114285368D01*
X105820750Y-114285369D01*
X105999996Y-114305565D01*
X106000000Y-114305565D01*
X106000004Y-114305565D01*
X106179249Y-114285369D01*
X106179252Y-114285368D01*
X106179255Y-114285368D01*
X106349522Y-114225789D01*
X106502262Y-114129816D01*
X106629816Y-114002262D01*
X106725789Y-113849522D01*
X106743119Y-113799996D01*
X112894435Y-113799996D01*
X112894435Y-113800003D01*
X112914630Y-113979249D01*
X112914631Y-113979254D01*
X112974211Y-114149523D01*
X113064242Y-114292806D01*
X113070184Y-114302262D01*
X113197738Y-114429816D01*
X113241953Y-114457598D01*
X113334661Y-114515851D01*
X113350478Y-114525789D01*
X113477352Y-114570184D01*
X113520745Y-114585368D01*
X113520750Y-114585369D01*
X113699996Y-114605565D01*
X113700000Y-114605565D01*
X113700004Y-114605565D01*
X113879249Y-114585369D01*
X113879252Y-114585368D01*
X113879255Y-114585368D01*
X113879256Y-114585367D01*
X113879259Y-114585367D01*
X113922648Y-114570184D01*
X114020012Y-114536114D01*
X114089788Y-114532552D01*
X114126935Y-114548161D01*
X114162876Y-114570745D01*
X114250475Y-114625788D01*
X114420745Y-114685368D01*
X114420750Y-114685369D01*
X114599996Y-114705565D01*
X114600000Y-114705565D01*
X114600004Y-114705565D01*
X114779249Y-114685369D01*
X114779252Y-114685368D01*
X114779255Y-114685368D01*
X114949522Y-114625789D01*
X115102262Y-114529816D01*
X115201858Y-114430219D01*
X115263177Y-114396737D01*
X115303420Y-114394683D01*
X115399998Y-114405565D01*
X115400000Y-114405565D01*
X115400004Y-114405565D01*
X115579249Y-114385369D01*
X115579252Y-114385368D01*
X115579255Y-114385368D01*
X115749522Y-114325789D01*
X115902262Y-114229816D01*
X116029816Y-114102262D01*
X116125789Y-113949522D01*
X116185368Y-113779255D01*
X116185369Y-113779249D01*
X116205565Y-113600003D01*
X116205565Y-113599996D01*
X116185369Y-113420750D01*
X116185368Y-113420745D01*
X116150180Y-113320184D01*
X116143116Y-113299996D01*
X117394435Y-113299996D01*
X117394435Y-113300003D01*
X117414630Y-113479249D01*
X117414631Y-113479254D01*
X117474211Y-113649523D01*
X117550384Y-113770750D01*
X117570184Y-113802262D01*
X117697738Y-113929816D01*
X117788080Y-113986582D01*
X117805833Y-113997737D01*
X117850478Y-114025789D01*
X118002009Y-114078812D01*
X118020745Y-114085368D01*
X118020750Y-114085369D01*
X118199996Y-114105565D01*
X118200000Y-114105565D01*
X118200004Y-114105565D01*
X118379249Y-114085369D01*
X118379252Y-114085368D01*
X118379255Y-114085368D01*
X118549522Y-114025789D01*
X118702262Y-113929816D01*
X118829816Y-113802262D01*
X118925789Y-113649522D01*
X118985368Y-113479255D01*
X118985369Y-113479249D01*
X119005565Y-113300003D01*
X119005565Y-113299996D01*
X118985369Y-113120750D01*
X118985368Y-113120745D01*
X118978629Y-113101487D01*
X118925789Y-112950478D01*
X118829816Y-112797738D01*
X118732078Y-112700000D01*
X120794540Y-112700000D01*
X120814326Y-112888256D01*
X120814327Y-112888259D01*
X120872818Y-113068277D01*
X120872821Y-113068284D01*
X120967467Y-113232216D01*
X121073523Y-113350003D01*
X121094129Y-113372888D01*
X121247265Y-113484148D01*
X121247270Y-113484151D01*
X121420192Y-113561142D01*
X121420197Y-113561144D01*
X121605354Y-113600500D01*
X121605355Y-113600500D01*
X121794644Y-113600500D01*
X121794646Y-113600500D01*
X121979803Y-113561144D01*
X122117142Y-113499996D01*
X124594435Y-113499996D01*
X124594435Y-113500003D01*
X124614630Y-113679249D01*
X124614631Y-113679254D01*
X124674211Y-113849523D01*
X124737347Y-113950003D01*
X124770184Y-114002262D01*
X124897738Y-114129816D01*
X124946167Y-114160246D01*
X125050479Y-114225790D01*
X125070966Y-114232959D01*
X125127741Y-114273681D01*
X125153488Y-114338634D01*
X125140031Y-114407196D01*
X125091643Y-114457598D01*
X125070966Y-114467041D01*
X125050479Y-114474209D01*
X124897737Y-114570184D01*
X124770184Y-114697737D01*
X124674211Y-114850476D01*
X124614631Y-115020745D01*
X124614630Y-115020750D01*
X124594435Y-115199996D01*
X124594435Y-115200003D01*
X124614630Y-115379249D01*
X124614631Y-115379254D01*
X124674211Y-115549523D01*
X124748830Y-115668277D01*
X124770184Y-115702262D01*
X124897738Y-115829816D01*
X124955132Y-115865879D01*
X125032721Y-115914632D01*
X125050478Y-115925789D01*
X125171902Y-115968277D01*
X125220745Y-115985368D01*
X125220750Y-115985369D01*
X125399996Y-116005565D01*
X125400000Y-116005565D01*
X125400004Y-116005565D01*
X125579249Y-115985369D01*
X125579252Y-115985368D01*
X125579255Y-115985368D01*
X125749522Y-115925789D01*
X125902262Y-115829816D01*
X126029816Y-115702262D01*
X126095007Y-115598510D01*
X126147341Y-115552221D01*
X126216394Y-115541573D01*
X126280243Y-115569948D01*
X126304992Y-115598509D01*
X126370184Y-115702262D01*
X126497738Y-115829816D01*
X126555132Y-115865879D01*
X126632721Y-115914632D01*
X126650478Y-115925789D01*
X126771902Y-115968277D01*
X126820745Y-115985368D01*
X126820750Y-115985369D01*
X126999996Y-116005565D01*
X127000000Y-116005565D01*
X127000004Y-116005565D01*
X127179249Y-115985369D01*
X127179252Y-115985368D01*
X127179255Y-115985368D01*
X127349522Y-115925789D01*
X127502262Y-115829816D01*
X127629816Y-115702262D01*
X127725789Y-115549522D01*
X127785368Y-115379255D01*
X127794339Y-115299637D01*
X127805565Y-115200003D01*
X127805565Y-115199996D01*
X127788664Y-115049997D01*
X129844436Y-115049997D01*
X129844436Y-115050004D01*
X129864631Y-115229250D01*
X129864632Y-115229255D01*
X129924212Y-115399524D01*
X129981179Y-115490186D01*
X130020185Y-115552263D01*
X130147739Y-115679817D01*
X130300479Y-115775790D01*
X130461730Y-115832214D01*
X130470746Y-115835369D01*
X130470751Y-115835370D01*
X130649997Y-115855566D01*
X130650001Y-115855566D01*
X130650005Y-115855566D01*
X130829250Y-115835370D01*
X130829253Y-115835369D01*
X130829256Y-115835369D01*
X130999523Y-115775790D01*
X131152263Y-115679817D01*
X131279817Y-115552263D01*
X131375790Y-115399523D01*
X131435369Y-115229256D01*
X131435760Y-115225789D01*
X131455566Y-115050004D01*
X131455566Y-115049997D01*
X131435370Y-114870751D01*
X131435369Y-114870746D01*
X131426352Y-114844977D01*
X131375790Y-114700479D01*
X131279817Y-114547739D01*
X131152263Y-114420185D01*
X131152260Y-114420183D01*
X131113298Y-114395701D01*
X131067007Y-114343366D01*
X131056360Y-114274313D01*
X131084735Y-114210464D01*
X131113297Y-114185716D01*
X131202262Y-114129816D01*
X131329816Y-114002262D01*
X131425789Y-113849522D01*
X131485368Y-113679255D01*
X131485369Y-113679249D01*
X131505565Y-113500003D01*
X131505565Y-113499996D01*
X131485369Y-113320750D01*
X131485368Y-113320745D01*
X131478108Y-113299996D01*
X131425789Y-113150478D01*
X131424092Y-113147778D01*
X131340431Y-113014632D01*
X131329816Y-112997738D01*
X131202262Y-112870184D01*
X131178996Y-112855565D01*
X131049523Y-112774211D01*
X130879254Y-112714631D01*
X130879249Y-112714630D01*
X130700004Y-112694435D01*
X130699996Y-112694435D01*
X130520750Y-112714630D01*
X130520745Y-112714631D01*
X130350476Y-112774211D01*
X130197737Y-112870184D01*
X130070184Y-112997737D01*
X129974211Y-113150476D01*
X129914631Y-113320745D01*
X129914630Y-113320750D01*
X129894435Y-113499996D01*
X129894435Y-113500003D01*
X129914630Y-113679249D01*
X129914631Y-113679254D01*
X129974211Y-113849523D01*
X130037347Y-113950003D01*
X130070184Y-114002262D01*
X130197738Y-114129816D01*
X130236701Y-114154298D01*
X130282992Y-114206633D01*
X130293640Y-114275687D01*
X130265265Y-114339535D01*
X130236702Y-114364285D01*
X130147740Y-114420183D01*
X130020185Y-114547738D01*
X129924212Y-114700477D01*
X129864632Y-114870746D01*
X129864631Y-114870751D01*
X129844436Y-115049997D01*
X127788664Y-115049997D01*
X127785369Y-115020750D01*
X127785368Y-115020745D01*
X127756190Y-114937359D01*
X127725789Y-114850478D01*
X127722332Y-114844977D01*
X127662955Y-114750478D01*
X127629816Y-114697738D01*
X127502262Y-114570184D01*
X127466541Y-114547739D01*
X127349521Y-114474210D01*
X127329035Y-114467042D01*
X127272258Y-114426320D01*
X127246511Y-114361367D01*
X127259967Y-114292806D01*
X127308354Y-114242403D01*
X127329035Y-114232958D01*
X127338295Y-114229717D01*
X127349522Y-114225789D01*
X127502262Y-114129816D01*
X127629816Y-114002262D01*
X127725789Y-113849522D01*
X127785368Y-113679255D01*
X127785369Y-113679249D01*
X127805565Y-113500003D01*
X127805565Y-113499996D01*
X127785369Y-113320750D01*
X127785368Y-113320745D01*
X127778108Y-113299996D01*
X127725789Y-113150478D01*
X127724092Y-113147778D01*
X127640431Y-113014632D01*
X127629816Y-112997738D01*
X127502262Y-112870184D01*
X127478996Y-112855565D01*
X127349523Y-112774211D01*
X127179254Y-112714631D01*
X127179249Y-112714630D01*
X127000004Y-112694435D01*
X126999996Y-112694435D01*
X126820750Y-112714630D01*
X126820745Y-112714631D01*
X126650476Y-112774211D01*
X126497737Y-112870184D01*
X126370184Y-112997737D01*
X126304994Y-113101487D01*
X126252659Y-113147778D01*
X126183605Y-113158426D01*
X126119757Y-113130051D01*
X126095006Y-113101487D01*
X126040431Y-113014632D01*
X126029816Y-112997738D01*
X125902262Y-112870184D01*
X125878996Y-112855565D01*
X125749523Y-112774211D01*
X125579254Y-112714631D01*
X125579249Y-112714630D01*
X125400004Y-112694435D01*
X125399996Y-112694435D01*
X125220750Y-112714630D01*
X125220745Y-112714631D01*
X125050476Y-112774211D01*
X124897737Y-112870184D01*
X124770184Y-112997737D01*
X124674211Y-113150476D01*
X124614631Y-113320745D01*
X124614630Y-113320750D01*
X124594435Y-113499996D01*
X122117142Y-113499996D01*
X122152730Y-113484151D01*
X122305871Y-113372888D01*
X122432533Y-113232216D01*
X122527179Y-113068284D01*
X122585674Y-112888256D01*
X122605460Y-112700000D01*
X122585674Y-112511744D01*
X122527179Y-112331716D01*
X122432533Y-112167784D01*
X122305871Y-112027112D01*
X122305870Y-112027111D01*
X122152734Y-111915851D01*
X122152729Y-111915848D01*
X121979807Y-111838857D01*
X121979802Y-111838855D01*
X121834001Y-111807865D01*
X121794646Y-111799500D01*
X121605354Y-111799500D01*
X121572897Y-111806398D01*
X121420197Y-111838855D01*
X121420192Y-111838857D01*
X121247270Y-111915848D01*
X121247265Y-111915851D01*
X121094129Y-112027111D01*
X120967466Y-112167785D01*
X120872821Y-112331715D01*
X120872818Y-112331722D01*
X120814327Y-112511740D01*
X120814326Y-112511744D01*
X120794540Y-112700000D01*
X118732078Y-112700000D01*
X118702262Y-112670184D01*
X118660441Y-112643906D01*
X118549523Y-112574211D01*
X118379254Y-112514631D01*
X118379249Y-112514630D01*
X118200004Y-112494435D01*
X118199996Y-112494435D01*
X118020750Y-112514630D01*
X118020745Y-112514631D01*
X117850476Y-112574211D01*
X117697737Y-112670184D01*
X117570184Y-112797737D01*
X117474211Y-112950476D01*
X117414631Y-113120745D01*
X117414630Y-113120750D01*
X117394435Y-113299996D01*
X116143116Y-113299996D01*
X116125789Y-113250478D01*
X116103265Y-113214632D01*
X116077867Y-113174211D01*
X116029816Y-113097738D01*
X115902262Y-112970184D01*
X115870897Y-112950476D01*
X115749523Y-112874211D01*
X115579254Y-112814631D01*
X115579249Y-112814630D01*
X115400004Y-112794435D01*
X115399996Y-112794435D01*
X115220750Y-112814630D01*
X115220745Y-112814631D01*
X115050476Y-112874211D01*
X114897737Y-112970184D01*
X114897736Y-112970185D01*
X114798142Y-113069778D01*
X114736819Y-113103262D01*
X114696579Y-113105316D01*
X114600003Y-113094435D01*
X114599996Y-113094435D01*
X114420750Y-113114630D01*
X114420742Y-113114632D01*
X114279988Y-113163884D01*
X114210209Y-113167445D01*
X114173062Y-113151836D01*
X114049523Y-113074211D01*
X113879254Y-113014631D01*
X113879249Y-113014630D01*
X113700004Y-112994435D01*
X113699996Y-112994435D01*
X113520750Y-113014630D01*
X113520745Y-113014631D01*
X113350476Y-113074211D01*
X113197737Y-113170184D01*
X113070184Y-113297737D01*
X112974211Y-113450476D01*
X112914631Y-113620745D01*
X112914630Y-113620750D01*
X112894435Y-113799996D01*
X106743119Y-113799996D01*
X106785368Y-113679255D01*
X106785369Y-113679249D01*
X106805565Y-113500003D01*
X106805565Y-113499996D01*
X106785369Y-113320750D01*
X106785368Y-113320745D01*
X106778108Y-113299996D01*
X106725789Y-113150478D01*
X106724092Y-113147778D01*
X106640431Y-113014632D01*
X106629816Y-112997738D01*
X106502262Y-112870184D01*
X106478996Y-112855565D01*
X106349523Y-112774211D01*
X106179254Y-112714631D01*
X106179249Y-112714630D01*
X106000004Y-112694435D01*
X105999996Y-112694435D01*
X105820750Y-112714630D01*
X105820745Y-112714631D01*
X105650476Y-112774211D01*
X105497737Y-112870184D01*
X105370184Y-112997737D01*
X105274211Y-113150476D01*
X105214631Y-113320745D01*
X105214630Y-113320750D01*
X105194435Y-113499996D01*
X100668982Y-113499996D01*
X100713903Y-113403663D01*
X100775063Y-113175408D01*
X100795659Y-112940000D01*
X100777284Y-112729980D01*
X100791050Y-112661482D01*
X100839665Y-112611299D01*
X100907694Y-112595365D01*
X100914695Y-112595954D01*
X100999996Y-112605565D01*
X101000000Y-112605565D01*
X101000004Y-112605565D01*
X101179249Y-112585369D01*
X101179252Y-112585368D01*
X101179255Y-112585368D01*
X101349522Y-112525789D01*
X101502262Y-112429816D01*
X101629816Y-112302262D01*
X101725789Y-112149522D01*
X101785368Y-111979255D01*
X101785369Y-111979249D01*
X101805565Y-111800003D01*
X101805565Y-111799996D01*
X101785369Y-111620750D01*
X101785368Y-111620745D01*
X101773733Y-111587496D01*
X105681935Y-111587496D01*
X105681935Y-111587503D01*
X105702130Y-111766749D01*
X105702131Y-111766754D01*
X105761711Y-111937023D01*
X105832400Y-112049523D01*
X105857684Y-112089762D01*
X105985238Y-112217316D01*
X106004239Y-112229255D01*
X106124749Y-112304977D01*
X106137978Y-112313289D01*
X106231415Y-112345984D01*
X106308245Y-112372868D01*
X106308250Y-112372869D01*
X106487496Y-112393065D01*
X106487500Y-112393065D01*
X106487504Y-112393065D01*
X106666749Y-112372869D01*
X106666752Y-112372868D01*
X106666755Y-112372868D01*
X106837022Y-112313289D01*
X106989762Y-112217316D01*
X107117316Y-112089762D01*
X107213289Y-111937022D01*
X107272868Y-111766755D01*
X107272957Y-111765965D01*
X107280390Y-111699996D01*
X115594435Y-111699996D01*
X115594435Y-111700003D01*
X115614630Y-111879249D01*
X115614631Y-111879254D01*
X115674211Y-112049523D01*
X115699495Y-112089762D01*
X115770184Y-112202262D01*
X115897738Y-112329816D01*
X115976410Y-112379249D01*
X116037405Y-112417575D01*
X116050478Y-112425789D01*
X116055211Y-112427445D01*
X116220745Y-112485368D01*
X116220750Y-112485369D01*
X116399996Y-112505565D01*
X116400000Y-112505565D01*
X116400004Y-112505565D01*
X116579249Y-112485369D01*
X116579252Y-112485368D01*
X116579255Y-112485368D01*
X116749522Y-112425789D01*
X116902262Y-112329816D01*
X117029816Y-112202262D01*
X117125789Y-112049522D01*
X117185368Y-111879255D01*
X117185369Y-111879249D01*
X117205565Y-111700003D01*
X117205565Y-111699996D01*
X117185369Y-111520750D01*
X117185368Y-111520745D01*
X117169085Y-111474211D01*
X117125789Y-111350478D01*
X117029816Y-111197738D01*
X116902262Y-111070184D01*
X116813852Y-111014632D01*
X116749523Y-110974211D01*
X116579254Y-110914631D01*
X116579249Y-110914630D01*
X116449397Y-110900000D01*
X121894540Y-110900000D01*
X121914326Y-111088256D01*
X121914327Y-111088259D01*
X121972818Y-111268277D01*
X121972821Y-111268284D01*
X122067467Y-111432216D01*
X122191694Y-111570184D01*
X122194129Y-111572888D01*
X122347265Y-111684148D01*
X122347270Y-111684151D01*
X122520192Y-111761142D01*
X122520197Y-111761144D01*
X122705354Y-111800500D01*
X122705355Y-111800500D01*
X122894644Y-111800500D01*
X122894646Y-111800500D01*
X123079803Y-111761144D01*
X123252730Y-111684151D01*
X123405871Y-111572888D01*
X123532533Y-111432216D01*
X123627179Y-111268284D01*
X123633121Y-111249996D01*
X133044435Y-111249996D01*
X133044435Y-111250003D01*
X133064630Y-111429249D01*
X133064633Y-111429262D01*
X133126510Y-111606094D01*
X133124364Y-111606844D01*
X133133962Y-111665144D01*
X133125609Y-111693590D01*
X133126510Y-111693906D01*
X133064633Y-111870737D01*
X133064630Y-111870750D01*
X133044435Y-112049996D01*
X133044435Y-112050003D01*
X133064630Y-112229249D01*
X133064631Y-112229254D01*
X133124211Y-112399523D01*
X133217006Y-112547205D01*
X133220184Y-112552262D01*
X133347738Y-112679816D01*
X133411983Y-112720184D01*
X133497966Y-112774211D01*
X133500478Y-112775789D01*
X133563202Y-112797737D01*
X133670745Y-112835368D01*
X133670750Y-112835369D01*
X133849996Y-112855565D01*
X133850000Y-112855565D01*
X133850004Y-112855565D01*
X134029249Y-112835369D01*
X134029252Y-112835368D01*
X134029255Y-112835368D01*
X134199522Y-112775789D01*
X134352262Y-112679816D01*
X134357331Y-112674746D01*
X134418649Y-112641261D01*
X134488341Y-112646242D01*
X134544276Y-112688111D01*
X134560573Y-112723296D01*
X134562331Y-112722682D01*
X134626510Y-112906094D01*
X134624364Y-112906844D01*
X134633962Y-112965144D01*
X134625609Y-112993589D01*
X134626511Y-112993905D01*
X134624212Y-113000476D01*
X134624211Y-113000478D01*
X134578872Y-113130051D01*
X134576363Y-113137221D01*
X134535641Y-113193997D01*
X134470689Y-113219745D01*
X134418366Y-113213309D01*
X134279254Y-113164631D01*
X134279249Y-113164630D01*
X134100004Y-113144435D01*
X134099996Y-113144435D01*
X133920750Y-113164630D01*
X133920745Y-113164631D01*
X133750476Y-113224211D01*
X133597737Y-113320184D01*
X133470184Y-113447737D01*
X133374211Y-113600476D01*
X133314631Y-113770745D01*
X133314630Y-113770750D01*
X133294435Y-113949996D01*
X133294435Y-113950003D01*
X133314630Y-114129249D01*
X133314633Y-114129262D01*
X133376510Y-114306094D01*
X133374364Y-114306844D01*
X133383962Y-114365144D01*
X133375609Y-114393590D01*
X133376510Y-114393906D01*
X133314633Y-114570737D01*
X133314630Y-114570750D01*
X133294435Y-114749996D01*
X133294435Y-114750003D01*
X133314630Y-114929249D01*
X133314631Y-114929254D01*
X133374211Y-115099523D01*
X133455728Y-115229255D01*
X133470184Y-115252262D01*
X133597738Y-115379816D01*
X133719135Y-115456095D01*
X133750478Y-115475789D01*
X133755504Y-115477548D01*
X133812281Y-115518270D01*
X133838028Y-115583223D01*
X133824572Y-115651784D01*
X133780523Y-115699583D01*
X133747740Y-115720182D01*
X133747737Y-115720184D01*
X133620184Y-115847737D01*
X133524211Y-116000476D01*
X133464631Y-116170745D01*
X133464630Y-116170750D01*
X133444435Y-116349996D01*
X133444435Y-116350003D01*
X133464630Y-116529249D01*
X133464633Y-116529262D01*
X133526510Y-116706094D01*
X133524364Y-116706844D01*
X133533962Y-116765144D01*
X133525609Y-116793590D01*
X133526510Y-116793906D01*
X133464633Y-116970737D01*
X133464630Y-116970750D01*
X133444435Y-117149996D01*
X133444435Y-117150003D01*
X133464630Y-117329249D01*
X133464631Y-117329254D01*
X133524211Y-117499523D01*
X133568611Y-117570184D01*
X133620184Y-117652262D01*
X133747738Y-117779816D01*
X133838080Y-117836582D01*
X133890505Y-117869523D01*
X133900478Y-117875789D01*
X134070745Y-117935368D01*
X134070750Y-117935369D01*
X134249996Y-117955565D01*
X134250000Y-117955565D01*
X134250004Y-117955565D01*
X134429249Y-117935369D01*
X134429252Y-117935368D01*
X134429255Y-117935368D01*
X134599522Y-117875789D01*
X134752262Y-117779816D01*
X134879816Y-117652262D01*
X134975789Y-117499522D01*
X135035368Y-117329255D01*
X135036327Y-117320745D01*
X135055565Y-117150003D01*
X135055565Y-117149996D01*
X135035369Y-116970750D01*
X135035366Y-116970737D01*
X134973489Y-116793905D01*
X134975637Y-116793153D01*
X134966035Y-116734872D01*
X134974391Y-116706413D01*
X134973488Y-116706097D01*
X134980741Y-116685369D01*
X134986081Y-116670108D01*
X135026801Y-116613333D01*
X135091754Y-116587585D01*
X135160315Y-116601041D01*
X135169095Y-116606070D01*
X135200475Y-116625788D01*
X135370745Y-116685368D01*
X135370750Y-116685369D01*
X135549996Y-116705565D01*
X135550000Y-116705565D01*
X135550004Y-116705565D01*
X135729249Y-116685369D01*
X135729252Y-116685368D01*
X135729255Y-116685368D01*
X135899522Y-116625789D01*
X136052262Y-116529816D01*
X136179816Y-116402262D01*
X136275789Y-116249522D01*
X136335368Y-116079255D01*
X136335369Y-116079249D01*
X136355565Y-115900003D01*
X136355565Y-115899996D01*
X136335369Y-115720750D01*
X136335366Y-115720737D01*
X136273489Y-115543905D01*
X136275637Y-115543153D01*
X136266035Y-115484872D01*
X136274392Y-115456411D01*
X136273489Y-115456095D01*
X136335366Y-115279262D01*
X136335369Y-115279249D01*
X136355565Y-115100003D01*
X136355565Y-115099996D01*
X136335369Y-114920750D01*
X136335368Y-114920745D01*
X136275789Y-114750478D01*
X136268486Y-114738856D01*
X136216773Y-114656555D01*
X136179816Y-114597738D01*
X136052262Y-114470184D01*
X136012263Y-114445051D01*
X135899523Y-114374211D01*
X135729254Y-114314631D01*
X135722468Y-114313083D01*
X135722806Y-114311599D01*
X135665892Y-114287680D01*
X135626340Y-114230083D01*
X135624205Y-114160246D01*
X135660167Y-114100341D01*
X135693873Y-114080112D01*
X135693247Y-114078812D01*
X135699516Y-114075792D01*
X135699519Y-114075789D01*
X135699522Y-114075789D01*
X135852262Y-113979816D01*
X135882082Y-113949996D01*
X138694435Y-113949996D01*
X138694435Y-113950003D01*
X138714630Y-114129249D01*
X138714633Y-114129262D01*
X138776510Y-114306094D01*
X138774364Y-114306844D01*
X138783962Y-114365144D01*
X138775609Y-114393590D01*
X138776510Y-114393906D01*
X138714633Y-114570737D01*
X138714630Y-114570750D01*
X138694435Y-114749996D01*
X138694435Y-114750003D01*
X138714630Y-114929249D01*
X138714631Y-114929254D01*
X138774211Y-115099523D01*
X138855728Y-115229255D01*
X138870184Y-115252262D01*
X138997738Y-115379816D01*
X139150478Y-115475789D01*
X139254875Y-115512319D01*
X139320745Y-115535368D01*
X139320750Y-115535369D01*
X139499996Y-115555565D01*
X139500000Y-115555565D01*
X139500004Y-115555565D01*
X139679249Y-115535369D01*
X139679252Y-115535368D01*
X139679255Y-115535368D01*
X139849522Y-115475789D01*
X140002262Y-115379816D01*
X140129816Y-115252262D01*
X140225789Y-115099522D01*
X140285368Y-114929255D01*
X140285369Y-114929249D01*
X140288224Y-114903911D01*
X140315290Y-114839497D01*
X140372884Y-114799941D01*
X140397561Y-114794573D01*
X140479249Y-114785369D01*
X140479251Y-114785368D01*
X140479255Y-114785368D01*
X140479258Y-114785366D01*
X140479262Y-114785366D01*
X140655261Y-114723781D01*
X140725040Y-114720219D01*
X140785667Y-114754947D01*
X140817895Y-114816941D01*
X140813258Y-114881776D01*
X140764632Y-115020742D01*
X140764630Y-115020750D01*
X140744435Y-115199996D01*
X140744435Y-115200003D01*
X140764630Y-115379249D01*
X140764633Y-115379262D01*
X140826510Y-115556094D01*
X140824364Y-115556844D01*
X140833962Y-115615144D01*
X140825609Y-115643590D01*
X140826510Y-115643906D01*
X140764633Y-115820737D01*
X140764630Y-115820750D01*
X140744435Y-115999996D01*
X140744435Y-116000003D01*
X140764630Y-116179249D01*
X140764631Y-116179254D01*
X140824211Y-116349523D01*
X140894348Y-116461144D01*
X140920184Y-116502262D01*
X141047738Y-116629816D01*
X141136148Y-116685368D01*
X141183738Y-116715271D01*
X141200478Y-116725789D01*
X141370745Y-116785368D01*
X141469322Y-116796474D01*
X141533733Y-116823539D01*
X141560430Y-116853721D01*
X141576479Y-116879262D01*
X141578364Y-116882262D01*
X141705918Y-117009816D01*
X141796260Y-117066582D01*
X141858301Y-117105565D01*
X141858658Y-117105789D01*
X142028925Y-117165368D01*
X142057920Y-117168634D01*
X142122332Y-117195700D01*
X142161888Y-117253295D01*
X142164668Y-117313741D01*
X142165411Y-117313825D01*
X142164886Y-117318483D01*
X142164930Y-117319436D01*
X142164631Y-117320745D01*
X142144435Y-117499996D01*
X142144435Y-117500003D01*
X142164630Y-117679249D01*
X142164631Y-117679254D01*
X142224211Y-117849523D01*
X142278152Y-117935369D01*
X142320184Y-118002262D01*
X142447738Y-118129816D01*
X142600478Y-118225789D01*
X142627773Y-118235340D01*
X142684548Y-118276059D01*
X142710039Y-118338497D01*
X142714630Y-118379249D01*
X142774210Y-118549521D01*
X142814735Y-118614016D01*
X142870184Y-118702262D01*
X142997738Y-118829816D01*
X143058164Y-118867784D01*
X143105833Y-118897737D01*
X143150478Y-118925789D01*
X143219678Y-118950003D01*
X143320745Y-118985368D01*
X143320750Y-118985369D01*
X143499996Y-119005565D01*
X143500000Y-119005565D01*
X143500004Y-119005565D01*
X143679249Y-118985369D01*
X143679252Y-118985368D01*
X143679255Y-118985368D01*
X143849522Y-118925789D01*
X144002262Y-118829816D01*
X144129816Y-118702262D01*
X144225789Y-118549522D01*
X144285368Y-118379255D01*
X144285369Y-118379249D01*
X144305565Y-118200003D01*
X144305565Y-118199996D01*
X144285369Y-118020750D01*
X144285368Y-118020745D01*
X144285107Y-118019999D01*
X144225789Y-117850478D01*
X144225188Y-117849522D01*
X144130769Y-117699255D01*
X144129816Y-117697738D01*
X144002262Y-117570184D01*
X143849522Y-117474211D01*
X143822223Y-117464658D01*
X143765448Y-117423935D01*
X143739959Y-117361501D01*
X143735368Y-117320745D01*
X143734576Y-117318483D01*
X143673489Y-117143905D01*
X143675637Y-117143153D01*
X143666035Y-117084872D01*
X143674392Y-117056411D01*
X143673489Y-117056095D01*
X143735366Y-116879262D01*
X143735369Y-116879249D01*
X143755565Y-116700003D01*
X143755565Y-116699996D01*
X143735369Y-116520750D01*
X143735368Y-116520745D01*
X143734580Y-116518493D01*
X143675789Y-116350478D01*
X143675188Y-116349522D01*
X143612955Y-116250478D01*
X143579816Y-116197738D01*
X143452262Y-116070184D01*
X143388017Y-116029816D01*
X143299523Y-115974211D01*
X143129254Y-115914631D01*
X143129249Y-115914630D01*
X142950004Y-115894435D01*
X142950001Y-115894435D01*
X142950000Y-115894435D01*
X142945339Y-115894960D01*
X142923679Y-115897400D01*
X142854857Y-115885343D01*
X142822118Y-115861860D01*
X142710442Y-115750184D01*
X142557701Y-115654210D01*
X142390947Y-115595861D01*
X142334171Y-115555139D01*
X142308423Y-115490186D01*
X142314860Y-115437863D01*
X142335367Y-115379259D01*
X142335369Y-115379249D01*
X142355565Y-115200003D01*
X142355565Y-115199996D01*
X142335369Y-115020750D01*
X142335368Y-115020745D01*
X142306190Y-114937359D01*
X142275789Y-114850478D01*
X142272332Y-114844977D01*
X142212955Y-114750478D01*
X142179816Y-114697738D01*
X142052262Y-114570184D01*
X142016541Y-114547739D01*
X141899523Y-114474211D01*
X141729254Y-114414631D01*
X141729249Y-114414630D01*
X141550004Y-114394435D01*
X141549996Y-114394435D01*
X141370750Y-114414630D01*
X141370742Y-114414632D01*
X141194737Y-114476219D01*
X141124958Y-114479780D01*
X141064331Y-114445051D01*
X141032104Y-114383058D01*
X141036742Y-114318222D01*
X141085366Y-114179262D01*
X141085369Y-114179249D01*
X141105565Y-114000003D01*
X141105565Y-113999996D01*
X141085369Y-113820750D01*
X141085368Y-113820745D01*
X141080056Y-113805565D01*
X141025789Y-113650478D01*
X141025188Y-113649522D01*
X140949619Y-113529254D01*
X140929816Y-113497738D01*
X140802262Y-113370184D01*
X140770144Y-113350003D01*
X140649523Y-113274211D01*
X140479254Y-113214631D01*
X140479249Y-113214630D01*
X140300004Y-113194435D01*
X140299996Y-113194435D01*
X140120750Y-113214630D01*
X140120737Y-113214633D01*
X139993109Y-113259293D01*
X139923330Y-113262855D01*
X139886183Y-113247246D01*
X139849520Y-113224209D01*
X139679262Y-113164633D01*
X139679249Y-113164630D01*
X139500004Y-113144435D01*
X139499996Y-113144435D01*
X139320750Y-113164630D01*
X139320745Y-113164631D01*
X139150476Y-113224211D01*
X138997737Y-113320184D01*
X138870184Y-113447737D01*
X138774211Y-113600476D01*
X138714631Y-113770745D01*
X138714630Y-113770750D01*
X138694435Y-113949996D01*
X135882082Y-113949996D01*
X135979816Y-113852262D01*
X136075789Y-113699522D01*
X136135368Y-113529255D01*
X136136481Y-113519381D01*
X136155565Y-113350003D01*
X136155565Y-113349996D01*
X136135369Y-113170750D01*
X136135366Y-113170737D01*
X136073489Y-112993905D01*
X136075637Y-112993153D01*
X136066035Y-112934872D01*
X136074392Y-112906411D01*
X136073489Y-112906095D01*
X136135366Y-112729262D01*
X136135369Y-112729249D01*
X136155565Y-112550003D01*
X136155565Y-112549996D01*
X136135369Y-112370750D01*
X136135368Y-112370745D01*
X136097376Y-112262171D01*
X136075789Y-112200478D01*
X135979816Y-112047738D01*
X135852262Y-111920184D01*
X135820144Y-111900003D01*
X135699523Y-111824211D01*
X135529254Y-111764631D01*
X135529249Y-111764630D01*
X135350004Y-111744435D01*
X135349996Y-111744435D01*
X135170750Y-111764630D01*
X135170745Y-111764631D01*
X135000476Y-111824211D01*
X134847738Y-111920183D01*
X134842663Y-111925259D01*
X134781338Y-111958741D01*
X134711647Y-111953753D01*
X134655715Y-111911878D01*
X134639436Y-111876699D01*
X134637669Y-111877318D01*
X134573489Y-111693905D01*
X134575637Y-111693153D01*
X134566035Y-111634872D01*
X134574392Y-111606411D01*
X134573489Y-111606095D01*
X134635366Y-111429262D01*
X134635369Y-111429249D01*
X134655565Y-111250003D01*
X134655565Y-111249996D01*
X134635369Y-111070750D01*
X134635368Y-111070745D01*
X134615733Y-111014631D01*
X134575789Y-110900478D01*
X134481235Y-110749996D01*
X139444435Y-110749996D01*
X139444435Y-110750003D01*
X139464630Y-110929249D01*
X139464633Y-110929262D01*
X139526510Y-111106094D01*
X139524364Y-111106844D01*
X139533962Y-111165144D01*
X139525609Y-111193590D01*
X139526510Y-111193906D01*
X139464633Y-111370737D01*
X139464630Y-111370750D01*
X139444435Y-111549996D01*
X139444435Y-111550003D01*
X139464630Y-111729249D01*
X139464631Y-111729254D01*
X139524211Y-111899523D01*
X139604381Y-112027112D01*
X139620184Y-112052262D01*
X139747738Y-112179816D01*
X139783461Y-112202262D01*
X139896761Y-112273454D01*
X139900478Y-112275789D01*
X140054878Y-112329816D01*
X140070745Y-112335368D01*
X140070750Y-112335369D01*
X140249996Y-112355565D01*
X140250000Y-112355565D01*
X140250004Y-112355565D01*
X140429249Y-112335369D01*
X140429252Y-112335368D01*
X140429255Y-112335368D01*
X140599522Y-112275789D01*
X140720146Y-112199996D01*
X142394435Y-112199996D01*
X142394435Y-112200003D01*
X142414630Y-112379249D01*
X142414633Y-112379262D01*
X142476510Y-112556094D01*
X142474364Y-112556844D01*
X142483962Y-112615144D01*
X142475609Y-112643590D01*
X142476510Y-112643906D01*
X142414633Y-112820737D01*
X142414630Y-112820750D01*
X142394435Y-112999996D01*
X142394435Y-113000003D01*
X142414630Y-113179249D01*
X142414631Y-113179254D01*
X142474211Y-113349523D01*
X142552191Y-113473626D01*
X142570184Y-113502262D01*
X142697738Y-113629816D01*
X142776410Y-113679249D01*
X142832721Y-113714632D01*
X142850478Y-113725789D01*
X142978955Y-113770745D01*
X143020745Y-113785368D01*
X143020750Y-113785369D01*
X143199996Y-113805565D01*
X143200000Y-113805565D01*
X143200004Y-113805565D01*
X143379249Y-113785369D01*
X143379252Y-113785368D01*
X143379255Y-113785368D01*
X143549522Y-113725789D01*
X143702262Y-113629816D01*
X143829816Y-113502262D01*
X143925491Y-113349996D01*
X145344435Y-113349996D01*
X145344435Y-113350003D01*
X145364630Y-113529249D01*
X145364631Y-113529254D01*
X145424211Y-113699523D01*
X145500384Y-113820750D01*
X145520184Y-113852262D01*
X145647738Y-113979816D01*
X145736701Y-114035715D01*
X145782991Y-114088049D01*
X145793639Y-114157102D01*
X145765264Y-114220950D01*
X145736701Y-114245701D01*
X145697740Y-114270182D01*
X145697737Y-114270184D01*
X145570184Y-114397737D01*
X145474211Y-114550476D01*
X145414631Y-114720745D01*
X145414630Y-114720750D01*
X145394435Y-114899996D01*
X145394435Y-114900003D01*
X145414630Y-115079249D01*
X145414631Y-115079254D01*
X145474211Y-115249523D01*
X145570184Y-115402262D01*
X145680241Y-115512319D01*
X145713726Y-115573642D01*
X145708742Y-115643334D01*
X145680241Y-115687681D01*
X145570184Y-115797737D01*
X145474211Y-115950476D01*
X145414631Y-116120745D01*
X145414630Y-116120750D01*
X145394435Y-116299996D01*
X145394435Y-116300003D01*
X145414630Y-116479249D01*
X145414631Y-116479254D01*
X145474211Y-116649523D01*
X145546861Y-116765144D01*
X145570184Y-116802262D01*
X145697738Y-116929816D01*
X145780002Y-116981506D01*
X145825055Y-117009815D01*
X145850478Y-117025789D01*
X145937088Y-117056095D01*
X146020745Y-117085368D01*
X146020750Y-117085369D01*
X146199996Y-117105565D01*
X146200000Y-117105565D01*
X146200004Y-117105565D01*
X146379249Y-117085369D01*
X146379252Y-117085368D01*
X146379255Y-117085368D01*
X146549522Y-117025789D01*
X146702262Y-116929816D01*
X146829816Y-116802262D01*
X146925789Y-116649522D01*
X146985368Y-116479255D01*
X146991960Y-116420750D01*
X147005565Y-116300003D01*
X147005565Y-116299996D01*
X146985369Y-116120750D01*
X146985368Y-116120745D01*
X146983366Y-116115023D01*
X146925789Y-115950478D01*
X146921507Y-115943664D01*
X146870393Y-115862316D01*
X146829816Y-115797738D01*
X146719759Y-115687681D01*
X146686274Y-115626358D01*
X146691258Y-115556666D01*
X146719759Y-115512319D01*
X146756290Y-115475788D01*
X146829816Y-115402262D01*
X146925789Y-115249522D01*
X146985368Y-115079255D01*
X146985369Y-115079249D01*
X147005565Y-114900003D01*
X147005565Y-114899996D01*
X146985369Y-114720750D01*
X146985368Y-114720745D01*
X146977934Y-114699500D01*
X146925789Y-114550478D01*
X146924334Y-114548163D01*
X146873362Y-114467041D01*
X146829816Y-114397738D01*
X146702262Y-114270184D01*
X146613298Y-114214284D01*
X146567008Y-114161950D01*
X146556360Y-114092897D01*
X146584735Y-114029048D01*
X146613293Y-114004301D01*
X146652262Y-113979816D01*
X146779816Y-113852262D01*
X146875789Y-113699522D01*
X146935368Y-113529255D01*
X146936481Y-113519381D01*
X146955565Y-113350003D01*
X146955565Y-113349996D01*
X146935369Y-113170750D01*
X146935368Y-113170745D01*
X146923637Y-113137221D01*
X146875789Y-113000478D01*
X146875788Y-113000476D01*
X146875787Y-113000473D01*
X146778806Y-112846130D01*
X146759805Y-112778894D01*
X146780172Y-112712059D01*
X146833440Y-112666844D01*
X146842834Y-112663120D01*
X146911712Y-112639019D01*
X146949520Y-112625790D01*
X146952033Y-112624211D01*
X147102262Y-112529816D01*
X147229816Y-112402262D01*
X147325789Y-112249522D01*
X147385368Y-112079255D01*
X147386569Y-112068597D01*
X147405565Y-111900003D01*
X147405565Y-111899996D01*
X147385369Y-111720750D01*
X147385368Y-111720745D01*
X147378108Y-111699996D01*
X147325789Y-111550478D01*
X147307106Y-111520745D01*
X147262955Y-111450478D01*
X147229816Y-111397738D01*
X147102262Y-111270184D01*
X147070144Y-111250003D01*
X146949523Y-111174211D01*
X146779254Y-111114631D01*
X146779249Y-111114630D01*
X146600004Y-111094435D01*
X146599996Y-111094435D01*
X146420750Y-111114630D01*
X146420745Y-111114631D01*
X146250476Y-111174211D01*
X146097737Y-111270184D01*
X145970184Y-111397737D01*
X145874211Y-111550476D01*
X145814631Y-111720745D01*
X145814630Y-111720750D01*
X145794435Y-111899996D01*
X145794435Y-111900003D01*
X145814630Y-112079249D01*
X145814631Y-112079254D01*
X145874211Y-112249523D01*
X145924662Y-112329815D01*
X145968462Y-112399522D01*
X145971194Y-112403869D01*
X145990194Y-112471105D01*
X145969826Y-112537941D01*
X145916559Y-112583155D01*
X145907155Y-112586882D01*
X145800480Y-112624209D01*
X145647737Y-112720184D01*
X145520184Y-112847737D01*
X145424211Y-113000476D01*
X145364631Y-113170745D01*
X145364630Y-113170750D01*
X145344435Y-113349996D01*
X143925491Y-113349996D01*
X143925789Y-113349522D01*
X143985368Y-113179255D01*
X143985801Y-113175413D01*
X144005565Y-113000003D01*
X144005565Y-112999996D01*
X143985369Y-112820750D01*
X143985366Y-112820737D01*
X143923489Y-112643905D01*
X143925637Y-112643153D01*
X143916035Y-112584872D01*
X143924392Y-112556411D01*
X143923489Y-112556095D01*
X143985366Y-112379262D01*
X143985369Y-112379249D01*
X144005565Y-112200003D01*
X144005565Y-112199996D01*
X143985369Y-112020750D01*
X143985368Y-112020745D01*
X143943643Y-111901501D01*
X143925789Y-111850478D01*
X143918486Y-111838856D01*
X143873182Y-111766754D01*
X143829816Y-111697738D01*
X143702262Y-111570184D01*
X143670144Y-111550003D01*
X143549523Y-111474211D01*
X143379254Y-111414631D01*
X143379249Y-111414630D01*
X143200004Y-111394435D01*
X143199996Y-111394435D01*
X143020750Y-111414630D01*
X143020745Y-111414631D01*
X142850476Y-111474211D01*
X142697737Y-111570184D01*
X142570184Y-111697737D01*
X142474211Y-111850476D01*
X142414631Y-112020745D01*
X142414630Y-112020750D01*
X142394435Y-112199996D01*
X140720146Y-112199996D01*
X140752262Y-112179816D01*
X140879816Y-112052262D01*
X140975789Y-111899522D01*
X141035368Y-111729255D01*
X141035369Y-111729249D01*
X141055565Y-111550003D01*
X141055565Y-111549996D01*
X141035369Y-111370750D01*
X141035366Y-111370737D01*
X140973489Y-111193905D01*
X140975637Y-111193153D01*
X140966035Y-111134872D01*
X140974392Y-111106411D01*
X140973489Y-111106095D01*
X141035366Y-110929262D01*
X141035369Y-110929249D01*
X141055565Y-110750003D01*
X141055565Y-110749996D01*
X141035369Y-110570750D01*
X141035368Y-110570745D01*
X140975788Y-110400476D01*
X140936582Y-110338080D01*
X140879816Y-110247738D01*
X140752262Y-110120184D01*
X140711832Y-110094780D01*
X140599523Y-110024211D01*
X140429254Y-109964631D01*
X140429249Y-109964630D01*
X140250004Y-109944435D01*
X140249996Y-109944435D01*
X140070750Y-109964630D01*
X140070745Y-109964631D01*
X139900476Y-110024211D01*
X139747737Y-110120184D01*
X139620184Y-110247737D01*
X139524211Y-110400476D01*
X139464631Y-110570745D01*
X139464630Y-110570750D01*
X139444435Y-110749996D01*
X134481235Y-110749996D01*
X134479816Y-110747738D01*
X134352262Y-110620184D01*
X134199523Y-110524211D01*
X134029254Y-110464631D01*
X134029249Y-110464630D01*
X133850004Y-110444435D01*
X133849996Y-110444435D01*
X133670750Y-110464630D01*
X133670745Y-110464631D01*
X133500476Y-110524211D01*
X133347737Y-110620184D01*
X133220184Y-110747737D01*
X133124211Y-110900476D01*
X133064631Y-111070745D01*
X133064630Y-111070750D01*
X133044435Y-111249996D01*
X123633121Y-111249996D01*
X123685674Y-111088256D01*
X123705460Y-110900000D01*
X123685674Y-110711744D01*
X123631112Y-110543823D01*
X123627181Y-110531722D01*
X123627180Y-110531721D01*
X123627179Y-110531716D01*
X123532533Y-110367784D01*
X123405871Y-110227112D01*
X123369243Y-110200500D01*
X123252734Y-110115851D01*
X123252729Y-110115848D01*
X123079807Y-110038857D01*
X123079802Y-110038855D01*
X122907640Y-110002262D01*
X122896998Y-110000000D01*
X128994540Y-110000000D01*
X129014326Y-110188256D01*
X129014327Y-110188259D01*
X129072818Y-110368277D01*
X129072821Y-110368284D01*
X129167467Y-110532216D01*
X129246674Y-110620184D01*
X129294129Y-110672888D01*
X129447265Y-110784148D01*
X129447270Y-110784151D01*
X129620192Y-110861142D01*
X129620197Y-110861144D01*
X129805354Y-110900500D01*
X129805355Y-110900500D01*
X129994644Y-110900500D01*
X129994646Y-110900500D01*
X130179803Y-110861144D01*
X130352730Y-110784151D01*
X130505871Y-110672888D01*
X130632533Y-110532216D01*
X130727179Y-110368284D01*
X130785674Y-110188256D01*
X130805460Y-110000000D01*
X130785674Y-109811744D01*
X130727179Y-109631716D01*
X130632533Y-109467784D01*
X130505871Y-109327112D01*
X130498382Y-109321671D01*
X130468555Y-109300000D01*
X134594540Y-109300000D01*
X134614326Y-109488256D01*
X134614327Y-109488259D01*
X134672818Y-109668277D01*
X134672821Y-109668284D01*
X134767467Y-109832216D01*
X134828503Y-109900003D01*
X134894129Y-109972888D01*
X135047265Y-110084148D01*
X135047270Y-110084151D01*
X135220192Y-110161142D01*
X135220197Y-110161144D01*
X135405354Y-110200500D01*
X135405355Y-110200500D01*
X135594644Y-110200500D01*
X135594646Y-110200500D01*
X135779803Y-110161144D01*
X135952730Y-110084151D01*
X136105871Y-109972888D01*
X136232533Y-109832216D01*
X136327179Y-109668284D01*
X136385674Y-109488256D01*
X136405460Y-109300000D01*
X136385674Y-109111744D01*
X136327179Y-108931716D01*
X136232533Y-108767784D01*
X136105871Y-108627112D01*
X136105870Y-108627111D01*
X135952734Y-108515851D01*
X135952729Y-108515848D01*
X135779807Y-108438857D01*
X135779802Y-108438855D01*
X135633624Y-108407785D01*
X135594646Y-108399500D01*
X135405354Y-108399500D01*
X135372897Y-108406398D01*
X135220197Y-108438855D01*
X135220192Y-108438857D01*
X135047270Y-108515848D01*
X135047265Y-108515851D01*
X134894129Y-108627111D01*
X134767466Y-108767785D01*
X134672821Y-108931715D01*
X134672818Y-108931722D01*
X134615705Y-109107500D01*
X134614326Y-109111744D01*
X134594540Y-109300000D01*
X130468555Y-109300000D01*
X130352734Y-109215851D01*
X130352729Y-109215848D01*
X130179807Y-109138857D01*
X130179802Y-109138855D01*
X130023180Y-109105565D01*
X129994646Y-109099500D01*
X129805354Y-109099500D01*
X129776820Y-109105565D01*
X129620197Y-109138855D01*
X129620192Y-109138857D01*
X129447270Y-109215848D01*
X129447265Y-109215851D01*
X129294129Y-109327111D01*
X129167466Y-109467785D01*
X129072821Y-109631715D01*
X129072818Y-109631722D01*
X129014327Y-109811740D01*
X129014326Y-109811744D01*
X128994540Y-110000000D01*
X122896998Y-110000000D01*
X122894646Y-109999500D01*
X122705354Y-109999500D01*
X122692360Y-110002262D01*
X122520197Y-110038855D01*
X122520192Y-110038857D01*
X122347270Y-110115848D01*
X122347265Y-110115851D01*
X122194129Y-110227111D01*
X122067466Y-110367785D01*
X121972821Y-110531715D01*
X121972818Y-110531722D01*
X121914327Y-110711740D01*
X121914326Y-110711744D01*
X121894540Y-110900000D01*
X116449397Y-110900000D01*
X116400004Y-110894435D01*
X116399996Y-110894435D01*
X116220750Y-110914630D01*
X116220745Y-110914631D01*
X116050476Y-110974211D01*
X115897737Y-111070184D01*
X115770184Y-111197737D01*
X115674211Y-111350476D01*
X115614631Y-111520745D01*
X115614630Y-111520750D01*
X115594435Y-111699996D01*
X107280390Y-111699996D01*
X107293065Y-111587503D01*
X107293065Y-111587496D01*
X107272869Y-111408250D01*
X107272868Y-111408245D01*
X107234200Y-111297738D01*
X107213289Y-111237978D01*
X107117316Y-111085238D01*
X106989762Y-110957684D01*
X106944508Y-110929249D01*
X106837023Y-110861711D01*
X106666754Y-110802131D01*
X106666749Y-110802130D01*
X106487504Y-110781935D01*
X106487496Y-110781935D01*
X106308250Y-110802130D01*
X106308245Y-110802131D01*
X106137976Y-110861711D01*
X105985237Y-110957684D01*
X105857684Y-111085237D01*
X105761711Y-111237976D01*
X105702131Y-111408245D01*
X105702130Y-111408250D01*
X105681935Y-111587496D01*
X101773733Y-111587496D01*
X101767060Y-111568425D01*
X101725789Y-111450478D01*
X101718261Y-111438498D01*
X101686582Y-111388080D01*
X101629816Y-111297738D01*
X101502262Y-111170184D01*
X101494241Y-111165144D01*
X101349523Y-111074211D01*
X101179254Y-111014631D01*
X101179249Y-111014630D01*
X101000004Y-110994435D01*
X100999996Y-110994435D01*
X100849596Y-111011380D01*
X100780774Y-110999325D01*
X100729395Y-110951976D01*
X100711771Y-110884365D01*
X100715938Y-110856067D01*
X100775063Y-110635408D01*
X100786910Y-110499996D01*
X111994435Y-110499996D01*
X111994435Y-110500003D01*
X112014630Y-110679249D01*
X112014631Y-110679254D01*
X112074211Y-110849523D01*
X112124315Y-110929262D01*
X112170184Y-111002262D01*
X112297738Y-111129816D01*
X112305785Y-111134872D01*
X112405833Y-111197737D01*
X112450478Y-111225789D01*
X112620745Y-111285368D01*
X112620750Y-111285369D01*
X112799996Y-111305565D01*
X112800000Y-111305565D01*
X112800004Y-111305565D01*
X112979249Y-111285369D01*
X112979252Y-111285368D01*
X112979255Y-111285368D01*
X113149522Y-111225789D01*
X113302262Y-111129816D01*
X113429816Y-111002262D01*
X113525789Y-110849522D01*
X113585368Y-110679255D01*
X113585369Y-110679249D01*
X113605565Y-110500003D01*
X113605565Y-110499996D01*
X113585369Y-110320750D01*
X113585368Y-110320745D01*
X113530729Y-110164596D01*
X113525789Y-110150478D01*
X113504031Y-110115851D01*
X113455652Y-110038856D01*
X113429816Y-109997738D01*
X113302262Y-109870184D01*
X113149523Y-109774211D01*
X112979254Y-109714631D01*
X112979249Y-109714630D01*
X112800004Y-109694435D01*
X112799996Y-109694435D01*
X112620750Y-109714630D01*
X112620745Y-109714631D01*
X112450476Y-109774211D01*
X112297737Y-109870184D01*
X112170184Y-109997737D01*
X112074211Y-110150476D01*
X112014631Y-110320745D01*
X112014630Y-110320750D01*
X111994435Y-110499996D01*
X100786910Y-110499996D01*
X100795659Y-110400000D01*
X100792840Y-110367785D01*
X100785630Y-110285368D01*
X100775063Y-110164592D01*
X100756357Y-110094779D01*
X100758020Y-110024930D01*
X100797183Y-109967068D01*
X100861411Y-109939564D01*
X100930313Y-109951151D01*
X100942104Y-109957693D01*
X101047966Y-110024211D01*
X101050478Y-110025789D01*
X101203258Y-110079249D01*
X101220745Y-110085368D01*
X101220750Y-110085369D01*
X101399996Y-110105565D01*
X101400000Y-110105565D01*
X101400004Y-110105565D01*
X101579249Y-110085369D01*
X101579252Y-110085368D01*
X101579255Y-110085368D01*
X101749522Y-110025789D01*
X101902262Y-109929816D01*
X102029816Y-109802262D01*
X102125789Y-109649522D01*
X102178110Y-109499996D01*
X105494435Y-109499996D01*
X105494435Y-109500003D01*
X105514630Y-109679249D01*
X105514631Y-109679254D01*
X105574211Y-109849523D01*
X105630788Y-109939564D01*
X105670184Y-110002262D01*
X105797738Y-110129816D01*
X105950478Y-110225789D01*
X106018306Y-110249523D01*
X106120745Y-110285368D01*
X106120750Y-110285369D01*
X106299996Y-110305565D01*
X106300000Y-110305565D01*
X106300004Y-110305565D01*
X106479249Y-110285369D01*
X106479252Y-110285368D01*
X106479255Y-110285368D01*
X106649522Y-110225789D01*
X106802262Y-110129816D01*
X106929816Y-110002262D01*
X107025789Y-109849522D01*
X107085368Y-109679255D01*
X107090724Y-109631722D01*
X107105565Y-109500003D01*
X107105565Y-109499996D01*
X107085369Y-109320750D01*
X107085368Y-109320745D01*
X107048315Y-109214855D01*
X107025789Y-109150478D01*
X107018486Y-109138856D01*
X106949098Y-109028425D01*
X106929816Y-108997738D01*
X106802262Y-108870184D01*
X106769379Y-108849522D01*
X106649523Y-108774211D01*
X106479254Y-108714631D01*
X106479249Y-108714630D01*
X106300004Y-108694435D01*
X106299996Y-108694435D01*
X106120750Y-108714630D01*
X106120745Y-108714631D01*
X105950476Y-108774211D01*
X105797737Y-108870184D01*
X105670184Y-108997737D01*
X105574211Y-109150476D01*
X105514631Y-109320745D01*
X105514630Y-109320750D01*
X105494435Y-109499996D01*
X102178110Y-109499996D01*
X102185368Y-109479255D01*
X102185369Y-109479249D01*
X102205565Y-109300003D01*
X102205565Y-109299996D01*
X102185369Y-109120750D01*
X102185368Y-109120745D01*
X102172161Y-109083002D01*
X102125789Y-108950478D01*
X102113999Y-108931715D01*
X102062955Y-108850478D01*
X102029816Y-108797738D01*
X101902262Y-108670184D01*
X101869377Y-108649521D01*
X101749523Y-108574211D01*
X101579254Y-108514631D01*
X101579249Y-108514630D01*
X101400004Y-108494435D01*
X101399996Y-108494435D01*
X101220750Y-108514630D01*
X101220745Y-108514631D01*
X101050476Y-108574211D01*
X100897737Y-108670184D01*
X100770184Y-108797737D01*
X100674211Y-108950476D01*
X100614631Y-109120745D01*
X100614630Y-109120750D01*
X100594435Y-109299996D01*
X100594435Y-109300003D01*
X100598507Y-109336145D01*
X100586452Y-109404967D01*
X100539103Y-109456346D01*
X100471493Y-109473970D01*
X100405087Y-109452243D01*
X100387606Y-109437710D01*
X100354863Y-109404967D01*
X100311401Y-109361505D01*
X100311397Y-109361502D01*
X100311396Y-109361501D01*
X100125842Y-109231575D01*
X100082217Y-109176998D01*
X100075023Y-109107500D01*
X100106546Y-109045145D01*
X100125842Y-109028425D01*
X100148026Y-109012891D01*
X100311401Y-108898495D01*
X100478495Y-108731401D01*
X100614035Y-108537830D01*
X100713903Y-108323663D01*
X100775063Y-108095408D01*
X100795659Y-107860000D01*
X100775063Y-107624592D01*
X100713903Y-107396337D01*
X100614035Y-107182171D01*
X100611994Y-107179255D01*
X100478494Y-106988597D01*
X100311402Y-106821506D01*
X100311401Y-106821505D01*
X100125405Y-106691269D01*
X100081781Y-106636692D01*
X100074588Y-106567193D01*
X100106110Y-106504839D01*
X100125405Y-106488119D01*
X100311082Y-106358105D01*
X100478105Y-106191082D01*
X100613600Y-105997578D01*
X100659101Y-105900000D01*
X105694540Y-105900000D01*
X105714326Y-106088256D01*
X105714327Y-106088259D01*
X105772818Y-106268277D01*
X105772821Y-106268284D01*
X105867467Y-106432216D01*
X105973090Y-106549522D01*
X105994129Y-106572888D01*
X106147265Y-106684148D01*
X106147270Y-106684151D01*
X106320192Y-106761142D01*
X106320197Y-106761144D01*
X106505354Y-106800500D01*
X106505355Y-106800500D01*
X106694644Y-106800500D01*
X106694646Y-106800500D01*
X106879803Y-106761144D01*
X107052730Y-106684151D01*
X107205871Y-106572888D01*
X107332533Y-106432216D01*
X107427179Y-106268284D01*
X107485674Y-106088256D01*
X107505460Y-105900000D01*
X109094540Y-105900000D01*
X109114326Y-106088256D01*
X109114327Y-106088259D01*
X109172818Y-106268277D01*
X109172821Y-106268284D01*
X109267467Y-106432216D01*
X109373090Y-106549522D01*
X109394129Y-106572888D01*
X109547265Y-106684148D01*
X109547270Y-106684151D01*
X109720192Y-106761142D01*
X109720197Y-106761144D01*
X109905354Y-106800500D01*
X109905355Y-106800500D01*
X110094644Y-106800500D01*
X110094646Y-106800500D01*
X110216162Y-106774671D01*
X110285828Y-106779987D01*
X110341562Y-106822124D01*
X110365667Y-106887704D01*
X110350490Y-106955905D01*
X110307915Y-107000954D01*
X110197739Y-107070182D01*
X110070184Y-107197737D01*
X109974211Y-107350476D01*
X109914631Y-107520745D01*
X109914630Y-107520750D01*
X109894435Y-107699996D01*
X109894435Y-107700003D01*
X109914630Y-107879249D01*
X109914631Y-107879254D01*
X109974211Y-108049523D01*
X110037646Y-108150478D01*
X110070184Y-108202262D01*
X110197738Y-108329816D01*
X110223164Y-108345792D01*
X110342924Y-108421043D01*
X110350478Y-108425789D01*
X110444221Y-108458591D01*
X110520745Y-108485368D01*
X110520750Y-108485369D01*
X110699996Y-108505565D01*
X110700000Y-108505565D01*
X110700004Y-108505565D01*
X110879249Y-108485369D01*
X110879252Y-108485368D01*
X110879255Y-108485368D01*
X111049522Y-108425789D01*
X111202262Y-108329816D01*
X111329816Y-108202262D01*
X111425789Y-108049522D01*
X111485368Y-107879255D01*
X111486390Y-107870183D01*
X111505565Y-107700003D01*
X111505565Y-107699996D01*
X112894435Y-107699996D01*
X112894435Y-107700003D01*
X112914630Y-107879249D01*
X112914631Y-107879254D01*
X112974211Y-108049523D01*
X113037646Y-108150478D01*
X113070184Y-108202262D01*
X113197738Y-108329816D01*
X113223164Y-108345792D01*
X113342924Y-108421043D01*
X113350478Y-108425789D01*
X113444221Y-108458591D01*
X113520745Y-108485368D01*
X113520750Y-108485369D01*
X113699996Y-108505565D01*
X113700000Y-108505565D01*
X113700004Y-108505565D01*
X113879246Y-108485369D01*
X113879245Y-108485369D01*
X113879255Y-108485368D01*
X113955779Y-108458590D01*
X114025557Y-108455029D01*
X114062705Y-108470638D01*
X114149983Y-108525478D01*
X114150478Y-108525789D01*
X114277326Y-108570175D01*
X114320745Y-108585368D01*
X114320750Y-108585369D01*
X114499996Y-108605565D01*
X114500000Y-108605565D01*
X114500004Y-108605565D01*
X114679249Y-108585369D01*
X114679252Y-108585368D01*
X114679255Y-108585368D01*
X114849522Y-108525789D01*
X115002262Y-108429816D01*
X115089871Y-108342206D01*
X115151190Y-108308724D01*
X115220882Y-108313708D01*
X115276816Y-108355579D01*
X115301233Y-108421043D01*
X115300769Y-108443772D01*
X115294435Y-108499994D01*
X115294435Y-108500003D01*
X115314630Y-108679249D01*
X115314631Y-108679254D01*
X115374211Y-108849523D01*
X115437646Y-108950478D01*
X115470184Y-109002262D01*
X115597738Y-109129816D01*
X115672828Y-109176998D01*
X115748461Y-109224522D01*
X115750478Y-109225789D01*
X115851240Y-109261047D01*
X115920745Y-109285368D01*
X115920750Y-109285369D01*
X116099996Y-109305565D01*
X116100000Y-109305565D01*
X116100004Y-109305565D01*
X116279249Y-109285369D01*
X116279252Y-109285368D01*
X116279255Y-109285368D01*
X116279256Y-109285367D01*
X116279259Y-109285367D01*
X116310182Y-109274546D01*
X116348760Y-109261046D01*
X116418538Y-109257484D01*
X116479165Y-109292212D01*
X116511393Y-109354205D01*
X116512935Y-109364201D01*
X116514631Y-109379251D01*
X116514631Y-109379254D01*
X116574211Y-109549523D01*
X116637045Y-109649522D01*
X116670184Y-109702262D01*
X116797738Y-109829816D01*
X116950478Y-109925789D01*
X117061479Y-109964630D01*
X117120745Y-109985368D01*
X117120750Y-109985369D01*
X117299996Y-110005565D01*
X117300000Y-110005565D01*
X117300004Y-110005565D01*
X117479249Y-109985369D01*
X117479252Y-109985368D01*
X117479255Y-109985368D01*
X117649522Y-109925789D01*
X117802262Y-109829816D01*
X117929816Y-109702262D01*
X118025789Y-109549522D01*
X118085368Y-109379255D01*
X118085368Y-109379252D01*
X118085369Y-109379249D01*
X118105565Y-109200003D01*
X118105565Y-109199996D01*
X118085369Y-109020750D01*
X118085368Y-109020745D01*
X118025789Y-108850478D01*
X118025188Y-108849522D01*
X117973829Y-108767784D01*
X117929816Y-108697738D01*
X117802262Y-108570184D01*
X117763522Y-108545842D01*
X117649523Y-108474211D01*
X117479254Y-108414631D01*
X117479249Y-108414630D01*
X117300004Y-108394435D01*
X117299996Y-108394435D01*
X117120750Y-108414630D01*
X117120742Y-108414632D01*
X117051238Y-108438953D01*
X116981460Y-108442514D01*
X116920832Y-108407785D01*
X116888605Y-108345792D01*
X116887063Y-108335793D01*
X116885368Y-108320745D01*
X116878108Y-108299996D01*
X141394435Y-108299996D01*
X141394435Y-108300003D01*
X141414630Y-108479249D01*
X141414631Y-108479254D01*
X141474211Y-108649523D01*
X141548520Y-108767784D01*
X141570184Y-108802262D01*
X141697738Y-108929816D01*
X141788080Y-108986582D01*
X141842450Y-109020745D01*
X141850478Y-109025789D01*
X142013983Y-109083002D01*
X142020745Y-109085368D01*
X142020750Y-109085369D01*
X142199996Y-109105565D01*
X142200000Y-109105565D01*
X142200004Y-109105565D01*
X142379249Y-109085369D01*
X142379252Y-109085368D01*
X142379255Y-109085368D01*
X142549522Y-109025789D01*
X142702262Y-108929816D01*
X142757082Y-108874996D01*
X145369435Y-108874996D01*
X145369435Y-108875003D01*
X145389630Y-109054249D01*
X145389631Y-109054254D01*
X145449211Y-109224523D01*
X145545184Y-109377262D01*
X145559926Y-109392004D01*
X145593411Y-109453327D01*
X145588427Y-109523019D01*
X145577246Y-109545646D01*
X145574210Y-109550478D01*
X145514633Y-109720737D01*
X145514630Y-109720750D01*
X145494435Y-109899996D01*
X145494435Y-109900003D01*
X145514630Y-110079249D01*
X145514631Y-110079254D01*
X145574211Y-110249523D01*
X145648520Y-110367784D01*
X145670184Y-110402262D01*
X145797738Y-110529816D01*
X145801558Y-110532216D01*
X145941557Y-110620184D01*
X145950478Y-110625789D01*
X146085079Y-110672888D01*
X146120745Y-110685368D01*
X146120750Y-110685369D01*
X146299996Y-110705565D01*
X146300000Y-110705565D01*
X146300004Y-110705565D01*
X146479249Y-110685369D01*
X146479252Y-110685368D01*
X146479255Y-110685368D01*
X146649522Y-110625789D01*
X146802262Y-110529816D01*
X146929816Y-110402262D01*
X147025789Y-110249522D01*
X147085368Y-110079255D01*
X147091392Y-110025789D01*
X147105565Y-109900003D01*
X147105565Y-109899996D01*
X147085369Y-109720750D01*
X147085368Y-109720745D01*
X147083063Y-109714158D01*
X147025789Y-109550478D01*
X147025188Y-109549522D01*
X146929815Y-109397737D01*
X146915072Y-109382994D01*
X146881587Y-109321671D01*
X146886571Y-109251979D01*
X146897759Y-109229344D01*
X146900789Y-109224522D01*
X146928832Y-109144377D01*
X146960366Y-109054262D01*
X146960369Y-109054249D01*
X146980565Y-108875003D01*
X146980565Y-108874996D01*
X146960369Y-108695750D01*
X146960368Y-108695745D01*
X146944194Y-108649522D01*
X146900789Y-108525478D01*
X146893973Y-108514631D01*
X146840681Y-108429817D01*
X146804816Y-108372738D01*
X146677262Y-108245184D01*
X146524523Y-108149211D01*
X146354254Y-108089631D01*
X146354249Y-108089630D01*
X146175004Y-108069435D01*
X146174996Y-108069435D01*
X145995750Y-108089630D01*
X145995745Y-108089631D01*
X145825476Y-108149211D01*
X145672737Y-108245184D01*
X145545184Y-108372737D01*
X145449211Y-108525476D01*
X145389631Y-108695745D01*
X145389630Y-108695750D01*
X145369435Y-108874996D01*
X142757082Y-108874996D01*
X142829816Y-108802262D01*
X142925789Y-108649522D01*
X142953553Y-108570174D01*
X142994274Y-108513398D01*
X143056711Y-108487907D01*
X143079255Y-108485368D01*
X143249522Y-108425789D01*
X143402262Y-108329816D01*
X143529816Y-108202262D01*
X143625789Y-108049522D01*
X143685368Y-107879255D01*
X143686390Y-107870183D01*
X143705565Y-107700003D01*
X143705565Y-107699996D01*
X143685369Y-107520750D01*
X143685368Y-107520745D01*
X143682340Y-107512091D01*
X143625789Y-107350478D01*
X143625188Y-107349522D01*
X143562186Y-107249254D01*
X143529816Y-107197738D01*
X143402262Y-107070184D01*
X143362133Y-107044969D01*
X143249523Y-106974211D01*
X143079254Y-106914631D01*
X143079249Y-106914630D01*
X142900004Y-106894435D01*
X142899996Y-106894435D01*
X142720750Y-106914630D01*
X142720745Y-106914631D01*
X142550476Y-106974211D01*
X142397737Y-107070184D01*
X142270184Y-107197737D01*
X142174212Y-107350475D01*
X142174211Y-107350476D01*
X142146445Y-107429827D01*
X142105723Y-107486602D01*
X142043289Y-107512091D01*
X142020750Y-107514630D01*
X141850478Y-107574210D01*
X141697737Y-107670184D01*
X141570184Y-107797737D01*
X141474211Y-107950476D01*
X141414631Y-108120745D01*
X141414630Y-108120750D01*
X141394435Y-108299996D01*
X116878108Y-108299996D01*
X116825789Y-108150478D01*
X116825188Y-108149522D01*
X116729815Y-107997737D01*
X116602262Y-107870184D01*
X116449523Y-107774211D01*
X116279254Y-107714631D01*
X116279249Y-107714630D01*
X116100004Y-107694435D01*
X116099996Y-107694435D01*
X115920750Y-107714630D01*
X115920745Y-107714631D01*
X115750476Y-107774211D01*
X115597739Y-107870183D01*
X115510131Y-107957791D01*
X115448807Y-107991275D01*
X115379116Y-107986291D01*
X115323182Y-107944419D01*
X115298766Y-107878954D01*
X115299230Y-107856225D01*
X115305565Y-107800002D01*
X115305565Y-107799996D01*
X115285369Y-107620750D01*
X115285368Y-107620745D01*
X115268403Y-107572262D01*
X115225789Y-107450478D01*
X115129816Y-107297738D01*
X115002262Y-107170184D01*
X114938017Y-107129816D01*
X114849523Y-107074211D01*
X114679254Y-107014631D01*
X114679249Y-107014630D01*
X114500004Y-106994435D01*
X114499996Y-106994435D01*
X114320746Y-107014631D01*
X114320742Y-107014632D01*
X114244216Y-107041408D01*
X114174437Y-107044969D01*
X114137293Y-107029360D01*
X114049520Y-106974209D01*
X113879262Y-106914633D01*
X113879249Y-106914630D01*
X113700004Y-106894435D01*
X113699996Y-106894435D01*
X113520750Y-106914630D01*
X113520745Y-106914631D01*
X113350476Y-106974211D01*
X113197737Y-107070184D01*
X113070184Y-107197737D01*
X112974211Y-107350476D01*
X112914631Y-107520745D01*
X112914630Y-107520750D01*
X112894435Y-107699996D01*
X111505565Y-107699996D01*
X111485369Y-107520750D01*
X111485368Y-107520745D01*
X111482340Y-107512091D01*
X111425789Y-107350478D01*
X111425188Y-107349522D01*
X111362186Y-107249254D01*
X111329816Y-107197738D01*
X111202262Y-107070184D01*
X111162133Y-107044969D01*
X111049523Y-106974211D01*
X110879254Y-106914631D01*
X110879249Y-106914630D01*
X110700004Y-106894435D01*
X110699996Y-106894435D01*
X110530793Y-106913499D01*
X110461971Y-106901444D01*
X110410592Y-106854095D01*
X110392968Y-106786485D01*
X110414695Y-106720079D01*
X110448256Y-106689048D01*
X110447473Y-106687971D01*
X110518052Y-106636692D01*
X110605871Y-106572888D01*
X110732533Y-106432216D01*
X110827179Y-106268284D01*
X110849367Y-106199996D01*
X119294435Y-106199996D01*
X119294435Y-106200003D01*
X119314630Y-106379249D01*
X119314631Y-106379254D01*
X119374211Y-106549523D01*
X119437646Y-106650478D01*
X119470184Y-106702262D01*
X119597738Y-106829816D01*
X119636378Y-106854095D01*
X119732721Y-106914632D01*
X119750478Y-106925789D01*
X119888860Y-106974211D01*
X119920745Y-106985368D01*
X119920750Y-106985369D01*
X120099996Y-107005565D01*
X120100000Y-107005565D01*
X120100004Y-107005565D01*
X120279249Y-106985369D01*
X120279252Y-106985368D01*
X120279255Y-106985368D01*
X120449522Y-106925789D01*
X120490571Y-106899996D01*
X121494435Y-106899996D01*
X121494435Y-106900003D01*
X121514630Y-107079249D01*
X121514631Y-107079254D01*
X121574211Y-107249523D01*
X121637646Y-107350478D01*
X121670184Y-107402262D01*
X121797738Y-107529816D01*
X121868391Y-107574210D01*
X121942450Y-107620745D01*
X121950478Y-107625789D01*
X121961984Y-107629815D01*
X122120745Y-107685368D01*
X122120750Y-107685369D01*
X122299996Y-107705565D01*
X122300000Y-107705565D01*
X122300004Y-107705565D01*
X122479249Y-107685369D01*
X122479252Y-107685368D01*
X122479255Y-107685368D01*
X122649522Y-107625789D01*
X122802262Y-107529816D01*
X122929816Y-107402262D01*
X123025789Y-107249522D01*
X123085368Y-107079255D01*
X123085369Y-107079249D01*
X123105565Y-106900003D01*
X123105565Y-106899996D01*
X123085369Y-106720750D01*
X123085368Y-106720745D01*
X123085135Y-106720079D01*
X123025789Y-106550478D01*
X123025188Y-106549522D01*
X122994069Y-106499996D01*
X124644434Y-106499996D01*
X124644434Y-106500003D01*
X124664629Y-106679249D01*
X124664630Y-106679254D01*
X124724210Y-106849523D01*
X124791055Y-106955905D01*
X124820183Y-107002262D01*
X124947737Y-107129816D01*
X125011982Y-107170184D01*
X125099184Y-107224977D01*
X125100477Y-107225789D01*
X125168305Y-107249523D01*
X125270744Y-107285368D01*
X125270749Y-107285369D01*
X125449995Y-107305565D01*
X125449999Y-107305565D01*
X125450003Y-107305565D01*
X125629248Y-107285369D01*
X125629251Y-107285368D01*
X125629254Y-107285368D01*
X125799521Y-107225789D01*
X125952261Y-107129816D01*
X126079815Y-107002262D01*
X126081239Y-106999996D01*
X129394435Y-106999996D01*
X129394435Y-107000003D01*
X129414630Y-107179249D01*
X129414631Y-107179254D01*
X129474211Y-107349523D01*
X129537646Y-107450478D01*
X129570184Y-107502262D01*
X129697738Y-107629816D01*
X129761983Y-107670184D01*
X129832721Y-107714632D01*
X129850478Y-107725789D01*
X129988860Y-107774211D01*
X130020745Y-107785368D01*
X130020750Y-107785369D01*
X130199996Y-107805565D01*
X130200000Y-107805565D01*
X130200004Y-107805565D01*
X130379249Y-107785369D01*
X130379252Y-107785368D01*
X130379255Y-107785368D01*
X130549522Y-107725789D01*
X130702262Y-107629816D01*
X130829816Y-107502262D01*
X130925789Y-107349522D01*
X130985368Y-107179255D01*
X130985369Y-107179249D01*
X130997679Y-107069996D01*
X131464435Y-107069996D01*
X131464435Y-107070003D01*
X131484630Y-107249249D01*
X131484631Y-107249254D01*
X131544211Y-107419523D01*
X131607817Y-107520750D01*
X131640184Y-107572262D01*
X131767738Y-107699816D01*
X131791316Y-107714631D01*
X131903894Y-107785369D01*
X131920478Y-107795789D01*
X132090745Y-107855368D01*
X132090750Y-107855369D01*
X132269996Y-107875565D01*
X132270000Y-107875565D01*
X132270004Y-107875565D01*
X132449249Y-107855369D01*
X132449252Y-107855368D01*
X132449255Y-107855368D01*
X132619522Y-107795789D01*
X132772262Y-107699816D01*
X132899816Y-107572262D01*
X132995789Y-107419522D01*
X133055368Y-107249255D01*
X133058012Y-107225788D01*
X133075565Y-107070003D01*
X133075565Y-107069996D01*
X133055369Y-106890750D01*
X133055368Y-106890745D01*
X133014752Y-106774671D01*
X132995789Y-106720478D01*
X132995538Y-106720079D01*
X132913804Y-106590000D01*
X132899816Y-106567738D01*
X132772262Y-106440184D01*
X132704708Y-106397737D01*
X132619523Y-106344211D01*
X132449254Y-106284631D01*
X132449249Y-106284630D01*
X132270004Y-106264435D01*
X132269996Y-106264435D01*
X132090750Y-106284630D01*
X132090745Y-106284631D01*
X131920476Y-106344211D01*
X131767737Y-106440184D01*
X131640184Y-106567737D01*
X131544211Y-106720476D01*
X131484631Y-106890745D01*
X131484630Y-106890750D01*
X131464435Y-107069996D01*
X130997679Y-107069996D01*
X131005565Y-107000003D01*
X131005565Y-106999996D01*
X130985369Y-106820750D01*
X130985368Y-106820745D01*
X130938206Y-106685965D01*
X130925789Y-106650478D01*
X130829816Y-106497738D01*
X130702262Y-106370184D01*
X130683656Y-106358493D01*
X130549523Y-106274211D01*
X130379254Y-106214631D01*
X130379249Y-106214630D01*
X130200004Y-106194435D01*
X130199996Y-106194435D01*
X130020750Y-106214630D01*
X130020745Y-106214631D01*
X129850476Y-106274211D01*
X129697737Y-106370184D01*
X129570184Y-106497737D01*
X129474211Y-106650476D01*
X129414631Y-106820745D01*
X129414630Y-106820750D01*
X129394435Y-106999996D01*
X126081239Y-106999996D01*
X126175788Y-106849522D01*
X126235367Y-106679255D01*
X126235863Y-106674855D01*
X126255564Y-106500003D01*
X126255564Y-106499996D01*
X126235368Y-106320750D01*
X126235367Y-106320745D01*
X126175788Y-106150478D01*
X126153264Y-106114632D01*
X126084633Y-106005406D01*
X126079815Y-105997738D01*
X125952261Y-105870184D01*
X125920896Y-105850476D01*
X125799522Y-105774211D01*
X125629253Y-105714631D01*
X125629248Y-105714630D01*
X125450003Y-105694435D01*
X125449995Y-105694435D01*
X125270749Y-105714630D01*
X125270744Y-105714631D01*
X125100475Y-105774211D01*
X124947736Y-105870184D01*
X124820183Y-105997737D01*
X124724210Y-106150476D01*
X124664630Y-106320745D01*
X124664629Y-106320750D01*
X124644434Y-106499996D01*
X122994069Y-106499996D01*
X122986582Y-106488080D01*
X122929816Y-106397738D01*
X122802262Y-106270184D01*
X122713852Y-106214632D01*
X122649523Y-106174211D01*
X122479254Y-106114631D01*
X122479249Y-106114630D01*
X122300004Y-106094435D01*
X122299996Y-106094435D01*
X122120750Y-106114630D01*
X122120745Y-106114631D01*
X121950476Y-106174211D01*
X121797737Y-106270184D01*
X121670184Y-106397737D01*
X121574211Y-106550476D01*
X121514631Y-106720745D01*
X121514630Y-106720750D01*
X121494435Y-106899996D01*
X120490571Y-106899996D01*
X120602262Y-106829816D01*
X120729816Y-106702262D01*
X120825789Y-106549522D01*
X120885368Y-106379255D01*
X120887707Y-106358495D01*
X120905565Y-106200003D01*
X120905565Y-106199996D01*
X120885369Y-106020750D01*
X120885368Y-106020745D01*
X120877348Y-105997826D01*
X120825789Y-105850478D01*
X120806638Y-105820000D01*
X120740431Y-105714632D01*
X120729816Y-105697738D01*
X120602262Y-105570184D01*
X120570641Y-105550315D01*
X120449523Y-105474211D01*
X120279254Y-105414631D01*
X120279249Y-105414630D01*
X120100004Y-105394435D01*
X120099996Y-105394435D01*
X119920750Y-105414630D01*
X119920745Y-105414631D01*
X119750476Y-105474211D01*
X119597737Y-105570184D01*
X119470184Y-105697737D01*
X119374211Y-105850476D01*
X119314631Y-106020745D01*
X119314630Y-106020750D01*
X119294435Y-106199996D01*
X110849367Y-106199996D01*
X110885674Y-106088256D01*
X110905460Y-105900000D01*
X110885674Y-105711744D01*
X110885616Y-105711568D01*
X110885613Y-105711462D01*
X110884322Y-105705383D01*
X110885433Y-105705146D01*
X110883620Y-105641728D01*
X110919699Y-105581894D01*
X110962592Y-105556207D01*
X111013424Y-105538420D01*
X111049520Y-105525790D01*
X111049522Y-105525789D01*
X111202262Y-105429816D01*
X111329816Y-105302262D01*
X111425789Y-105149522D01*
X111485368Y-104979255D01*
X111494043Y-104902262D01*
X111505565Y-104800003D01*
X111505565Y-104799996D01*
X111485369Y-104620750D01*
X111485368Y-104620745D01*
X111470848Y-104579249D01*
X111443116Y-104499996D01*
X112094435Y-104499996D01*
X112094435Y-104500003D01*
X112114630Y-104679249D01*
X112114631Y-104679254D01*
X112174211Y-104849523D01*
X112218433Y-104919901D01*
X112270184Y-105002262D01*
X112397738Y-105129816D01*
X112550478Y-105225789D01*
X112631598Y-105254174D01*
X112720745Y-105285368D01*
X112720750Y-105285369D01*
X112899996Y-105305565D01*
X112900000Y-105305565D01*
X112900004Y-105305565D01*
X113079249Y-105285369D01*
X113079252Y-105285368D01*
X113079255Y-105285368D01*
X113249522Y-105225789D01*
X113402262Y-105129816D01*
X113529816Y-105002262D01*
X113625789Y-104849522D01*
X113685368Y-104679255D01*
X113689518Y-104642422D01*
X113705565Y-104500003D01*
X113705565Y-104499996D01*
X113694298Y-104399996D01*
X127894435Y-104399996D01*
X127894435Y-104400003D01*
X127914630Y-104579249D01*
X127914631Y-104579254D01*
X127974211Y-104749523D01*
X128005926Y-104799996D01*
X128070184Y-104902262D01*
X128197738Y-105029816D01*
X128279525Y-105081206D01*
X128334661Y-105115851D01*
X128350478Y-105125789D01*
X128418306Y-105149523D01*
X128520745Y-105185368D01*
X128520750Y-105185369D01*
X128699996Y-105205565D01*
X128700000Y-105205565D01*
X128700004Y-105205565D01*
X128879249Y-105185369D01*
X128879252Y-105185368D01*
X128879255Y-105185368D01*
X129049522Y-105125789D01*
X129202262Y-105029816D01*
X129329816Y-104902262D01*
X129425789Y-104749522D01*
X129485368Y-104579255D01*
X129485369Y-104579249D01*
X129505565Y-104400003D01*
X129505565Y-104399996D01*
X129485369Y-104220750D01*
X129485368Y-104220745D01*
X129461164Y-104151575D01*
X129425789Y-104050478D01*
X129403265Y-104014632D01*
X129329815Y-103897737D01*
X129202262Y-103770184D01*
X129049523Y-103674211D01*
X128879254Y-103614631D01*
X128879249Y-103614630D01*
X128700004Y-103594435D01*
X128699996Y-103594435D01*
X128520750Y-103614630D01*
X128520745Y-103614631D01*
X128350476Y-103674211D01*
X128197737Y-103770184D01*
X128070184Y-103897737D01*
X127974211Y-104050476D01*
X127914631Y-104220745D01*
X127914630Y-104220750D01*
X127894435Y-104399996D01*
X113694298Y-104399996D01*
X113685369Y-104320750D01*
X113685368Y-104320745D01*
X113625789Y-104150478D01*
X113622953Y-104145965D01*
X113562955Y-104050478D01*
X113529816Y-103997738D01*
X113402262Y-103870184D01*
X113249523Y-103774211D01*
X113079254Y-103714631D01*
X113079249Y-103714630D01*
X112900004Y-103694435D01*
X112899996Y-103694435D01*
X112720750Y-103714630D01*
X112720745Y-103714631D01*
X112550476Y-103774211D01*
X112397737Y-103870184D01*
X112270184Y-103997737D01*
X112174211Y-104150476D01*
X112114631Y-104320745D01*
X112114630Y-104320750D01*
X112094435Y-104499996D01*
X111443116Y-104499996D01*
X111425789Y-104450478D01*
X111424811Y-104448922D01*
X111329815Y-104297737D01*
X111202262Y-104170184D01*
X111049523Y-104074211D01*
X110879254Y-104014631D01*
X110879249Y-104014630D01*
X110700004Y-103994435D01*
X110699996Y-103994435D01*
X110520750Y-104014630D01*
X110520745Y-104014631D01*
X110350476Y-104074211D01*
X110197737Y-104170184D01*
X110070184Y-104297737D01*
X109974211Y-104450476D01*
X109914631Y-104620745D01*
X109914630Y-104620750D01*
X109894435Y-104799996D01*
X109894435Y-104800003D01*
X109904047Y-104885315D01*
X109891992Y-104954137D01*
X109844643Y-105005516D01*
X109806609Y-105020488D01*
X109720196Y-105038856D01*
X109720192Y-105038857D01*
X109547270Y-105115848D01*
X109547265Y-105115851D01*
X109394129Y-105227111D01*
X109267466Y-105367785D01*
X109172821Y-105531715D01*
X109172818Y-105531722D01*
X109114383Y-105711569D01*
X109114326Y-105711744D01*
X109094540Y-105900000D01*
X107505460Y-105900000D01*
X107485674Y-105711744D01*
X107427179Y-105531716D01*
X107332533Y-105367784D01*
X107205871Y-105227112D01*
X107204049Y-105225788D01*
X107052734Y-105115851D01*
X107052729Y-105115848D01*
X106879807Y-105038857D01*
X106879802Y-105038855D01*
X106707640Y-105002262D01*
X106694646Y-104999500D01*
X106505354Y-104999500D01*
X106492360Y-105002262D01*
X106320197Y-105038855D01*
X106320192Y-105038857D01*
X106147270Y-105115848D01*
X106147265Y-105115851D01*
X105994129Y-105227111D01*
X105867466Y-105367785D01*
X105772821Y-105531715D01*
X105772818Y-105531722D01*
X105714383Y-105711569D01*
X105714326Y-105711744D01*
X105694540Y-105900000D01*
X100659101Y-105900000D01*
X100713429Y-105783492D01*
X100713432Y-105783486D01*
X100770636Y-105570000D01*
X99873012Y-105570000D01*
X99905925Y-105512993D01*
X99940000Y-105385826D01*
X99940000Y-105254174D01*
X99905925Y-105127007D01*
X99873012Y-105070000D01*
X100770636Y-105070000D01*
X100770635Y-105069999D01*
X100713432Y-104856513D01*
X100713429Y-104856507D01*
X100613600Y-104642422D01*
X100613599Y-104642420D01*
X100478113Y-104448926D01*
X100478108Y-104448920D01*
X100311078Y-104281890D01*
X100125405Y-104151879D01*
X100081780Y-104097302D01*
X100074588Y-104027804D01*
X100106110Y-103965449D01*
X100125406Y-103948730D01*
X100198230Y-103897738D01*
X100311401Y-103818495D01*
X100478495Y-103651401D01*
X100614035Y-103457830D01*
X100713903Y-103243663D01*
X100775063Y-103015408D01*
X100795659Y-102780000D01*
X100775063Y-102544592D01*
X100713903Y-102316337D01*
X100614035Y-102102171D01*
X100608425Y-102094158D01*
X100478494Y-101908597D01*
X100311402Y-101741506D01*
X100311396Y-101741501D01*
X100125842Y-101611575D01*
X100082217Y-101556998D01*
X100076317Y-101499996D01*
X100694435Y-101499996D01*
X100694435Y-101500003D01*
X100714630Y-101679249D01*
X100714631Y-101679254D01*
X100774211Y-101849523D01*
X100826170Y-101932214D01*
X100870184Y-102002262D01*
X100997738Y-102129816D01*
X101150478Y-102225789D01*
X101251511Y-102261142D01*
X101320745Y-102285368D01*
X101320750Y-102285369D01*
X101499996Y-102305565D01*
X101500000Y-102305565D01*
X101500004Y-102305565D01*
X101679249Y-102285369D01*
X101679252Y-102285368D01*
X101679255Y-102285368D01*
X101780342Y-102249996D01*
X123044435Y-102249996D01*
X123044435Y-102250003D01*
X123064630Y-102429249D01*
X123064631Y-102429254D01*
X123124211Y-102599523D01*
X123203549Y-102725788D01*
X123220184Y-102752262D01*
X123347738Y-102879816D01*
X123500478Y-102975789D01*
X123613703Y-103015408D01*
X123670745Y-103035368D01*
X123670750Y-103035369D01*
X123849996Y-103055565D01*
X123850000Y-103055565D01*
X123850004Y-103055565D01*
X124029249Y-103035369D01*
X124029252Y-103035368D01*
X124029255Y-103035368D01*
X124199522Y-102975789D01*
X124352262Y-102879816D01*
X124462652Y-102769425D01*
X124523971Y-102735943D01*
X124591285Y-102740068D01*
X124720737Y-102785366D01*
X124720743Y-102785367D01*
X124720745Y-102785368D01*
X124720746Y-102785368D01*
X124720750Y-102785369D01*
X124899996Y-102805565D01*
X124900000Y-102805565D01*
X124900004Y-102805565D01*
X125079249Y-102785369D01*
X125079252Y-102785368D01*
X125079255Y-102785368D01*
X125249522Y-102725789D01*
X125402262Y-102629816D01*
X125529816Y-102502262D01*
X125625789Y-102349522D01*
X125678109Y-102200000D01*
X137694540Y-102200000D01*
X137714326Y-102388256D01*
X137714327Y-102388259D01*
X137772818Y-102568277D01*
X137772821Y-102568284D01*
X137867467Y-102732216D01*
X137933511Y-102805565D01*
X137994129Y-102872888D01*
X138147265Y-102984148D01*
X138147270Y-102984151D01*
X138320192Y-103061142D01*
X138320197Y-103061144D01*
X138505354Y-103100500D01*
X138505355Y-103100500D01*
X138694644Y-103100500D01*
X138694646Y-103100500D01*
X138879803Y-103061144D01*
X139052730Y-102984151D01*
X139205871Y-102872888D01*
X139332533Y-102732216D01*
X139427179Y-102568284D01*
X139485674Y-102388256D01*
X139505460Y-102200000D01*
X139485674Y-102011744D01*
X139427179Y-101831716D01*
X139332533Y-101667784D01*
X139205871Y-101527112D01*
X139187900Y-101514055D01*
X139052734Y-101415851D01*
X139052729Y-101415848D01*
X139017134Y-101400000D01*
X146994540Y-101400000D01*
X147014326Y-101588256D01*
X147014327Y-101588259D01*
X147072818Y-101768277D01*
X147072821Y-101768284D01*
X147167467Y-101932216D01*
X147228503Y-102000003D01*
X147294129Y-102072888D01*
X147447265Y-102184148D01*
X147447270Y-102184151D01*
X147620192Y-102261142D01*
X147620197Y-102261144D01*
X147805354Y-102300500D01*
X147805355Y-102300500D01*
X147994644Y-102300500D01*
X147994646Y-102300500D01*
X148179803Y-102261144D01*
X148352730Y-102184151D01*
X148505871Y-102072888D01*
X148632533Y-101932216D01*
X148727179Y-101768284D01*
X148785674Y-101588256D01*
X148805460Y-101400000D01*
X148785674Y-101211744D01*
X148727179Y-101031716D01*
X148632533Y-100867784D01*
X148505871Y-100727112D01*
X148488694Y-100714632D01*
X148352734Y-100615851D01*
X148352729Y-100615848D01*
X148179807Y-100538857D01*
X148179802Y-100538855D01*
X148023180Y-100505565D01*
X147994646Y-100499500D01*
X147805354Y-100499500D01*
X147776820Y-100505565D01*
X147620197Y-100538855D01*
X147620192Y-100538857D01*
X147447270Y-100615848D01*
X147447265Y-100615851D01*
X147294129Y-100727111D01*
X147167466Y-100867785D01*
X147072821Y-101031715D01*
X147072818Y-101031722D01*
X147019950Y-101194435D01*
X147014326Y-101211744D01*
X146994540Y-101400000D01*
X139017134Y-101400000D01*
X138879807Y-101338857D01*
X138879802Y-101338855D01*
X138734001Y-101307865D01*
X138694646Y-101299500D01*
X138505354Y-101299500D01*
X138472897Y-101306398D01*
X138320197Y-101338855D01*
X138320192Y-101338857D01*
X138147270Y-101415848D01*
X138147265Y-101415851D01*
X137994129Y-101527111D01*
X137867466Y-101667785D01*
X137772821Y-101831715D01*
X137772818Y-101831722D01*
X137740166Y-101932216D01*
X137714326Y-102011744D01*
X137694540Y-102200000D01*
X125678109Y-102200000D01*
X125685368Y-102179255D01*
X125690041Y-102137783D01*
X125705565Y-102000003D01*
X125705565Y-101999996D01*
X125685369Y-101820750D01*
X125685368Y-101820745D01*
X125657639Y-101741501D01*
X125625789Y-101650478D01*
X125529816Y-101497738D01*
X125402262Y-101370184D01*
X125249523Y-101274211D01*
X125079254Y-101214631D01*
X125079249Y-101214630D01*
X124900004Y-101194435D01*
X124899996Y-101194435D01*
X124720750Y-101214630D01*
X124720745Y-101214631D01*
X124550476Y-101274211D01*
X124397737Y-101370184D01*
X124397736Y-101370185D01*
X124287349Y-101480571D01*
X124226026Y-101514055D01*
X124158715Y-101509931D01*
X124029257Y-101464632D01*
X124029249Y-101464630D01*
X123850004Y-101444435D01*
X123849996Y-101444435D01*
X123670750Y-101464630D01*
X123670745Y-101464631D01*
X123500476Y-101524211D01*
X123347737Y-101620184D01*
X123220184Y-101747737D01*
X123124211Y-101900476D01*
X123064631Y-102070745D01*
X123064630Y-102070750D01*
X123044435Y-102249996D01*
X101780342Y-102249996D01*
X101849522Y-102225789D01*
X102002262Y-102129816D01*
X102129816Y-102002262D01*
X102225789Y-101849522D01*
X102285368Y-101679255D01*
X102285369Y-101679249D01*
X102305565Y-101500003D01*
X102305565Y-101499996D01*
X102285369Y-101320750D01*
X102285368Y-101320745D01*
X102247227Y-101211744D01*
X102225789Y-101150478D01*
X102201231Y-101111395D01*
X102186582Y-101088080D01*
X102129816Y-100997738D01*
X102002262Y-100870184D01*
X101921410Y-100819381D01*
X101849523Y-100774211D01*
X101679254Y-100714631D01*
X101679249Y-100714630D01*
X101500004Y-100694435D01*
X101499996Y-100694435D01*
X101320750Y-100714630D01*
X101320745Y-100714631D01*
X101150476Y-100774211D01*
X100997737Y-100870184D01*
X100870184Y-100997737D01*
X100774211Y-101150476D01*
X100714631Y-101320745D01*
X100714630Y-101320750D01*
X100694435Y-101499996D01*
X100076317Y-101499996D01*
X100075023Y-101487500D01*
X100106546Y-101425145D01*
X100125842Y-101408425D01*
X100225195Y-101338857D01*
X100311401Y-101278495D01*
X100478495Y-101111401D01*
X100614035Y-100917830D01*
X100713903Y-100703663D01*
X100775063Y-100475408D01*
X100795659Y-100240000D01*
X100775063Y-100004592D01*
X100713903Y-99776337D01*
X100614035Y-99562171D01*
X100613315Y-99561142D01*
X100478494Y-99368597D01*
X100311402Y-99201506D01*
X100311396Y-99201501D01*
X100166431Y-99099996D01*
X121094435Y-99099996D01*
X121094435Y-99100003D01*
X121114630Y-99279249D01*
X121114631Y-99279254D01*
X121174211Y-99449523D01*
X121244348Y-99561144D01*
X121270184Y-99602262D01*
X121397738Y-99729816D01*
X121550478Y-99825789D01*
X121703258Y-99879249D01*
X121720745Y-99885368D01*
X121720750Y-99885369D01*
X121899996Y-99905565D01*
X121900000Y-99905565D01*
X121900004Y-99905565D01*
X122079249Y-99885369D01*
X122079252Y-99885368D01*
X122079255Y-99885368D01*
X122249522Y-99825789D01*
X122402262Y-99729816D01*
X122432082Y-99699996D01*
X126794435Y-99699996D01*
X126794435Y-99700003D01*
X126814630Y-99879249D01*
X126814631Y-99879254D01*
X126874211Y-100049523D01*
X126970184Y-100202262D01*
X127097738Y-100329816D01*
X127250478Y-100425789D01*
X127392267Y-100475403D01*
X127420745Y-100485368D01*
X127420750Y-100485369D01*
X127599996Y-100505565D01*
X127600000Y-100505565D01*
X127600004Y-100505565D01*
X127779249Y-100485369D01*
X127779252Y-100485368D01*
X127779255Y-100485368D01*
X127949522Y-100425789D01*
X128102262Y-100329816D01*
X128229816Y-100202262D01*
X128325789Y-100049522D01*
X128385368Y-99879255D01*
X128391392Y-99825789D01*
X128405565Y-99700003D01*
X128405565Y-99699996D01*
X128385369Y-99520750D01*
X128385368Y-99520745D01*
X128360446Y-99449522D01*
X128325789Y-99350478D01*
X128229816Y-99197738D01*
X128102262Y-99070184D01*
X128077866Y-99054855D01*
X127949523Y-98974211D01*
X127779254Y-98914631D01*
X127779249Y-98914630D01*
X127600004Y-98894435D01*
X127599996Y-98894435D01*
X127420750Y-98914630D01*
X127420745Y-98914631D01*
X127250476Y-98974211D01*
X127097737Y-99070184D01*
X126970184Y-99197737D01*
X126874211Y-99350476D01*
X126814631Y-99520745D01*
X126814630Y-99520750D01*
X126794435Y-99699996D01*
X122432082Y-99699996D01*
X122529816Y-99602262D01*
X122625789Y-99449522D01*
X122685368Y-99279255D01*
X122690668Y-99232216D01*
X122705565Y-99100003D01*
X122705565Y-99099996D01*
X122685369Y-98920750D01*
X122685368Y-98920745D01*
X122664512Y-98861142D01*
X122625789Y-98750478D01*
X122618261Y-98738498D01*
X122529815Y-98597737D01*
X122402262Y-98470184D01*
X122249523Y-98374211D01*
X122079254Y-98314631D01*
X122079249Y-98314630D01*
X121900004Y-98294435D01*
X121899996Y-98294435D01*
X121720750Y-98314630D01*
X121720745Y-98314631D01*
X121550476Y-98374211D01*
X121397737Y-98470184D01*
X121270184Y-98597737D01*
X121174211Y-98750476D01*
X121114631Y-98920745D01*
X121114630Y-98920750D01*
X121094435Y-99099996D01*
X100166431Y-99099996D01*
X100125842Y-99071575D01*
X100082217Y-99016998D01*
X100075023Y-98947500D01*
X100106546Y-98885145D01*
X100125842Y-98868425D01*
X100148026Y-98852891D01*
X100311401Y-98738495D01*
X100478495Y-98571401D01*
X100614035Y-98377830D01*
X100713903Y-98163663D01*
X100775063Y-97935408D01*
X100795659Y-97700000D01*
X100794750Y-97689616D01*
X100775063Y-97464596D01*
X100775063Y-97464592D01*
X100713903Y-97236337D01*
X100650326Y-97099996D01*
X128894435Y-97099996D01*
X128894435Y-97100003D01*
X128914630Y-97279249D01*
X128914631Y-97279254D01*
X128974211Y-97449523D01*
X128985686Y-97467785D01*
X129070184Y-97602262D01*
X129197738Y-97729816D01*
X129278347Y-97780466D01*
X129338982Y-97818566D01*
X129350478Y-97825789D01*
X129520745Y-97885368D01*
X129520750Y-97885369D01*
X129699996Y-97905565D01*
X129700000Y-97905565D01*
X129700004Y-97905565D01*
X129879249Y-97885369D01*
X129879252Y-97885368D01*
X129879255Y-97885368D01*
X130049522Y-97825789D01*
X130202262Y-97729816D01*
X130329816Y-97602262D01*
X130425789Y-97449522D01*
X130485368Y-97279255D01*
X130492512Y-97215849D01*
X130505565Y-97100003D01*
X130505565Y-97099996D01*
X130485369Y-96920750D01*
X130485368Y-96920745D01*
X130478108Y-96899996D01*
X131494435Y-96899996D01*
X131494435Y-96900003D01*
X131514630Y-97079249D01*
X131514631Y-97079254D01*
X131574211Y-97249523D01*
X131622963Y-97327111D01*
X131670184Y-97402262D01*
X131797738Y-97529816D01*
X131913035Y-97602262D01*
X131950478Y-97625789D01*
X132127318Y-97687668D01*
X132126636Y-97689616D01*
X132178846Y-97718809D01*
X132211713Y-97780466D01*
X132213609Y-97818566D01*
X132203385Y-97915848D01*
X132194540Y-98000000D01*
X132214326Y-98188256D01*
X132214327Y-98188259D01*
X132272818Y-98368277D01*
X132272821Y-98368284D01*
X132367467Y-98532216D01*
X132494129Y-98672888D01*
X132647265Y-98784148D01*
X132647270Y-98784151D01*
X132820192Y-98861142D01*
X132820197Y-98861144D01*
X133005354Y-98900500D01*
X133005355Y-98900500D01*
X133194644Y-98900500D01*
X133194646Y-98900500D01*
X133379803Y-98861144D01*
X133552730Y-98784151D01*
X133668554Y-98700000D01*
X147094540Y-98700000D01*
X147114326Y-98888256D01*
X147114327Y-98888259D01*
X147172818Y-99068277D01*
X147172821Y-99068284D01*
X147267467Y-99232216D01*
X147373949Y-99350476D01*
X147394129Y-99372888D01*
X147547265Y-99484148D01*
X147547270Y-99484151D01*
X147720192Y-99561142D01*
X147720197Y-99561144D01*
X147905354Y-99600500D01*
X147905355Y-99600500D01*
X148094644Y-99600500D01*
X148094646Y-99600500D01*
X148279803Y-99561144D01*
X148452730Y-99484151D01*
X148605871Y-99372888D01*
X148732533Y-99232216D01*
X148827179Y-99068284D01*
X148885674Y-98888256D01*
X148905460Y-98700000D01*
X148885674Y-98511744D01*
X148827179Y-98331716D01*
X148732533Y-98167784D01*
X148605871Y-98027112D01*
X148605870Y-98027111D01*
X148452734Y-97915851D01*
X148452729Y-97915848D01*
X148279807Y-97838857D01*
X148279802Y-97838855D01*
X148134001Y-97807865D01*
X148094646Y-97799500D01*
X147905354Y-97799500D01*
X147872897Y-97806398D01*
X147720197Y-97838855D01*
X147720192Y-97838857D01*
X147547270Y-97915848D01*
X147547265Y-97915851D01*
X147394129Y-98027111D01*
X147267466Y-98167785D01*
X147172821Y-98331715D01*
X147172818Y-98331722D01*
X147114327Y-98511740D01*
X147114326Y-98511744D01*
X147094540Y-98700000D01*
X133668554Y-98700000D01*
X133705871Y-98672888D01*
X133832533Y-98532216D01*
X133927179Y-98368284D01*
X133985674Y-98188256D01*
X134005460Y-98000000D01*
X133985674Y-97811744D01*
X133927179Y-97631716D01*
X133832533Y-97467784D01*
X133771500Y-97400000D01*
X144994540Y-97400000D01*
X145014326Y-97588256D01*
X145014327Y-97588259D01*
X145072818Y-97768277D01*
X145072821Y-97768284D01*
X145167467Y-97932216D01*
X145252911Y-98027111D01*
X145294129Y-98072888D01*
X145447265Y-98184148D01*
X145447270Y-98184151D01*
X145620192Y-98261142D01*
X145620197Y-98261144D01*
X145805354Y-98300500D01*
X145805355Y-98300500D01*
X145994644Y-98300500D01*
X145994646Y-98300500D01*
X146179803Y-98261144D01*
X146352730Y-98184151D01*
X146505871Y-98072888D01*
X146632533Y-97932216D01*
X146727179Y-97768284D01*
X146785674Y-97588256D01*
X146805460Y-97400000D01*
X146785674Y-97211744D01*
X146727179Y-97031716D01*
X146632533Y-96867784D01*
X146505871Y-96727112D01*
X146505870Y-96727111D01*
X146352734Y-96615851D01*
X146352729Y-96615848D01*
X146179807Y-96538857D01*
X146179802Y-96538855D01*
X146034001Y-96507865D01*
X145994646Y-96499500D01*
X145805354Y-96499500D01*
X145772897Y-96506398D01*
X145620197Y-96538855D01*
X145620192Y-96538857D01*
X145447270Y-96615848D01*
X145447265Y-96615851D01*
X145294129Y-96727111D01*
X145167466Y-96867785D01*
X145072821Y-97031715D01*
X145072818Y-97031722D01*
X145031651Y-97158423D01*
X145014326Y-97211744D01*
X144994540Y-97400000D01*
X133771500Y-97400000D01*
X133705871Y-97327112D01*
X133705870Y-97327111D01*
X133552734Y-97215851D01*
X133552729Y-97215848D01*
X133379807Y-97138857D01*
X133379802Y-97138855D01*
X133195730Y-97099730D01*
X133134248Y-97066538D01*
X133100472Y-97005375D01*
X133098291Y-96964555D01*
X133105565Y-96900001D01*
X133105565Y-96899996D01*
X133085369Y-96720750D01*
X133085368Y-96720745D01*
X133042326Y-96597738D01*
X133025789Y-96550478D01*
X133018486Y-96538856D01*
X132964225Y-96452500D01*
X132929816Y-96397738D01*
X132802262Y-96270184D01*
X132649523Y-96174211D01*
X132479254Y-96114631D01*
X132479249Y-96114630D01*
X132300004Y-96094435D01*
X132299996Y-96094435D01*
X132120750Y-96114630D01*
X132120745Y-96114631D01*
X131950476Y-96174211D01*
X131797737Y-96270184D01*
X131670184Y-96397737D01*
X131574211Y-96550476D01*
X131514631Y-96720745D01*
X131514630Y-96720750D01*
X131494435Y-96899996D01*
X130478108Y-96899996D01*
X130425788Y-96750476D01*
X130369884Y-96661506D01*
X130329816Y-96597738D01*
X130202262Y-96470184D01*
X130138310Y-96430000D01*
X130049523Y-96374211D01*
X129879254Y-96314631D01*
X129879249Y-96314630D01*
X129700004Y-96294435D01*
X129699996Y-96294435D01*
X129520750Y-96314630D01*
X129520745Y-96314631D01*
X129350476Y-96374211D01*
X129197737Y-96470184D01*
X129070184Y-96597737D01*
X128974211Y-96750476D01*
X128914631Y-96920745D01*
X128914630Y-96920750D01*
X128894435Y-97099996D01*
X100650326Y-97099996D01*
X100614035Y-97022171D01*
X100608425Y-97014158D01*
X100478494Y-96828597D01*
X100311402Y-96661506D01*
X100311396Y-96661501D01*
X100125842Y-96531575D01*
X100082217Y-96476998D01*
X100075023Y-96407500D01*
X100106546Y-96345145D01*
X100125842Y-96328425D01*
X100148026Y-96312891D01*
X100311401Y-96198495D01*
X100478495Y-96031401D01*
X100614035Y-95837830D01*
X100713903Y-95623663D01*
X100719638Y-95602262D01*
X100729717Y-95564640D01*
X100763267Y-95439431D01*
X100799630Y-95379772D01*
X100862477Y-95349242D01*
X100931853Y-95357536D01*
X100985731Y-95402021D01*
X101000082Y-95430569D01*
X101024209Y-95499520D01*
X101072742Y-95576759D01*
X101120184Y-95652262D01*
X101247738Y-95779816D01*
X101400478Y-95875789D01*
X101485573Y-95905565D01*
X101570745Y-95935368D01*
X101570750Y-95935369D01*
X101749996Y-95955565D01*
X101750000Y-95955565D01*
X101750004Y-95955565D01*
X101929249Y-95935369D01*
X101929252Y-95935368D01*
X101929255Y-95935368D01*
X102099522Y-95875789D01*
X102252262Y-95779816D01*
X102379816Y-95652262D01*
X102475789Y-95499522D01*
X102535368Y-95329255D01*
X102541002Y-95279254D01*
X102555565Y-95150003D01*
X102555565Y-95149996D01*
X102549931Y-95099996D01*
X133994435Y-95099996D01*
X133994435Y-95100003D01*
X134014630Y-95279249D01*
X134014631Y-95279254D01*
X134074211Y-95449523D01*
X134154159Y-95576759D01*
X134170184Y-95602262D01*
X134297738Y-95729816D01*
X134450478Y-95825789D01*
X134593367Y-95875788D01*
X134620745Y-95885368D01*
X134620750Y-95885369D01*
X134799996Y-95905565D01*
X134800000Y-95905565D01*
X134800004Y-95905565D01*
X134979249Y-95885369D01*
X134979252Y-95885368D01*
X134979255Y-95885368D01*
X135149522Y-95825789D01*
X135302262Y-95729816D01*
X135429816Y-95602262D01*
X135525789Y-95449522D01*
X135585368Y-95279255D01*
X135586757Y-95266928D01*
X135605565Y-95100003D01*
X135605565Y-95099996D01*
X135585369Y-94920750D01*
X135585368Y-94920745D01*
X135525788Y-94750476D01*
X135459190Y-94644486D01*
X135429816Y-94597738D01*
X135302262Y-94470184D01*
X135278913Y-94455513D01*
X137719500Y-94455513D01*
X137719500Y-94644486D01*
X137749059Y-94831118D01*
X137807454Y-95010836D01*
X137866535Y-95126788D01*
X137893240Y-95179199D01*
X138004310Y-95332073D01*
X138137927Y-95465690D01*
X138290801Y-95576760D01*
X138340852Y-95602262D01*
X138459163Y-95662545D01*
X138459165Y-95662545D01*
X138459168Y-95662547D01*
X138554819Y-95693626D01*
X138638881Y-95720940D01*
X138825514Y-95750500D01*
X138825519Y-95750500D01*
X140414486Y-95750500D01*
X140601118Y-95720940D01*
X140626456Y-95712707D01*
X140780832Y-95662547D01*
X140949199Y-95576760D01*
X141102073Y-95465690D01*
X141235690Y-95332073D01*
X141346760Y-95179199D01*
X141432547Y-95010832D01*
X141490940Y-94831118D01*
X141494649Y-94807701D01*
X141520500Y-94644486D01*
X141520500Y-94463389D01*
X144699500Y-94463389D01*
X144699500Y-94636611D01*
X144700747Y-94644486D01*
X144725453Y-94800476D01*
X144726598Y-94807701D01*
X144780127Y-94972445D01*
X144858768Y-95126788D01*
X144960586Y-95266928D01*
X145083072Y-95389414D01*
X145223212Y-95491232D01*
X145377555Y-95569873D01*
X145542299Y-95623402D01*
X145713389Y-95650500D01*
X145713390Y-95650500D01*
X147086610Y-95650500D01*
X147086611Y-95650500D01*
X147257701Y-95623402D01*
X147422445Y-95569873D01*
X147576788Y-95491232D01*
X147716928Y-95389414D01*
X147839414Y-95266928D01*
X147941232Y-95126788D01*
X148019873Y-94972445D01*
X148073402Y-94807701D01*
X148100500Y-94636611D01*
X148100500Y-94463389D01*
X148073402Y-94292299D01*
X148019873Y-94127555D01*
X147941232Y-93973212D01*
X147839414Y-93833072D01*
X147716928Y-93710586D01*
X147576788Y-93608768D01*
X147422445Y-93530127D01*
X147257701Y-93476598D01*
X147257699Y-93476597D01*
X147257698Y-93476597D01*
X147126271Y-93455781D01*
X147086611Y-93449500D01*
X145713389Y-93449500D01*
X145673728Y-93455781D01*
X145542302Y-93476597D01*
X145377552Y-93530128D01*
X145223211Y-93608768D01*
X145154769Y-93658495D01*
X145083072Y-93710586D01*
X145083070Y-93710588D01*
X145083069Y-93710588D01*
X144960588Y-93833069D01*
X144960588Y-93833070D01*
X144960586Y-93833072D01*
X144935573Y-93867500D01*
X144858768Y-93973211D01*
X144780128Y-94127552D01*
X144726597Y-94292302D01*
X144713624Y-94374211D01*
X144699500Y-94463389D01*
X141520500Y-94463389D01*
X141520500Y-94455513D01*
X141490940Y-94268881D01*
X141443054Y-94121505D01*
X141432547Y-94089168D01*
X141432545Y-94089165D01*
X141432545Y-94089163D01*
X141374302Y-93974855D01*
X141346760Y-93920801D01*
X141235690Y-93767927D01*
X141102073Y-93634310D01*
X140949199Y-93523240D01*
X140780836Y-93437454D01*
X140601118Y-93379059D01*
X140414486Y-93349500D01*
X140414481Y-93349500D01*
X138825519Y-93349500D01*
X138825514Y-93349500D01*
X138638881Y-93379059D01*
X138459163Y-93437454D01*
X138290800Y-93523240D01*
X138203579Y-93586610D01*
X138137927Y-93634310D01*
X138137925Y-93634312D01*
X138137924Y-93634312D01*
X138004312Y-93767924D01*
X138004312Y-93767925D01*
X138004310Y-93767927D01*
X137956981Y-93833069D01*
X137893240Y-93920800D01*
X137807454Y-94089163D01*
X137749059Y-94268881D01*
X137719500Y-94455513D01*
X135278913Y-94455513D01*
X135149523Y-94374211D01*
X134979254Y-94314631D01*
X134979249Y-94314630D01*
X134800004Y-94294435D01*
X134799996Y-94294435D01*
X134620750Y-94314630D01*
X134620745Y-94314631D01*
X134450476Y-94374211D01*
X134297737Y-94470184D01*
X134170184Y-94597737D01*
X134074211Y-94750476D01*
X134014631Y-94920745D01*
X134014630Y-94920750D01*
X133994435Y-95099996D01*
X102549931Y-95099996D01*
X102535369Y-94970750D01*
X102535368Y-94970745D01*
X102475788Y-94800476D01*
X102410353Y-94696337D01*
X102379816Y-94647738D01*
X102252262Y-94520184D01*
X102241750Y-94513579D01*
X102099523Y-94424211D01*
X101929254Y-94364631D01*
X101929249Y-94364630D01*
X101750004Y-94344435D01*
X101749996Y-94344435D01*
X101570750Y-94364630D01*
X101570745Y-94364631D01*
X101400476Y-94424211D01*
X101247737Y-94520184D01*
X101120184Y-94647737D01*
X101024209Y-94800479D01*
X100997047Y-94878103D01*
X100956325Y-94934879D01*
X100891372Y-94960625D01*
X100822810Y-94947168D01*
X100772408Y-94898780D01*
X100760232Y-94869244D01*
X100713903Y-94696337D01*
X100614035Y-94482171D01*
X100608425Y-94474158D01*
X100478494Y-94288597D01*
X100311402Y-94121506D01*
X100311396Y-94121501D01*
X100125842Y-93991575D01*
X100082217Y-93936998D01*
X100075023Y-93867500D01*
X100106546Y-93805145D01*
X100125842Y-93788425D01*
X100155120Y-93767924D01*
X100311401Y-93658495D01*
X100478495Y-93491401D01*
X100614035Y-93297830D01*
X100713903Y-93083663D01*
X100775063Y-92855408D01*
X100795659Y-92620000D01*
X100775063Y-92384592D01*
X100713903Y-92156337D01*
X100614035Y-91942171D01*
X100608425Y-91934158D01*
X100478494Y-91748597D01*
X100311402Y-91581506D01*
X100311396Y-91581501D01*
X100125842Y-91451575D01*
X100082217Y-91396998D01*
X100075023Y-91327500D01*
X100106546Y-91265145D01*
X100125842Y-91248425D01*
X100215895Y-91185369D01*
X100311401Y-91118495D01*
X100478495Y-90951401D01*
X100614035Y-90757830D01*
X100713903Y-90543663D01*
X100752398Y-90399996D01*
X134094435Y-90399996D01*
X134094435Y-90400003D01*
X134114630Y-90579249D01*
X134114631Y-90579254D01*
X134174211Y-90749523D01*
X134270184Y-90902262D01*
X134397738Y-91029816D01*
X134488080Y-91086582D01*
X134538869Y-91118495D01*
X134550478Y-91125789D01*
X134720745Y-91185368D01*
X134720750Y-91185369D01*
X134899996Y-91205565D01*
X134900000Y-91205565D01*
X134900004Y-91205565D01*
X135079249Y-91185369D01*
X135079252Y-91185368D01*
X135079255Y-91185368D01*
X135249522Y-91125789D01*
X135402262Y-91029816D01*
X135529816Y-90902262D01*
X135625789Y-90749522D01*
X135685368Y-90579255D01*
X135685369Y-90579249D01*
X135705565Y-90400003D01*
X135705565Y-90399996D01*
X135685369Y-90220750D01*
X135685368Y-90220745D01*
X135636119Y-90079999D01*
X135625789Y-90050478D01*
X135529816Y-89897738D01*
X135402262Y-89770184D01*
X135399227Y-89768277D01*
X135249523Y-89674211D01*
X135079254Y-89614631D01*
X135079249Y-89614630D01*
X134900004Y-89594435D01*
X134899996Y-89594435D01*
X134720750Y-89614630D01*
X134720745Y-89614631D01*
X134550476Y-89674211D01*
X134397737Y-89770184D01*
X134270184Y-89897737D01*
X134174211Y-90050476D01*
X134114631Y-90220745D01*
X134114630Y-90220750D01*
X134094435Y-90399996D01*
X100752398Y-90399996D01*
X100775063Y-90315408D01*
X100795659Y-90080000D01*
X100775063Y-89844592D01*
X100773393Y-89838359D01*
X100775052Y-89768512D01*
X100814211Y-89710648D01*
X100878438Y-89683140D01*
X100913778Y-89685004D01*
X100913825Y-89684589D01*
X101099996Y-89705565D01*
X101100000Y-89705565D01*
X101100004Y-89705565D01*
X101279249Y-89685369D01*
X101279252Y-89685368D01*
X101279255Y-89685368D01*
X101449522Y-89625789D01*
X101602262Y-89529816D01*
X101729816Y-89402262D01*
X101825789Y-89249522D01*
X101885368Y-89079255D01*
X101888718Y-89049522D01*
X101905565Y-88900003D01*
X101905565Y-88899996D01*
X101885369Y-88720750D01*
X101885368Y-88720745D01*
X101838282Y-88586182D01*
X101825789Y-88550478D01*
X101807106Y-88520745D01*
X101766966Y-88456862D01*
X101729816Y-88397738D01*
X101602262Y-88270184D01*
X101581032Y-88256844D01*
X101449523Y-88174211D01*
X101279254Y-88114631D01*
X101279249Y-88114630D01*
X101100004Y-88094435D01*
X101099996Y-88094435D01*
X100920750Y-88114630D01*
X100920735Y-88114634D01*
X100881144Y-88128487D01*
X100811366Y-88132048D01*
X100750739Y-88097318D01*
X100718513Y-88035324D01*
X100720417Y-87979352D01*
X100723383Y-87968284D01*
X100741680Y-87899996D01*
X129394435Y-87899996D01*
X129394435Y-87900003D01*
X129414630Y-88079249D01*
X129414633Y-88079262D01*
X129476510Y-88256094D01*
X129474364Y-88256844D01*
X129483962Y-88315144D01*
X129475609Y-88343590D01*
X129476510Y-88343906D01*
X129414633Y-88520737D01*
X129414630Y-88520750D01*
X129394435Y-88699996D01*
X129394435Y-88700003D01*
X129414630Y-88879249D01*
X129414631Y-88879254D01*
X129474211Y-89049523D01*
X129570184Y-89202262D01*
X129697738Y-89329816D01*
X129850478Y-89425789D01*
X130017390Y-89484194D01*
X130020745Y-89485368D01*
X130020750Y-89485369D01*
X130199996Y-89505565D01*
X130200000Y-89505565D01*
X130200004Y-89505565D01*
X130379249Y-89485369D01*
X130379252Y-89485368D01*
X130379255Y-89485368D01*
X130549522Y-89425789D01*
X130702262Y-89329816D01*
X130829816Y-89202262D01*
X130925789Y-89049522D01*
X130985368Y-88879255D01*
X130986660Y-88867787D01*
X131005565Y-88700003D01*
X131005565Y-88699996D01*
X130985369Y-88520750D01*
X130985366Y-88520737D01*
X130923489Y-88343905D01*
X130925637Y-88343153D01*
X130916035Y-88284872D01*
X130924392Y-88256411D01*
X130923489Y-88256095D01*
X130985366Y-88079262D01*
X130985369Y-88079249D01*
X131005565Y-87900003D01*
X131005565Y-87899996D01*
X130985369Y-87720750D01*
X130985368Y-87720745D01*
X130925788Y-87550476D01*
X130855652Y-87438856D01*
X130829816Y-87397738D01*
X130702262Y-87270184D01*
X130669379Y-87249522D01*
X130549523Y-87174211D01*
X130379254Y-87114631D01*
X130379249Y-87114630D01*
X130200004Y-87094435D01*
X130199996Y-87094435D01*
X130020750Y-87114630D01*
X130020745Y-87114631D01*
X129850476Y-87174211D01*
X129697737Y-87270184D01*
X129570184Y-87397737D01*
X129474211Y-87550476D01*
X129414631Y-87720745D01*
X129414630Y-87720750D01*
X129394435Y-87899996D01*
X100741680Y-87899996D01*
X100775063Y-87775408D01*
X100795659Y-87540000D01*
X100775063Y-87304592D01*
X100745551Y-87194450D01*
X100747214Y-87124600D01*
X100786377Y-87066738D01*
X100850605Y-87039234D01*
X100906281Y-87045316D01*
X101020737Y-87085366D01*
X101020743Y-87085367D01*
X101020745Y-87085368D01*
X101020746Y-87085368D01*
X101020750Y-87085369D01*
X101199996Y-87105565D01*
X101200000Y-87105565D01*
X101200004Y-87105565D01*
X101379249Y-87085369D01*
X101379252Y-87085368D01*
X101379255Y-87085368D01*
X101549522Y-87025789D01*
X101702262Y-86929816D01*
X101829816Y-86802262D01*
X101925789Y-86649522D01*
X101985368Y-86479255D01*
X101985369Y-86479249D01*
X102005565Y-86300003D01*
X102005565Y-86299996D01*
X101985369Y-86120750D01*
X101985368Y-86120745D01*
X101977905Y-86099418D01*
X101925789Y-85950478D01*
X101925486Y-85949996D01*
X119311592Y-85949996D01*
X119311592Y-85950003D01*
X119331787Y-86129249D01*
X119331788Y-86129254D01*
X119391368Y-86299523D01*
X119467541Y-86420750D01*
X119487341Y-86452262D01*
X119614895Y-86579816D01*
X119676981Y-86618827D01*
X119744327Y-86661144D01*
X119767635Y-86675789D01*
X119927877Y-86731860D01*
X119937902Y-86735368D01*
X119937907Y-86735369D01*
X120117153Y-86755565D01*
X120117157Y-86755565D01*
X120117161Y-86755565D01*
X120296406Y-86735369D01*
X120296409Y-86735368D01*
X120296412Y-86735368D01*
X120466679Y-86675789D01*
X120619419Y-86579816D01*
X120682754Y-86516481D01*
X120744077Y-86482996D01*
X120813769Y-86487980D01*
X120869702Y-86529852D01*
X120893300Y-86593120D01*
X120893655Y-86593081D01*
X120893814Y-86594500D01*
X120894119Y-86595316D01*
X120894217Y-86598073D01*
X120914630Y-86779249D01*
X120914631Y-86779254D01*
X120974211Y-86949523D01*
X121059569Y-87085368D01*
X121070184Y-87102262D01*
X121197738Y-87229816D01*
X121261982Y-87270183D01*
X121316749Y-87304596D01*
X121350478Y-87325789D01*
X121520745Y-87385368D01*
X121520750Y-87385369D01*
X121699996Y-87405565D01*
X121700000Y-87405565D01*
X121700004Y-87405565D01*
X121879249Y-87385369D01*
X121879252Y-87385368D01*
X121879255Y-87385368D01*
X122049522Y-87325789D01*
X122202262Y-87229816D01*
X122329816Y-87102262D01*
X122425789Y-86949522D01*
X122485368Y-86779255D01*
X122485759Y-86775788D01*
X122505565Y-86600003D01*
X122505565Y-86599996D01*
X122485369Y-86420750D01*
X122485368Y-86420745D01*
X122425789Y-86250478D01*
X122329816Y-86097738D01*
X122202262Y-85970184D01*
X122170144Y-85950003D01*
X122049523Y-85874211D01*
X121879254Y-85814631D01*
X121879249Y-85814630D01*
X121700004Y-85794435D01*
X121699996Y-85794435D01*
X121570702Y-85809002D01*
X121501880Y-85796947D01*
X121450501Y-85749598D01*
X121432877Y-85681987D01*
X121439777Y-85644829D01*
X121443208Y-85635023D01*
X121460250Y-85586319D01*
X121500970Y-85529544D01*
X121563407Y-85504054D01*
X121642485Y-85495144D01*
X121729249Y-85485369D01*
X121729252Y-85485368D01*
X121729255Y-85485368D01*
X121899522Y-85425789D01*
X122052262Y-85329816D01*
X122179816Y-85202262D01*
X122275789Y-85049522D01*
X122335368Y-84879255D01*
X122344043Y-84802262D01*
X122355565Y-84700003D01*
X122355565Y-84699996D01*
X122335369Y-84520750D01*
X122335366Y-84520737D01*
X122273489Y-84343905D01*
X122275637Y-84343153D01*
X122266035Y-84284872D01*
X122274392Y-84256411D01*
X122273489Y-84256095D01*
X122335366Y-84079262D01*
X122335369Y-84079249D01*
X122355565Y-83900003D01*
X122355565Y-83899996D01*
X122335369Y-83720750D01*
X122335368Y-83720745D01*
X122299446Y-83618085D01*
X122275789Y-83550478D01*
X122262929Y-83530012D01*
X122236582Y-83488080D01*
X122179816Y-83397738D01*
X122052262Y-83270184D01*
X122019377Y-83249521D01*
X121899523Y-83174211D01*
X121729254Y-83114631D01*
X121729249Y-83114630D01*
X121550004Y-83094435D01*
X121549996Y-83094435D01*
X121370750Y-83114630D01*
X121370745Y-83114631D01*
X121200476Y-83174211D01*
X121047737Y-83270184D01*
X120920184Y-83397737D01*
X120920182Y-83397740D01*
X120869158Y-83478943D01*
X120816823Y-83525234D01*
X120747769Y-83535881D01*
X120723212Y-83530012D01*
X120679254Y-83514631D01*
X120500004Y-83494435D01*
X120499996Y-83494435D01*
X120320750Y-83514630D01*
X120320745Y-83514631D01*
X120150476Y-83574211D01*
X119997737Y-83670184D01*
X119870184Y-83797737D01*
X119774211Y-83950476D01*
X119714631Y-84120745D01*
X119714630Y-84120750D01*
X119694435Y-84299996D01*
X119694435Y-84300003D01*
X119714630Y-84479249D01*
X119714631Y-84479254D01*
X119774211Y-84649523D01*
X119870184Y-84802262D01*
X119943337Y-84875415D01*
X119976822Y-84936738D01*
X119971838Y-85006430D01*
X119960654Y-85029062D01*
X119957054Y-85034791D01*
X119957052Y-85034795D01*
X119927677Y-85118746D01*
X119886955Y-85175523D01*
X119851589Y-85194834D01*
X119767635Y-85224210D01*
X119614894Y-85320184D01*
X119487341Y-85447737D01*
X119391368Y-85600476D01*
X119331788Y-85770745D01*
X119331787Y-85770750D01*
X119311592Y-85949996D01*
X101925486Y-85949996D01*
X101829816Y-85797738D01*
X101702262Y-85670184D01*
X101646304Y-85635023D01*
X101549523Y-85574211D01*
X101379254Y-85514631D01*
X101379249Y-85514630D01*
X101200004Y-85494435D01*
X101199996Y-85494435D01*
X101020750Y-85514630D01*
X101020742Y-85514632D01*
X100888540Y-85560892D01*
X100818762Y-85564453D01*
X100758134Y-85529724D01*
X100725907Y-85467731D01*
X100727811Y-85411757D01*
X100734706Y-85386025D01*
X100775063Y-85235408D01*
X100795659Y-85000000D01*
X100775063Y-84764592D01*
X100713903Y-84536337D01*
X100696957Y-84499996D01*
X113694435Y-84499996D01*
X113694435Y-84500003D01*
X113714630Y-84679249D01*
X113714631Y-84679254D01*
X113774211Y-84849523D01*
X113831817Y-84941202D01*
X113870184Y-85002262D01*
X113997738Y-85129816D01*
X114069825Y-85175111D01*
X114147966Y-85224211D01*
X114150478Y-85225789D01*
X114186813Y-85238503D01*
X114320745Y-85285368D01*
X114320750Y-85285369D01*
X114499996Y-85305565D01*
X114500000Y-85305565D01*
X114500004Y-85305565D01*
X114679249Y-85285369D01*
X114679252Y-85285368D01*
X114679255Y-85285368D01*
X114849522Y-85225789D01*
X115002262Y-85129816D01*
X115129816Y-85002262D01*
X115225789Y-84849522D01*
X115285368Y-84679255D01*
X115285369Y-84679249D01*
X115305565Y-84500003D01*
X115305565Y-84499996D01*
X115285369Y-84320750D01*
X115285368Y-84320745D01*
X115263008Y-84256844D01*
X115225789Y-84150478D01*
X115212041Y-84128599D01*
X115181033Y-84079249D01*
X115129816Y-83997738D01*
X115002262Y-83870184D01*
X114956790Y-83841612D01*
X114849523Y-83774211D01*
X114679254Y-83714631D01*
X114679249Y-83714630D01*
X114500004Y-83694435D01*
X114499996Y-83694435D01*
X114320750Y-83714630D01*
X114320745Y-83714631D01*
X114150476Y-83774211D01*
X113997737Y-83870184D01*
X113870184Y-83997737D01*
X113774211Y-84150476D01*
X113714631Y-84320745D01*
X113714630Y-84320750D01*
X113694435Y-84499996D01*
X100696957Y-84499996D01*
X100614035Y-84322171D01*
X100608425Y-84314158D01*
X100478494Y-84128597D01*
X100311402Y-83961506D01*
X100311396Y-83961501D01*
X100125842Y-83831575D01*
X100082217Y-83776998D01*
X100075023Y-83707500D01*
X100106546Y-83645145D01*
X100125842Y-83628425D01*
X100218234Y-83563731D01*
X100311401Y-83498495D01*
X100478495Y-83331401D01*
X100614035Y-83137830D01*
X100713903Y-82923663D01*
X100720244Y-82899996D01*
X124911592Y-82899996D01*
X124911592Y-82900003D01*
X124931787Y-83079249D01*
X124931788Y-83079254D01*
X124991368Y-83249523D01*
X125042864Y-83331478D01*
X125087341Y-83402262D01*
X125214895Y-83529816D01*
X125367635Y-83625789D01*
X125494509Y-83670184D01*
X125537902Y-83685368D01*
X125537907Y-83685369D01*
X125717153Y-83705565D01*
X125717157Y-83705565D01*
X125717161Y-83705565D01*
X125896406Y-83685369D01*
X125896409Y-83685368D01*
X125896412Y-83685368D01*
X126066679Y-83625789D01*
X126219419Y-83529816D01*
X126346973Y-83402262D01*
X126442946Y-83249522D01*
X126472322Y-83165567D01*
X126513043Y-83108791D01*
X126548411Y-83089479D01*
X126551898Y-83088259D01*
X126632365Y-83060103D01*
X126785105Y-82964130D01*
X126912659Y-82836576D01*
X127008632Y-82683836D01*
X127047037Y-82574080D01*
X127087757Y-82517305D01*
X127152710Y-82491557D01*
X127177962Y-82491815D01*
X127299997Y-82505565D01*
X127300000Y-82505565D01*
X127300004Y-82505565D01*
X127479249Y-82485369D01*
X127479252Y-82485368D01*
X127479255Y-82485368D01*
X127649522Y-82425789D01*
X127802262Y-82329816D01*
X127929816Y-82202262D01*
X128025789Y-82049522D01*
X128085368Y-81879255D01*
X128085369Y-81879249D01*
X128105565Y-81700003D01*
X128105565Y-81699996D01*
X128085369Y-81520750D01*
X128085366Y-81520737D01*
X128025789Y-81350479D01*
X128025789Y-81350478D01*
X128019815Y-81340971D01*
X128000815Y-81273737D01*
X128019816Y-81209027D01*
X128025789Y-81199522D01*
X128062068Y-81095840D01*
X128085366Y-81029262D01*
X128085369Y-81029249D01*
X128105565Y-80850003D01*
X128105565Y-80849996D01*
X131044435Y-80849996D01*
X131044435Y-80850003D01*
X131064630Y-81029249D01*
X131064631Y-81029254D01*
X131124212Y-81199525D01*
X131130185Y-81209032D01*
X131149183Y-81276269D01*
X131130185Y-81340968D01*
X131124212Y-81350474D01*
X131064631Y-81520745D01*
X131064630Y-81520750D01*
X131044435Y-81699996D01*
X131044435Y-81700003D01*
X131064630Y-81879249D01*
X131064631Y-81879254D01*
X131124211Y-82049523D01*
X131194610Y-82161562D01*
X131220184Y-82202262D01*
X131347738Y-82329816D01*
X131406308Y-82366618D01*
X131455833Y-82397737D01*
X131500478Y-82425789D01*
X131623259Y-82468752D01*
X131670745Y-82485368D01*
X131670750Y-82485369D01*
X131849996Y-82505565D01*
X131850000Y-82505565D01*
X131850004Y-82505565D01*
X132029249Y-82485369D01*
X132029252Y-82485368D01*
X132029255Y-82485368D01*
X132199522Y-82425789D01*
X132352262Y-82329816D01*
X132389257Y-82292820D01*
X132450577Y-82259336D01*
X132520269Y-82264320D01*
X132576203Y-82306190D01*
X132600157Y-82366618D01*
X132614630Y-82495073D01*
X132614633Y-82495085D01*
X132676510Y-82671917D01*
X132674364Y-82672667D01*
X132683962Y-82730967D01*
X132675609Y-82759413D01*
X132676510Y-82759729D01*
X132614633Y-82936560D01*
X132614630Y-82936573D01*
X132594435Y-83115819D01*
X132594435Y-83115828D01*
X132603203Y-83193654D01*
X132591148Y-83262475D01*
X132543798Y-83313854D01*
X132476188Y-83331478D01*
X132409782Y-83309751D01*
X132392302Y-83295217D01*
X132367269Y-83270184D01*
X132214530Y-83174211D01*
X132044261Y-83114631D01*
X132044256Y-83114630D01*
X131865011Y-83094435D01*
X131865003Y-83094435D01*
X131685757Y-83114630D01*
X131685752Y-83114631D01*
X131515483Y-83174211D01*
X131362744Y-83270184D01*
X131235191Y-83397737D01*
X131139218Y-83550476D01*
X131079638Y-83720745D01*
X131079637Y-83720750D01*
X131059442Y-83899996D01*
X131059442Y-83900003D01*
X131079637Y-84079249D01*
X131079640Y-84079262D01*
X131141517Y-84256094D01*
X131139371Y-84256844D01*
X131148969Y-84315144D01*
X131140616Y-84343590D01*
X131141517Y-84343906D01*
X131079640Y-84520737D01*
X131079637Y-84520750D01*
X131059442Y-84699996D01*
X131059442Y-84700003D01*
X131079637Y-84879249D01*
X131079638Y-84879254D01*
X131139218Y-85049523D01*
X131189669Y-85129815D01*
X131235191Y-85202262D01*
X131362745Y-85329816D01*
X131515485Y-85425789D01*
X131647640Y-85472032D01*
X131685752Y-85485368D01*
X131685757Y-85485369D01*
X131865003Y-85505565D01*
X131865007Y-85505565D01*
X131865011Y-85505565D01*
X132044256Y-85485369D01*
X132044259Y-85485368D01*
X132044262Y-85485368D01*
X132214529Y-85425789D01*
X132255578Y-85399996D01*
X132844435Y-85399996D01*
X132844435Y-85400003D01*
X132864630Y-85579249D01*
X132864633Y-85579262D01*
X132926510Y-85756094D01*
X132924364Y-85756844D01*
X132933962Y-85815144D01*
X132925609Y-85843590D01*
X132926510Y-85843906D01*
X132864633Y-86020737D01*
X132864630Y-86020750D01*
X132844435Y-86199996D01*
X132844435Y-86200003D01*
X132864630Y-86379249D01*
X132864631Y-86379254D01*
X132924211Y-86549523D01*
X132994348Y-86661144D01*
X133020184Y-86702262D01*
X133147738Y-86829816D01*
X133238080Y-86886582D01*
X133268837Y-86905908D01*
X133300478Y-86925789D01*
X133368306Y-86949523D01*
X133470745Y-86985368D01*
X133470750Y-86985369D01*
X133509003Y-86989679D01*
X133573418Y-87016745D01*
X133611931Y-87072823D01*
X133612332Y-87072683D01*
X133612847Y-87074156D01*
X133612973Y-87074339D01*
X133613209Y-87075191D01*
X133615670Y-87082223D01*
X133615784Y-87084465D01*
X133615984Y-87085184D01*
X133616153Y-87085921D01*
X133615862Y-87085987D01*
X133619231Y-87152002D01*
X133584501Y-87212629D01*
X133564602Y-87228169D01*
X133497738Y-87270183D01*
X133370184Y-87397737D01*
X133274211Y-87550476D01*
X133214631Y-87720745D01*
X133214630Y-87720750D01*
X133194435Y-87899996D01*
X133194435Y-87900003D01*
X133214630Y-88079249D01*
X133214633Y-88079262D01*
X133276510Y-88256094D01*
X133274364Y-88256844D01*
X133283962Y-88315144D01*
X133275609Y-88343590D01*
X133276510Y-88343906D01*
X133214633Y-88520737D01*
X133214630Y-88520750D01*
X133194435Y-88699996D01*
X133194435Y-88700003D01*
X133214630Y-88879249D01*
X133214631Y-88879254D01*
X133274211Y-89049523D01*
X133370184Y-89202262D01*
X133497738Y-89329816D01*
X133650478Y-89425789D01*
X133817390Y-89484194D01*
X133820745Y-89485368D01*
X133820750Y-89485369D01*
X133999996Y-89505565D01*
X134000000Y-89505565D01*
X134000004Y-89505565D01*
X134179249Y-89485369D01*
X134179252Y-89485368D01*
X134179255Y-89485368D01*
X134349522Y-89425789D01*
X134502262Y-89329816D01*
X134629816Y-89202262D01*
X134725789Y-89049522D01*
X134785368Y-88879255D01*
X134786660Y-88867787D01*
X134805565Y-88700003D01*
X134805565Y-88699996D01*
X134785369Y-88520750D01*
X134785366Y-88520737D01*
X134723489Y-88343905D01*
X134725637Y-88343153D01*
X134716035Y-88284872D01*
X134724392Y-88256411D01*
X134723489Y-88256095D01*
X134785366Y-88079262D01*
X134785369Y-88079249D01*
X134805565Y-87900003D01*
X134805565Y-87899996D01*
X134785369Y-87720753D01*
X134785369Y-87720751D01*
X134785368Y-87720749D01*
X134785368Y-87720745D01*
X134784329Y-87717777D01*
X134784225Y-87715743D01*
X134783819Y-87713961D01*
X134784131Y-87713889D01*
X134780765Y-87648003D01*
X134815492Y-87587374D01*
X134835389Y-87571834D01*
X134902262Y-87529816D01*
X135029816Y-87402262D01*
X135125789Y-87249522D01*
X135185368Y-87079255D01*
X135186093Y-87072823D01*
X135205565Y-86900003D01*
X135205565Y-86899996D01*
X135185369Y-86720750D01*
X135185368Y-86720745D01*
X135183565Y-86715592D01*
X135125789Y-86550478D01*
X135125188Y-86549522D01*
X135029815Y-86397737D01*
X134902262Y-86270184D01*
X134749521Y-86174210D01*
X134579249Y-86114630D01*
X134540994Y-86110320D01*
X134476580Y-86083253D01*
X134438068Y-86027178D01*
X134437669Y-86027318D01*
X134437153Y-86025845D01*
X134437025Y-86025658D01*
X134436785Y-86024793D01*
X134373489Y-85843905D01*
X134375637Y-85843153D01*
X134366035Y-85784872D01*
X134374392Y-85756411D01*
X134373489Y-85756095D01*
X134435366Y-85579262D01*
X134435369Y-85579249D01*
X134455565Y-85400003D01*
X134455565Y-85399996D01*
X134435369Y-85220750D01*
X134435368Y-85220745D01*
X134375789Y-85050478D01*
X134375188Y-85049522D01*
X134301480Y-84932216D01*
X134279816Y-84897738D01*
X134152262Y-84770184D01*
X134040570Y-84700003D01*
X133999523Y-84674211D01*
X133829254Y-84614631D01*
X133829249Y-84614630D01*
X133650004Y-84594435D01*
X133649996Y-84594435D01*
X133470750Y-84614630D01*
X133470745Y-84614631D01*
X133300476Y-84674211D01*
X133147737Y-84770184D01*
X133020184Y-84897737D01*
X132924211Y-85050476D01*
X132864631Y-85220745D01*
X132864630Y-85220750D01*
X132844435Y-85399996D01*
X132255578Y-85399996D01*
X132367269Y-85329816D01*
X132494823Y-85202262D01*
X132590796Y-85049522D01*
X132650375Y-84879255D01*
X132659050Y-84802262D01*
X132670572Y-84700003D01*
X132670572Y-84699996D01*
X132650376Y-84520750D01*
X132650373Y-84520737D01*
X132588496Y-84343905D01*
X132590644Y-84343153D01*
X132581042Y-84284872D01*
X132589399Y-84256411D01*
X132588496Y-84256095D01*
X132650373Y-84079262D01*
X132650376Y-84079249D01*
X132670572Y-83900003D01*
X132670572Y-83899997D01*
X132661803Y-83822170D01*
X132673857Y-83753348D01*
X132721207Y-83701968D01*
X132788817Y-83684344D01*
X132855223Y-83706071D01*
X132872704Y-83720605D01*
X132897738Y-83745639D01*
X132910007Y-83753348D01*
X133007894Y-83814855D01*
X133050478Y-83841612D01*
X133217330Y-83899996D01*
X133220745Y-83901191D01*
X133220750Y-83901192D01*
X133399996Y-83921388D01*
X133400000Y-83921388D01*
X133400004Y-83921388D01*
X133579249Y-83901192D01*
X133579252Y-83901191D01*
X133579255Y-83901191D01*
X133749522Y-83841612D01*
X133902262Y-83745639D01*
X134029816Y-83618085D01*
X134125789Y-83465345D01*
X134185368Y-83295078D01*
X134188388Y-83268277D01*
X134205565Y-83115826D01*
X134205565Y-83115819D01*
X134185369Y-82936573D01*
X134185366Y-82936560D01*
X134123489Y-82759728D01*
X134125637Y-82758976D01*
X134116035Y-82700695D01*
X134124392Y-82672234D01*
X134123489Y-82671918D01*
X134185366Y-82495085D01*
X134185369Y-82495072D01*
X134205565Y-82315826D01*
X134205565Y-82315819D01*
X134185369Y-82136573D01*
X134185368Y-82136568D01*
X134161636Y-82068745D01*
X134125789Y-81966301D01*
X134100494Y-81926045D01*
X134071094Y-81879254D01*
X134029816Y-81813561D01*
X133902262Y-81686007D01*
X133843689Y-81649203D01*
X133749523Y-81590034D01*
X133579254Y-81530454D01*
X133579249Y-81530453D01*
X133400004Y-81510258D01*
X133399996Y-81510258D01*
X133220750Y-81530453D01*
X133220745Y-81530454D01*
X133050476Y-81590034D01*
X132897737Y-81686007D01*
X132860742Y-81723002D01*
X132799419Y-81756487D01*
X132729727Y-81751501D01*
X132673794Y-81709629D01*
X132649842Y-81649203D01*
X132635369Y-81520750D01*
X132635366Y-81520737D01*
X132575789Y-81350479D01*
X132575789Y-81350478D01*
X132569815Y-81340971D01*
X132558237Y-81300000D01*
X138194540Y-81300000D01*
X138214326Y-81488256D01*
X138214327Y-81488259D01*
X138272818Y-81668277D01*
X138272821Y-81668284D01*
X138367467Y-81832216D01*
X138462333Y-81937575D01*
X138494129Y-81972888D01*
X138581847Y-82036619D01*
X138624513Y-82091949D01*
X138630492Y-82161562D01*
X138598460Y-82222267D01*
X138598477Y-82222282D01*
X138598419Y-82222345D01*
X138597886Y-82223357D01*
X138595053Y-82226083D01*
X138467466Y-82367785D01*
X138372821Y-82531715D01*
X138372818Y-82531722D01*
X138319634Y-82695408D01*
X138314326Y-82711744D01*
X138294540Y-82900000D01*
X138314326Y-83088256D01*
X138314327Y-83088259D01*
X138372818Y-83268277D01*
X138372821Y-83268284D01*
X138467466Y-83432215D01*
X138588851Y-83567028D01*
X138619081Y-83630020D01*
X138610455Y-83699355D01*
X138588851Y-83732972D01*
X138467466Y-83867784D01*
X138372821Y-84031715D01*
X138372818Y-84031722D01*
X138314327Y-84211740D01*
X138314326Y-84211744D01*
X138294540Y-84400000D01*
X138314326Y-84588256D01*
X138314327Y-84588259D01*
X138372818Y-84768277D01*
X138372821Y-84768284D01*
X138467467Y-84932216D01*
X138493831Y-84961496D01*
X138524061Y-85024487D01*
X138515436Y-85093822D01*
X138493832Y-85127439D01*
X138367466Y-85267785D01*
X138272821Y-85431715D01*
X138272818Y-85431722D01*
X138214327Y-85611740D01*
X138214326Y-85611744D01*
X138194540Y-85800000D01*
X138214326Y-85988256D01*
X138214327Y-85988259D01*
X138272818Y-86168277D01*
X138272821Y-86168284D01*
X138367467Y-86332216D01*
X138447179Y-86420745D01*
X138494129Y-86472888D01*
X138647265Y-86584148D01*
X138647270Y-86584151D01*
X138820192Y-86661142D01*
X138820197Y-86661144D01*
X139005354Y-86700500D01*
X139005355Y-86700500D01*
X139194644Y-86700500D01*
X139194646Y-86700500D01*
X139346892Y-86668139D01*
X139416557Y-86673455D01*
X139472291Y-86715592D01*
X139496396Y-86781172D01*
X139481219Y-86849373D01*
X139445557Y-86889746D01*
X139394131Y-86927109D01*
X139394129Y-86927111D01*
X139267466Y-87067785D01*
X139172821Y-87231715D01*
X139172818Y-87231722D01*
X139146144Y-87313818D01*
X139106706Y-87371494D01*
X139042348Y-87398692D01*
X139028213Y-87399500D01*
X139005354Y-87399500D01*
X138992360Y-87402262D01*
X138820197Y-87438855D01*
X138820192Y-87438857D01*
X138647270Y-87515848D01*
X138647265Y-87515851D01*
X138494129Y-87627111D01*
X138367466Y-87767785D01*
X138272821Y-87931715D01*
X138272818Y-87931722D01*
X138219950Y-88094435D01*
X138214326Y-88111744D01*
X138194540Y-88300000D01*
X138214326Y-88488256D01*
X138214327Y-88488259D01*
X138272818Y-88668277D01*
X138272821Y-88668284D01*
X138367465Y-88832214D01*
X138367470Y-88832221D01*
X138380627Y-88846833D01*
X138410856Y-88909825D01*
X138402230Y-88979160D01*
X138395864Y-88991802D01*
X138372821Y-89031713D01*
X138372820Y-89031717D01*
X138315348Y-89208599D01*
X138314326Y-89211744D01*
X138294540Y-89400000D01*
X138314326Y-89588256D01*
X138314327Y-89588259D01*
X138372818Y-89768277D01*
X138372821Y-89768284D01*
X138467467Y-89932216D01*
X138573949Y-90050476D01*
X138594129Y-90072888D01*
X138747265Y-90184148D01*
X138747270Y-90184151D01*
X138920192Y-90261142D01*
X138920197Y-90261144D01*
X139105354Y-90300500D01*
X139105355Y-90300500D01*
X139294644Y-90300500D01*
X139294646Y-90300500D01*
X139479803Y-90261144D01*
X139652730Y-90184151D01*
X139805871Y-90072888D01*
X139932533Y-89932216D01*
X140027179Y-89768284D01*
X140085674Y-89588256D01*
X140105460Y-89400000D01*
X140085674Y-89211744D01*
X140027179Y-89031716D01*
X139951131Y-88899996D01*
X139932535Y-88867787D01*
X139932534Y-88867786D01*
X139932533Y-88867784D01*
X139919370Y-88853165D01*
X139889142Y-88790175D01*
X139897768Y-88720840D01*
X139904126Y-88708212D01*
X139927179Y-88668284D01*
X139953856Y-88586182D01*
X139993294Y-88528506D01*
X140057652Y-88501308D01*
X140071787Y-88500500D01*
X140094644Y-88500500D01*
X140094646Y-88500500D01*
X140279803Y-88461144D01*
X140452730Y-88384151D01*
X140605871Y-88272888D01*
X140732533Y-88132216D01*
X140827179Y-87968284D01*
X140885674Y-87788256D01*
X140905460Y-87600000D01*
X140885674Y-87411744D01*
X140827179Y-87231716D01*
X140732533Y-87067784D01*
X140605871Y-86927112D01*
X140604049Y-86925788D01*
X140452734Y-86815851D01*
X140452729Y-86815848D01*
X140279807Y-86738857D01*
X140279802Y-86738855D01*
X140107640Y-86702262D01*
X140094646Y-86699500D01*
X139905354Y-86699500D01*
X139905353Y-86699500D01*
X139753108Y-86731860D01*
X139683441Y-86726544D01*
X139627708Y-86684407D01*
X139603603Y-86618827D01*
X139618780Y-86550625D01*
X139654442Y-86510253D01*
X139705871Y-86472888D01*
X139832533Y-86332216D01*
X139905185Y-86206379D01*
X146349500Y-86206379D01*
X146349500Y-86393620D01*
X146386025Y-86577243D01*
X146386027Y-86577251D01*
X146457676Y-86750228D01*
X146457681Y-86750237D01*
X146561697Y-86905907D01*
X146561700Y-86905911D01*
X146694088Y-87038299D01*
X146694092Y-87038302D01*
X146849762Y-87142318D01*
X146849768Y-87142321D01*
X146849769Y-87142322D01*
X147022749Y-87213973D01*
X147201467Y-87249522D01*
X147206379Y-87250499D01*
X147206383Y-87250500D01*
X147206384Y-87250500D01*
X147393617Y-87250500D01*
X147393618Y-87250499D01*
X147577251Y-87213973D01*
X147750231Y-87142322D01*
X147905908Y-87038302D01*
X148038302Y-86905908D01*
X148142322Y-86750231D01*
X148213973Y-86577251D01*
X148250500Y-86393616D01*
X148250500Y-86206384D01*
X148213973Y-86022749D01*
X148142322Y-85849769D01*
X148142321Y-85849768D01*
X148142318Y-85849762D01*
X148038302Y-85694092D01*
X148038299Y-85694088D01*
X147905911Y-85561700D01*
X147905907Y-85561697D01*
X147750237Y-85457681D01*
X147750228Y-85457676D01*
X147577251Y-85386027D01*
X147577243Y-85386025D01*
X147393620Y-85349500D01*
X147393616Y-85349500D01*
X147206384Y-85349500D01*
X147206379Y-85349500D01*
X147022756Y-85386025D01*
X147022748Y-85386027D01*
X146849771Y-85457676D01*
X146849762Y-85457681D01*
X146694092Y-85561697D01*
X146694088Y-85561700D01*
X146561700Y-85694088D01*
X146561697Y-85694092D01*
X146457681Y-85849762D01*
X146457676Y-85849771D01*
X146386027Y-86022748D01*
X146386025Y-86022756D01*
X146349500Y-86206379D01*
X139905185Y-86206379D01*
X139927179Y-86168284D01*
X139985674Y-85988256D01*
X140005460Y-85800000D01*
X139985674Y-85611744D01*
X139927179Y-85431716D01*
X139832533Y-85267784D01*
X139806165Y-85238500D01*
X139775937Y-85175511D01*
X139784562Y-85106176D01*
X139806161Y-85072564D01*
X139932533Y-84932216D01*
X140027179Y-84768284D01*
X140085674Y-84588256D01*
X140105460Y-84400000D01*
X140085674Y-84211744D01*
X140027179Y-84031716D01*
X139932533Y-83867784D01*
X139811146Y-83732971D01*
X139780917Y-83669981D01*
X139789542Y-83600646D01*
X139811147Y-83567028D01*
X139826049Y-83550478D01*
X139932533Y-83432216D01*
X140027179Y-83268284D01*
X140085674Y-83088256D01*
X140105460Y-82900000D01*
X140085674Y-82711744D01*
X140027179Y-82531716D01*
X139932533Y-82367784D01*
X139805871Y-82227112D01*
X139718150Y-82163379D01*
X139675486Y-82108050D01*
X139669507Y-82038437D01*
X139701537Y-81977732D01*
X139701522Y-81977718D01*
X139701578Y-81977655D01*
X139702113Y-81976642D01*
X139704948Y-81973912D01*
X139705868Y-81972890D01*
X139705871Y-81972888D01*
X139832533Y-81832216D01*
X139927179Y-81668284D01*
X139985674Y-81488256D01*
X140005460Y-81300000D01*
X139985674Y-81111744D01*
X139927179Y-80931716D01*
X139832533Y-80767784D01*
X139705871Y-80627112D01*
X139705870Y-80627111D01*
X139552734Y-80515851D01*
X139552729Y-80515848D01*
X139379807Y-80438857D01*
X139379802Y-80438855D01*
X139234001Y-80407865D01*
X139194646Y-80399500D01*
X139005354Y-80399500D01*
X138972897Y-80406398D01*
X138820197Y-80438855D01*
X138820192Y-80438857D01*
X138647270Y-80515848D01*
X138647265Y-80515851D01*
X138494129Y-80627111D01*
X138367466Y-80767785D01*
X138272821Y-80931715D01*
X138272818Y-80931722D01*
X138220080Y-81094035D01*
X138214326Y-81111744D01*
X138194540Y-81300000D01*
X132558237Y-81300000D01*
X132550815Y-81273737D01*
X132569816Y-81209027D01*
X132575789Y-81199522D01*
X132612068Y-81095840D01*
X132635366Y-81029262D01*
X132635369Y-81029249D01*
X132655565Y-80850003D01*
X132655565Y-80849996D01*
X132635369Y-80670750D01*
X132635368Y-80670745D01*
X132620100Y-80627111D01*
X132575789Y-80500478D01*
X132479816Y-80347738D01*
X132352262Y-80220184D01*
X132241326Y-80150478D01*
X132199523Y-80124211D01*
X132029254Y-80064631D01*
X132029249Y-80064630D01*
X131850004Y-80044435D01*
X131849996Y-80044435D01*
X131670750Y-80064630D01*
X131670745Y-80064631D01*
X131500476Y-80124211D01*
X131347737Y-80220184D01*
X131220184Y-80347737D01*
X131124211Y-80500476D01*
X131064631Y-80670745D01*
X131064630Y-80670750D01*
X131044435Y-80849996D01*
X128105565Y-80849996D01*
X128085369Y-80670750D01*
X128085368Y-80670745D01*
X128070100Y-80627111D01*
X128025789Y-80500478D01*
X127929816Y-80347738D01*
X127802262Y-80220184D01*
X127691326Y-80150478D01*
X127649523Y-80124211D01*
X127479254Y-80064631D01*
X127479249Y-80064630D01*
X127300004Y-80044435D01*
X127299996Y-80044435D01*
X127120750Y-80064630D01*
X127120745Y-80064631D01*
X126950476Y-80124211D01*
X126797737Y-80220184D01*
X126670184Y-80347737D01*
X126574207Y-80500483D01*
X126573921Y-80501078D01*
X126573633Y-80501395D01*
X126570506Y-80506374D01*
X126569633Y-80505826D01*
X126527098Y-80552937D01*
X126459671Y-80571249D01*
X126421247Y-80564317D01*
X126279254Y-80514631D01*
X126279249Y-80514630D01*
X126100004Y-80494435D01*
X126099996Y-80494435D01*
X125920750Y-80514630D01*
X125920745Y-80514631D01*
X125750476Y-80574211D01*
X125597737Y-80670184D01*
X125470184Y-80797737D01*
X125374211Y-80950476D01*
X125314631Y-81120745D01*
X125314630Y-81120750D01*
X125294435Y-81299996D01*
X125294435Y-81300003D01*
X125314630Y-81479249D01*
X125314631Y-81479254D01*
X125374211Y-81649523D01*
X125470184Y-81802262D01*
X125526755Y-81858833D01*
X125560240Y-81920156D01*
X125556116Y-81987467D01*
X125527677Y-82068745D01*
X125486956Y-82125521D01*
X125451589Y-82144834D01*
X125367635Y-82174210D01*
X125214894Y-82270184D01*
X125087341Y-82397737D01*
X124991368Y-82550476D01*
X124931788Y-82720745D01*
X124931787Y-82720750D01*
X124911592Y-82899996D01*
X100720244Y-82899996D01*
X100775063Y-82695408D01*
X100795659Y-82460000D01*
X100775063Y-82224592D01*
X100714885Y-82000003D01*
X100714883Y-81999996D01*
X113594435Y-81999996D01*
X113594435Y-82000003D01*
X113614630Y-82179249D01*
X113614631Y-82179254D01*
X113674211Y-82349523D01*
X113743628Y-82459999D01*
X113770184Y-82502262D01*
X113897738Y-82629816D01*
X113954282Y-82665345D01*
X114042450Y-82720745D01*
X114050478Y-82725789D01*
X114145321Y-82758976D01*
X114220745Y-82785368D01*
X114220750Y-82785369D01*
X114399996Y-82805565D01*
X114400000Y-82805565D01*
X114400004Y-82805565D01*
X114579249Y-82785369D01*
X114579252Y-82785368D01*
X114579255Y-82785368D01*
X114749522Y-82725789D01*
X114902262Y-82629816D01*
X115029816Y-82502262D01*
X115125789Y-82349522D01*
X115185368Y-82179255D01*
X115185369Y-82179249D01*
X115205565Y-82000003D01*
X115205565Y-81999996D01*
X115185369Y-81820750D01*
X115185368Y-81820745D01*
X115184332Y-81817783D01*
X115125789Y-81650478D01*
X115125188Y-81649522D01*
X115029815Y-81497737D01*
X114902262Y-81370184D01*
X114749523Y-81274211D01*
X114579254Y-81214631D01*
X114579249Y-81214630D01*
X114400004Y-81194435D01*
X114399996Y-81194435D01*
X114220750Y-81214630D01*
X114220745Y-81214631D01*
X114050476Y-81274211D01*
X113897737Y-81370184D01*
X113770184Y-81497737D01*
X113674211Y-81650476D01*
X113614631Y-81820745D01*
X113614630Y-81820750D01*
X113594435Y-81999996D01*
X100714883Y-81999996D01*
X100713905Y-81996344D01*
X100713904Y-81996343D01*
X100713903Y-81996337D01*
X100614035Y-81782171D01*
X100608425Y-81774158D01*
X100478494Y-81588597D01*
X100311402Y-81421506D01*
X100311396Y-81421501D01*
X100125842Y-81291575D01*
X100082217Y-81236998D01*
X100075023Y-81167500D01*
X100106546Y-81105145D01*
X100125842Y-81088425D01*
X100210345Y-81029255D01*
X100311401Y-80958495D01*
X100478495Y-80791401D01*
X100614035Y-80597830D01*
X100659656Y-80499996D01*
X116494435Y-80499996D01*
X116494435Y-80500003D01*
X116514630Y-80679249D01*
X116514631Y-80679254D01*
X116574211Y-80849523D01*
X116637646Y-80950478D01*
X116670184Y-81002262D01*
X116797738Y-81129816D01*
X116857712Y-81167500D01*
X116932721Y-81214632D01*
X116950478Y-81225789D01*
X117087506Y-81273737D01*
X117120745Y-81285368D01*
X117120750Y-81285369D01*
X117299996Y-81305565D01*
X117300000Y-81305565D01*
X117300004Y-81305565D01*
X117479249Y-81285369D01*
X117479252Y-81285368D01*
X117479255Y-81285368D01*
X117649522Y-81225789D01*
X117802262Y-81129816D01*
X117929816Y-81002262D01*
X118025789Y-80849522D01*
X118085368Y-80679255D01*
X118085369Y-80679249D01*
X118105565Y-80500003D01*
X118105565Y-80499996D01*
X118085369Y-80320750D01*
X118085368Y-80320745D01*
X118025788Y-80150476D01*
X117929815Y-79997737D01*
X117802262Y-79870184D01*
X117649523Y-79774211D01*
X117479254Y-79714631D01*
X117479249Y-79714630D01*
X117300004Y-79694435D01*
X117299996Y-79694435D01*
X117120750Y-79714630D01*
X117120745Y-79714631D01*
X116950476Y-79774211D01*
X116797737Y-79870184D01*
X116670184Y-79997737D01*
X116574211Y-80150476D01*
X116514631Y-80320745D01*
X116514630Y-80320750D01*
X116494435Y-80499996D01*
X100659656Y-80499996D01*
X100713903Y-80383663D01*
X100775063Y-80155408D01*
X100795659Y-79920000D01*
X100775063Y-79684592D01*
X100713903Y-79456337D01*
X100614035Y-79242171D01*
X100608425Y-79234158D01*
X100478494Y-79048597D01*
X100311402Y-78881506D01*
X100311396Y-78881501D01*
X100125842Y-78751575D01*
X100082217Y-78696998D01*
X100075023Y-78627500D01*
X100106546Y-78565145D01*
X100125842Y-78548425D01*
X100148026Y-78532891D01*
X100311401Y-78418495D01*
X100478495Y-78251401D01*
X100614035Y-78057830D01*
X100713903Y-77843663D01*
X100737031Y-77757346D01*
X100773395Y-77697687D01*
X100836242Y-77667157D01*
X100905618Y-77675451D01*
X100959496Y-77719936D01*
X100973847Y-77748483D01*
X100974210Y-77749521D01*
X101001091Y-77792302D01*
X101070184Y-77902262D01*
X101197738Y-78029816D01*
X101350478Y-78125789D01*
X101520745Y-78185368D01*
X101520750Y-78185369D01*
X101699996Y-78205565D01*
X101700000Y-78205565D01*
X101700004Y-78205565D01*
X101879249Y-78185369D01*
X101879252Y-78185368D01*
X101879255Y-78185368D01*
X102049522Y-78125789D01*
X102090571Y-78099996D01*
X116394435Y-78099996D01*
X116394435Y-78100003D01*
X116414630Y-78279249D01*
X116414631Y-78279254D01*
X116474211Y-78449523D01*
X116512737Y-78510836D01*
X116570184Y-78602262D01*
X116697738Y-78729816D01*
X116850478Y-78825789D01*
X117009694Y-78881501D01*
X117020745Y-78885368D01*
X117020750Y-78885369D01*
X117199996Y-78905565D01*
X117200000Y-78905565D01*
X117200004Y-78905565D01*
X117379249Y-78885369D01*
X117379252Y-78885368D01*
X117379255Y-78885368D01*
X117549522Y-78825789D01*
X117702262Y-78729816D01*
X117829816Y-78602262D01*
X117925789Y-78449522D01*
X117985368Y-78279255D01*
X117985369Y-78279249D01*
X118005565Y-78100003D01*
X118005565Y-78099996D01*
X117989286Y-77955513D01*
X137719500Y-77955513D01*
X137719500Y-78144486D01*
X137749059Y-78331118D01*
X137807454Y-78510836D01*
X137866535Y-78626788D01*
X137893240Y-78679199D01*
X138004310Y-78832073D01*
X138137927Y-78965690D01*
X138290801Y-79076760D01*
X138370347Y-79117290D01*
X138459163Y-79162545D01*
X138459165Y-79162545D01*
X138459168Y-79162547D01*
X138555497Y-79193846D01*
X138638881Y-79220940D01*
X138825514Y-79250500D01*
X138825519Y-79250500D01*
X140414486Y-79250500D01*
X140601118Y-79220940D01*
X140780832Y-79162547D01*
X140949199Y-79076760D01*
X141102073Y-78965690D01*
X141235690Y-78832073D01*
X141346760Y-78679199D01*
X141432547Y-78510832D01*
X141490940Y-78331118D01*
X141494649Y-78307701D01*
X141520500Y-78144486D01*
X141520500Y-77963389D01*
X144699500Y-77963389D01*
X144699500Y-78136611D01*
X144700747Y-78144486D01*
X144722092Y-78279255D01*
X144726598Y-78307701D01*
X144780127Y-78472445D01*
X144858768Y-78626788D01*
X144960586Y-78766928D01*
X145083072Y-78889414D01*
X145223212Y-78991232D01*
X145377555Y-79069873D01*
X145542299Y-79123402D01*
X145713389Y-79150500D01*
X145713390Y-79150500D01*
X147086610Y-79150500D01*
X147086611Y-79150500D01*
X147257701Y-79123402D01*
X147422445Y-79069873D01*
X147576788Y-78991232D01*
X147716928Y-78889414D01*
X147839414Y-78766928D01*
X147941232Y-78626788D01*
X148019873Y-78472445D01*
X148073402Y-78307701D01*
X148100500Y-78136611D01*
X148100500Y-77963389D01*
X148073402Y-77792299D01*
X148019873Y-77627555D01*
X147941232Y-77473212D01*
X147839414Y-77333072D01*
X147716928Y-77210586D01*
X147576788Y-77108768D01*
X147422445Y-77030127D01*
X147257701Y-76976598D01*
X147257699Y-76976597D01*
X147257698Y-76976597D01*
X147126271Y-76955781D01*
X147086611Y-76949500D01*
X145713389Y-76949500D01*
X145673728Y-76955781D01*
X145542302Y-76976597D01*
X145377552Y-77030128D01*
X145223211Y-77108768D01*
X145143256Y-77166859D01*
X145083072Y-77210586D01*
X145083070Y-77210588D01*
X145083069Y-77210588D01*
X144960588Y-77333069D01*
X144960588Y-77333070D01*
X144960586Y-77333072D01*
X144930697Y-77374211D01*
X144858768Y-77473211D01*
X144780128Y-77627552D01*
X144726597Y-77792302D01*
X144700747Y-77955513D01*
X144699500Y-77963389D01*
X141520500Y-77963389D01*
X141520500Y-77955513D01*
X141490940Y-77768881D01*
X141441073Y-77615408D01*
X141432547Y-77589168D01*
X141432545Y-77589165D01*
X141432545Y-77589163D01*
X141387290Y-77500347D01*
X141346760Y-77420801D01*
X141235690Y-77267927D01*
X141102073Y-77134310D01*
X140949199Y-77023240D01*
X140780836Y-76937454D01*
X140601118Y-76879059D01*
X140414486Y-76849500D01*
X140414481Y-76849500D01*
X138825519Y-76849500D01*
X138825514Y-76849500D01*
X138638881Y-76879059D01*
X138459163Y-76937454D01*
X138290800Y-77023240D01*
X138253311Y-77050478D01*
X138137927Y-77134310D01*
X138137925Y-77134312D01*
X138137924Y-77134312D01*
X138004312Y-77267924D01*
X138004312Y-77267925D01*
X138004310Y-77267927D01*
X137970377Y-77314632D01*
X137893240Y-77420800D01*
X137807454Y-77589163D01*
X137749059Y-77768881D01*
X137719500Y-77955513D01*
X117989286Y-77955513D01*
X117985369Y-77920750D01*
X117985368Y-77920745D01*
X117979397Y-77903682D01*
X117925789Y-77750478D01*
X117925188Y-77749522D01*
X117829815Y-77597737D01*
X117702262Y-77470184D01*
X117549523Y-77374211D01*
X117379254Y-77314631D01*
X117379249Y-77314630D01*
X117200004Y-77294435D01*
X117199996Y-77294435D01*
X117020750Y-77314630D01*
X117020745Y-77314631D01*
X116850476Y-77374211D01*
X116697737Y-77470184D01*
X116570184Y-77597737D01*
X116474211Y-77750476D01*
X116414631Y-77920745D01*
X116414630Y-77920750D01*
X116394435Y-78099996D01*
X102090571Y-78099996D01*
X102202262Y-78029816D01*
X102329816Y-77902262D01*
X102425789Y-77749522D01*
X102485368Y-77579255D01*
X102497316Y-77473212D01*
X102505565Y-77400003D01*
X102505565Y-77399996D01*
X102485369Y-77220750D01*
X102485368Y-77220745D01*
X102449730Y-77118897D01*
X102425789Y-77050478D01*
X102329816Y-76897738D01*
X102202262Y-76770184D01*
X102049523Y-76674211D01*
X101879254Y-76614631D01*
X101879249Y-76614630D01*
X101700004Y-76594435D01*
X101699996Y-76594435D01*
X101520750Y-76614630D01*
X101520745Y-76614631D01*
X101350476Y-76674211D01*
X101197737Y-76770184D01*
X101070184Y-76897737D01*
X100970506Y-77056374D01*
X100969004Y-77055430D01*
X100928216Y-77100594D01*
X100860787Y-77118897D01*
X100794166Y-77097839D01*
X100749505Y-77044107D01*
X100743559Y-77027016D01*
X100713905Y-76916344D01*
X100713904Y-76916343D01*
X100713903Y-76916337D01*
X100614035Y-76702171D01*
X100608425Y-76694158D01*
X100478494Y-76508597D01*
X100311402Y-76341506D01*
X100311395Y-76341501D01*
X100117834Y-76205967D01*
X100117830Y-76205965D01*
X99916069Y-76111882D01*
X99863630Y-76065710D01*
X99844478Y-75998516D01*
X99864694Y-75931635D01*
X99917859Y-75886300D01*
X99968474Y-75875500D01*
X150100500Y-75875500D01*
X150167539Y-75895185D01*
G37*
G04 #@! TD.AperFunction*
M02*
