G04 #@! TF.GenerationSoftware,KiCad,Pcbnew,8.0.2*
G04 #@! TF.CreationDate,2024-05-18T01:19:45+05:00*
G04 #@! TF.ProjectId,EDP Converter,45445020-436f-46e7-9665-727465722e6b,rev?*
G04 #@! TF.SameCoordinates,Original*
G04 #@! TF.FileFunction,Copper,L1,Top*
G04 #@! TF.FilePolarity,Positive*
%FSLAX46Y46*%
G04 Gerber Fmt 4.6, Leading zero omitted, Abs format (unit mm)*
G04 Created by KiCad (PCBNEW 8.0.2) date 2024-05-18 01:19:45*
%MOMM*%
%LPD*%
G01*
G04 APERTURE LIST*
G04 Aperture macros list*
%AMRoundRect*
0 Rectangle with rounded corners*
0 $1 Rounding radius*
0 $2 $3 $4 $5 $6 $7 $8 $9 X,Y pos of 4 corners*
0 Add a 4 corners polygon primitive as box body*
4,1,4,$2,$3,$4,$5,$6,$7,$8,$9,$2,$3,0*
0 Add four circle primitives for the rounded corners*
1,1,$1+$1,$2,$3*
1,1,$1+$1,$4,$5*
1,1,$1+$1,$6,$7*
1,1,$1+$1,$8,$9*
0 Add four rect primitives between the rounded corners*
20,1,$1+$1,$2,$3,$4,$5,0*
20,1,$1+$1,$4,$5,$6,$7,0*
20,1,$1+$1,$6,$7,$8,$9,0*
20,1,$1+$1,$8,$9,$2,$3,0*%
G04 Aperture macros list end*
G04 #@! TA.AperFunction,SMDPad,CuDef*
%ADD10RoundRect,0.140000X0.140000X0.170000X-0.140000X0.170000X-0.140000X-0.170000X0.140000X-0.170000X0*%
G04 #@! TD*
G04 #@! TA.AperFunction,SMDPad,CuDef*
%ADD11RoundRect,0.140000X-0.170000X0.140000X-0.170000X-0.140000X0.170000X-0.140000X0.170000X0.140000X0*%
G04 #@! TD*
G04 #@! TA.AperFunction,SMDPad,CuDef*
%ADD12RoundRect,0.140000X-0.140000X-0.170000X0.140000X-0.170000X0.140000X0.170000X-0.140000X0.170000X0*%
G04 #@! TD*
G04 #@! TA.AperFunction,SMDPad,CuDef*
%ADD13RoundRect,0.135000X-0.135000X-0.185000X0.135000X-0.185000X0.135000X0.185000X-0.135000X0.185000X0*%
G04 #@! TD*
G04 #@! TA.AperFunction,SMDPad,CuDef*
%ADD14RoundRect,0.135000X0.185000X-0.135000X0.185000X0.135000X-0.185000X0.135000X-0.185000X-0.135000X0*%
G04 #@! TD*
G04 #@! TA.AperFunction,SMDPad,CuDef*
%ADD15RoundRect,0.135000X-0.185000X0.135000X-0.185000X-0.135000X0.185000X-0.135000X0.185000X0.135000X0*%
G04 #@! TD*
G04 #@! TA.AperFunction,SMDPad,CuDef*
%ADD16RoundRect,0.140000X0.170000X-0.140000X0.170000X0.140000X-0.170000X0.140000X-0.170000X-0.140000X0*%
G04 #@! TD*
G04 #@! TA.AperFunction,SMDPad,CuDef*
%ADD17RoundRect,0.150000X-0.150000X0.587500X-0.150000X-0.587500X0.150000X-0.587500X0.150000X0.587500X0*%
G04 #@! TD*
G04 #@! TA.AperFunction,SMDPad,CuDef*
%ADD18RoundRect,0.135000X0.135000X0.185000X-0.135000X0.185000X-0.135000X-0.185000X0.135000X-0.185000X0*%
G04 #@! TD*
G04 #@! TA.AperFunction,SMDPad,CuDef*
%ADD19R,2.000000X2.000000*%
G04 #@! TD*
G04 #@! TA.AperFunction,SMDPad,CuDef*
%ADD20R,2.400000X0.280000*%
G04 #@! TD*
G04 #@! TA.AperFunction,ComponentPad*
%ADD21O,2.800000X1.400000*%
G04 #@! TD*
G04 #@! TA.AperFunction,ComponentPad*
%ADD22O,2.400000X1.200000*%
G04 #@! TD*
G04 #@! TA.AperFunction,SMDPad,CuDef*
%ADD23R,0.279400X1.346200*%
G04 #@! TD*
G04 #@! TA.AperFunction,SMDPad,CuDef*
%ADD24R,1.346200X0.279400*%
G04 #@! TD*
G04 #@! TA.AperFunction,SMDPad,CuDef*
%ADD25R,3.302000X3.302000*%
G04 #@! TD*
G04 #@! TA.AperFunction,SMDPad,CuDef*
%ADD26RoundRect,0.147500X0.172500X-0.147500X0.172500X0.147500X-0.172500X0.147500X-0.172500X-0.147500X0*%
G04 #@! TD*
G04 #@! TA.AperFunction,SMDPad,CuDef*
%ADD27R,0.850000X0.280000*%
G04 #@! TD*
G04 #@! TA.AperFunction,SMDPad,CuDef*
%ADD28R,0.280000X0.850000*%
G04 #@! TD*
G04 #@! TA.AperFunction,SMDPad,CuDef*
%ADD29R,2.050000X2.050000*%
G04 #@! TD*
G04 #@! TA.AperFunction,SMDPad,CuDef*
%ADD30RoundRect,0.100000X0.100000X-0.225000X0.100000X0.225000X-0.100000X0.225000X-0.100000X-0.225000X0*%
G04 #@! TD*
G04 #@! TA.AperFunction,SMDPad,CuDef*
%ADD31R,1.100000X0.300000*%
G04 #@! TD*
G04 #@! TA.AperFunction,SMDPad,CuDef*
%ADD32R,3.100000X2.300000*%
G04 #@! TD*
G04 #@! TA.AperFunction,SMDPad,CuDef*
%ADD33RoundRect,0.225000X-0.250000X0.225000X-0.250000X-0.225000X0.250000X-0.225000X0.250000X0.225000X0*%
G04 #@! TD*
G04 #@! TA.AperFunction,ComponentPad*
%ADD34R,1.700000X1.700000*%
G04 #@! TD*
G04 #@! TA.AperFunction,ComponentPad*
%ADD35O,1.700000X1.700000*%
G04 #@! TD*
G04 #@! TA.AperFunction,ViaPad*
%ADD36C,0.600000*%
G04 #@! TD*
G04 #@! TA.AperFunction,ViaPad*
%ADD37C,0.800000*%
G04 #@! TD*
G04 #@! TA.AperFunction,Conductor*
%ADD38C,0.600000*%
G04 #@! TD*
G04 #@! TA.AperFunction,Conductor*
%ADD39C,0.250000*%
G04 #@! TD*
G04 #@! TA.AperFunction,Conductor*
%ADD40C,0.200000*%
G04 #@! TD*
G04 #@! TA.AperFunction,Conductor*
%ADD41C,0.500000*%
G04 #@! TD*
G04 #@! TA.AperFunction,Conductor*
%ADD42C,0.254000*%
G04 #@! TD*
G04 #@! TA.AperFunction,Conductor*
%ADD43C,0.300000*%
G04 #@! TD*
G04 #@! TA.AperFunction,Conductor*
%ADD44C,0.160000*%
G04 #@! TD*
G04 APERTURE END LIST*
D10*
X132205000Y-127975000D03*
X131245000Y-127975000D03*
D11*
X117950000Y-118120000D03*
X117950000Y-119080000D03*
D12*
X124540000Y-104050000D03*
X125500000Y-104050000D03*
D13*
X105642500Y-116750000D03*
X106662500Y-116750000D03*
D12*
X134520000Y-110400000D03*
X135480000Y-110400000D03*
D14*
X104387500Y-106885000D03*
X104387500Y-105865000D03*
D15*
X115400000Y-111640000D03*
X115400000Y-112660000D03*
D12*
X133920000Y-118900000D03*
X134880000Y-118900000D03*
D16*
X128250000Y-101615000D03*
X128250000Y-100655000D03*
D11*
X123425000Y-122845000D03*
X123425000Y-123805000D03*
D12*
X124520000Y-105200000D03*
X125480000Y-105200000D03*
X133920000Y-120100000D03*
X134880000Y-120100000D03*
D16*
X117150000Y-112655000D03*
X117150000Y-111695000D03*
D17*
X105450000Y-111587500D03*
X103550000Y-111587500D03*
X104500000Y-113462500D03*
D18*
X132910000Y-99200000D03*
X131890000Y-99200000D03*
D11*
X114800000Y-117520000D03*
X114800000Y-118480000D03*
D12*
X124495000Y-102900000D03*
X125455000Y-102900000D03*
X104407500Y-109500000D03*
X105367500Y-109500000D03*
D19*
X111875000Y-89850000D03*
D11*
X128200000Y-122800000D03*
X128200000Y-123760000D03*
D20*
X137020000Y-80800000D03*
X137020000Y-81300000D03*
X137020000Y-81800000D03*
X137020000Y-82300000D03*
X137020000Y-82800000D03*
X137020000Y-83300000D03*
X137020000Y-83800000D03*
X137020000Y-84300000D03*
X137020000Y-84800000D03*
X137020000Y-85300000D03*
X137020000Y-85800000D03*
X137020000Y-86300000D03*
X137020000Y-86800000D03*
X137020000Y-87300000D03*
X137020000Y-87800000D03*
X137020000Y-88300000D03*
X137020000Y-88800000D03*
X137020000Y-89300000D03*
X137020000Y-89800000D03*
X137020000Y-90300000D03*
D21*
X139620000Y-94550000D03*
X139620000Y-78050000D03*
D22*
X146400000Y-94550000D03*
X146400000Y-78050000D03*
D16*
X123525000Y-101300000D03*
X123525000Y-100340000D03*
D23*
X122450000Y-120078500D03*
X122949999Y-120078500D03*
X123450000Y-120078500D03*
X123949999Y-120078500D03*
X124450001Y-120078500D03*
X124950000Y-120078500D03*
X125449999Y-120078500D03*
X125950000Y-120078500D03*
X126450000Y-120078500D03*
X126950001Y-120078500D03*
X127450000Y-120078500D03*
X127949999Y-120078500D03*
X128450001Y-120078500D03*
X128950000Y-120078500D03*
X129450001Y-120078500D03*
X129950000Y-120078500D03*
D24*
X131978500Y-118050000D03*
X131978500Y-117550001D03*
X131978500Y-117050000D03*
X131978500Y-116550001D03*
X131978500Y-116049999D03*
X131978500Y-115550000D03*
X131978500Y-115050001D03*
X131978500Y-114550000D03*
X131978500Y-114050000D03*
X131978500Y-113549999D03*
X131978500Y-113050000D03*
X131978500Y-112550001D03*
X131978500Y-112049999D03*
X131978500Y-111550000D03*
X131978500Y-111049999D03*
X131978500Y-110550000D03*
D23*
X129950000Y-108521500D03*
X129450001Y-108521500D03*
X128950000Y-108521500D03*
X128450001Y-108521500D03*
X127949999Y-108521500D03*
X127450000Y-108521500D03*
X126950001Y-108521500D03*
X126450000Y-108521500D03*
X125950000Y-108521500D03*
X125449999Y-108521500D03*
X124950000Y-108521500D03*
X124450001Y-108521500D03*
X123949999Y-108521500D03*
X123450000Y-108521500D03*
X122949999Y-108521500D03*
X122450000Y-108521500D03*
D24*
X120421500Y-110550000D03*
X120421500Y-111049999D03*
X120421500Y-111550000D03*
X120421500Y-112049999D03*
X120421500Y-112550001D03*
X120421500Y-113050000D03*
X120421500Y-113549999D03*
X120421500Y-114050000D03*
X120421500Y-114550000D03*
X120421500Y-115050001D03*
X120421500Y-115550000D03*
X120421500Y-116049999D03*
X120421500Y-116550001D03*
X120421500Y-117050000D03*
X120421500Y-117550001D03*
X120421500Y-118050000D03*
D25*
X126200000Y-114300000D03*
D26*
X137500000Y-126885000D03*
X137500000Y-125915000D03*
D16*
X127150000Y-101630000D03*
X127150000Y-100670000D03*
X128700000Y-106130000D03*
X128700000Y-105170000D03*
D11*
X110050000Y-128195000D03*
X110050000Y-129155000D03*
D16*
X120300000Y-101295000D03*
X120300000Y-100335000D03*
D12*
X104507500Y-115500000D03*
X105467500Y-115500000D03*
D18*
X130860000Y-99200000D03*
X129840000Y-99200000D03*
D11*
X111175000Y-128170000D03*
X111175000Y-129130000D03*
D16*
X131900000Y-101555000D03*
X131900000Y-100595000D03*
X130850000Y-101580000D03*
X130850000Y-100620000D03*
D15*
X135100000Y-125890000D03*
X135100000Y-126910000D03*
D19*
X111800000Y-85600000D03*
X111775000Y-81325000D03*
D14*
X114000000Y-131210000D03*
X114000000Y-130190000D03*
D12*
X144020000Y-97400000D03*
X144980000Y-97400000D03*
D27*
X112575000Y-127350000D03*
D28*
X113300000Y-128325000D03*
X113800000Y-128325000D03*
X114300000Y-128325000D03*
X114800000Y-128325000D03*
X115300000Y-128325000D03*
D27*
X116025000Y-127350000D03*
X116025000Y-125850000D03*
D28*
X115300000Y-124875000D03*
X114800000Y-124875000D03*
X114300000Y-124875000D03*
X113800000Y-124875000D03*
X113300000Y-124875000D03*
D27*
X112575000Y-125850000D03*
D29*
X114300000Y-126600000D03*
D12*
X104682500Y-126962500D03*
X105642500Y-126962500D03*
D14*
X136470000Y-100510000D03*
X136470000Y-99490000D03*
D16*
X129400000Y-101590000D03*
X129400000Y-100630000D03*
D30*
X133750000Y-130450000D03*
X134400000Y-130450000D03*
X135050000Y-130450000D03*
X135050000Y-128550000D03*
X133750000Y-128550000D03*
D31*
X144875000Y-117875000D03*
X144875000Y-117375000D03*
X144875000Y-116875000D03*
X144875000Y-116375000D03*
X144875000Y-115875000D03*
X144875000Y-115375000D03*
X144875000Y-114875000D03*
X144875000Y-114375000D03*
X144875000Y-113875000D03*
X144875000Y-113375000D03*
X144875000Y-112875000D03*
X144875000Y-112375000D03*
X144875000Y-111875000D03*
X144875000Y-111375000D03*
X144875000Y-110875000D03*
X144875000Y-110375000D03*
X144875000Y-109875000D03*
X144875000Y-109375000D03*
X144875000Y-108875000D03*
X144875000Y-108375000D03*
X144875000Y-107875000D03*
X144875000Y-107375000D03*
D32*
X146575000Y-119545000D03*
X146575000Y-105705000D03*
D16*
X120100000Y-108130000D03*
X120100000Y-107170000D03*
D17*
X105625000Y-123075000D03*
X103725000Y-123075000D03*
X104675000Y-124950000D03*
D10*
X138600000Y-100400000D03*
X137640000Y-100400000D03*
D16*
X121420000Y-101300000D03*
X121420000Y-100340000D03*
D14*
X136300000Y-126910000D03*
X136300000Y-125890000D03*
D18*
X145110000Y-101400000D03*
X144090000Y-101400000D03*
D16*
X131200000Y-108030000D03*
X131200000Y-107070000D03*
X122500000Y-101300000D03*
X122500000Y-100340000D03*
D12*
X104407500Y-120325000D03*
X105367500Y-120325000D03*
D13*
X116090000Y-110600000D03*
X117110000Y-110600000D03*
D16*
X111225000Y-125280000D03*
X111225000Y-124320000D03*
D13*
X105617500Y-117925000D03*
X106637500Y-117925000D03*
D16*
X126100000Y-101630000D03*
X126100000Y-100670000D03*
D12*
X104382500Y-119300000D03*
X105342500Y-119300000D03*
D18*
X145080000Y-98675000D03*
X144060000Y-98675000D03*
D19*
X111800000Y-77350000D03*
D33*
X116500000Y-118300000D03*
X116500000Y-119850000D03*
D14*
X112675000Y-131210000D03*
X112675000Y-130190000D03*
D12*
X104407500Y-121375000D03*
X105367500Y-121375000D03*
D34*
X99440000Y-125640000D03*
D35*
X96900000Y-125640000D03*
X99440000Y-123100000D03*
X96900000Y-123100000D03*
X99440000Y-120560000D03*
X96900000Y-120560000D03*
X99440000Y-118020000D03*
X96900000Y-118020000D03*
X99440000Y-115480000D03*
X96900000Y-115480000D03*
X99440000Y-112940000D03*
X96900000Y-112940000D03*
X99440000Y-110400000D03*
X96900000Y-110400000D03*
X99440000Y-107860000D03*
X96900000Y-107860000D03*
X99440000Y-105320000D03*
X96900000Y-105320000D03*
X99440000Y-102780000D03*
X96900000Y-102780000D03*
X99440000Y-100240000D03*
X96900000Y-100240000D03*
X99440000Y-97700000D03*
X96900000Y-97700000D03*
X99440000Y-95160000D03*
X96900000Y-95160000D03*
X99440000Y-92620000D03*
X96900000Y-92620000D03*
X99440000Y-90080000D03*
X96900000Y-90080000D03*
X99440000Y-87540000D03*
X96900000Y-87540000D03*
X99440000Y-85000000D03*
X96900000Y-85000000D03*
X99440000Y-82460000D03*
X96900000Y-82460000D03*
X99440000Y-79920000D03*
X96900000Y-79920000D03*
X99440000Y-77380000D03*
X96900000Y-77380000D03*
D36*
X101100000Y-105300000D03*
X102000000Y-105200000D03*
X146200000Y-116300000D03*
X127000000Y-115200000D03*
X125400000Y-115200000D03*
X127000000Y-113500000D03*
X125400000Y-113500000D03*
X126200000Y-114300000D03*
X126100000Y-81300000D03*
X134400000Y-86900000D03*
X130200000Y-107000000D03*
X132300000Y-96900000D03*
X129700000Y-97100000D03*
X127600000Y-99700000D03*
X121900000Y-99100000D03*
X121700000Y-86600000D03*
X120500000Y-84300000D03*
X123850000Y-102250000D03*
X122300000Y-106900000D03*
X101400000Y-129700000D03*
X110600000Y-126600000D03*
X114900000Y-127100000D03*
X113700000Y-127100000D03*
X113700000Y-126000000D03*
X114900000Y-126000000D03*
X114300000Y-126600000D03*
X137500000Y-127800000D03*
X136300000Y-130500000D03*
X140300000Y-114000000D03*
D37*
X135500000Y-109300000D03*
X138600000Y-102200000D03*
X139100000Y-81300000D03*
X139200000Y-82900000D03*
X139200000Y-84400000D03*
X139100000Y-85800000D03*
X140000000Y-87600000D03*
X139100000Y-88300000D03*
X139200000Y-89400000D03*
X145900000Y-97400000D03*
X148000000Y-98700000D03*
X147900000Y-101400000D03*
X106600000Y-105900000D03*
X110000000Y-105900000D03*
X121700000Y-112700000D03*
X121800000Y-117700000D03*
X129900000Y-110000000D03*
X122800000Y-110900000D03*
X132000000Y-119400000D03*
X111800000Y-115300000D03*
X106900000Y-115600000D03*
X139300000Y-90700000D03*
X133100000Y-98000000D03*
X129900000Y-98200000D03*
X143200000Y-106500000D03*
X135100000Y-124900000D03*
X111300000Y-131200000D03*
X108300000Y-128200000D03*
X107300000Y-128200000D03*
X117600000Y-124800000D03*
X107900000Y-124700000D03*
X108000000Y-121000000D03*
D36*
X127300000Y-80850000D03*
X131850000Y-80850000D03*
X131850000Y-81700000D03*
X127300000Y-81700000D03*
X133400000Y-82315823D03*
X126282843Y-82334314D03*
X133400000Y-83115823D03*
X125717157Y-82900000D03*
X134000000Y-87900000D03*
X130200000Y-87900000D03*
X134000000Y-88700000D03*
X130200000Y-88700000D03*
X121550000Y-83900000D03*
X131865007Y-83900000D03*
X121550000Y-84700000D03*
X131865007Y-84700000D03*
X120682843Y-85384314D03*
X133650000Y-85400000D03*
X133650000Y-86200000D03*
X120117157Y-85950000D03*
X132270000Y-107070000D03*
X106300000Y-109500000D03*
X101750000Y-95150000D03*
X135800000Y-118950000D03*
X127100000Y-123755000D03*
X115100000Y-119875000D03*
X128700000Y-104400000D03*
X101400000Y-109300000D03*
X117300000Y-127700000D03*
X117950000Y-119900000D03*
X130650001Y-115050001D03*
X124400000Y-123800000D03*
X130000000Y-128600000D03*
X119300000Y-119200000D03*
X101500000Y-101500000D03*
X135800000Y-120100000D03*
X116400000Y-111700000D03*
X124900000Y-102000000D03*
X106700000Y-123075000D03*
X106487500Y-111587500D03*
X101200000Y-86300000D03*
X101200000Y-119400000D03*
X120100000Y-106200000D03*
X106000000Y-113500000D03*
X101100000Y-88900000D03*
X101000000Y-111800000D03*
X107000000Y-126800000D03*
X143500000Y-118200000D03*
X109200000Y-129200000D03*
X101700000Y-77400000D03*
X130700000Y-113500000D03*
X111225000Y-123275000D03*
X111700000Y-117520000D03*
X112900000Y-104500000D03*
X125449999Y-106500000D03*
X134900000Y-90400000D03*
X134800000Y-95100000D03*
X142950000Y-117500000D03*
X134250000Y-116350000D03*
X140250000Y-110750000D03*
X133850000Y-112050000D03*
X135350000Y-113350000D03*
X143200000Y-112200000D03*
X134100000Y-114750000D03*
X139500000Y-114750000D03*
X141550000Y-115200000D03*
X135550000Y-115900000D03*
X142950000Y-116700000D03*
X134250000Y-117150000D03*
X112675000Y-129500000D03*
X147150000Y-122950000D03*
X142200000Y-108300000D03*
X118475000Y-132675000D03*
X118800000Y-129900000D03*
X142900000Y-107700000D03*
X146200000Y-123000000D03*
X113800000Y-129400000D03*
X134100000Y-113950000D03*
X139500000Y-113950000D03*
X143200000Y-113000000D03*
X135350000Y-112550000D03*
X141550000Y-116000000D03*
X135550000Y-115100000D03*
X133850000Y-111250000D03*
X140250000Y-111550000D03*
X103100000Y-115400000D03*
X112800000Y-110500000D03*
X110900000Y-116600000D03*
X102100000Y-115100000D03*
X118600000Y-124500000D03*
X116100000Y-108500000D03*
X115400000Y-113600000D03*
X110700000Y-104800000D03*
X110700000Y-107700000D03*
X114500000Y-84500000D03*
X114500000Y-107800000D03*
X114400000Y-82000000D03*
X114600000Y-113900000D03*
X117300000Y-80500000D03*
X118200000Y-113300000D03*
X117200000Y-78100000D03*
X117300000Y-109200000D03*
X113700000Y-113800000D03*
X113700000Y-107700000D03*
X122700000Y-125600000D03*
X122600000Y-121500000D03*
X101300000Y-114500000D03*
X146175000Y-108875000D03*
X146300000Y-109900000D03*
X146600000Y-111900000D03*
X146150000Y-113350000D03*
X146200000Y-114900000D03*
X142208180Y-116380000D03*
D38*
X101880000Y-105320000D02*
X102000000Y-105200000D01*
X99440000Y-105320000D02*
X101880000Y-105320000D01*
D39*
X120500000Y-83600000D02*
X120500000Y-84300000D01*
X121000000Y-83100000D02*
X120500000Y-83600000D01*
X123100000Y-83100000D02*
X121000000Y-83100000D01*
X123900000Y-83900000D02*
X123100000Y-83100000D01*
X124400000Y-101700000D02*
X124400000Y-99900000D01*
X123900000Y-99400000D02*
X123900000Y-83900000D01*
X124400000Y-99900000D02*
X123900000Y-99400000D01*
X123850000Y-102250000D02*
X124400000Y-101700000D01*
X146125000Y-116375000D02*
X146200000Y-116300000D01*
X144875000Y-116375000D02*
X146125000Y-116375000D01*
X133600000Y-96900000D02*
X132300000Y-96900000D01*
X134200000Y-97500000D02*
X133600000Y-96900000D01*
X134200000Y-100600000D02*
X134200000Y-97500000D01*
X132000000Y-102800000D02*
X134200000Y-100600000D01*
X132000000Y-105200000D02*
X132000000Y-102800000D01*
X130200000Y-107000000D02*
X132000000Y-105200000D01*
X132300000Y-87800000D02*
X131500000Y-87000000D01*
X132300000Y-96900000D02*
X132300000Y-87800000D01*
X129500000Y-96900000D02*
X129500000Y-87000000D01*
X129500000Y-87000000D02*
X129500000Y-80600000D01*
X131500000Y-87000000D02*
X129500000Y-87000000D01*
X128900000Y-80000000D02*
X126800000Y-80000000D01*
X126100000Y-80700000D02*
X126100000Y-81774314D01*
X129500000Y-80600000D02*
X128900000Y-80000000D01*
X126800000Y-80000000D02*
X126100000Y-80700000D01*
X129700000Y-97100000D02*
X129500000Y-96900000D01*
D40*
X126100000Y-81774314D02*
X126574314Y-81774314D01*
X125325686Y-81774314D02*
X126100000Y-81774314D01*
X127300000Y-99400000D02*
X127600000Y-99700000D01*
X127300000Y-91600000D02*
X127300000Y-99400000D01*
X127300000Y-82500000D02*
X127300000Y-91600000D01*
X126574314Y-81774314D02*
X127300000Y-82500000D01*
X125200000Y-81900000D02*
X125325686Y-81774314D01*
X125000000Y-82700000D02*
X125000000Y-82100000D01*
X125000000Y-83500000D02*
X125000000Y-82700000D01*
X125500000Y-84000000D02*
X125000000Y-83500000D01*
X126000000Y-84500000D02*
X125500000Y-84000000D01*
X126000000Y-98700000D02*
X126000000Y-84500000D01*
X125200000Y-100000000D02*
X126000000Y-99200000D01*
X124900000Y-100300000D02*
X125200000Y-100000000D01*
X126000000Y-99200000D02*
X126000000Y-98700000D01*
X124900000Y-102000000D02*
X124900000Y-100300000D01*
X125000000Y-82100000D02*
X125200000Y-81900000D01*
D39*
X121700000Y-98900000D02*
X121900000Y-99100000D01*
X121700000Y-86600000D02*
X121700000Y-98900000D01*
X119800000Y-85000000D02*
X120500000Y-84300000D01*
X119532157Y-85900000D02*
X119532157Y-85267843D01*
X119532157Y-85267843D02*
X119800000Y-85000000D01*
X119532157Y-86532157D02*
X119532157Y-85900000D01*
X119800000Y-86800000D02*
X119532157Y-86532157D01*
X119600000Y-100120078D02*
X120200000Y-99520078D01*
X120200000Y-87200000D02*
X119800000Y-86800000D01*
X120200000Y-99520078D02*
X120200000Y-98900000D01*
X119600000Y-101300000D02*
X119600000Y-100120078D01*
X120200000Y-98900000D02*
X120200000Y-87200000D01*
X119600000Y-104200000D02*
X119600000Y-101300000D01*
X122300000Y-106900000D02*
X119600000Y-104200000D01*
D41*
X101740000Y-95160000D02*
X101750000Y-95150000D01*
X99440000Y-95160000D02*
X101740000Y-95160000D01*
X101680000Y-77380000D02*
X101700000Y-77400000D01*
X99440000Y-77380000D02*
X101680000Y-77380000D01*
D42*
X98200000Y-86300000D02*
X96900000Y-85000000D01*
X101200000Y-86300000D02*
X98200000Y-86300000D01*
X98080000Y-88900000D02*
X96900000Y-90080000D01*
X101100000Y-88900000D02*
X98080000Y-88900000D01*
X98180000Y-101500000D02*
X96900000Y-102780000D01*
X101500000Y-101500000D02*
X98180000Y-101500000D01*
D39*
X101200000Y-109100000D02*
X101400000Y-109300000D01*
X98200000Y-109100000D02*
X101200000Y-109100000D01*
X96900000Y-110400000D02*
X98200000Y-109100000D01*
X98160000Y-111660000D02*
X96900000Y-110400000D01*
X100860000Y-111660000D02*
X98160000Y-111660000D01*
X101000000Y-111800000D02*
X100860000Y-111660000D01*
D41*
X100320000Y-115480000D02*
X101300000Y-114500000D01*
X99440000Y-115480000D02*
X100320000Y-115480000D01*
D39*
X102300000Y-132200000D02*
X101400000Y-131300000D01*
X115000000Y-131300000D02*
X114100000Y-132200000D01*
X115000000Y-129700000D02*
X115000000Y-131300000D01*
X114960000Y-129700000D02*
X115000000Y-129700000D01*
X101400000Y-131300000D02*
X101400000Y-129700000D01*
X114300000Y-129040000D02*
X114960000Y-129700000D01*
X114300000Y-128325000D02*
X114300000Y-129040000D01*
X114100000Y-132200000D02*
X102300000Y-132200000D01*
D43*
X114300000Y-126600000D02*
X110600000Y-126600000D01*
D41*
X116950000Y-127350000D02*
X117300000Y-127700000D01*
X116025000Y-127350000D02*
X116950000Y-127350000D01*
X137500000Y-126885000D02*
X137500000Y-127800000D01*
X136300000Y-130500000D02*
X136250000Y-130450000D01*
X135050000Y-130450000D02*
X136250000Y-130450000D01*
D38*
X130625000Y-127975000D02*
X130000000Y-128600000D01*
X131245000Y-127975000D02*
X130625000Y-127975000D01*
D40*
X134400000Y-131400000D02*
X134400000Y-130450000D01*
X138100000Y-131700000D02*
X134700000Y-131700000D01*
X138800000Y-131000000D02*
X138100000Y-131700000D01*
X138200000Y-123700000D02*
X138800000Y-124300000D01*
X132700000Y-124100000D02*
X133100000Y-123700000D01*
X133100000Y-123700000D02*
X138200000Y-123700000D01*
X138800000Y-124300000D02*
X138800000Y-131000000D01*
X132700000Y-125600000D02*
X132700000Y-124100000D01*
X134700000Y-131700000D02*
X134400000Y-131400000D01*
X130500000Y-126200000D02*
X132100000Y-126200000D01*
X132100000Y-126200000D02*
X132700000Y-125600000D01*
X120300000Y-126200000D02*
X130500000Y-126200000D01*
D38*
X135100000Y-125890000D02*
X135100000Y-124900000D01*
X137475000Y-125890000D02*
X137500000Y-125915000D01*
X136300000Y-125890000D02*
X137475000Y-125890000D01*
X136300000Y-126910000D02*
X135100000Y-126910000D01*
X135050000Y-126960000D02*
X135100000Y-126910000D01*
X135050000Y-128550000D02*
X135050000Y-126960000D01*
D40*
X118600000Y-124500000D02*
X120300000Y-126200000D01*
X121628500Y-120900000D02*
X122450000Y-120078500D01*
X108700000Y-115311960D02*
X114288040Y-120900000D01*
X106540000Y-87540000D02*
X108700000Y-89700000D01*
X108700000Y-89700000D02*
X108700000Y-115311960D01*
X114288040Y-120900000D02*
X121628500Y-120900000D01*
X99440000Y-87540000D02*
X106540000Y-87540000D01*
D39*
X128950000Y-118350000D02*
X129749999Y-117550001D01*
X129749999Y-117550001D02*
X130650001Y-117550001D01*
X128950000Y-120078500D02*
X128950000Y-118350000D01*
X129900000Y-116800000D02*
X129900000Y-112000000D01*
X130650001Y-117550001D02*
X129900000Y-116800000D01*
X131978500Y-117550001D02*
X130650001Y-117550001D01*
X129900000Y-112000000D02*
X128949999Y-111049999D01*
X128450001Y-110550001D02*
X128450001Y-109650001D01*
X128949999Y-111049999D02*
X128450001Y-110550001D01*
X131978500Y-111049999D02*
X128949999Y-111049999D01*
X125800000Y-109800000D02*
X128300002Y-109800000D01*
X128300002Y-109800000D02*
X128450001Y-109650001D01*
X128450001Y-109650001D02*
X128450001Y-108521500D01*
X124950000Y-108521500D02*
X124950000Y-109800000D01*
X125950000Y-109650000D02*
X125950000Y-108521500D01*
X125800000Y-109800000D02*
X125950000Y-109650000D01*
X123900000Y-109800000D02*
X125800000Y-109800000D01*
X122450000Y-109434301D02*
X122450000Y-108521500D01*
X122815699Y-109800000D02*
X122450000Y-109434301D01*
X123900000Y-109800000D02*
X122815699Y-109800000D01*
D38*
X132700000Y-120100000D02*
X132000000Y-119400000D01*
X133920000Y-120100000D02*
X132700000Y-120100000D01*
X128155000Y-122845000D02*
X128200000Y-122800000D01*
X123425000Y-122845000D02*
X128155000Y-122845000D01*
X120945000Y-122845000D02*
X123425000Y-122845000D01*
X107400000Y-122100000D02*
X120200000Y-122100000D01*
X120200000Y-122100000D02*
X120945000Y-122845000D01*
X106637500Y-121337500D02*
X107400000Y-122100000D01*
X106637500Y-117925000D02*
X106637500Y-121337500D01*
D40*
X143825000Y-117875000D02*
X144875000Y-117875000D01*
X143500000Y-118200000D02*
X143825000Y-117875000D01*
D38*
X135480000Y-109320000D02*
X135500000Y-109300000D01*
X135480000Y-110400000D02*
X135480000Y-109320000D01*
X138600000Y-100400000D02*
X138600000Y-102200000D01*
D40*
X136470000Y-104830000D02*
X136470000Y-100510000D01*
X131978500Y-110550000D02*
X131978500Y-109321500D01*
X131978500Y-109321500D02*
X136470000Y-104830000D01*
D38*
X145110000Y-101400000D02*
X147900000Y-101400000D01*
X147975000Y-98675000D02*
X148000000Y-98700000D01*
X145080000Y-98675000D02*
X147975000Y-98675000D01*
X144980000Y-97400000D02*
X145900000Y-97400000D01*
X145750000Y-94550000D02*
X146400000Y-94550000D01*
X145000000Y-93800000D02*
X145750000Y-94550000D01*
X146400000Y-78050000D02*
X145000000Y-79450000D01*
X145000000Y-79450000D02*
X145000000Y-93800000D01*
X145450000Y-94550000D02*
X146400000Y-94550000D01*
X144060000Y-95940000D02*
X145450000Y-94550000D01*
X144060000Y-98675000D02*
X144060000Y-95940000D01*
X139620000Y-94550000D02*
X146400000Y-94550000D01*
X139620000Y-78050000D02*
X146400000Y-78050000D01*
X106565000Y-105865000D02*
X106600000Y-105900000D01*
X104387500Y-105865000D02*
X106565000Y-105865000D01*
X110800000Y-105900000D02*
X109900000Y-105900000D01*
X111500000Y-112100000D02*
X111500000Y-106600000D01*
X112060000Y-112660000D02*
X111500000Y-112100000D01*
X115400000Y-112660000D02*
X112060000Y-112660000D01*
X111500000Y-106600000D02*
X110800000Y-105900000D01*
X115405000Y-112655000D02*
X115400000Y-112660000D01*
X117150000Y-112655000D02*
X115405000Y-112655000D01*
D39*
X117895000Y-118075000D02*
X116575000Y-118075000D01*
X118419999Y-117550001D02*
X117895000Y-118075000D01*
X121650001Y-117550001D02*
X121800000Y-117700000D01*
X120421500Y-117550001D02*
X121650001Y-117550001D01*
D40*
X122784301Y-110915699D02*
X122800000Y-110900000D01*
X121334301Y-110550000D02*
X121700000Y-110915699D01*
X121700000Y-110915699D02*
X122784301Y-110915699D01*
X120421500Y-110550000D02*
X121334301Y-110550000D01*
D38*
X111700000Y-117520000D02*
X114800000Y-117520000D01*
D39*
X112050000Y-115550000D02*
X120421500Y-115550000D01*
X111800000Y-115300000D02*
X112050000Y-115550000D01*
D38*
X106662500Y-115837500D02*
X106900000Y-115600000D01*
X106662500Y-116750000D02*
X106662500Y-115837500D01*
X105617500Y-116775000D02*
X105642500Y-116750000D01*
X105617500Y-117925000D02*
X105617500Y-116775000D01*
X105075000Y-117925000D02*
X105617500Y-117925000D01*
X104382500Y-118617500D02*
X105075000Y-117925000D01*
X104382500Y-119300000D02*
X104382500Y-118617500D01*
X104407500Y-119325000D02*
X104382500Y-119300000D01*
X104407500Y-120325000D02*
X104407500Y-119325000D01*
X104407500Y-121375000D02*
X104407500Y-120325000D01*
X103725000Y-122057500D02*
X104407500Y-121375000D01*
X103725000Y-123075000D02*
X103725000Y-122057500D01*
D43*
X100480000Y-118020000D02*
X99440000Y-118020000D01*
X103100000Y-115400000D02*
X100480000Y-118020000D01*
D38*
X104682500Y-127417500D02*
X103700000Y-128400000D01*
X104682500Y-126962500D02*
X104682500Y-127417500D01*
X103700000Y-128400000D02*
X101400000Y-128400000D01*
X104682500Y-124957500D02*
X104675000Y-124950000D01*
X104682500Y-126962500D02*
X104682500Y-124957500D01*
X96900000Y-125640000D02*
X96900000Y-123100000D01*
X97800000Y-128400000D02*
X96900000Y-127500000D01*
X101400000Y-128400000D02*
X97800000Y-128400000D01*
X96900000Y-127500000D02*
X96900000Y-125640000D01*
X102200000Y-117800000D02*
X102200000Y-127600000D01*
X102200000Y-127600000D02*
X101400000Y-128400000D01*
X104500000Y-115500000D02*
X102200000Y-117800000D01*
X104507500Y-115500000D02*
X104500000Y-115500000D01*
X104507500Y-113470000D02*
X104500000Y-113462500D01*
X104507500Y-115500000D02*
X104507500Y-113470000D01*
D40*
X101600000Y-110400000D02*
X99440000Y-110400000D01*
X102100000Y-110900000D02*
X101600000Y-110400000D01*
X102100000Y-115100000D02*
X102100000Y-110900000D01*
D39*
X138900000Y-90300000D02*
X139300000Y-90700000D01*
X137020000Y-90300000D02*
X138900000Y-90300000D01*
D40*
X138800000Y-89800000D02*
X139200000Y-89400000D01*
X137020000Y-89800000D02*
X138800000Y-89800000D01*
D38*
X132910000Y-98190000D02*
X133100000Y-98000000D01*
X132910000Y-99200000D02*
X132910000Y-98190000D01*
X129840000Y-98260000D02*
X129900000Y-98200000D01*
X129840000Y-99200000D02*
X129840000Y-98260000D01*
D40*
X142900000Y-107700000D02*
X143075000Y-107875000D01*
X143075000Y-107875000D02*
X144875000Y-107875000D01*
X142275000Y-108375000D02*
X144875000Y-108375000D01*
X142200000Y-108300000D02*
X142275000Y-108375000D01*
D39*
X144075000Y-107375000D02*
X143200000Y-106500000D01*
X144875000Y-107375000D02*
X144075000Y-107375000D01*
D38*
X111300000Y-131200000D02*
X111310000Y-131210000D01*
X114000000Y-131210000D02*
X111310000Y-131210000D01*
X111950000Y-127350000D02*
X112575000Y-127350000D01*
X111175000Y-128125000D02*
X111950000Y-127350000D01*
X111175000Y-128170000D02*
X111175000Y-128125000D01*
X111150000Y-128195000D02*
X111175000Y-128170000D01*
X110050000Y-128195000D02*
X111150000Y-128195000D01*
X110050000Y-128195000D02*
X107305000Y-128195000D01*
X107305000Y-128195000D02*
X107300000Y-128200000D01*
X108000000Y-108300000D02*
X108000000Y-121000000D01*
X106585000Y-106885000D02*
X108000000Y-108300000D01*
X104387500Y-106885000D02*
X106585000Y-106885000D01*
X133175000Y-127975000D02*
X132205000Y-127975000D01*
X133750000Y-128550000D02*
X133175000Y-127975000D01*
X131700000Y-126900000D02*
X132205000Y-127405000D01*
X119700000Y-126900000D02*
X131700000Y-126900000D01*
X132205000Y-127405000D02*
X132205000Y-127975000D01*
X117600000Y-124800000D02*
X119700000Y-126900000D01*
D39*
X114300000Y-124050000D02*
X114300000Y-124875000D01*
X119013604Y-123850000D02*
X114500000Y-123850000D01*
X114500000Y-123850000D02*
X114300000Y-124050000D01*
X122700000Y-125600000D02*
X120763604Y-125600000D01*
X120763604Y-125600000D02*
X119013604Y-123850000D01*
X129100000Y-125000000D02*
X129950000Y-124150000D01*
X120800000Y-125000000D02*
X129100000Y-125000000D01*
X119200000Y-123400000D02*
X120800000Y-125000000D01*
X114100000Y-123400000D02*
X119200000Y-123400000D01*
X113800000Y-123700000D02*
X114100000Y-123400000D01*
X129950000Y-124150000D02*
X129950000Y-120078500D01*
X113800000Y-124875000D02*
X113800000Y-123700000D01*
X128800000Y-124500000D02*
X129450001Y-123849999D01*
X121200000Y-124500000D02*
X128800000Y-124500000D01*
X129450001Y-123849999D02*
X129450001Y-120078500D01*
X113300000Y-124875000D02*
X113300000Y-123400000D01*
X113300000Y-123400000D02*
X113800000Y-122900000D01*
X113800000Y-122900000D02*
X119600000Y-122900000D01*
X119600000Y-122900000D02*
X121200000Y-124500000D01*
D38*
X111950000Y-125850000D02*
X112575000Y-125850000D01*
X110100000Y-125280000D02*
X111380000Y-125280000D01*
X111380000Y-125280000D02*
X111950000Y-125850000D01*
X110100000Y-125280000D02*
X108480000Y-125280000D01*
X111225000Y-125280000D02*
X110100000Y-125280000D01*
D43*
X111225000Y-124320000D02*
X111225000Y-123275000D01*
D38*
X108480000Y-125280000D02*
X107900000Y-124700000D01*
D40*
X106700000Y-123075000D02*
X105625000Y-123075000D01*
X117950000Y-119900000D02*
X117950000Y-119080000D01*
X110949999Y-116550001D02*
X117000000Y-116550001D01*
X110900000Y-116600000D02*
X110949999Y-116550001D01*
X109300000Y-86500000D02*
X107800000Y-85000000D01*
X109300000Y-113800000D02*
X109300000Y-86500000D01*
X107800000Y-85000000D02*
X99440000Y-85000000D01*
X120421500Y-116049999D02*
X111549999Y-116049999D01*
X111549999Y-116049999D02*
X109300000Y-113800000D01*
X110700000Y-104800000D02*
X110700000Y-91025000D01*
X110700000Y-91025000D02*
X111875000Y-89850000D01*
X112840000Y-111640000D02*
X115400000Y-111640000D01*
X112100000Y-110900000D02*
X112840000Y-111640000D01*
X112900000Y-104500000D02*
X112100000Y-105300000D01*
X112100000Y-105300000D02*
X112100000Y-110900000D01*
X110700000Y-113100000D02*
X111900000Y-114300000D01*
X110700000Y-107700000D02*
X110700000Y-113100000D01*
D43*
X112900000Y-110600000D02*
X116090000Y-110600000D01*
X112800000Y-110500000D02*
X112900000Y-110600000D01*
X106000000Y-113500000D02*
X105467500Y-114032500D01*
X105467500Y-114032500D02*
X105467500Y-115500000D01*
D38*
X104407500Y-106905000D02*
X104387500Y-106885000D01*
X104407500Y-109500000D02*
X104407500Y-106905000D01*
X103550000Y-110357500D02*
X104407500Y-109500000D01*
X103550000Y-111587500D02*
X103550000Y-110357500D01*
D39*
X95725000Y-119195000D02*
X96900000Y-118020000D01*
X100063604Y-132700000D02*
X95725000Y-128361396D01*
X117000000Y-132700000D02*
X100063604Y-132700000D01*
X95725000Y-128361396D02*
X95725000Y-119195000D01*
X118100000Y-126900000D02*
X118100000Y-131600000D01*
X118100000Y-131600000D02*
X117000000Y-132700000D01*
X116025000Y-125850000D02*
X117050000Y-125850000D01*
X117050000Y-125850000D02*
X118100000Y-126900000D01*
X128950000Y-122050000D02*
X128200000Y-122800000D01*
X128950000Y-120078500D02*
X128950000Y-122050000D01*
D40*
X128195000Y-123755000D02*
X128200000Y-123760000D01*
X127100000Y-123755000D02*
X128195000Y-123755000D01*
D39*
X122985300Y-120085300D02*
X122978500Y-120078500D01*
X122985300Y-121114700D02*
X122985300Y-120085300D01*
X122600000Y-121500000D02*
X122985300Y-121114700D01*
D40*
X124400000Y-123800000D02*
X123430000Y-123800000D01*
X123430000Y-123800000D02*
X123425000Y-123805000D01*
D43*
X110050000Y-129155000D02*
X109245000Y-129155000D01*
X109245000Y-129155000D02*
X109200000Y-129200000D01*
D40*
X145430000Y-132270000D02*
X119370000Y-132270000D01*
X119370000Y-132270000D02*
X119000000Y-131900000D01*
X146200000Y-131500000D02*
X145430000Y-132270000D01*
X146200000Y-123000000D02*
X146200000Y-131500000D01*
X119000000Y-131900000D02*
X119000000Y-130100000D01*
X119000000Y-130100000D02*
X118800000Y-129900000D01*
X118700000Y-132900000D02*
X118475000Y-132675000D01*
X147150000Y-131850000D02*
X146100000Y-132900000D01*
X146100000Y-132900000D02*
X118700000Y-132900000D01*
X147150000Y-122950000D02*
X147150000Y-131850000D01*
X119300000Y-118190000D02*
X119300000Y-119200000D01*
X119440000Y-118050000D02*
X119300000Y-118190000D01*
X120421500Y-118050000D02*
X119440000Y-118050000D01*
D44*
X128545811Y-81095000D02*
X129017500Y-81566689D01*
X127300000Y-80850000D02*
X127545000Y-81095000D01*
X127545000Y-81095000D02*
X128545811Y-81095000D01*
X137020000Y-80800000D02*
X135219999Y-80800000D01*
X129017500Y-100247500D02*
X129400000Y-100630000D01*
X129017500Y-81566689D02*
X129017500Y-100247500D01*
X135219999Y-80800000D02*
X134899999Y-81120000D01*
X132120000Y-81120000D02*
X131850000Y-80850000D01*
X134899999Y-81120000D02*
X132120000Y-81120000D01*
X129012689Y-101977311D02*
X129400000Y-101590000D01*
X127949999Y-108521500D02*
X127949999Y-107511849D01*
X127879999Y-104374561D02*
X129012689Y-103241871D01*
X127949999Y-107511849D02*
X127879999Y-107441849D01*
X129012689Y-103241871D02*
X129012689Y-101977311D01*
X127879999Y-107441849D02*
X127879999Y-104374561D01*
X127520000Y-107441849D02*
X127520000Y-104225440D01*
X127450000Y-107511849D02*
X127520000Y-107441849D01*
X128250000Y-101615000D02*
X128250000Y-101734688D01*
X128250000Y-101734688D02*
X128652689Y-102137377D01*
X127520000Y-104225440D02*
X128652689Y-103092751D01*
X128652689Y-103092751D02*
X128652689Y-102137377D01*
X127450000Y-108521500D02*
X127450000Y-107511849D01*
X135219999Y-81800000D02*
X137020000Y-81800000D01*
X132070000Y-81480000D02*
X134899999Y-81480000D01*
X127545000Y-81455000D02*
X128396691Y-81455000D01*
X128657500Y-81715809D02*
X128657500Y-100247500D01*
X128396691Y-81455000D02*
X128657500Y-81715809D01*
X128657500Y-100247500D02*
X128250000Y-100655000D01*
X134899999Y-81480000D02*
X135219999Y-81800000D01*
X131850000Y-81700000D02*
X132070000Y-81480000D01*
X127300000Y-81700000D02*
X127545000Y-81455000D01*
X126805000Y-102440001D02*
X127150000Y-102095001D01*
X126880000Y-107441848D02*
X126880000Y-104225440D01*
X127150000Y-102095001D02*
X127150000Y-101630000D01*
X126950001Y-108521500D02*
X126950001Y-107511849D01*
X126880000Y-104225440D02*
X126805000Y-104150440D01*
X126805000Y-104150440D02*
X126805000Y-102440001D01*
X126950001Y-107511849D02*
X126880000Y-107441848D01*
X133400000Y-82315823D02*
X133620000Y-82535823D01*
X126805000Y-83167598D02*
X126282843Y-82645441D01*
X126805000Y-99859999D02*
X126805000Y-83167598D01*
X135000000Y-82535823D02*
X135235823Y-82300000D01*
X133620000Y-82535823D02*
X135000000Y-82535823D01*
X127150000Y-100670000D02*
X127150000Y-100204999D01*
X126282843Y-82645441D02*
X126282843Y-82334314D01*
X127150000Y-100204999D02*
X126805000Y-99859999D01*
X135235823Y-82300000D02*
X137020000Y-82300000D01*
X133400000Y-83115823D02*
X133620000Y-82895823D01*
X126100000Y-100670000D02*
X126100000Y-100204999D01*
X126445000Y-83316716D02*
X126028284Y-82900000D01*
X135404177Y-83300000D02*
X137020000Y-83300000D01*
X133620000Y-82895823D02*
X135000000Y-82895823D01*
X126028284Y-82900000D02*
X125717157Y-82900000D01*
X126445000Y-99859999D02*
X126445000Y-83316716D01*
X135000000Y-82895823D02*
X135404177Y-83300000D01*
X126100000Y-100204999D02*
X126445000Y-99859999D01*
X126445000Y-102440001D02*
X126100000Y-102095001D01*
X126520001Y-104374561D02*
X126445000Y-104299560D01*
X126450000Y-107511849D02*
X126520001Y-107441848D01*
X126445000Y-104299560D02*
X126445000Y-102440001D01*
X126450000Y-108521500D02*
X126450000Y-107511849D01*
X126520001Y-107441848D02*
X126520001Y-104374561D01*
X126100000Y-102095001D02*
X126100000Y-101630000D01*
X130470000Y-88120000D02*
X130300000Y-87950000D01*
X131890000Y-99200000D02*
X131890000Y-99250000D01*
X131555000Y-100305000D02*
X131845000Y-100595000D01*
X131845000Y-100595000D02*
X131900000Y-100595000D01*
X134350000Y-88120000D02*
X134270000Y-88120000D01*
X130974560Y-88120000D02*
X130470000Y-88120000D01*
X131555000Y-99585000D02*
X131555000Y-100305000D01*
X131890000Y-99250000D02*
X131555000Y-99585000D01*
X135219999Y-87800000D02*
X134899999Y-88120000D01*
X131890000Y-99200000D02*
X131890000Y-98719999D01*
X137020000Y-87800000D02*
X135219999Y-87800000D01*
X131555000Y-98384999D02*
X131555000Y-88700440D01*
X131555000Y-88700440D02*
X130974560Y-88120000D01*
X131890000Y-98719999D02*
X131555000Y-98384999D01*
X134270000Y-88120000D02*
X134100000Y-87950000D01*
X134899999Y-88120000D02*
X134350000Y-88120000D01*
X131900000Y-101555000D02*
X131542500Y-101912500D01*
X131542500Y-104878058D02*
X129380000Y-107040558D01*
X131542500Y-101912500D02*
X131542500Y-104878058D01*
X129380000Y-107040558D02*
X129380000Y-107441848D01*
X129450001Y-107511849D02*
X129450001Y-108521500D01*
X129380000Y-107441848D02*
X129450001Y-107511849D01*
X129020001Y-107441848D02*
X128950000Y-107511849D01*
X129020001Y-106891437D02*
X129020001Y-107441848D01*
X130850000Y-101580000D02*
X131182500Y-101912500D01*
X128950000Y-107511849D02*
X128950000Y-108521500D01*
X131182500Y-101912500D02*
X131182500Y-104728938D01*
X131182500Y-104728938D02*
X129020001Y-106891437D01*
X130860000Y-99250000D02*
X131195000Y-99585000D01*
X130825440Y-88480000D02*
X130470000Y-88480000D01*
X131195000Y-88849560D02*
X130825440Y-88480000D01*
X134220000Y-88480000D02*
X134100000Y-88600000D01*
X130860000Y-99200000D02*
X130860000Y-98719999D01*
X131195000Y-99585000D02*
X131195000Y-100275000D01*
X134899999Y-88480000D02*
X134350000Y-88480000D01*
X137020000Y-88800000D02*
X135219999Y-88800000D01*
X134350000Y-88480000D02*
X134220000Y-88480000D01*
X130860000Y-98719999D02*
X131195000Y-98384999D01*
X130470000Y-88480000D02*
X130300000Y-88650000D01*
X130860000Y-99200000D02*
X130860000Y-99250000D01*
X131195000Y-98384999D02*
X131195000Y-88849560D01*
X131195000Y-100275000D02*
X130850000Y-100620000D01*
X135219999Y-88800000D02*
X134899999Y-88480000D01*
X121770000Y-84120000D02*
X121550000Y-83900000D01*
X123525000Y-100340000D02*
X123525000Y-99874999D01*
X137020000Y-83800000D02*
X135219999Y-83800000D01*
X123192500Y-99542499D02*
X123192500Y-84688380D01*
X134899999Y-84120000D02*
X132085007Y-84120000D01*
X123525000Y-99874999D02*
X123192500Y-99542499D01*
X135219999Y-83800000D02*
X134899999Y-84120000D01*
X122624120Y-84120000D02*
X121770000Y-84120000D01*
X123192500Y-84688380D02*
X122624120Y-84120000D01*
X132085007Y-84120000D02*
X131865007Y-83900000D01*
X123525000Y-101765001D02*
X123192500Y-102097501D01*
X124450001Y-107511849D02*
X124450001Y-108521500D01*
X124380000Y-107441848D02*
X124450001Y-107511849D01*
X123192500Y-104887940D02*
X124380000Y-106075440D01*
X123525000Y-101300000D02*
X123525000Y-101765001D01*
X124380000Y-106075440D02*
X124380000Y-107441848D01*
X122832500Y-105037060D02*
X124020000Y-106224560D01*
X122500000Y-101300000D02*
X122500000Y-101765001D01*
X122500000Y-101765001D02*
X122832500Y-102097501D01*
X124020000Y-106224560D02*
X124020000Y-107441848D01*
X124020000Y-107441848D02*
X123949999Y-107511849D01*
X123949999Y-107511849D02*
X123949999Y-108521500D01*
X122832500Y-102097501D02*
X122832500Y-105037060D01*
X122500000Y-99874999D02*
X122832500Y-99542499D01*
X122475000Y-84480000D02*
X121770000Y-84480000D01*
X135219999Y-84800000D02*
X134899999Y-84480000D01*
X122500000Y-100340000D02*
X122500000Y-99874999D01*
X132085007Y-84480000D02*
X131865007Y-84700000D01*
X134899999Y-84480000D02*
X132085007Y-84480000D01*
X122832500Y-99542499D02*
X122832500Y-84837500D01*
X137020000Y-84800000D02*
X135219999Y-84800000D01*
X122832500Y-84837500D02*
X122475000Y-84480000D01*
X121770000Y-84480000D02*
X121550000Y-84700000D01*
X123450000Y-107511849D02*
X123379999Y-107441848D01*
X121042500Y-101677500D02*
X121420000Y-101300000D01*
X123450000Y-108521500D02*
X123450000Y-107511849D01*
X123379999Y-107441848D02*
X123379999Y-106325439D01*
X121042500Y-103987940D02*
X121042500Y-101677500D01*
X123379999Y-106325439D02*
X121042500Y-103987940D01*
X134899999Y-85620000D02*
X134100000Y-85620000D01*
X121037500Y-86182941D02*
X120682843Y-85828284D01*
X121037500Y-99957500D02*
X121037500Y-86182941D01*
X121420000Y-100340000D02*
X121037500Y-99957500D01*
X133970000Y-85620000D02*
X133750000Y-85400000D01*
X137020000Y-85300000D02*
X135219999Y-85300000D01*
X134100000Y-85620000D02*
X133970000Y-85620000D01*
X120682843Y-85828284D02*
X120682843Y-85517157D01*
X135219999Y-85300000D02*
X134899999Y-85620000D01*
X120682500Y-101677500D02*
X120300000Y-101295000D01*
X123020000Y-106474560D02*
X120682500Y-104137060D01*
X122949999Y-107511849D02*
X123020000Y-107441848D01*
X122949999Y-108521500D02*
X122949999Y-107511849D01*
X120682500Y-104137060D02*
X120682500Y-101677500D01*
X123020000Y-107441848D02*
X123020000Y-106474560D01*
X134899999Y-85980000D02*
X134100000Y-85980000D01*
X120300000Y-100335000D02*
X120677500Y-99957500D01*
X135219999Y-86300000D02*
X134899999Y-85980000D01*
X120677500Y-99957500D02*
X120677500Y-86332059D01*
X134100000Y-85980000D02*
X133920000Y-85980000D01*
X137020000Y-86300000D02*
X135219999Y-86300000D01*
X120677500Y-86332059D02*
X120428284Y-86082843D01*
X133920000Y-85980000D02*
X133750000Y-86150000D01*
X120428284Y-86082843D02*
X120117157Y-86082843D01*
D40*
X117504999Y-112049999D02*
X117150000Y-111695000D01*
X125500000Y-102945000D02*
X125455000Y-102900000D01*
X145825000Y-110375000D02*
X144875000Y-110375000D01*
D43*
X105642500Y-126962500D02*
X106837500Y-126962500D01*
D40*
X137020000Y-87300000D02*
X139650000Y-87300000D01*
X115125000Y-119850000D02*
X115100000Y-119875000D01*
X144875000Y-114875000D02*
X146175000Y-114875000D01*
X98060000Y-119400000D02*
X101200000Y-119400000D01*
X131978500Y-115050001D02*
X130650001Y-115050001D01*
X139100000Y-84300000D02*
X139200000Y-84400000D01*
X125500000Y-104050000D02*
X125500000Y-102945000D01*
X146300000Y-109900000D02*
X145825000Y-110375000D01*
D43*
X106837500Y-126962500D02*
X107000000Y-126800000D01*
D40*
X125480000Y-105200000D02*
X125480000Y-104070000D01*
X120421500Y-112049999D02*
X117504999Y-112049999D01*
X135750000Y-118900000D02*
X134880000Y-118900000D01*
X139100000Y-82800000D02*
X139200000Y-82900000D01*
X146600000Y-111900000D02*
X144900000Y-111900000D01*
X137020000Y-82800000D02*
X139100000Y-82800000D01*
X139100000Y-81300000D02*
X137020000Y-81300000D01*
X135450000Y-109300000D02*
X135480000Y-109330000D01*
X106500000Y-111600000D02*
X106487500Y-111587500D01*
X137020000Y-85800000D02*
X139100000Y-85800000D01*
X135800000Y-118950000D02*
X135750000Y-118900000D01*
X137020000Y-88300000D02*
X139100000Y-88300000D01*
X146175000Y-114875000D02*
X146200000Y-114900000D01*
X139650000Y-87300000D02*
X140000000Y-87650000D01*
X132300000Y-107100000D02*
X132270000Y-107070000D01*
X114800000Y-118480000D02*
X114800000Y-119575000D01*
X116500000Y-119850000D02*
X115125000Y-119850000D01*
X105367500Y-121375000D02*
X105367500Y-122817500D01*
X130600000Y-115000000D02*
X130650001Y-115050001D01*
X105367500Y-119325000D02*
X105342500Y-119300000D01*
X128700000Y-104400000D02*
X128700000Y-105170000D01*
X117150000Y-111695000D02*
X116405000Y-111695000D01*
X105367500Y-121375000D02*
X105367500Y-119325000D01*
X96900000Y-120560000D02*
X98060000Y-119400000D01*
X125480000Y-104070000D02*
X125500000Y-104050000D01*
X144900000Y-111900000D02*
X144875000Y-111875000D01*
X105367500Y-109500000D02*
X106300000Y-109500000D01*
X125455000Y-102555000D02*
X124900000Y-102000000D01*
X146125000Y-113375000D02*
X146150000Y-113350000D01*
X105450000Y-111587500D02*
X106487500Y-111587500D01*
D43*
X110075000Y-129130000D02*
X110050000Y-129155000D01*
D40*
X116405000Y-111695000D02*
X116400000Y-111700000D01*
X125455000Y-102900000D02*
X125455000Y-102555000D01*
X135800000Y-120100000D02*
X134880000Y-120100000D01*
X131978500Y-113549999D02*
X130749999Y-113549999D01*
X144875000Y-113375000D02*
X146125000Y-113375000D01*
X146200000Y-108900000D02*
X146175000Y-108875000D01*
X105367500Y-122817500D02*
X105625000Y-123075000D01*
D43*
X111175000Y-129130000D02*
X110075000Y-129130000D01*
D40*
X137020000Y-84300000D02*
X139100000Y-84300000D01*
X144875000Y-108875000D02*
X146175000Y-108875000D01*
X130749999Y-113549999D02*
X130700000Y-113500000D01*
X120100000Y-107170000D02*
X120100000Y-106200000D01*
X131200000Y-107070000D02*
X132270000Y-107070000D01*
X114800000Y-119575000D02*
X115100000Y-119875000D01*
D39*
X117254999Y-112550001D02*
X120421500Y-112550001D01*
X120421500Y-112550001D02*
X121650001Y-112550001D01*
X120421500Y-117550001D02*
X118419999Y-117550001D01*
D40*
X121650001Y-112550001D02*
X121700000Y-112600000D01*
D39*
X117480000Y-117520000D02*
X114800000Y-117520000D01*
X120421500Y-117050000D02*
X117950000Y-117050000D01*
D40*
X120100000Y-110228500D02*
X120421500Y-110550000D01*
X129950000Y-110050000D02*
X129900000Y-110100000D01*
X120100000Y-108130000D02*
X120100000Y-110228500D01*
D39*
X129950000Y-108521500D02*
X129950000Y-110050000D01*
X117950000Y-117050000D02*
X117480000Y-117520000D01*
X130441500Y-108030000D02*
X129950000Y-108521500D01*
X131200000Y-108030000D02*
X130441500Y-108030000D01*
X131978500Y-119528500D02*
X131978500Y-118050000D01*
D40*
X123450000Y-122820000D02*
X123425000Y-122845000D01*
D39*
X132850001Y-111049999D02*
X131978500Y-111049999D01*
X123450000Y-122200000D02*
X123450000Y-122820000D01*
X133920000Y-118420000D02*
X133920000Y-118900000D01*
X123450000Y-120078500D02*
X123450000Y-122200000D01*
X131978500Y-117550001D02*
X133050001Y-117550001D01*
X134520000Y-110400000D02*
X133500000Y-110400000D01*
X133050001Y-117550001D02*
X133920000Y-118420000D01*
X133500000Y-110400000D02*
X132850001Y-111049999D01*
X128450001Y-108521500D02*
X128450001Y-106379999D01*
X128450001Y-106379999D02*
X128700000Y-106130000D01*
D40*
X125449999Y-106299999D02*
X124540000Y-105390000D01*
X124495000Y-102900000D02*
X124495000Y-104005000D01*
X124495000Y-104005000D02*
X124540000Y-104050000D01*
X125449999Y-108521500D02*
X125449999Y-106549999D01*
X125449999Y-106500000D02*
X125449999Y-106299999D01*
X124540000Y-104050000D02*
X124540000Y-105180000D01*
X124540000Y-105390000D02*
X124540000Y-104050000D01*
X124540000Y-105180000D02*
X124520000Y-105200000D01*
X136580000Y-100400000D02*
X136470000Y-100510000D01*
X137640000Y-100400000D02*
X136580000Y-100400000D01*
X135590000Y-99490000D02*
X134800000Y-98700000D01*
X134900000Y-90020000D02*
X134900000Y-90400000D01*
X137020000Y-89300000D02*
X135620000Y-89300000D01*
X134800000Y-98700000D02*
X134800000Y-95100000D01*
X136470000Y-99490000D02*
X135590000Y-99490000D01*
X135620000Y-89300000D02*
X134900000Y-90020000D01*
X138050000Y-92050000D02*
X137400000Y-92700000D01*
X137400000Y-97600000D02*
X141200000Y-101400000D01*
X141600000Y-87500000D02*
X141600000Y-91400000D01*
X137400000Y-92700000D02*
X137400000Y-97600000D01*
X140900000Y-86800000D02*
X141600000Y-87500000D01*
X141200000Y-101400000D02*
X144090000Y-101400000D01*
X141600000Y-91400000D02*
X140950000Y-92050000D01*
X140950000Y-92050000D02*
X138050000Y-92050000D01*
X137020000Y-86800000D02*
X140900000Y-86800000D01*
D44*
X143245000Y-117305000D02*
X143050000Y-117500000D01*
X143250000Y-117305000D02*
X143245000Y-117305000D01*
X144875000Y-117375000D02*
X144049999Y-117375000D01*
X132988151Y-116550001D02*
X133058151Y-116620001D01*
X144049999Y-117375000D02*
X143979999Y-117305000D01*
X143979999Y-117305000D02*
X143250000Y-117305000D01*
X133058151Y-116620001D02*
X134100000Y-116620001D01*
X131978500Y-116550001D02*
X132988151Y-116550001D01*
X140554660Y-110945000D02*
X140445000Y-110945000D01*
X140445000Y-110945000D02*
X140300000Y-110800000D01*
X131978500Y-112049999D02*
X132988151Y-112049999D01*
X133058152Y-111980000D02*
X133650000Y-111980000D01*
X144049999Y-110875000D02*
X143979999Y-110945000D01*
X132988151Y-112049999D02*
X133058152Y-111980000D01*
X143979999Y-110945000D02*
X140554660Y-110945000D01*
X144875000Y-110875000D02*
X144049999Y-110875000D01*
X143395000Y-112445000D02*
X143300000Y-112350000D01*
X144875000Y-112375000D02*
X144049999Y-112375000D01*
X133058152Y-112980001D02*
X134980001Y-112980001D01*
X143450000Y-112445000D02*
X143395000Y-112445000D01*
X144049999Y-112375000D02*
X143979999Y-112445000D01*
X131978500Y-113050000D02*
X132988151Y-113050000D01*
X143979999Y-112445000D02*
X143450000Y-112445000D01*
X132988151Y-113050000D02*
X133058152Y-112980001D01*
X134980001Y-112980001D02*
X135350000Y-113350000D01*
X133930000Y-114480000D02*
X134050000Y-114600000D01*
X133058151Y-114480000D02*
X133850000Y-114480000D01*
X143979999Y-113945000D02*
X141300440Y-113945000D01*
X144875000Y-113875000D02*
X144049999Y-113875000D01*
X138977129Y-114540886D02*
X138988015Y-114530000D01*
X138988015Y-114530000D02*
X139280000Y-114530000D01*
X138244688Y-114698002D02*
X138401804Y-114540886D01*
X133850000Y-114480000D02*
X133930000Y-114480000D01*
X131978500Y-114550000D02*
X132988151Y-114550000D01*
X138244688Y-115395368D02*
X138244688Y-114698002D01*
X138401804Y-114540886D02*
X138977129Y-114540886D01*
X138519320Y-115670000D02*
X138244688Y-115395368D01*
X132988151Y-114550000D02*
X133058151Y-114480000D01*
X139575440Y-115670000D02*
X138519320Y-115670000D01*
X144049999Y-113875000D02*
X143979999Y-113945000D01*
X139280000Y-114530000D02*
X139500000Y-114750000D01*
X141300440Y-113945000D02*
X139575440Y-115670000D01*
X144049999Y-115375000D02*
X143979999Y-115445000D01*
X135280000Y-115680000D02*
X135450000Y-115850000D01*
X143979999Y-115445000D02*
X141900000Y-115445000D01*
X132988151Y-116049999D02*
X133058151Y-115979999D01*
X133058151Y-115979999D02*
X133429592Y-115979999D01*
X141795000Y-115445000D02*
X141650000Y-115300000D01*
X133429592Y-115979999D02*
X133729591Y-115680000D01*
X144875000Y-115375000D02*
X144049999Y-115375000D01*
X133729591Y-115680000D02*
X135250000Y-115680000D01*
X135250000Y-115680000D02*
X135280000Y-115680000D01*
X131978500Y-116049999D02*
X132988151Y-116049999D01*
X141900000Y-115445000D02*
X141795000Y-115445000D01*
X144049999Y-116875000D02*
X143979999Y-116945000D01*
X133058152Y-116980001D02*
X134100000Y-116980001D01*
X143245000Y-116945000D02*
X143050000Y-116750000D01*
X143979999Y-116945000D02*
X143250000Y-116945000D01*
X132988151Y-117050000D02*
X133058152Y-116980001D01*
X143250000Y-116945000D02*
X143245000Y-116945000D01*
X131978500Y-117050000D02*
X132988151Y-117050000D01*
X144875000Y-116875000D02*
X144049999Y-116875000D01*
D39*
X112675000Y-130190000D02*
X112675000Y-129500000D01*
X112675000Y-128950000D02*
X113300000Y-128325000D01*
X112675000Y-129500000D02*
X112675000Y-128950000D01*
X113800000Y-128325000D02*
X113800000Y-129990000D01*
X113800000Y-129990000D02*
X114000000Y-130190000D01*
D44*
X139280000Y-114170000D02*
X139500000Y-113950000D01*
X141449560Y-114305000D02*
X139724560Y-116030000D01*
X131978500Y-114050000D02*
X132988151Y-114050000D01*
X133930000Y-114120000D02*
X134050000Y-114000000D01*
X133850000Y-114120000D02*
X133930000Y-114120000D01*
X144049999Y-114375000D02*
X143979999Y-114305000D01*
X139724560Y-116030000D02*
X138370200Y-116030000D01*
X132988151Y-114050000D02*
X133058151Y-114120000D01*
X138370200Y-116030000D02*
X137884688Y-115544488D01*
X137884688Y-114548882D02*
X138252684Y-114180886D01*
X137884688Y-115544488D02*
X137884688Y-114548882D01*
X138839364Y-114180886D02*
X138850250Y-114170000D01*
X133058151Y-114120000D02*
X133850000Y-114120000D01*
X138850250Y-114170000D02*
X139280000Y-114170000D01*
X138252684Y-114180886D02*
X138839364Y-114180886D01*
X144875000Y-114375000D02*
X144049999Y-114375000D01*
X143979999Y-114305000D02*
X141449560Y-114305000D01*
X135100000Y-112620001D02*
X135129999Y-112620001D01*
X133058151Y-112620001D02*
X135100000Y-112620001D01*
X143450000Y-112805000D02*
X143445000Y-112805000D01*
X144049999Y-112875000D02*
X143979999Y-112805000D01*
X144875000Y-112875000D02*
X144049999Y-112875000D01*
X132988151Y-112550001D02*
X133058151Y-112620001D01*
X135129999Y-112620001D02*
X135250000Y-112500000D01*
X143445000Y-112805000D02*
X143300000Y-112950000D01*
X131978500Y-112550001D02*
X132988151Y-112550001D01*
X143979999Y-112805000D02*
X143450000Y-112805000D01*
X133280471Y-115620000D02*
X133580471Y-115320000D01*
X141895000Y-115805000D02*
X141700000Y-116000000D01*
X141900000Y-115805000D02*
X141895000Y-115805000D01*
X144049999Y-115875000D02*
X143979999Y-115805000D01*
X133580471Y-115320000D02*
X135250000Y-115320000D01*
X131978500Y-115550000D02*
X132988151Y-115550000D01*
X143979999Y-115805000D02*
X141900000Y-115805000D01*
X135250000Y-115320000D02*
X135330000Y-115320000D01*
X133058151Y-115620000D02*
X133280471Y-115620000D01*
X144875000Y-115875000D02*
X144049999Y-115875000D01*
X135330000Y-115320000D02*
X135500000Y-115150000D01*
X132988151Y-115550000D02*
X133058151Y-115620000D01*
X144875000Y-111375000D02*
X144049999Y-111375000D01*
X131978500Y-111550000D02*
X132988151Y-111550000D01*
X140554660Y-111305000D02*
X140445000Y-111305000D01*
X133058151Y-111620000D02*
X133450000Y-111620000D01*
X133480000Y-111620000D02*
X133850000Y-111250000D01*
X143979999Y-111305000D02*
X140554660Y-111305000D01*
X144049999Y-111375000D02*
X143979999Y-111305000D01*
X133450000Y-111620000D02*
X133480000Y-111620000D01*
X132988151Y-111550000D02*
X133058151Y-111620000D01*
X140445000Y-111305000D02*
X140300000Y-111450000D01*
D40*
X117600000Y-116550001D02*
X120421500Y-116550001D01*
X117000000Y-116550001D02*
X117600000Y-116550001D01*
X99440000Y-82460000D02*
X100280000Y-83300000D01*
X100280000Y-83300000D02*
X114800000Y-83300000D01*
X119158700Y-113900000D02*
X119508701Y-113549999D01*
X114800000Y-83300000D02*
X116100000Y-84600000D01*
X119508701Y-113549999D02*
X120421500Y-113549999D01*
X116100000Y-84600000D02*
X116100000Y-108500000D01*
X115400000Y-113600000D02*
X115700000Y-113900000D01*
X115700000Y-113900000D02*
X119158700Y-113900000D01*
X101150000Y-79500000D02*
X100730000Y-79920000D01*
X120421500Y-111049999D02*
X119508699Y-111049999D01*
X119100000Y-110641300D02*
X119100000Y-80600000D01*
X119508699Y-111049999D02*
X119100000Y-110641300D01*
X118000000Y-79500000D02*
X101150000Y-79500000D01*
X119100000Y-80600000D02*
X118000000Y-79500000D01*
X100730000Y-79920000D02*
X99440000Y-79920000D01*
X120421500Y-111550000D02*
X118650000Y-111550000D01*
X118650000Y-111550000D02*
X117700000Y-110600000D01*
X117700000Y-110600000D02*
X117110000Y-110600000D01*
D44*
X120421500Y-115050001D02*
X112650001Y-115050001D01*
X112650001Y-115050001D02*
X111900000Y-114300000D01*
D40*
X119348400Y-114300000D02*
X119598400Y-114050000D01*
X111775000Y-81325000D02*
X113725000Y-81325000D01*
X114500000Y-107800000D02*
X114500000Y-84500000D01*
X119598400Y-114050000D02*
X120421500Y-114050000D01*
X113725000Y-81325000D02*
X114400000Y-82000000D01*
X114600000Y-113900000D02*
X115000000Y-114300000D01*
X115000000Y-114300000D02*
X119348400Y-114300000D01*
X111700000Y-76800000D02*
X115900000Y-76800000D01*
X115900000Y-76800000D02*
X117200000Y-78100000D01*
X120421500Y-113050000D02*
X118450000Y-113050000D01*
X117300000Y-80500000D02*
X117300000Y-109200000D01*
X118450000Y-113050000D02*
X118200000Y-113300000D01*
D44*
X114531471Y-114680000D02*
X119520000Y-114680000D01*
D40*
X113700000Y-87500000D02*
X111800000Y-85600000D01*
D44*
X113700000Y-113800000D02*
X113700000Y-113848529D01*
X119650000Y-114550000D02*
X120421500Y-114550000D01*
D40*
X113700000Y-107700000D02*
X113700000Y-87500000D01*
D44*
X113700000Y-113848529D02*
X114531471Y-114680000D01*
X119520000Y-114680000D02*
X119650000Y-114550000D01*
X123192500Y-102097501D02*
X123192500Y-104887940D01*
M02*
