G04 #@! TF.GenerationSoftware,KiCad,Pcbnew,8.0.2*
G04 #@! TF.CreationDate,2024-05-18T01:19:45+05:00*
G04 #@! TF.ProjectId,EDP Converter,45445020-436f-46e7-9665-727465722e6b,rev?*
G04 #@! TF.SameCoordinates,Original*
G04 #@! TF.FileFunction,Legend,Bot*
G04 #@! TF.FilePolarity,Positive*
%FSLAX46Y46*%
G04 Gerber Fmt 4.6, Leading zero omitted, Abs format (unit mm)*
G04 Created by KiCad (PCBNEW 8.0.2) date 2024-05-18 01:19:45*
%MOMM*%
%LPD*%
G01*
G04 APERTURE LIST*
%ADD10C,0.150000*%
%ADD11C,0.120000*%
G04 APERTURE END LIST*
D10*
X98503333Y-127864819D02*
X98503333Y-128579104D01*
X98503333Y-128579104D02*
X98550952Y-128721961D01*
X98550952Y-128721961D02*
X98646190Y-128817200D01*
X98646190Y-128817200D02*
X98789047Y-128864819D01*
X98789047Y-128864819D02*
X98884285Y-128864819D01*
X98122380Y-127864819D02*
X97503333Y-127864819D01*
X97503333Y-127864819D02*
X97836666Y-128245771D01*
X97836666Y-128245771D02*
X97693809Y-128245771D01*
X97693809Y-128245771D02*
X97598571Y-128293390D01*
X97598571Y-128293390D02*
X97550952Y-128341009D01*
X97550952Y-128341009D02*
X97503333Y-128436247D01*
X97503333Y-128436247D02*
X97503333Y-128674342D01*
X97503333Y-128674342D02*
X97550952Y-128769580D01*
X97550952Y-128769580D02*
X97598571Y-128817200D01*
X97598571Y-128817200D02*
X97693809Y-128864819D01*
X97693809Y-128864819D02*
X97979523Y-128864819D01*
X97979523Y-128864819D02*
X98074761Y-128817200D01*
X98074761Y-128817200D02*
X98122380Y-128769580D01*
D11*
X95570000Y-76050000D02*
X95570000Y-126970000D01*
X98170000Y-124370000D02*
X98170000Y-126970000D01*
X98170000Y-126970000D02*
X95570000Y-126970000D01*
X100770000Y-76050000D02*
X95570000Y-76050000D01*
X100770000Y-76050000D02*
X100770000Y-124370000D01*
X100770000Y-124370000D02*
X98170000Y-124370000D01*
X100770000Y-125640000D02*
X100770000Y-126970000D01*
X100770000Y-126970000D02*
X99440000Y-126970000D01*
M02*
