M48
; DRILL file {KiCad 8.0.2} date 2024-05-18T01:19:57+0500
; FORMAT={-:-/ absolute / inch / decimal}
; #@! TF.CreationDate,2024-05-18T01:19:57+05:00
; #@! TF.GenerationSoftware,Kicad,Pcbnew,8.0.2
; #@! TF.FileFunction,Plated,1,4,PTH
FMAT,2
INCH
; #@! TA.AperFunction,Plated,PTH,ViaDrill
T1C0.0118
; #@! TA.AperFunction,Plated,PTH,ViaDrill
T2C0.0157
; #@! TA.AperFunction,Plated,PTH,ComponentDrill
T3C0.0236
; #@! TA.AperFunction,Plated,PTH,ComponentDrill
T4C0.0394
%
G90
G05
T1
X3.9764Y-4.4016
X3.9803Y-3.5
X3.9803Y-4.1457
X3.9843Y-3.3976
X3.9843Y-4.7008
X3.9882Y-4.5079
X3.9921Y-4.3031
X3.9921Y-5.1063
X3.9961Y-3.9961
X4.0039Y-3.0472
X4.0059Y-3.7461
X4.0157Y-4.1417
X4.0197Y-4.5315
X4.0591Y-4.5433
X4.1732Y-4.4685
X4.185Y-4.311
X4.1924Y-4.3932
X4.2008Y-4.8455
X4.2126Y-4.9921
X4.2992Y-5.0866
X4.3543Y-4.9843
X4.3583Y-4.126
X4.3583Y-4.2402
X4.3661Y-4.5906
X4.3789Y-4.8533
X4.3976Y-4.6268
X4.436Y-5.0984
X4.4409Y-4.3504
X4.4449Y-4.1142
X4.4764Y-4.2402
X4.4764Y-4.4803
X4.4764Y-4.9606
X4.4764Y-5.0039
X4.4803Y-5.0945
X4.5Y-4.9843
X4.5039Y-3.2283
X4.5079Y-3.3268
X4.5079Y-4.2441
X4.5118Y-4.4843
X4.5236Y-4.9606
X4.5236Y-5.0039
X4.5315Y-4.7195
X4.5433Y-4.4724
X4.5709Y-4.2717
X4.5827Y-4.3976
X4.6142Y-3.0748
X4.6181Y-3.1693
X4.6181Y-4.2992
X4.6181Y-5.0276
X4.6437Y-4.7205
X4.6535Y-4.4606
X4.6644Y-5.2234
X4.6693Y-4.9016
X4.6772Y-5.1142
X4.6969Y-4.6929
X4.7283Y-4.1811
X4.729Y-3.3839
X4.7441Y-3.3189
X4.7513Y-3.3616
X4.7854Y-3.3031
X4.7854Y-3.3346
X4.7913Y-3.4094
X4.7992Y-3.9016
X4.815Y-4.2087
X4.8268Y-4.7835
X4.8307Y-4.9449
X4.876Y-4.0256
X4.8976Y-4.874
X4.9173Y-4.0157
X4.937Y-4.4685
X4.937Y-4.5354
X4.939Y-4.1929
X4.9495Y-3.2638
X4.9646Y-3.2008
X4.9685Y-4.5
X4.9718Y-3.2415
X5.0Y-4.4685
X5.0Y-4.5354
X5.0039Y-4.8722
X5.0118Y-3.1831
X5.0118Y-3.2165
X5.0236Y-3.9252
X5.0669Y-4.1102
X5.1063Y-3.8228
X5.1181Y-5.063
X5.126Y-3.4606
X5.126Y-3.4921
X5.126Y-4.2126
X5.1437Y-4.5295
X5.1457Y-4.4685
X5.1909Y-3.1831
X5.1909Y-3.2165
X5.1915Y-3.3031
X5.1915Y-3.3346
X5.2075Y-4.2154
X5.2087Y-3.815
X5.252Y-3.2408
X5.252Y-3.2723
X5.2618Y-3.3622
X5.2618Y-3.3937
X5.2697Y-4.3799
X5.2697Y-4.4114
X5.2756Y-3.4606
X5.2756Y-3.4921
X5.2795Y-4.4862
X5.2795Y-4.5177
X5.2854Y-4.5807
X5.2854Y-4.6122
X5.2913Y-3.4213
X5.3071Y-3.7441
X5.311Y-3.5591
X5.3287Y-4.4311
X5.3287Y-4.4626
X5.3366Y-4.5315
X5.3366Y-4.563
X5.3465Y-4.6831
X5.3465Y-4.7283
X5.3661Y-5.1378
X5.4134Y-5.0315
X5.4921Y-4.4862
X5.4921Y-4.5177
X5.5217Y-4.3602
X5.5217Y-4.3917
X5.5236Y-4.4882
X5.5728Y-4.5354
X5.5728Y-4.5669
X5.5984Y-4.2638
X5.5987Y-4.5819
X5.626Y-4.2402
X5.628Y-4.5945
X5.628Y-4.626
X5.6378Y-4.4173
X5.6378Y-4.4488
X5.6496Y-4.6535
X5.7539Y-4.4626
X5.7549Y-4.2864
X5.7559Y-4.5236
X5.7559Y-4.5787
X5.7559Y-4.8425
X5.7598Y-4.3268
X5.7717Y-4.4055
X5.7933Y-4.8406
T2
X4.1969Y-4.1693
X4.2087Y-4.5512
X4.2244Y-5.0472
X4.248Y-4.9094
X4.252Y-4.7638
X4.2638Y-5.0472
X4.3307Y-4.1693
X4.3819Y-5.1654
X4.4016Y-4.5394
X4.6299Y-4.9134
X4.7913Y-4.437
X4.7953Y-4.6339
X4.8346Y-4.3661
X5.1142Y-3.8661
X5.1142Y-4.3307
X5.1969Y-4.7008
X5.2402Y-3.8583
X5.3189Y-4.9173
X5.3346Y-4.3031
X5.4567Y-4.0236
X5.4764Y-3.2008
X5.4764Y-3.378
X5.4764Y-3.4764
X5.4803Y-3.2638
X5.4803Y-3.3228
X5.4803Y-3.5197
X5.4843Y-3.5709
X5.5118Y-3.4488
X5.6378Y-4.1929
X5.7441Y-3.8346
X5.8228Y-3.9921
X5.8268Y-3.8858
T4
X3.815Y-3.0465
X3.815Y-3.1465
X3.815Y-3.2465
X3.815Y-3.3465
X3.815Y-3.4465
X3.815Y-3.5465
X3.815Y-3.6465
X3.815Y-3.7465
X3.815Y-3.8465
X3.815Y-3.9465
X3.815Y-4.0465
X3.815Y-4.1465
X3.815Y-4.2465
X3.815Y-4.3465
X3.815Y-4.4465
X3.815Y-4.5465
X3.815Y-4.6465
X3.815Y-4.7465
X3.815Y-4.8465
X3.815Y-4.9465
X3.915Y-3.0465
X3.915Y-3.1465
X3.915Y-3.2465
X3.915Y-3.3465
X3.915Y-3.4465
X3.915Y-3.5465
X3.915Y-3.6465
X3.915Y-3.7465
X3.915Y-3.8465
X3.915Y-3.9465
X3.915Y-4.0465
X3.915Y-4.1465
X3.915Y-4.2465
X3.915Y-4.3465
X3.915Y-4.4465
X3.915Y-4.5465
X3.915Y-4.6465
X3.915Y-4.7465
X3.915Y-4.8465
X3.915Y-4.9465
T3
G00X5.4654Y-3.0728
M15
G01X5.5283Y-3.0728
M16
G05
G00X5.4654Y-3.7224
M15
G01X5.5283Y-3.7224
M16
G05
G00X5.7421Y-3.0728
M15
G01X5.7854Y-3.0728
M16
G05
G00X5.7421Y-3.7224
M15
G01X5.7854Y-3.7224
M16
G05
M30
