G04 #@! TF.GenerationSoftware,KiCad,Pcbnew,8.0.2*
G04 #@! TF.CreationDate,2024-05-18T01:19:45+05:00*
G04 #@! TF.ProjectId,EDP Converter,45445020-436f-46e7-9665-727465722e6b,rev?*
G04 #@! TF.SameCoordinates,Original*
G04 #@! TF.FileFunction,Legend,Top*
G04 #@! TF.FilePolarity,Positive*
%FSLAX46Y46*%
G04 Gerber Fmt 4.6, Leading zero omitted, Abs format (unit mm)*
G04 Created by KiCad (PCBNEW 8.0.2) date 2024-05-18 01:19:45*
%MOMM*%
%LPD*%
G01*
G04 APERTURE LIST*
%ADD10C,0.150000*%
%ADD11C,0.120000*%
%ADD12C,0.127000*%
%ADD13C,0.200000*%
%ADD14C,0.152400*%
%ADD15C,0.000000*%
%ADD16C,0.100000*%
G04 APERTURE END LIST*
D10*
X131339285Y-127137628D02*
X131310713Y-127166200D01*
X131310713Y-127166200D02*
X131224999Y-127194771D01*
X131224999Y-127194771D02*
X131167856Y-127194771D01*
X131167856Y-127194771D02*
X131082142Y-127166200D01*
X131082142Y-127166200D02*
X131024999Y-127109057D01*
X131024999Y-127109057D02*
X130996428Y-127051914D01*
X130996428Y-127051914D02*
X130967856Y-126937628D01*
X130967856Y-126937628D02*
X130967856Y-126851914D01*
X130967856Y-126851914D02*
X130996428Y-126737628D01*
X130996428Y-126737628D02*
X131024999Y-126680485D01*
X131024999Y-126680485D02*
X131082142Y-126623342D01*
X131082142Y-126623342D02*
X131167856Y-126594771D01*
X131167856Y-126594771D02*
X131224999Y-126594771D01*
X131224999Y-126594771D02*
X131310713Y-126623342D01*
X131310713Y-126623342D02*
X131339285Y-126651914D01*
X131539285Y-126594771D02*
X131910713Y-126594771D01*
X131910713Y-126594771D02*
X131710713Y-126823342D01*
X131710713Y-126823342D02*
X131796428Y-126823342D01*
X131796428Y-126823342D02*
X131853571Y-126851914D01*
X131853571Y-126851914D02*
X131882142Y-126880485D01*
X131882142Y-126880485D02*
X131910713Y-126937628D01*
X131910713Y-126937628D02*
X131910713Y-127080485D01*
X131910713Y-127080485D02*
X131882142Y-127137628D01*
X131882142Y-127137628D02*
X131853571Y-127166200D01*
X131853571Y-127166200D02*
X131796428Y-127194771D01*
X131796428Y-127194771D02*
X131624999Y-127194771D01*
X131624999Y-127194771D02*
X131567856Y-127166200D01*
X131567856Y-127166200D02*
X131539285Y-127137628D01*
X132139285Y-126651914D02*
X132167857Y-126623342D01*
X132167857Y-126623342D02*
X132225000Y-126594771D01*
X132225000Y-126594771D02*
X132367857Y-126594771D01*
X132367857Y-126594771D02*
X132425000Y-126623342D01*
X132425000Y-126623342D02*
X132453571Y-126651914D01*
X132453571Y-126651914D02*
X132482142Y-126709057D01*
X132482142Y-126709057D02*
X132482142Y-126766200D01*
X132482142Y-126766200D02*
X132453571Y-126851914D01*
X132453571Y-126851914D02*
X132110714Y-127194771D01*
X132110714Y-127194771D02*
X132482142Y-127194771D01*
X118237628Y-121535714D02*
X118266200Y-121564286D01*
X118266200Y-121564286D02*
X118294771Y-121650000D01*
X118294771Y-121650000D02*
X118294771Y-121707143D01*
X118294771Y-121707143D02*
X118266200Y-121792857D01*
X118266200Y-121792857D02*
X118209057Y-121850000D01*
X118209057Y-121850000D02*
X118151914Y-121878571D01*
X118151914Y-121878571D02*
X118037628Y-121907143D01*
X118037628Y-121907143D02*
X117951914Y-121907143D01*
X117951914Y-121907143D02*
X117837628Y-121878571D01*
X117837628Y-121878571D02*
X117780485Y-121850000D01*
X117780485Y-121850000D02*
X117723342Y-121792857D01*
X117723342Y-121792857D02*
X117694771Y-121707143D01*
X117694771Y-121707143D02*
X117694771Y-121650000D01*
X117694771Y-121650000D02*
X117723342Y-121564286D01*
X117723342Y-121564286D02*
X117751914Y-121535714D01*
X118294771Y-120964286D02*
X118294771Y-121307143D01*
X118294771Y-121135714D02*
X117694771Y-121135714D01*
X117694771Y-121135714D02*
X117780485Y-121192857D01*
X117780485Y-121192857D02*
X117837628Y-121250000D01*
X117837628Y-121250000D02*
X117866200Y-121307143D01*
X117694771Y-120764285D02*
X117694771Y-120364285D01*
X117694771Y-120364285D02*
X118294771Y-120621428D01*
X126689285Y-104362628D02*
X126660713Y-104391200D01*
X126660713Y-104391200D02*
X126574999Y-104419771D01*
X126574999Y-104419771D02*
X126517856Y-104419771D01*
X126517856Y-104419771D02*
X126432142Y-104391200D01*
X126432142Y-104391200D02*
X126374999Y-104334057D01*
X126374999Y-104334057D02*
X126346428Y-104276914D01*
X126346428Y-104276914D02*
X126317856Y-104162628D01*
X126317856Y-104162628D02*
X126317856Y-104076914D01*
X126317856Y-104076914D02*
X126346428Y-103962628D01*
X126346428Y-103962628D02*
X126374999Y-103905485D01*
X126374999Y-103905485D02*
X126432142Y-103848342D01*
X126432142Y-103848342D02*
X126517856Y-103819771D01*
X126517856Y-103819771D02*
X126574999Y-103819771D01*
X126574999Y-103819771D02*
X126660713Y-103848342D01*
X126660713Y-103848342D02*
X126689285Y-103876914D01*
X126889285Y-103819771D02*
X127260713Y-103819771D01*
X127260713Y-103819771D02*
X127060713Y-104048342D01*
X127060713Y-104048342D02*
X127146428Y-104048342D01*
X127146428Y-104048342D02*
X127203571Y-104076914D01*
X127203571Y-104076914D02*
X127232142Y-104105485D01*
X127232142Y-104105485D02*
X127260713Y-104162628D01*
X127260713Y-104162628D02*
X127260713Y-104305485D01*
X127260713Y-104305485D02*
X127232142Y-104362628D01*
X127232142Y-104362628D02*
X127203571Y-104391200D01*
X127203571Y-104391200D02*
X127146428Y-104419771D01*
X127146428Y-104419771D02*
X126974999Y-104419771D01*
X126974999Y-104419771D02*
X126917856Y-104391200D01*
X126917856Y-104391200D02*
X126889285Y-104362628D01*
X127632142Y-103819771D02*
X127689285Y-103819771D01*
X127689285Y-103819771D02*
X127746428Y-103848342D01*
X127746428Y-103848342D02*
X127775000Y-103876914D01*
X127775000Y-103876914D02*
X127803571Y-103934057D01*
X127803571Y-103934057D02*
X127832142Y-104048342D01*
X127832142Y-104048342D02*
X127832142Y-104191200D01*
X127832142Y-104191200D02*
X127803571Y-104305485D01*
X127803571Y-104305485D02*
X127775000Y-104362628D01*
X127775000Y-104362628D02*
X127746428Y-104391200D01*
X127746428Y-104391200D02*
X127689285Y-104419771D01*
X127689285Y-104419771D02*
X127632142Y-104419771D01*
X127632142Y-104419771D02*
X127575000Y-104391200D01*
X127575000Y-104391200D02*
X127546428Y-104362628D01*
X127546428Y-104362628D02*
X127517857Y-104305485D01*
X127517857Y-104305485D02*
X127489285Y-104191200D01*
X127489285Y-104191200D02*
X127489285Y-104048342D01*
X127489285Y-104048342D02*
X127517857Y-103934057D01*
X127517857Y-103934057D02*
X127546428Y-103876914D01*
X127546428Y-103876914D02*
X127575000Y-103848342D01*
X127575000Y-103848342D02*
X127632142Y-103819771D01*
X107602500Y-116969771D02*
X107402500Y-116684057D01*
X107259643Y-116969771D02*
X107259643Y-116369771D01*
X107259643Y-116369771D02*
X107488214Y-116369771D01*
X107488214Y-116369771D02*
X107545357Y-116398342D01*
X107545357Y-116398342D02*
X107573928Y-116426914D01*
X107573928Y-116426914D02*
X107602500Y-116484057D01*
X107602500Y-116484057D02*
X107602500Y-116569771D01*
X107602500Y-116569771D02*
X107573928Y-116626914D01*
X107573928Y-116626914D02*
X107545357Y-116655485D01*
X107545357Y-116655485D02*
X107488214Y-116684057D01*
X107488214Y-116684057D02*
X107259643Y-116684057D01*
X108145357Y-116369771D02*
X107859643Y-116369771D01*
X107859643Y-116369771D02*
X107831071Y-116655485D01*
X107831071Y-116655485D02*
X107859643Y-116626914D01*
X107859643Y-116626914D02*
X107916786Y-116598342D01*
X107916786Y-116598342D02*
X108059643Y-116598342D01*
X108059643Y-116598342D02*
X108116786Y-116626914D01*
X108116786Y-116626914D02*
X108145357Y-116655485D01*
X108145357Y-116655485D02*
X108173928Y-116712628D01*
X108173928Y-116712628D02*
X108173928Y-116855485D01*
X108173928Y-116855485D02*
X108145357Y-116912628D01*
X108145357Y-116912628D02*
X108116786Y-116941200D01*
X108116786Y-116941200D02*
X108059643Y-116969771D01*
X108059643Y-116969771D02*
X107916786Y-116969771D01*
X107916786Y-116969771D02*
X107859643Y-116941200D01*
X107859643Y-116941200D02*
X107831071Y-116912628D01*
X136764285Y-110562628D02*
X136735713Y-110591200D01*
X136735713Y-110591200D02*
X136649999Y-110619771D01*
X136649999Y-110619771D02*
X136592856Y-110619771D01*
X136592856Y-110619771D02*
X136507142Y-110591200D01*
X136507142Y-110591200D02*
X136449999Y-110534057D01*
X136449999Y-110534057D02*
X136421428Y-110476914D01*
X136421428Y-110476914D02*
X136392856Y-110362628D01*
X136392856Y-110362628D02*
X136392856Y-110276914D01*
X136392856Y-110276914D02*
X136421428Y-110162628D01*
X136421428Y-110162628D02*
X136449999Y-110105485D01*
X136449999Y-110105485D02*
X136507142Y-110048342D01*
X136507142Y-110048342D02*
X136592856Y-110019771D01*
X136592856Y-110019771D02*
X136649999Y-110019771D01*
X136649999Y-110019771D02*
X136735713Y-110048342D01*
X136735713Y-110048342D02*
X136764285Y-110076914D01*
X136992856Y-110076914D02*
X137021428Y-110048342D01*
X137021428Y-110048342D02*
X137078571Y-110019771D01*
X137078571Y-110019771D02*
X137221428Y-110019771D01*
X137221428Y-110019771D02*
X137278571Y-110048342D01*
X137278571Y-110048342D02*
X137307142Y-110076914D01*
X137307142Y-110076914D02*
X137335713Y-110134057D01*
X137335713Y-110134057D02*
X137335713Y-110191200D01*
X137335713Y-110191200D02*
X137307142Y-110276914D01*
X137307142Y-110276914D02*
X136964285Y-110619771D01*
X136964285Y-110619771D02*
X137335713Y-110619771D01*
X137535714Y-110019771D02*
X137935714Y-110019771D01*
X137935714Y-110019771D02*
X137678571Y-110619771D01*
X103487271Y-106474999D02*
X103201557Y-106674999D01*
X103487271Y-106817856D02*
X102887271Y-106817856D01*
X102887271Y-106817856D02*
X102887271Y-106589285D01*
X102887271Y-106589285D02*
X102915842Y-106532142D01*
X102915842Y-106532142D02*
X102944414Y-106503571D01*
X102944414Y-106503571D02*
X103001557Y-106474999D01*
X103001557Y-106474999D02*
X103087271Y-106474999D01*
X103087271Y-106474999D02*
X103144414Y-106503571D01*
X103144414Y-106503571D02*
X103172985Y-106532142D01*
X103172985Y-106532142D02*
X103201557Y-106589285D01*
X103201557Y-106589285D02*
X103201557Y-106817856D01*
X103087271Y-105960714D02*
X103487271Y-105960714D01*
X102858700Y-106103571D02*
X103287271Y-106246428D01*
X103287271Y-106246428D02*
X103287271Y-105874999D01*
X115719771Y-113899999D02*
X115434057Y-114099999D01*
X115719771Y-114242856D02*
X115119771Y-114242856D01*
X115119771Y-114242856D02*
X115119771Y-114014285D01*
X115119771Y-114014285D02*
X115148342Y-113957142D01*
X115148342Y-113957142D02*
X115176914Y-113928571D01*
X115176914Y-113928571D02*
X115234057Y-113899999D01*
X115234057Y-113899999D02*
X115319771Y-113899999D01*
X115319771Y-113899999D02*
X115376914Y-113928571D01*
X115376914Y-113928571D02*
X115405485Y-113957142D01*
X115405485Y-113957142D02*
X115434057Y-114014285D01*
X115434057Y-114014285D02*
X115434057Y-114242856D01*
X115119771Y-113699999D02*
X115119771Y-113299999D01*
X115119771Y-113299999D02*
X115719771Y-113557142D01*
X136239285Y-119062628D02*
X136210713Y-119091200D01*
X136210713Y-119091200D02*
X136124999Y-119119771D01*
X136124999Y-119119771D02*
X136067856Y-119119771D01*
X136067856Y-119119771D02*
X135982142Y-119091200D01*
X135982142Y-119091200D02*
X135924999Y-119034057D01*
X135924999Y-119034057D02*
X135896428Y-118976914D01*
X135896428Y-118976914D02*
X135867856Y-118862628D01*
X135867856Y-118862628D02*
X135867856Y-118776914D01*
X135867856Y-118776914D02*
X135896428Y-118662628D01*
X135896428Y-118662628D02*
X135924999Y-118605485D01*
X135924999Y-118605485D02*
X135982142Y-118548342D01*
X135982142Y-118548342D02*
X136067856Y-118519771D01*
X136067856Y-118519771D02*
X136124999Y-118519771D01*
X136124999Y-118519771D02*
X136210713Y-118548342D01*
X136210713Y-118548342D02*
X136239285Y-118576914D01*
X136467856Y-118576914D02*
X136496428Y-118548342D01*
X136496428Y-118548342D02*
X136553571Y-118519771D01*
X136553571Y-118519771D02*
X136696428Y-118519771D01*
X136696428Y-118519771D02*
X136753571Y-118548342D01*
X136753571Y-118548342D02*
X136782142Y-118576914D01*
X136782142Y-118576914D02*
X136810713Y-118634057D01*
X136810713Y-118634057D02*
X136810713Y-118691200D01*
X136810713Y-118691200D02*
X136782142Y-118776914D01*
X136782142Y-118776914D02*
X136439285Y-119119771D01*
X136439285Y-119119771D02*
X136810713Y-119119771D01*
X137153571Y-118776914D02*
X137096428Y-118748342D01*
X137096428Y-118748342D02*
X137067857Y-118719771D01*
X137067857Y-118719771D02*
X137039285Y-118662628D01*
X137039285Y-118662628D02*
X137039285Y-118634057D01*
X137039285Y-118634057D02*
X137067857Y-118576914D01*
X137067857Y-118576914D02*
X137096428Y-118548342D01*
X137096428Y-118548342D02*
X137153571Y-118519771D01*
X137153571Y-118519771D02*
X137267857Y-118519771D01*
X137267857Y-118519771D02*
X137325000Y-118548342D01*
X137325000Y-118548342D02*
X137353571Y-118576914D01*
X137353571Y-118576914D02*
X137382142Y-118634057D01*
X137382142Y-118634057D02*
X137382142Y-118662628D01*
X137382142Y-118662628D02*
X137353571Y-118719771D01*
X137353571Y-118719771D02*
X137325000Y-118748342D01*
X137325000Y-118748342D02*
X137267857Y-118776914D01*
X137267857Y-118776914D02*
X137153571Y-118776914D01*
X137153571Y-118776914D02*
X137096428Y-118805485D01*
X137096428Y-118805485D02*
X137067857Y-118834057D01*
X137067857Y-118834057D02*
X137039285Y-118891200D01*
X137039285Y-118891200D02*
X137039285Y-119005485D01*
X137039285Y-119005485D02*
X137067857Y-119062628D01*
X137067857Y-119062628D02*
X137096428Y-119091200D01*
X137096428Y-119091200D02*
X137153571Y-119119771D01*
X137153571Y-119119771D02*
X137267857Y-119119771D01*
X137267857Y-119119771D02*
X137325000Y-119091200D01*
X137325000Y-119091200D02*
X137353571Y-119062628D01*
X137353571Y-119062628D02*
X137382142Y-119005485D01*
X137382142Y-119005485D02*
X137382142Y-118891200D01*
X137382142Y-118891200D02*
X137353571Y-118834057D01*
X137353571Y-118834057D02*
X137325000Y-118805485D01*
X137325000Y-118805485D02*
X137267857Y-118776914D01*
X128487628Y-99334999D02*
X128516200Y-99363571D01*
X128516200Y-99363571D02*
X128544771Y-99449285D01*
X128544771Y-99449285D02*
X128544771Y-99506428D01*
X128544771Y-99506428D02*
X128516200Y-99592142D01*
X128516200Y-99592142D02*
X128459057Y-99649285D01*
X128459057Y-99649285D02*
X128401914Y-99677856D01*
X128401914Y-99677856D02*
X128287628Y-99706428D01*
X128287628Y-99706428D02*
X128201914Y-99706428D01*
X128201914Y-99706428D02*
X128087628Y-99677856D01*
X128087628Y-99677856D02*
X128030485Y-99649285D01*
X128030485Y-99649285D02*
X127973342Y-99592142D01*
X127973342Y-99592142D02*
X127944771Y-99506428D01*
X127944771Y-99506428D02*
X127944771Y-99449285D01*
X127944771Y-99449285D02*
X127973342Y-99363571D01*
X127973342Y-99363571D02*
X128001914Y-99334999D01*
X128001914Y-99106428D02*
X127973342Y-99077856D01*
X127973342Y-99077856D02*
X127944771Y-99020714D01*
X127944771Y-99020714D02*
X127944771Y-98877856D01*
X127944771Y-98877856D02*
X127973342Y-98820714D01*
X127973342Y-98820714D02*
X128001914Y-98792142D01*
X128001914Y-98792142D02*
X128059057Y-98763571D01*
X128059057Y-98763571D02*
X128116200Y-98763571D01*
X128116200Y-98763571D02*
X128201914Y-98792142D01*
X128201914Y-98792142D02*
X128544771Y-99134999D01*
X128544771Y-99134999D02*
X128544771Y-98763571D01*
X124797628Y-123710714D02*
X124826200Y-123739286D01*
X124826200Y-123739286D02*
X124854771Y-123825000D01*
X124854771Y-123825000D02*
X124854771Y-123882143D01*
X124854771Y-123882143D02*
X124826200Y-123967857D01*
X124826200Y-123967857D02*
X124769057Y-124025000D01*
X124769057Y-124025000D02*
X124711914Y-124053571D01*
X124711914Y-124053571D02*
X124597628Y-124082143D01*
X124597628Y-124082143D02*
X124511914Y-124082143D01*
X124511914Y-124082143D02*
X124397628Y-124053571D01*
X124397628Y-124053571D02*
X124340485Y-124025000D01*
X124340485Y-124025000D02*
X124283342Y-123967857D01*
X124283342Y-123967857D02*
X124254771Y-123882143D01*
X124254771Y-123882143D02*
X124254771Y-123825000D01*
X124254771Y-123825000D02*
X124283342Y-123739286D01*
X124283342Y-123739286D02*
X124311914Y-123710714D01*
X124311914Y-123482143D02*
X124283342Y-123453571D01*
X124283342Y-123453571D02*
X124254771Y-123396429D01*
X124254771Y-123396429D02*
X124254771Y-123253571D01*
X124254771Y-123253571D02*
X124283342Y-123196429D01*
X124283342Y-123196429D02*
X124311914Y-123167857D01*
X124311914Y-123167857D02*
X124369057Y-123139286D01*
X124369057Y-123139286D02*
X124426200Y-123139286D01*
X124426200Y-123139286D02*
X124511914Y-123167857D01*
X124511914Y-123167857D02*
X124854771Y-123510714D01*
X124854771Y-123510714D02*
X124854771Y-123139286D01*
X124254771Y-122596428D02*
X124254771Y-122882142D01*
X124254771Y-122882142D02*
X124540485Y-122910714D01*
X124540485Y-122910714D02*
X124511914Y-122882142D01*
X124511914Y-122882142D02*
X124483342Y-122825000D01*
X124483342Y-122825000D02*
X124483342Y-122682142D01*
X124483342Y-122682142D02*
X124511914Y-122625000D01*
X124511914Y-122625000D02*
X124540485Y-122596428D01*
X124540485Y-122596428D02*
X124597628Y-122567857D01*
X124597628Y-122567857D02*
X124740485Y-122567857D01*
X124740485Y-122567857D02*
X124797628Y-122596428D01*
X124797628Y-122596428D02*
X124826200Y-122625000D01*
X124826200Y-122625000D02*
X124854771Y-122682142D01*
X124854771Y-122682142D02*
X124854771Y-122825000D01*
X124854771Y-122825000D02*
X124826200Y-122882142D01*
X124826200Y-122882142D02*
X124797628Y-122910714D01*
X126714285Y-105412628D02*
X126685713Y-105441200D01*
X126685713Y-105441200D02*
X126599999Y-105469771D01*
X126599999Y-105469771D02*
X126542856Y-105469771D01*
X126542856Y-105469771D02*
X126457142Y-105441200D01*
X126457142Y-105441200D02*
X126399999Y-105384057D01*
X126399999Y-105384057D02*
X126371428Y-105326914D01*
X126371428Y-105326914D02*
X126342856Y-105212628D01*
X126342856Y-105212628D02*
X126342856Y-105126914D01*
X126342856Y-105126914D02*
X126371428Y-105012628D01*
X126371428Y-105012628D02*
X126399999Y-104955485D01*
X126399999Y-104955485D02*
X126457142Y-104898342D01*
X126457142Y-104898342D02*
X126542856Y-104869771D01*
X126542856Y-104869771D02*
X126599999Y-104869771D01*
X126599999Y-104869771D02*
X126685713Y-104898342D01*
X126685713Y-104898342D02*
X126714285Y-104926914D01*
X126914285Y-104869771D02*
X127285713Y-104869771D01*
X127285713Y-104869771D02*
X127085713Y-105098342D01*
X127085713Y-105098342D02*
X127171428Y-105098342D01*
X127171428Y-105098342D02*
X127228571Y-105126914D01*
X127228571Y-105126914D02*
X127257142Y-105155485D01*
X127257142Y-105155485D02*
X127285713Y-105212628D01*
X127285713Y-105212628D02*
X127285713Y-105355485D01*
X127285713Y-105355485D02*
X127257142Y-105412628D01*
X127257142Y-105412628D02*
X127228571Y-105441200D01*
X127228571Y-105441200D02*
X127171428Y-105469771D01*
X127171428Y-105469771D02*
X126999999Y-105469771D01*
X126999999Y-105469771D02*
X126942856Y-105441200D01*
X126942856Y-105441200D02*
X126914285Y-105412628D01*
X127857142Y-105469771D02*
X127514285Y-105469771D01*
X127685714Y-105469771D02*
X127685714Y-104869771D01*
X127685714Y-104869771D02*
X127628571Y-104955485D01*
X127628571Y-104955485D02*
X127571428Y-105012628D01*
X127571428Y-105012628D02*
X127514285Y-105041200D01*
X135894285Y-120337628D02*
X135865713Y-120366200D01*
X135865713Y-120366200D02*
X135779999Y-120394771D01*
X135779999Y-120394771D02*
X135722856Y-120394771D01*
X135722856Y-120394771D02*
X135637142Y-120366200D01*
X135637142Y-120366200D02*
X135579999Y-120309057D01*
X135579999Y-120309057D02*
X135551428Y-120251914D01*
X135551428Y-120251914D02*
X135522856Y-120137628D01*
X135522856Y-120137628D02*
X135522856Y-120051914D01*
X135522856Y-120051914D02*
X135551428Y-119937628D01*
X135551428Y-119937628D02*
X135579999Y-119880485D01*
X135579999Y-119880485D02*
X135637142Y-119823342D01*
X135637142Y-119823342D02*
X135722856Y-119794771D01*
X135722856Y-119794771D02*
X135779999Y-119794771D01*
X135779999Y-119794771D02*
X135865713Y-119823342D01*
X135865713Y-119823342D02*
X135894285Y-119851914D01*
X136122856Y-119851914D02*
X136151428Y-119823342D01*
X136151428Y-119823342D02*
X136208571Y-119794771D01*
X136208571Y-119794771D02*
X136351428Y-119794771D01*
X136351428Y-119794771D02*
X136408571Y-119823342D01*
X136408571Y-119823342D02*
X136437142Y-119851914D01*
X136437142Y-119851914D02*
X136465713Y-119909057D01*
X136465713Y-119909057D02*
X136465713Y-119966200D01*
X136465713Y-119966200D02*
X136437142Y-120051914D01*
X136437142Y-120051914D02*
X136094285Y-120394771D01*
X136094285Y-120394771D02*
X136465713Y-120394771D01*
X136665714Y-119794771D02*
X137037142Y-119794771D01*
X137037142Y-119794771D02*
X136837142Y-120023342D01*
X136837142Y-120023342D02*
X136922857Y-120023342D01*
X136922857Y-120023342D02*
X136980000Y-120051914D01*
X136980000Y-120051914D02*
X137008571Y-120080485D01*
X137008571Y-120080485D02*
X137037142Y-120137628D01*
X137037142Y-120137628D02*
X137037142Y-120280485D01*
X137037142Y-120280485D02*
X137008571Y-120337628D01*
X137008571Y-120337628D02*
X136980000Y-120366200D01*
X136980000Y-120366200D02*
X136922857Y-120394771D01*
X136922857Y-120394771D02*
X136751428Y-120394771D01*
X136751428Y-120394771D02*
X136694285Y-120366200D01*
X136694285Y-120366200D02*
X136665714Y-120337628D01*
X117362628Y-114610714D02*
X117391200Y-114639286D01*
X117391200Y-114639286D02*
X117419771Y-114725000D01*
X117419771Y-114725000D02*
X117419771Y-114782143D01*
X117419771Y-114782143D02*
X117391200Y-114867857D01*
X117391200Y-114867857D02*
X117334057Y-114925000D01*
X117334057Y-114925000D02*
X117276914Y-114953571D01*
X117276914Y-114953571D02*
X117162628Y-114982143D01*
X117162628Y-114982143D02*
X117076914Y-114982143D01*
X117076914Y-114982143D02*
X116962628Y-114953571D01*
X116962628Y-114953571D02*
X116905485Y-114925000D01*
X116905485Y-114925000D02*
X116848342Y-114867857D01*
X116848342Y-114867857D02*
X116819771Y-114782143D01*
X116819771Y-114782143D02*
X116819771Y-114725000D01*
X116819771Y-114725000D02*
X116848342Y-114639286D01*
X116848342Y-114639286D02*
X116876914Y-114610714D01*
X117419771Y-114039286D02*
X117419771Y-114382143D01*
X117419771Y-114210714D02*
X116819771Y-114210714D01*
X116819771Y-114210714D02*
X116905485Y-114267857D01*
X116905485Y-114267857D02*
X116962628Y-114325000D01*
X116962628Y-114325000D02*
X116991200Y-114382143D01*
X116819771Y-113525000D02*
X116819771Y-113639285D01*
X116819771Y-113639285D02*
X116848342Y-113696428D01*
X116848342Y-113696428D02*
X116876914Y-113725000D01*
X116876914Y-113725000D02*
X116962628Y-113782142D01*
X116962628Y-113782142D02*
X117076914Y-113810714D01*
X117076914Y-113810714D02*
X117305485Y-113810714D01*
X117305485Y-113810714D02*
X117362628Y-113782142D01*
X117362628Y-113782142D02*
X117391200Y-113753571D01*
X117391200Y-113753571D02*
X117419771Y-113696428D01*
X117419771Y-113696428D02*
X117419771Y-113582142D01*
X117419771Y-113582142D02*
X117391200Y-113525000D01*
X117391200Y-113525000D02*
X117362628Y-113496428D01*
X117362628Y-113496428D02*
X117305485Y-113467857D01*
X117305485Y-113467857D02*
X117162628Y-113467857D01*
X117162628Y-113467857D02*
X117105485Y-113496428D01*
X117105485Y-113496428D02*
X117076914Y-113525000D01*
X117076914Y-113525000D02*
X117048342Y-113582142D01*
X117048342Y-113582142D02*
X117048342Y-113696428D01*
X117048342Y-113696428D02*
X117076914Y-113753571D01*
X117076914Y-113753571D02*
X117105485Y-113782142D01*
X117105485Y-113782142D02*
X117162628Y-113810714D01*
X106569771Y-112982142D02*
X107055485Y-112982142D01*
X107055485Y-112982142D02*
X107112628Y-112953571D01*
X107112628Y-112953571D02*
X107141200Y-112925000D01*
X107141200Y-112925000D02*
X107169771Y-112867857D01*
X107169771Y-112867857D02*
X107169771Y-112753571D01*
X107169771Y-112753571D02*
X107141200Y-112696428D01*
X107141200Y-112696428D02*
X107112628Y-112667857D01*
X107112628Y-112667857D02*
X107055485Y-112639285D01*
X107055485Y-112639285D02*
X106569771Y-112639285D01*
X106626914Y-112382143D02*
X106598342Y-112353571D01*
X106598342Y-112353571D02*
X106569771Y-112296429D01*
X106569771Y-112296429D02*
X106569771Y-112153571D01*
X106569771Y-112153571D02*
X106598342Y-112096429D01*
X106598342Y-112096429D02*
X106626914Y-112067857D01*
X106626914Y-112067857D02*
X106684057Y-112039286D01*
X106684057Y-112039286D02*
X106741200Y-112039286D01*
X106741200Y-112039286D02*
X106826914Y-112067857D01*
X106826914Y-112067857D02*
X107169771Y-112410714D01*
X107169771Y-112410714D02*
X107169771Y-112039286D01*
X133214285Y-100569771D02*
X133014285Y-100284057D01*
X132871428Y-100569771D02*
X132871428Y-99969771D01*
X132871428Y-99969771D02*
X133099999Y-99969771D01*
X133099999Y-99969771D02*
X133157142Y-99998342D01*
X133157142Y-99998342D02*
X133185713Y-100026914D01*
X133185713Y-100026914D02*
X133214285Y-100084057D01*
X133214285Y-100084057D02*
X133214285Y-100169771D01*
X133214285Y-100169771D02*
X133185713Y-100226914D01*
X133185713Y-100226914D02*
X133157142Y-100255485D01*
X133157142Y-100255485D02*
X133099999Y-100284057D01*
X133099999Y-100284057D02*
X132871428Y-100284057D01*
X133785713Y-100569771D02*
X133442856Y-100569771D01*
X133614285Y-100569771D02*
X133614285Y-99969771D01*
X133614285Y-99969771D02*
X133557142Y-100055485D01*
X133557142Y-100055485D02*
X133499999Y-100112628D01*
X133499999Y-100112628D02*
X133442856Y-100141200D01*
X134357142Y-100569771D02*
X134014285Y-100569771D01*
X134185714Y-100569771D02*
X134185714Y-99969771D01*
X134185714Y-99969771D02*
X134128571Y-100055485D01*
X134128571Y-100055485D02*
X134071428Y-100112628D01*
X134071428Y-100112628D02*
X134014285Y-100141200D01*
X115087628Y-120360714D02*
X115116200Y-120389286D01*
X115116200Y-120389286D02*
X115144771Y-120475000D01*
X115144771Y-120475000D02*
X115144771Y-120532143D01*
X115144771Y-120532143D02*
X115116200Y-120617857D01*
X115116200Y-120617857D02*
X115059057Y-120675000D01*
X115059057Y-120675000D02*
X115001914Y-120703571D01*
X115001914Y-120703571D02*
X114887628Y-120732143D01*
X114887628Y-120732143D02*
X114801914Y-120732143D01*
X114801914Y-120732143D02*
X114687628Y-120703571D01*
X114687628Y-120703571D02*
X114630485Y-120675000D01*
X114630485Y-120675000D02*
X114573342Y-120617857D01*
X114573342Y-120617857D02*
X114544771Y-120532143D01*
X114544771Y-120532143D02*
X114544771Y-120475000D01*
X114544771Y-120475000D02*
X114573342Y-120389286D01*
X114573342Y-120389286D02*
X114601914Y-120360714D01*
X114601914Y-120132143D02*
X114573342Y-120103571D01*
X114573342Y-120103571D02*
X114544771Y-120046429D01*
X114544771Y-120046429D02*
X114544771Y-119903571D01*
X114544771Y-119903571D02*
X114573342Y-119846429D01*
X114573342Y-119846429D02*
X114601914Y-119817857D01*
X114601914Y-119817857D02*
X114659057Y-119789286D01*
X114659057Y-119789286D02*
X114716200Y-119789286D01*
X114716200Y-119789286D02*
X114801914Y-119817857D01*
X114801914Y-119817857D02*
X115144771Y-120160714D01*
X115144771Y-120160714D02*
X115144771Y-119789286D01*
X114544771Y-119417857D02*
X114544771Y-119360714D01*
X114544771Y-119360714D02*
X114573342Y-119303571D01*
X114573342Y-119303571D02*
X114601914Y-119275000D01*
X114601914Y-119275000D02*
X114659057Y-119246428D01*
X114659057Y-119246428D02*
X114773342Y-119217857D01*
X114773342Y-119217857D02*
X114916200Y-119217857D01*
X114916200Y-119217857D02*
X115030485Y-119246428D01*
X115030485Y-119246428D02*
X115087628Y-119275000D01*
X115087628Y-119275000D02*
X115116200Y-119303571D01*
X115116200Y-119303571D02*
X115144771Y-119360714D01*
X115144771Y-119360714D02*
X115144771Y-119417857D01*
X115144771Y-119417857D02*
X115116200Y-119475000D01*
X115116200Y-119475000D02*
X115087628Y-119503571D01*
X115087628Y-119503571D02*
X115030485Y-119532142D01*
X115030485Y-119532142D02*
X114916200Y-119560714D01*
X114916200Y-119560714D02*
X114773342Y-119560714D01*
X114773342Y-119560714D02*
X114659057Y-119532142D01*
X114659057Y-119532142D02*
X114601914Y-119503571D01*
X114601914Y-119503571D02*
X114573342Y-119475000D01*
X114573342Y-119475000D02*
X114544771Y-119417857D01*
X126714285Y-103112628D02*
X126685713Y-103141200D01*
X126685713Y-103141200D02*
X126599999Y-103169771D01*
X126599999Y-103169771D02*
X126542856Y-103169771D01*
X126542856Y-103169771D02*
X126457142Y-103141200D01*
X126457142Y-103141200D02*
X126399999Y-103084057D01*
X126399999Y-103084057D02*
X126371428Y-103026914D01*
X126371428Y-103026914D02*
X126342856Y-102912628D01*
X126342856Y-102912628D02*
X126342856Y-102826914D01*
X126342856Y-102826914D02*
X126371428Y-102712628D01*
X126371428Y-102712628D02*
X126399999Y-102655485D01*
X126399999Y-102655485D02*
X126457142Y-102598342D01*
X126457142Y-102598342D02*
X126542856Y-102569771D01*
X126542856Y-102569771D02*
X126599999Y-102569771D01*
X126599999Y-102569771D02*
X126685713Y-102598342D01*
X126685713Y-102598342D02*
X126714285Y-102626914D01*
X126942856Y-102626914D02*
X126971428Y-102598342D01*
X126971428Y-102598342D02*
X127028571Y-102569771D01*
X127028571Y-102569771D02*
X127171428Y-102569771D01*
X127171428Y-102569771D02*
X127228571Y-102598342D01*
X127228571Y-102598342D02*
X127257142Y-102626914D01*
X127257142Y-102626914D02*
X127285713Y-102684057D01*
X127285713Y-102684057D02*
X127285713Y-102741200D01*
X127285713Y-102741200D02*
X127257142Y-102826914D01*
X127257142Y-102826914D02*
X126914285Y-103169771D01*
X126914285Y-103169771D02*
X127285713Y-103169771D01*
X127571428Y-103169771D02*
X127685714Y-103169771D01*
X127685714Y-103169771D02*
X127742857Y-103141200D01*
X127742857Y-103141200D02*
X127771428Y-103112628D01*
X127771428Y-103112628D02*
X127828571Y-103026914D01*
X127828571Y-103026914D02*
X127857142Y-102912628D01*
X127857142Y-102912628D02*
X127857142Y-102684057D01*
X127857142Y-102684057D02*
X127828571Y-102626914D01*
X127828571Y-102626914D02*
X127800000Y-102598342D01*
X127800000Y-102598342D02*
X127742857Y-102569771D01*
X127742857Y-102569771D02*
X127628571Y-102569771D01*
X127628571Y-102569771D02*
X127571428Y-102598342D01*
X127571428Y-102598342D02*
X127542857Y-102626914D01*
X127542857Y-102626914D02*
X127514285Y-102684057D01*
X127514285Y-102684057D02*
X127514285Y-102826914D01*
X127514285Y-102826914D02*
X127542857Y-102884057D01*
X127542857Y-102884057D02*
X127571428Y-102912628D01*
X127571428Y-102912628D02*
X127628571Y-102941200D01*
X127628571Y-102941200D02*
X127742857Y-102941200D01*
X127742857Y-102941200D02*
X127800000Y-102912628D01*
X127800000Y-102912628D02*
X127828571Y-102884057D01*
X127828571Y-102884057D02*
X127857142Y-102826914D01*
X104501785Y-108552628D02*
X104473213Y-108581200D01*
X104473213Y-108581200D02*
X104387499Y-108609771D01*
X104387499Y-108609771D02*
X104330356Y-108609771D01*
X104330356Y-108609771D02*
X104244642Y-108581200D01*
X104244642Y-108581200D02*
X104187499Y-108524057D01*
X104187499Y-108524057D02*
X104158928Y-108466914D01*
X104158928Y-108466914D02*
X104130356Y-108352628D01*
X104130356Y-108352628D02*
X104130356Y-108266914D01*
X104130356Y-108266914D02*
X104158928Y-108152628D01*
X104158928Y-108152628D02*
X104187499Y-108095485D01*
X104187499Y-108095485D02*
X104244642Y-108038342D01*
X104244642Y-108038342D02*
X104330356Y-108009771D01*
X104330356Y-108009771D02*
X104387499Y-108009771D01*
X104387499Y-108009771D02*
X104473213Y-108038342D01*
X104473213Y-108038342D02*
X104501785Y-108066914D01*
X105073213Y-108609771D02*
X104730356Y-108609771D01*
X104901785Y-108609771D02*
X104901785Y-108009771D01*
X104901785Y-108009771D02*
X104844642Y-108095485D01*
X104844642Y-108095485D02*
X104787499Y-108152628D01*
X104787499Y-108152628D02*
X104730356Y-108181200D01*
X105587500Y-108209771D02*
X105587500Y-108609771D01*
X105444642Y-107981200D02*
X105301785Y-108409771D01*
X105301785Y-108409771D02*
X105673214Y-108409771D01*
X111117856Y-91517771D02*
X111460714Y-91517771D01*
X111289285Y-92117771D02*
X111289285Y-91517771D01*
X111660714Y-92117771D02*
X111660714Y-91517771D01*
X111660714Y-91517771D02*
X111889285Y-91517771D01*
X111889285Y-91517771D02*
X111946428Y-91546342D01*
X111946428Y-91546342D02*
X111974999Y-91574914D01*
X111974999Y-91574914D02*
X112003571Y-91632057D01*
X112003571Y-91632057D02*
X112003571Y-91717771D01*
X112003571Y-91717771D02*
X111974999Y-91774914D01*
X111974999Y-91774914D02*
X111946428Y-91803485D01*
X111946428Y-91803485D02*
X111889285Y-91832057D01*
X111889285Y-91832057D02*
X111660714Y-91832057D01*
X112574999Y-92117771D02*
X112232142Y-92117771D01*
X112403571Y-92117771D02*
X112403571Y-91517771D01*
X112403571Y-91517771D02*
X112346428Y-91603485D01*
X112346428Y-91603485D02*
X112289285Y-91660628D01*
X112289285Y-91660628D02*
X112232142Y-91689200D01*
X128412628Y-125940714D02*
X128441200Y-125969286D01*
X128441200Y-125969286D02*
X128469771Y-126055000D01*
X128469771Y-126055000D02*
X128469771Y-126112143D01*
X128469771Y-126112143D02*
X128441200Y-126197857D01*
X128441200Y-126197857D02*
X128384057Y-126255000D01*
X128384057Y-126255000D02*
X128326914Y-126283571D01*
X128326914Y-126283571D02*
X128212628Y-126312143D01*
X128212628Y-126312143D02*
X128126914Y-126312143D01*
X128126914Y-126312143D02*
X128012628Y-126283571D01*
X128012628Y-126283571D02*
X127955485Y-126255000D01*
X127955485Y-126255000D02*
X127898342Y-126197857D01*
X127898342Y-126197857D02*
X127869771Y-126112143D01*
X127869771Y-126112143D02*
X127869771Y-126055000D01*
X127869771Y-126055000D02*
X127898342Y-125969286D01*
X127898342Y-125969286D02*
X127926914Y-125940714D01*
X127926914Y-125712143D02*
X127898342Y-125683571D01*
X127898342Y-125683571D02*
X127869771Y-125626429D01*
X127869771Y-125626429D02*
X127869771Y-125483571D01*
X127869771Y-125483571D02*
X127898342Y-125426429D01*
X127898342Y-125426429D02*
X127926914Y-125397857D01*
X127926914Y-125397857D02*
X127984057Y-125369286D01*
X127984057Y-125369286D02*
X128041200Y-125369286D01*
X128041200Y-125369286D02*
X128126914Y-125397857D01*
X128126914Y-125397857D02*
X128469771Y-125740714D01*
X128469771Y-125740714D02*
X128469771Y-125369286D01*
X127869771Y-124855000D02*
X127869771Y-124969285D01*
X127869771Y-124969285D02*
X127898342Y-125026428D01*
X127898342Y-125026428D02*
X127926914Y-125055000D01*
X127926914Y-125055000D02*
X128012628Y-125112142D01*
X128012628Y-125112142D02*
X128126914Y-125140714D01*
X128126914Y-125140714D02*
X128355485Y-125140714D01*
X128355485Y-125140714D02*
X128412628Y-125112142D01*
X128412628Y-125112142D02*
X128441200Y-125083571D01*
X128441200Y-125083571D02*
X128469771Y-125026428D01*
X128469771Y-125026428D02*
X128469771Y-124912142D01*
X128469771Y-124912142D02*
X128441200Y-124855000D01*
X128441200Y-124855000D02*
X128412628Y-124826428D01*
X128412628Y-124826428D02*
X128355485Y-124797857D01*
X128355485Y-124797857D02*
X128212628Y-124797857D01*
X128212628Y-124797857D02*
X128155485Y-124826428D01*
X128155485Y-124826428D02*
X128126914Y-124855000D01*
X128126914Y-124855000D02*
X128098342Y-124912142D01*
X128098342Y-124912142D02*
X128098342Y-125026428D01*
X128098342Y-125026428D02*
X128126914Y-125083571D01*
X128126914Y-125083571D02*
X128155485Y-125112142D01*
X128155485Y-125112142D02*
X128212628Y-125140714D01*
X134414771Y-92525000D02*
X134843342Y-92525000D01*
X134843342Y-92525000D02*
X134929057Y-92553571D01*
X134929057Y-92553571D02*
X134986200Y-92610714D01*
X134986200Y-92610714D02*
X135014771Y-92696428D01*
X135014771Y-92696428D02*
X135014771Y-92753571D01*
X135014771Y-91925000D02*
X135014771Y-92267857D01*
X135014771Y-92096428D02*
X134414771Y-92096428D01*
X134414771Y-92096428D02*
X134500485Y-92153571D01*
X134500485Y-92153571D02*
X134557628Y-92210714D01*
X134557628Y-92210714D02*
X134586200Y-92267857D01*
X123737628Y-98794999D02*
X123766200Y-98823571D01*
X123766200Y-98823571D02*
X123794771Y-98909285D01*
X123794771Y-98909285D02*
X123794771Y-98966428D01*
X123794771Y-98966428D02*
X123766200Y-99052142D01*
X123766200Y-99052142D02*
X123709057Y-99109285D01*
X123709057Y-99109285D02*
X123651914Y-99137856D01*
X123651914Y-99137856D02*
X123537628Y-99166428D01*
X123537628Y-99166428D02*
X123451914Y-99166428D01*
X123451914Y-99166428D02*
X123337628Y-99137856D01*
X123337628Y-99137856D02*
X123280485Y-99109285D01*
X123280485Y-99109285D02*
X123223342Y-99052142D01*
X123223342Y-99052142D02*
X123194771Y-98966428D01*
X123194771Y-98966428D02*
X123194771Y-98909285D01*
X123194771Y-98909285D02*
X123223342Y-98823571D01*
X123223342Y-98823571D02*
X123251914Y-98794999D01*
X123194771Y-98594999D02*
X123194771Y-98194999D01*
X123194771Y-98194999D02*
X123794771Y-98452142D01*
X130869771Y-121157142D02*
X131355485Y-121157142D01*
X131355485Y-121157142D02*
X131412628Y-121128571D01*
X131412628Y-121128571D02*
X131441200Y-121100000D01*
X131441200Y-121100000D02*
X131469771Y-121042857D01*
X131469771Y-121042857D02*
X131469771Y-120928571D01*
X131469771Y-120928571D02*
X131441200Y-120871428D01*
X131441200Y-120871428D02*
X131412628Y-120842857D01*
X131412628Y-120842857D02*
X131355485Y-120814285D01*
X131355485Y-120814285D02*
X130869771Y-120814285D01*
X131469771Y-120214286D02*
X131469771Y-120557143D01*
X131469771Y-120385714D02*
X130869771Y-120385714D01*
X130869771Y-120385714D02*
X130955485Y-120442857D01*
X130955485Y-120442857D02*
X131012628Y-120500000D01*
X131012628Y-120500000D02*
X131041200Y-120557143D01*
X121273819Y-121386599D02*
X121511914Y-121386599D01*
X121416676Y-121624694D02*
X121511914Y-121386599D01*
X121511914Y-121386599D02*
X121416676Y-121148504D01*
X121702390Y-121529456D02*
X121511914Y-121386599D01*
X121511914Y-121386599D02*
X121702390Y-121243742D01*
X121273819Y-121386599D02*
X121511914Y-121386599D01*
X121416676Y-121624694D02*
X121511914Y-121386599D01*
X121511914Y-121386599D02*
X121416676Y-121148504D01*
X121702390Y-121529456D02*
X121511914Y-121386599D01*
X121511914Y-121386599D02*
X121702390Y-121243742D01*
X137769771Y-125142856D02*
X137169771Y-125142856D01*
X137169771Y-125142856D02*
X137169771Y-124999999D01*
X137169771Y-124999999D02*
X137198342Y-124914285D01*
X137198342Y-124914285D02*
X137255485Y-124857142D01*
X137255485Y-124857142D02*
X137312628Y-124828571D01*
X137312628Y-124828571D02*
X137426914Y-124799999D01*
X137426914Y-124799999D02*
X137512628Y-124799999D01*
X137512628Y-124799999D02*
X137626914Y-124828571D01*
X137626914Y-124828571D02*
X137684057Y-124857142D01*
X137684057Y-124857142D02*
X137741200Y-124914285D01*
X137741200Y-124914285D02*
X137769771Y-124999999D01*
X137769771Y-124999999D02*
X137769771Y-125142856D01*
X137769771Y-124228571D02*
X137769771Y-124571428D01*
X137769771Y-124399999D02*
X137169771Y-124399999D01*
X137169771Y-124399999D02*
X137255485Y-124457142D01*
X137255485Y-124457142D02*
X137312628Y-124514285D01*
X137312628Y-124514285D02*
X137341200Y-124571428D01*
X127262628Y-99374999D02*
X127291200Y-99403571D01*
X127291200Y-99403571D02*
X127319771Y-99489285D01*
X127319771Y-99489285D02*
X127319771Y-99546428D01*
X127319771Y-99546428D02*
X127291200Y-99632142D01*
X127291200Y-99632142D02*
X127234057Y-99689285D01*
X127234057Y-99689285D02*
X127176914Y-99717856D01*
X127176914Y-99717856D02*
X127062628Y-99746428D01*
X127062628Y-99746428D02*
X126976914Y-99746428D01*
X126976914Y-99746428D02*
X126862628Y-99717856D01*
X126862628Y-99717856D02*
X126805485Y-99689285D01*
X126805485Y-99689285D02*
X126748342Y-99632142D01*
X126748342Y-99632142D02*
X126719771Y-99546428D01*
X126719771Y-99546428D02*
X126719771Y-99489285D01*
X126719771Y-99489285D02*
X126748342Y-99403571D01*
X126748342Y-99403571D02*
X126776914Y-99374999D01*
X126719771Y-99174999D02*
X126719771Y-98803571D01*
X126719771Y-98803571D02*
X126948342Y-99003571D01*
X126948342Y-99003571D02*
X126948342Y-98917856D01*
X126948342Y-98917856D02*
X126976914Y-98860714D01*
X126976914Y-98860714D02*
X127005485Y-98832142D01*
X127005485Y-98832142D02*
X127062628Y-98803571D01*
X127062628Y-98803571D02*
X127205485Y-98803571D01*
X127205485Y-98803571D02*
X127262628Y-98832142D01*
X127262628Y-98832142D02*
X127291200Y-98860714D01*
X127291200Y-98860714D02*
X127319771Y-98917856D01*
X127319771Y-98917856D02*
X127319771Y-99089285D01*
X127319771Y-99089285D02*
X127291200Y-99146428D01*
X127291200Y-99146428D02*
X127262628Y-99174999D01*
X129962628Y-105985714D02*
X129991200Y-106014286D01*
X129991200Y-106014286D02*
X130019771Y-106100000D01*
X130019771Y-106100000D02*
X130019771Y-106157143D01*
X130019771Y-106157143D02*
X129991200Y-106242857D01*
X129991200Y-106242857D02*
X129934057Y-106300000D01*
X129934057Y-106300000D02*
X129876914Y-106328571D01*
X129876914Y-106328571D02*
X129762628Y-106357143D01*
X129762628Y-106357143D02*
X129676914Y-106357143D01*
X129676914Y-106357143D02*
X129562628Y-106328571D01*
X129562628Y-106328571D02*
X129505485Y-106300000D01*
X129505485Y-106300000D02*
X129448342Y-106242857D01*
X129448342Y-106242857D02*
X129419771Y-106157143D01*
X129419771Y-106157143D02*
X129419771Y-106100000D01*
X129419771Y-106100000D02*
X129448342Y-106014286D01*
X129448342Y-106014286D02*
X129476914Y-105985714D01*
X129476914Y-105757143D02*
X129448342Y-105728571D01*
X129448342Y-105728571D02*
X129419771Y-105671429D01*
X129419771Y-105671429D02*
X129419771Y-105528571D01*
X129419771Y-105528571D02*
X129448342Y-105471429D01*
X129448342Y-105471429D02*
X129476914Y-105442857D01*
X129476914Y-105442857D02*
X129534057Y-105414286D01*
X129534057Y-105414286D02*
X129591200Y-105414286D01*
X129591200Y-105414286D02*
X129676914Y-105442857D01*
X129676914Y-105442857D02*
X130019771Y-105785714D01*
X130019771Y-105785714D02*
X130019771Y-105414286D01*
X129619771Y-104900000D02*
X130019771Y-104900000D01*
X129391200Y-105042857D02*
X129819771Y-105185714D01*
X129819771Y-105185714D02*
X129819771Y-104814285D01*
X110287628Y-130930714D02*
X110316200Y-130959286D01*
X110316200Y-130959286D02*
X110344771Y-131045000D01*
X110344771Y-131045000D02*
X110344771Y-131102143D01*
X110344771Y-131102143D02*
X110316200Y-131187857D01*
X110316200Y-131187857D02*
X110259057Y-131245000D01*
X110259057Y-131245000D02*
X110201914Y-131273571D01*
X110201914Y-131273571D02*
X110087628Y-131302143D01*
X110087628Y-131302143D02*
X110001914Y-131302143D01*
X110001914Y-131302143D02*
X109887628Y-131273571D01*
X109887628Y-131273571D02*
X109830485Y-131245000D01*
X109830485Y-131245000D02*
X109773342Y-131187857D01*
X109773342Y-131187857D02*
X109744771Y-131102143D01*
X109744771Y-131102143D02*
X109744771Y-131045000D01*
X109744771Y-131045000D02*
X109773342Y-130959286D01*
X109773342Y-130959286D02*
X109801914Y-130930714D01*
X109744771Y-130730714D02*
X109744771Y-130359286D01*
X109744771Y-130359286D02*
X109973342Y-130559286D01*
X109973342Y-130559286D02*
X109973342Y-130473571D01*
X109973342Y-130473571D02*
X110001914Y-130416429D01*
X110001914Y-130416429D02*
X110030485Y-130387857D01*
X110030485Y-130387857D02*
X110087628Y-130359286D01*
X110087628Y-130359286D02*
X110230485Y-130359286D01*
X110230485Y-130359286D02*
X110287628Y-130387857D01*
X110287628Y-130387857D02*
X110316200Y-130416429D01*
X110316200Y-130416429D02*
X110344771Y-130473571D01*
X110344771Y-130473571D02*
X110344771Y-130645000D01*
X110344771Y-130645000D02*
X110316200Y-130702143D01*
X110316200Y-130702143D02*
X110287628Y-130730714D01*
X109744771Y-129816428D02*
X109744771Y-130102142D01*
X109744771Y-130102142D02*
X110030485Y-130130714D01*
X110030485Y-130130714D02*
X110001914Y-130102142D01*
X110001914Y-130102142D02*
X109973342Y-130045000D01*
X109973342Y-130045000D02*
X109973342Y-129902142D01*
X109973342Y-129902142D02*
X110001914Y-129845000D01*
X110001914Y-129845000D02*
X110030485Y-129816428D01*
X110030485Y-129816428D02*
X110087628Y-129787857D01*
X110087628Y-129787857D02*
X110230485Y-129787857D01*
X110230485Y-129787857D02*
X110287628Y-129816428D01*
X110287628Y-129816428D02*
X110316200Y-129845000D01*
X110316200Y-129845000D02*
X110344771Y-129902142D01*
X110344771Y-129902142D02*
X110344771Y-130045000D01*
X110344771Y-130045000D02*
X110316200Y-130102142D01*
X110316200Y-130102142D02*
X110287628Y-130130714D01*
X120262628Y-98925714D02*
X120291200Y-98954286D01*
X120291200Y-98954286D02*
X120319771Y-99040000D01*
X120319771Y-99040000D02*
X120319771Y-99097143D01*
X120319771Y-99097143D02*
X120291200Y-99182857D01*
X120291200Y-99182857D02*
X120234057Y-99240000D01*
X120234057Y-99240000D02*
X120176914Y-99268571D01*
X120176914Y-99268571D02*
X120062628Y-99297143D01*
X120062628Y-99297143D02*
X119976914Y-99297143D01*
X119976914Y-99297143D02*
X119862628Y-99268571D01*
X119862628Y-99268571D02*
X119805485Y-99240000D01*
X119805485Y-99240000D02*
X119748342Y-99182857D01*
X119748342Y-99182857D02*
X119719771Y-99097143D01*
X119719771Y-99097143D02*
X119719771Y-99040000D01*
X119719771Y-99040000D02*
X119748342Y-98954286D01*
X119748342Y-98954286D02*
X119776914Y-98925714D01*
X120319771Y-98354286D02*
X120319771Y-98697143D01*
X120319771Y-98525714D02*
X119719771Y-98525714D01*
X119719771Y-98525714D02*
X119805485Y-98582857D01*
X119805485Y-98582857D02*
X119862628Y-98640000D01*
X119862628Y-98640000D02*
X119891200Y-98697143D01*
X119719771Y-97982857D02*
X119719771Y-97925714D01*
X119719771Y-97925714D02*
X119748342Y-97868571D01*
X119748342Y-97868571D02*
X119776914Y-97840000D01*
X119776914Y-97840000D02*
X119834057Y-97811428D01*
X119834057Y-97811428D02*
X119948342Y-97782857D01*
X119948342Y-97782857D02*
X120091200Y-97782857D01*
X120091200Y-97782857D02*
X120205485Y-97811428D01*
X120205485Y-97811428D02*
X120262628Y-97840000D01*
X120262628Y-97840000D02*
X120291200Y-97868571D01*
X120291200Y-97868571D02*
X120319771Y-97925714D01*
X120319771Y-97925714D02*
X120319771Y-97982857D01*
X120319771Y-97982857D02*
X120291200Y-98040000D01*
X120291200Y-98040000D02*
X120262628Y-98068571D01*
X120262628Y-98068571D02*
X120205485Y-98097142D01*
X120205485Y-98097142D02*
X120091200Y-98125714D01*
X120091200Y-98125714D02*
X119948342Y-98125714D01*
X119948342Y-98125714D02*
X119834057Y-98097142D01*
X119834057Y-98097142D02*
X119776914Y-98068571D01*
X119776914Y-98068571D02*
X119748342Y-98040000D01*
X119748342Y-98040000D02*
X119719771Y-97982857D01*
X102576785Y-115712628D02*
X102548213Y-115741200D01*
X102548213Y-115741200D02*
X102462499Y-115769771D01*
X102462499Y-115769771D02*
X102405356Y-115769771D01*
X102405356Y-115769771D02*
X102319642Y-115741200D01*
X102319642Y-115741200D02*
X102262499Y-115684057D01*
X102262499Y-115684057D02*
X102233928Y-115626914D01*
X102233928Y-115626914D02*
X102205356Y-115512628D01*
X102205356Y-115512628D02*
X102205356Y-115426914D01*
X102205356Y-115426914D02*
X102233928Y-115312628D01*
X102233928Y-115312628D02*
X102262499Y-115255485D01*
X102262499Y-115255485D02*
X102319642Y-115198342D01*
X102319642Y-115198342D02*
X102405356Y-115169771D01*
X102405356Y-115169771D02*
X102462499Y-115169771D01*
X102462499Y-115169771D02*
X102548213Y-115198342D01*
X102548213Y-115198342D02*
X102576785Y-115226914D01*
X103148213Y-115769771D02*
X102805356Y-115769771D01*
X102976785Y-115769771D02*
X102976785Y-115169771D01*
X102976785Y-115169771D02*
X102919642Y-115255485D01*
X102919642Y-115255485D02*
X102862499Y-115312628D01*
X102862499Y-115312628D02*
X102805356Y-115341200D01*
X103348214Y-115169771D02*
X103719642Y-115169771D01*
X103719642Y-115169771D02*
X103519642Y-115398342D01*
X103519642Y-115398342D02*
X103605357Y-115398342D01*
X103605357Y-115398342D02*
X103662500Y-115426914D01*
X103662500Y-115426914D02*
X103691071Y-115455485D01*
X103691071Y-115455485D02*
X103719642Y-115512628D01*
X103719642Y-115512628D02*
X103719642Y-115655485D01*
X103719642Y-115655485D02*
X103691071Y-115712628D01*
X103691071Y-115712628D02*
X103662500Y-115741200D01*
X103662500Y-115741200D02*
X103605357Y-115769771D01*
X103605357Y-115769771D02*
X103433928Y-115769771D01*
X103433928Y-115769771D02*
X103376785Y-115741200D01*
X103376785Y-115741200D02*
X103348214Y-115712628D01*
X111312628Y-130885714D02*
X111341200Y-130914286D01*
X111341200Y-130914286D02*
X111369771Y-131000000D01*
X111369771Y-131000000D02*
X111369771Y-131057143D01*
X111369771Y-131057143D02*
X111341200Y-131142857D01*
X111341200Y-131142857D02*
X111284057Y-131200000D01*
X111284057Y-131200000D02*
X111226914Y-131228571D01*
X111226914Y-131228571D02*
X111112628Y-131257143D01*
X111112628Y-131257143D02*
X111026914Y-131257143D01*
X111026914Y-131257143D02*
X110912628Y-131228571D01*
X110912628Y-131228571D02*
X110855485Y-131200000D01*
X110855485Y-131200000D02*
X110798342Y-131142857D01*
X110798342Y-131142857D02*
X110769771Y-131057143D01*
X110769771Y-131057143D02*
X110769771Y-131000000D01*
X110769771Y-131000000D02*
X110798342Y-130914286D01*
X110798342Y-130914286D02*
X110826914Y-130885714D01*
X110769771Y-130685714D02*
X110769771Y-130314286D01*
X110769771Y-130314286D02*
X110998342Y-130514286D01*
X110998342Y-130514286D02*
X110998342Y-130428571D01*
X110998342Y-130428571D02*
X111026914Y-130371429D01*
X111026914Y-130371429D02*
X111055485Y-130342857D01*
X111055485Y-130342857D02*
X111112628Y-130314286D01*
X111112628Y-130314286D02*
X111255485Y-130314286D01*
X111255485Y-130314286D02*
X111312628Y-130342857D01*
X111312628Y-130342857D02*
X111341200Y-130371429D01*
X111341200Y-130371429D02*
X111369771Y-130428571D01*
X111369771Y-130428571D02*
X111369771Y-130600000D01*
X111369771Y-130600000D02*
X111341200Y-130657143D01*
X111341200Y-130657143D02*
X111312628Y-130685714D01*
X110969771Y-129800000D02*
X111369771Y-129800000D01*
X110741200Y-129942857D02*
X111169771Y-130085714D01*
X111169771Y-130085714D02*
X111169771Y-129714285D01*
X132162628Y-102849999D02*
X132191200Y-102878571D01*
X132191200Y-102878571D02*
X132219771Y-102964285D01*
X132219771Y-102964285D02*
X132219771Y-103021428D01*
X132219771Y-103021428D02*
X132191200Y-103107142D01*
X132191200Y-103107142D02*
X132134057Y-103164285D01*
X132134057Y-103164285D02*
X132076914Y-103192856D01*
X132076914Y-103192856D02*
X131962628Y-103221428D01*
X131962628Y-103221428D02*
X131876914Y-103221428D01*
X131876914Y-103221428D02*
X131762628Y-103192856D01*
X131762628Y-103192856D02*
X131705485Y-103164285D01*
X131705485Y-103164285D02*
X131648342Y-103107142D01*
X131648342Y-103107142D02*
X131619771Y-103021428D01*
X131619771Y-103021428D02*
X131619771Y-102964285D01*
X131619771Y-102964285D02*
X131648342Y-102878571D01*
X131648342Y-102878571D02*
X131676914Y-102849999D01*
X131619771Y-102307142D02*
X131619771Y-102592856D01*
X131619771Y-102592856D02*
X131905485Y-102621428D01*
X131905485Y-102621428D02*
X131876914Y-102592856D01*
X131876914Y-102592856D02*
X131848342Y-102535714D01*
X131848342Y-102535714D02*
X131848342Y-102392856D01*
X131848342Y-102392856D02*
X131876914Y-102335714D01*
X131876914Y-102335714D02*
X131905485Y-102307142D01*
X131905485Y-102307142D02*
X131962628Y-102278571D01*
X131962628Y-102278571D02*
X132105485Y-102278571D01*
X132105485Y-102278571D02*
X132162628Y-102307142D01*
X132162628Y-102307142D02*
X132191200Y-102335714D01*
X132191200Y-102335714D02*
X132219771Y-102392856D01*
X132219771Y-102392856D02*
X132219771Y-102535714D01*
X132219771Y-102535714D02*
X132191200Y-102592856D01*
X132191200Y-102592856D02*
X132162628Y-102621428D01*
X131062628Y-102849999D02*
X131091200Y-102878571D01*
X131091200Y-102878571D02*
X131119771Y-102964285D01*
X131119771Y-102964285D02*
X131119771Y-103021428D01*
X131119771Y-103021428D02*
X131091200Y-103107142D01*
X131091200Y-103107142D02*
X131034057Y-103164285D01*
X131034057Y-103164285D02*
X130976914Y-103192856D01*
X130976914Y-103192856D02*
X130862628Y-103221428D01*
X130862628Y-103221428D02*
X130776914Y-103221428D01*
X130776914Y-103221428D02*
X130662628Y-103192856D01*
X130662628Y-103192856D02*
X130605485Y-103164285D01*
X130605485Y-103164285D02*
X130548342Y-103107142D01*
X130548342Y-103107142D02*
X130519771Y-103021428D01*
X130519771Y-103021428D02*
X130519771Y-102964285D01*
X130519771Y-102964285D02*
X130548342Y-102878571D01*
X130548342Y-102878571D02*
X130576914Y-102849999D01*
X130519771Y-102335714D02*
X130519771Y-102449999D01*
X130519771Y-102449999D02*
X130548342Y-102507142D01*
X130548342Y-102507142D02*
X130576914Y-102535714D01*
X130576914Y-102535714D02*
X130662628Y-102592856D01*
X130662628Y-102592856D02*
X130776914Y-102621428D01*
X130776914Y-102621428D02*
X131005485Y-102621428D01*
X131005485Y-102621428D02*
X131062628Y-102592856D01*
X131062628Y-102592856D02*
X131091200Y-102564285D01*
X131091200Y-102564285D02*
X131119771Y-102507142D01*
X131119771Y-102507142D02*
X131119771Y-102392856D01*
X131119771Y-102392856D02*
X131091200Y-102335714D01*
X131091200Y-102335714D02*
X131062628Y-102307142D01*
X131062628Y-102307142D02*
X131005485Y-102278571D01*
X131005485Y-102278571D02*
X130862628Y-102278571D01*
X130862628Y-102278571D02*
X130805485Y-102307142D01*
X130805485Y-102307142D02*
X130776914Y-102335714D01*
X130776914Y-102335714D02*
X130748342Y-102392856D01*
X130748342Y-102392856D02*
X130748342Y-102507142D01*
X130748342Y-102507142D02*
X130776914Y-102564285D01*
X130776914Y-102564285D02*
X130805485Y-102592856D01*
X130805485Y-102592856D02*
X130862628Y-102621428D01*
X135369771Y-124699999D02*
X135084057Y-124899999D01*
X135369771Y-125042856D02*
X134769771Y-125042856D01*
X134769771Y-125042856D02*
X134769771Y-124814285D01*
X134769771Y-124814285D02*
X134798342Y-124757142D01*
X134798342Y-124757142D02*
X134826914Y-124728571D01*
X134826914Y-124728571D02*
X134884057Y-124699999D01*
X134884057Y-124699999D02*
X134969771Y-124699999D01*
X134969771Y-124699999D02*
X135026914Y-124728571D01*
X135026914Y-124728571D02*
X135055485Y-124757142D01*
X135055485Y-124757142D02*
X135084057Y-124814285D01*
X135084057Y-124814285D02*
X135084057Y-125042856D01*
X135026914Y-124357142D02*
X134998342Y-124414285D01*
X134998342Y-124414285D02*
X134969771Y-124442856D01*
X134969771Y-124442856D02*
X134912628Y-124471428D01*
X134912628Y-124471428D02*
X134884057Y-124471428D01*
X134884057Y-124471428D02*
X134826914Y-124442856D01*
X134826914Y-124442856D02*
X134798342Y-124414285D01*
X134798342Y-124414285D02*
X134769771Y-124357142D01*
X134769771Y-124357142D02*
X134769771Y-124242856D01*
X134769771Y-124242856D02*
X134798342Y-124185714D01*
X134798342Y-124185714D02*
X134826914Y-124157142D01*
X134826914Y-124157142D02*
X134884057Y-124128571D01*
X134884057Y-124128571D02*
X134912628Y-124128571D01*
X134912628Y-124128571D02*
X134969771Y-124157142D01*
X134969771Y-124157142D02*
X134998342Y-124185714D01*
X134998342Y-124185714D02*
X135026914Y-124242856D01*
X135026914Y-124242856D02*
X135026914Y-124357142D01*
X135026914Y-124357142D02*
X135055485Y-124414285D01*
X135055485Y-124414285D02*
X135084057Y-124442856D01*
X135084057Y-124442856D02*
X135141200Y-124471428D01*
X135141200Y-124471428D02*
X135255485Y-124471428D01*
X135255485Y-124471428D02*
X135312628Y-124442856D01*
X135312628Y-124442856D02*
X135341200Y-124414285D01*
X135341200Y-124414285D02*
X135369771Y-124357142D01*
X135369771Y-124357142D02*
X135369771Y-124242856D01*
X135369771Y-124242856D02*
X135341200Y-124185714D01*
X135341200Y-124185714D02*
X135312628Y-124157142D01*
X135312628Y-124157142D02*
X135255485Y-124128571D01*
X135255485Y-124128571D02*
X135141200Y-124128571D01*
X135141200Y-124128571D02*
X135084057Y-124157142D01*
X135084057Y-124157142D02*
X135055485Y-124185714D01*
X135055485Y-124185714D02*
X135026914Y-124242856D01*
X111042856Y-87267771D02*
X111385714Y-87267771D01*
X111214285Y-87867771D02*
X111214285Y-87267771D01*
X111585714Y-87867771D02*
X111585714Y-87267771D01*
X111585714Y-87267771D02*
X111814285Y-87267771D01*
X111814285Y-87267771D02*
X111871428Y-87296342D01*
X111871428Y-87296342D02*
X111899999Y-87324914D01*
X111899999Y-87324914D02*
X111928571Y-87382057D01*
X111928571Y-87382057D02*
X111928571Y-87467771D01*
X111928571Y-87467771D02*
X111899999Y-87524914D01*
X111899999Y-87524914D02*
X111871428Y-87553485D01*
X111871428Y-87553485D02*
X111814285Y-87582057D01*
X111814285Y-87582057D02*
X111585714Y-87582057D01*
X112442857Y-87467771D02*
X112442857Y-87867771D01*
X112299999Y-87239200D02*
X112157142Y-87667771D01*
X112157142Y-87667771D02*
X112528571Y-87667771D01*
X111017856Y-82992771D02*
X111360714Y-82992771D01*
X111189285Y-83592771D02*
X111189285Y-82992771D01*
X111560714Y-83592771D02*
X111560714Y-82992771D01*
X111560714Y-82992771D02*
X111789285Y-82992771D01*
X111789285Y-82992771D02*
X111846428Y-83021342D01*
X111846428Y-83021342D02*
X111874999Y-83049914D01*
X111874999Y-83049914D02*
X111903571Y-83107057D01*
X111903571Y-83107057D02*
X111903571Y-83192771D01*
X111903571Y-83192771D02*
X111874999Y-83249914D01*
X111874999Y-83249914D02*
X111846428Y-83278485D01*
X111846428Y-83278485D02*
X111789285Y-83307057D01*
X111789285Y-83307057D02*
X111560714Y-83307057D01*
X112132142Y-83049914D02*
X112160714Y-83021342D01*
X112160714Y-83021342D02*
X112217857Y-82992771D01*
X112217857Y-82992771D02*
X112360714Y-82992771D01*
X112360714Y-82992771D02*
X112417857Y-83021342D01*
X112417857Y-83021342D02*
X112446428Y-83049914D01*
X112446428Y-83049914D02*
X112474999Y-83107057D01*
X112474999Y-83107057D02*
X112474999Y-83164200D01*
X112474999Y-83164200D02*
X112446428Y-83249914D01*
X112446428Y-83249914D02*
X112103571Y-83592771D01*
X112103571Y-83592771D02*
X112474999Y-83592771D01*
X113900000Y-132469771D02*
X113700000Y-132184057D01*
X113557143Y-132469771D02*
X113557143Y-131869771D01*
X113557143Y-131869771D02*
X113785714Y-131869771D01*
X113785714Y-131869771D02*
X113842857Y-131898342D01*
X113842857Y-131898342D02*
X113871428Y-131926914D01*
X113871428Y-131926914D02*
X113900000Y-131984057D01*
X113900000Y-131984057D02*
X113900000Y-132069771D01*
X113900000Y-132069771D02*
X113871428Y-132126914D01*
X113871428Y-132126914D02*
X113842857Y-132155485D01*
X113842857Y-132155485D02*
X113785714Y-132184057D01*
X113785714Y-132184057D02*
X113557143Y-132184057D01*
X114100000Y-131869771D02*
X114471428Y-131869771D01*
X114471428Y-131869771D02*
X114271428Y-132098342D01*
X114271428Y-132098342D02*
X114357143Y-132098342D01*
X114357143Y-132098342D02*
X114414286Y-132126914D01*
X114414286Y-132126914D02*
X114442857Y-132155485D01*
X114442857Y-132155485D02*
X114471428Y-132212628D01*
X114471428Y-132212628D02*
X114471428Y-132355485D01*
X114471428Y-132355485D02*
X114442857Y-132412628D01*
X114442857Y-132412628D02*
X114414286Y-132441200D01*
X114414286Y-132441200D02*
X114357143Y-132469771D01*
X114357143Y-132469771D02*
X114185714Y-132469771D01*
X114185714Y-132469771D02*
X114128571Y-132441200D01*
X114128571Y-132441200D02*
X114100000Y-132412628D01*
X146414285Y-97812628D02*
X146385713Y-97841200D01*
X146385713Y-97841200D02*
X146299999Y-97869771D01*
X146299999Y-97869771D02*
X146242856Y-97869771D01*
X146242856Y-97869771D02*
X146157142Y-97841200D01*
X146157142Y-97841200D02*
X146099999Y-97784057D01*
X146099999Y-97784057D02*
X146071428Y-97726914D01*
X146071428Y-97726914D02*
X146042856Y-97612628D01*
X146042856Y-97612628D02*
X146042856Y-97526914D01*
X146042856Y-97526914D02*
X146071428Y-97412628D01*
X146071428Y-97412628D02*
X146099999Y-97355485D01*
X146099999Y-97355485D02*
X146157142Y-97298342D01*
X146157142Y-97298342D02*
X146242856Y-97269771D01*
X146242856Y-97269771D02*
X146299999Y-97269771D01*
X146299999Y-97269771D02*
X146385713Y-97298342D01*
X146385713Y-97298342D02*
X146414285Y-97326914D01*
X146614285Y-97269771D02*
X146985713Y-97269771D01*
X146985713Y-97269771D02*
X146785713Y-97498342D01*
X146785713Y-97498342D02*
X146871428Y-97498342D01*
X146871428Y-97498342D02*
X146928571Y-97526914D01*
X146928571Y-97526914D02*
X146957142Y-97555485D01*
X146957142Y-97555485D02*
X146985713Y-97612628D01*
X146985713Y-97612628D02*
X146985713Y-97755485D01*
X146985713Y-97755485D02*
X146957142Y-97812628D01*
X146957142Y-97812628D02*
X146928571Y-97841200D01*
X146928571Y-97841200D02*
X146871428Y-97869771D01*
X146871428Y-97869771D02*
X146699999Y-97869771D01*
X146699999Y-97869771D02*
X146642856Y-97841200D01*
X146642856Y-97841200D02*
X146614285Y-97812628D01*
X147185714Y-97269771D02*
X147557142Y-97269771D01*
X147557142Y-97269771D02*
X147357142Y-97498342D01*
X147357142Y-97498342D02*
X147442857Y-97498342D01*
X147442857Y-97498342D02*
X147500000Y-97526914D01*
X147500000Y-97526914D02*
X147528571Y-97555485D01*
X147528571Y-97555485D02*
X147557142Y-97612628D01*
X147557142Y-97612628D02*
X147557142Y-97755485D01*
X147557142Y-97755485D02*
X147528571Y-97812628D01*
X147528571Y-97812628D02*
X147500000Y-97841200D01*
X147500000Y-97841200D02*
X147442857Y-97869771D01*
X147442857Y-97869771D02*
X147271428Y-97869771D01*
X147271428Y-97869771D02*
X147214285Y-97841200D01*
X147214285Y-97841200D02*
X147185714Y-97812628D01*
X110669771Y-127057142D02*
X111155485Y-127057142D01*
X111155485Y-127057142D02*
X111212628Y-127028571D01*
X111212628Y-127028571D02*
X111241200Y-127000000D01*
X111241200Y-127000000D02*
X111269771Y-126942857D01*
X111269771Y-126942857D02*
X111269771Y-126828571D01*
X111269771Y-126828571D02*
X111241200Y-126771428D01*
X111241200Y-126771428D02*
X111212628Y-126742857D01*
X111212628Y-126742857D02*
X111155485Y-126714285D01*
X111155485Y-126714285D02*
X110669771Y-126714285D01*
X110869771Y-126171429D02*
X111269771Y-126171429D01*
X110641200Y-126314286D02*
X111069771Y-126457143D01*
X111069771Y-126457143D02*
X111069771Y-126085714D01*
X107125128Y-127323214D02*
X107153700Y-127351786D01*
X107153700Y-127351786D02*
X107182271Y-127437500D01*
X107182271Y-127437500D02*
X107182271Y-127494643D01*
X107182271Y-127494643D02*
X107153700Y-127580357D01*
X107153700Y-127580357D02*
X107096557Y-127637500D01*
X107096557Y-127637500D02*
X107039414Y-127666071D01*
X107039414Y-127666071D02*
X106925128Y-127694643D01*
X106925128Y-127694643D02*
X106839414Y-127694643D01*
X106839414Y-127694643D02*
X106725128Y-127666071D01*
X106725128Y-127666071D02*
X106667985Y-127637500D01*
X106667985Y-127637500D02*
X106610842Y-127580357D01*
X106610842Y-127580357D02*
X106582271Y-127494643D01*
X106582271Y-127494643D02*
X106582271Y-127437500D01*
X106582271Y-127437500D02*
X106610842Y-127351786D01*
X106610842Y-127351786D02*
X106639414Y-127323214D01*
X107182271Y-126751786D02*
X107182271Y-127094643D01*
X107182271Y-126923214D02*
X106582271Y-126923214D01*
X106582271Y-126923214D02*
X106667985Y-126980357D01*
X106667985Y-126980357D02*
X106725128Y-127037500D01*
X106725128Y-127037500D02*
X106753700Y-127094643D01*
X107182271Y-126180357D02*
X107182271Y-126523214D01*
X107182271Y-126351785D02*
X106582271Y-126351785D01*
X106582271Y-126351785D02*
X106667985Y-126408928D01*
X106667985Y-126408928D02*
X106725128Y-126466071D01*
X106725128Y-126466071D02*
X106753700Y-126523214D01*
X135569771Y-100099999D02*
X135284057Y-100299999D01*
X135569771Y-100442856D02*
X134969771Y-100442856D01*
X134969771Y-100442856D02*
X134969771Y-100214285D01*
X134969771Y-100214285D02*
X134998342Y-100157142D01*
X134998342Y-100157142D02*
X135026914Y-100128571D01*
X135026914Y-100128571D02*
X135084057Y-100099999D01*
X135084057Y-100099999D02*
X135169771Y-100099999D01*
X135169771Y-100099999D02*
X135226914Y-100128571D01*
X135226914Y-100128571D02*
X135255485Y-100157142D01*
X135255485Y-100157142D02*
X135284057Y-100214285D01*
X135284057Y-100214285D02*
X135284057Y-100442856D01*
X135569771Y-99528571D02*
X135569771Y-99871428D01*
X135569771Y-99699999D02*
X134969771Y-99699999D01*
X134969771Y-99699999D02*
X135055485Y-99757142D01*
X135055485Y-99757142D02*
X135112628Y-99814285D01*
X135112628Y-99814285D02*
X135141200Y-99871428D01*
X129562628Y-102749999D02*
X129591200Y-102778571D01*
X129591200Y-102778571D02*
X129619771Y-102864285D01*
X129619771Y-102864285D02*
X129619771Y-102921428D01*
X129619771Y-102921428D02*
X129591200Y-103007142D01*
X129591200Y-103007142D02*
X129534057Y-103064285D01*
X129534057Y-103064285D02*
X129476914Y-103092856D01*
X129476914Y-103092856D02*
X129362628Y-103121428D01*
X129362628Y-103121428D02*
X129276914Y-103121428D01*
X129276914Y-103121428D02*
X129162628Y-103092856D01*
X129162628Y-103092856D02*
X129105485Y-103064285D01*
X129105485Y-103064285D02*
X129048342Y-103007142D01*
X129048342Y-103007142D02*
X129019771Y-102921428D01*
X129019771Y-102921428D02*
X129019771Y-102864285D01*
X129019771Y-102864285D02*
X129048342Y-102778571D01*
X129048342Y-102778571D02*
X129076914Y-102749999D01*
X129619771Y-102178571D02*
X129619771Y-102521428D01*
X129619771Y-102349999D02*
X129019771Y-102349999D01*
X129019771Y-102349999D02*
X129105485Y-102407142D01*
X129105485Y-102407142D02*
X129162628Y-102464285D01*
X129162628Y-102464285D02*
X129191200Y-102521428D01*
X131819771Y-129957142D02*
X132305485Y-129957142D01*
X132305485Y-129957142D02*
X132362628Y-129928571D01*
X132362628Y-129928571D02*
X132391200Y-129900000D01*
X132391200Y-129900000D02*
X132419771Y-129842857D01*
X132419771Y-129842857D02*
X132419771Y-129728571D01*
X132419771Y-129728571D02*
X132391200Y-129671428D01*
X132391200Y-129671428D02*
X132362628Y-129642857D01*
X132362628Y-129642857D02*
X132305485Y-129614285D01*
X132305485Y-129614285D02*
X131819771Y-129614285D01*
X131819771Y-129042857D02*
X131819771Y-129328571D01*
X131819771Y-129328571D02*
X132105485Y-129357143D01*
X132105485Y-129357143D02*
X132076914Y-129328571D01*
X132076914Y-129328571D02*
X132048342Y-129271429D01*
X132048342Y-129271429D02*
X132048342Y-129128571D01*
X132048342Y-129128571D02*
X132076914Y-129071429D01*
X132076914Y-129071429D02*
X132105485Y-129042857D01*
X132105485Y-129042857D02*
X132162628Y-129014286D01*
X132162628Y-129014286D02*
X132305485Y-129014286D01*
X132305485Y-129014286D02*
X132362628Y-129042857D01*
X132362628Y-129042857D02*
X132391200Y-129071429D01*
X132391200Y-129071429D02*
X132419771Y-129128571D01*
X132419771Y-129128571D02*
X132419771Y-129271429D01*
X132419771Y-129271429D02*
X132391200Y-129328571D01*
X132391200Y-129328571D02*
X132362628Y-129357143D01*
X142819771Y-111500000D02*
X143248342Y-111500000D01*
X143248342Y-111500000D02*
X143334057Y-111528571D01*
X143334057Y-111528571D02*
X143391200Y-111585714D01*
X143391200Y-111585714D02*
X143419771Y-111671428D01*
X143419771Y-111671428D02*
X143419771Y-111728571D01*
X142876914Y-111242857D02*
X142848342Y-111214285D01*
X142848342Y-111214285D02*
X142819771Y-111157143D01*
X142819771Y-111157143D02*
X142819771Y-111014285D01*
X142819771Y-111014285D02*
X142848342Y-110957143D01*
X142848342Y-110957143D02*
X142876914Y-110928571D01*
X142876914Y-110928571D02*
X142934057Y-110900000D01*
X142934057Y-110900000D02*
X142991200Y-110900000D01*
X142991200Y-110900000D02*
X143076914Y-110928571D01*
X143076914Y-110928571D02*
X143419771Y-111271428D01*
X143419771Y-111271428D02*
X143419771Y-110900000D01*
X119152628Y-108035714D02*
X119181200Y-108064286D01*
X119181200Y-108064286D02*
X119209771Y-108150000D01*
X119209771Y-108150000D02*
X119209771Y-108207143D01*
X119209771Y-108207143D02*
X119181200Y-108292857D01*
X119181200Y-108292857D02*
X119124057Y-108350000D01*
X119124057Y-108350000D02*
X119066914Y-108378571D01*
X119066914Y-108378571D02*
X118952628Y-108407143D01*
X118952628Y-108407143D02*
X118866914Y-108407143D01*
X118866914Y-108407143D02*
X118752628Y-108378571D01*
X118752628Y-108378571D02*
X118695485Y-108350000D01*
X118695485Y-108350000D02*
X118638342Y-108292857D01*
X118638342Y-108292857D02*
X118609771Y-108207143D01*
X118609771Y-108207143D02*
X118609771Y-108150000D01*
X118609771Y-108150000D02*
X118638342Y-108064286D01*
X118638342Y-108064286D02*
X118666914Y-108035714D01*
X118666914Y-107807143D02*
X118638342Y-107778571D01*
X118638342Y-107778571D02*
X118609771Y-107721429D01*
X118609771Y-107721429D02*
X118609771Y-107578571D01*
X118609771Y-107578571D02*
X118638342Y-107521429D01*
X118638342Y-107521429D02*
X118666914Y-107492857D01*
X118666914Y-107492857D02*
X118724057Y-107464286D01*
X118724057Y-107464286D02*
X118781200Y-107464286D01*
X118781200Y-107464286D02*
X118866914Y-107492857D01*
X118866914Y-107492857D02*
X119209771Y-107835714D01*
X119209771Y-107835714D02*
X119209771Y-107464286D01*
X119209771Y-106892857D02*
X119209771Y-107235714D01*
X119209771Y-107064285D02*
X118609771Y-107064285D01*
X118609771Y-107064285D02*
X118695485Y-107121428D01*
X118695485Y-107121428D02*
X118752628Y-107178571D01*
X118752628Y-107178571D02*
X118781200Y-107235714D01*
X107182271Y-124619642D02*
X107667985Y-124619642D01*
X107667985Y-124619642D02*
X107725128Y-124591071D01*
X107725128Y-124591071D02*
X107753700Y-124562500D01*
X107753700Y-124562500D02*
X107782271Y-124505357D01*
X107782271Y-124505357D02*
X107782271Y-124391071D01*
X107782271Y-124391071D02*
X107753700Y-124333928D01*
X107753700Y-124333928D02*
X107725128Y-124305357D01*
X107725128Y-124305357D02*
X107667985Y-124276785D01*
X107667985Y-124276785D02*
X107182271Y-124276785D01*
X107182271Y-124048214D02*
X107182271Y-123676786D01*
X107182271Y-123676786D02*
X107410842Y-123876786D01*
X107410842Y-123876786D02*
X107410842Y-123791071D01*
X107410842Y-123791071D02*
X107439414Y-123733929D01*
X107439414Y-123733929D02*
X107467985Y-123705357D01*
X107467985Y-123705357D02*
X107525128Y-123676786D01*
X107525128Y-123676786D02*
X107667985Y-123676786D01*
X107667985Y-123676786D02*
X107725128Y-123705357D01*
X107725128Y-123705357D02*
X107753700Y-123733929D01*
X107753700Y-123733929D02*
X107782271Y-123791071D01*
X107782271Y-123791071D02*
X107782271Y-123962500D01*
X107782271Y-123962500D02*
X107753700Y-124019643D01*
X107753700Y-124019643D02*
X107725128Y-124048214D01*
X137734285Y-101772628D02*
X137705713Y-101801200D01*
X137705713Y-101801200D02*
X137619999Y-101829771D01*
X137619999Y-101829771D02*
X137562856Y-101829771D01*
X137562856Y-101829771D02*
X137477142Y-101801200D01*
X137477142Y-101801200D02*
X137419999Y-101744057D01*
X137419999Y-101744057D02*
X137391428Y-101686914D01*
X137391428Y-101686914D02*
X137362856Y-101572628D01*
X137362856Y-101572628D02*
X137362856Y-101486914D01*
X137362856Y-101486914D02*
X137391428Y-101372628D01*
X137391428Y-101372628D02*
X137419999Y-101315485D01*
X137419999Y-101315485D02*
X137477142Y-101258342D01*
X137477142Y-101258342D02*
X137562856Y-101229771D01*
X137562856Y-101229771D02*
X137619999Y-101229771D01*
X137619999Y-101229771D02*
X137705713Y-101258342D01*
X137705713Y-101258342D02*
X137734285Y-101286914D01*
X137934285Y-101229771D02*
X138305713Y-101229771D01*
X138305713Y-101229771D02*
X138105713Y-101458342D01*
X138105713Y-101458342D02*
X138191428Y-101458342D01*
X138191428Y-101458342D02*
X138248571Y-101486914D01*
X138248571Y-101486914D02*
X138277142Y-101515485D01*
X138277142Y-101515485D02*
X138305713Y-101572628D01*
X138305713Y-101572628D02*
X138305713Y-101715485D01*
X138305713Y-101715485D02*
X138277142Y-101772628D01*
X138277142Y-101772628D02*
X138248571Y-101801200D01*
X138248571Y-101801200D02*
X138191428Y-101829771D01*
X138191428Y-101829771D02*
X138019999Y-101829771D01*
X138019999Y-101829771D02*
X137962856Y-101801200D01*
X137962856Y-101801200D02*
X137934285Y-101772628D01*
X138505714Y-101229771D02*
X138905714Y-101229771D01*
X138905714Y-101229771D02*
X138648571Y-101829771D01*
X121462628Y-98869999D02*
X121491200Y-98898571D01*
X121491200Y-98898571D02*
X121519771Y-98984285D01*
X121519771Y-98984285D02*
X121519771Y-99041428D01*
X121519771Y-99041428D02*
X121491200Y-99127142D01*
X121491200Y-99127142D02*
X121434057Y-99184285D01*
X121434057Y-99184285D02*
X121376914Y-99212856D01*
X121376914Y-99212856D02*
X121262628Y-99241428D01*
X121262628Y-99241428D02*
X121176914Y-99241428D01*
X121176914Y-99241428D02*
X121062628Y-99212856D01*
X121062628Y-99212856D02*
X121005485Y-99184285D01*
X121005485Y-99184285D02*
X120948342Y-99127142D01*
X120948342Y-99127142D02*
X120919771Y-99041428D01*
X120919771Y-99041428D02*
X120919771Y-98984285D01*
X120919771Y-98984285D02*
X120948342Y-98898571D01*
X120948342Y-98898571D02*
X120976914Y-98869999D01*
X121519771Y-98584285D02*
X121519771Y-98469999D01*
X121519771Y-98469999D02*
X121491200Y-98412856D01*
X121491200Y-98412856D02*
X121462628Y-98384285D01*
X121462628Y-98384285D02*
X121376914Y-98327142D01*
X121376914Y-98327142D02*
X121262628Y-98298571D01*
X121262628Y-98298571D02*
X121034057Y-98298571D01*
X121034057Y-98298571D02*
X120976914Y-98327142D01*
X120976914Y-98327142D02*
X120948342Y-98355714D01*
X120948342Y-98355714D02*
X120919771Y-98412856D01*
X120919771Y-98412856D02*
X120919771Y-98527142D01*
X120919771Y-98527142D02*
X120948342Y-98584285D01*
X120948342Y-98584285D02*
X120976914Y-98612856D01*
X120976914Y-98612856D02*
X121034057Y-98641428D01*
X121034057Y-98641428D02*
X121176914Y-98641428D01*
X121176914Y-98641428D02*
X121234057Y-98612856D01*
X121234057Y-98612856D02*
X121262628Y-98584285D01*
X121262628Y-98584285D02*
X121291200Y-98527142D01*
X121291200Y-98527142D02*
X121291200Y-98412856D01*
X121291200Y-98412856D02*
X121262628Y-98355714D01*
X121262628Y-98355714D02*
X121234057Y-98327142D01*
X121234057Y-98327142D02*
X121176914Y-98298571D01*
X136569771Y-124699999D02*
X136284057Y-124899999D01*
X136569771Y-125042856D02*
X135969771Y-125042856D01*
X135969771Y-125042856D02*
X135969771Y-124814285D01*
X135969771Y-124814285D02*
X135998342Y-124757142D01*
X135998342Y-124757142D02*
X136026914Y-124728571D01*
X136026914Y-124728571D02*
X136084057Y-124699999D01*
X136084057Y-124699999D02*
X136169771Y-124699999D01*
X136169771Y-124699999D02*
X136226914Y-124728571D01*
X136226914Y-124728571D02*
X136255485Y-124757142D01*
X136255485Y-124757142D02*
X136284057Y-124814285D01*
X136284057Y-124814285D02*
X136284057Y-125042856D01*
X136569771Y-124414285D02*
X136569771Y-124299999D01*
X136569771Y-124299999D02*
X136541200Y-124242856D01*
X136541200Y-124242856D02*
X136512628Y-124214285D01*
X136512628Y-124214285D02*
X136426914Y-124157142D01*
X136426914Y-124157142D02*
X136312628Y-124128571D01*
X136312628Y-124128571D02*
X136084057Y-124128571D01*
X136084057Y-124128571D02*
X136026914Y-124157142D01*
X136026914Y-124157142D02*
X135998342Y-124185714D01*
X135998342Y-124185714D02*
X135969771Y-124242856D01*
X135969771Y-124242856D02*
X135969771Y-124357142D01*
X135969771Y-124357142D02*
X135998342Y-124414285D01*
X135998342Y-124414285D02*
X136026914Y-124442856D01*
X136026914Y-124442856D02*
X136084057Y-124471428D01*
X136084057Y-124471428D02*
X136226914Y-124471428D01*
X136226914Y-124471428D02*
X136284057Y-124442856D01*
X136284057Y-124442856D02*
X136312628Y-124414285D01*
X136312628Y-124414285D02*
X136341200Y-124357142D01*
X136341200Y-124357142D02*
X136341200Y-124242856D01*
X136341200Y-124242856D02*
X136312628Y-124185714D01*
X136312628Y-124185714D02*
X136284057Y-124157142D01*
X136284057Y-124157142D02*
X136226914Y-124128571D01*
X146339285Y-101594771D02*
X146139285Y-101309057D01*
X145996428Y-101594771D02*
X145996428Y-100994771D01*
X145996428Y-100994771D02*
X146224999Y-100994771D01*
X146224999Y-100994771D02*
X146282142Y-101023342D01*
X146282142Y-101023342D02*
X146310713Y-101051914D01*
X146310713Y-101051914D02*
X146339285Y-101109057D01*
X146339285Y-101109057D02*
X146339285Y-101194771D01*
X146339285Y-101194771D02*
X146310713Y-101251914D01*
X146310713Y-101251914D02*
X146282142Y-101280485D01*
X146282142Y-101280485D02*
X146224999Y-101309057D01*
X146224999Y-101309057D02*
X145996428Y-101309057D01*
X146910713Y-101594771D02*
X146567856Y-101594771D01*
X146739285Y-101594771D02*
X146739285Y-100994771D01*
X146739285Y-100994771D02*
X146682142Y-101080485D01*
X146682142Y-101080485D02*
X146624999Y-101137628D01*
X146624999Y-101137628D02*
X146567856Y-101166200D01*
X147282142Y-100994771D02*
X147339285Y-100994771D01*
X147339285Y-100994771D02*
X147396428Y-101023342D01*
X147396428Y-101023342D02*
X147425000Y-101051914D01*
X147425000Y-101051914D02*
X147453571Y-101109057D01*
X147453571Y-101109057D02*
X147482142Y-101223342D01*
X147482142Y-101223342D02*
X147482142Y-101366200D01*
X147482142Y-101366200D02*
X147453571Y-101480485D01*
X147453571Y-101480485D02*
X147425000Y-101537628D01*
X147425000Y-101537628D02*
X147396428Y-101566200D01*
X147396428Y-101566200D02*
X147339285Y-101594771D01*
X147339285Y-101594771D02*
X147282142Y-101594771D01*
X147282142Y-101594771D02*
X147225000Y-101566200D01*
X147225000Y-101566200D02*
X147196428Y-101537628D01*
X147196428Y-101537628D02*
X147167857Y-101480485D01*
X147167857Y-101480485D02*
X147139285Y-101366200D01*
X147139285Y-101366200D02*
X147139285Y-101223342D01*
X147139285Y-101223342D02*
X147167857Y-101109057D01*
X147167857Y-101109057D02*
X147196428Y-101051914D01*
X147196428Y-101051914D02*
X147225000Y-101023342D01*
X147225000Y-101023342D02*
X147282142Y-100994771D01*
X131387628Y-106010714D02*
X131416200Y-106039286D01*
X131416200Y-106039286D02*
X131444771Y-106125000D01*
X131444771Y-106125000D02*
X131444771Y-106182143D01*
X131444771Y-106182143D02*
X131416200Y-106267857D01*
X131416200Y-106267857D02*
X131359057Y-106325000D01*
X131359057Y-106325000D02*
X131301914Y-106353571D01*
X131301914Y-106353571D02*
X131187628Y-106382143D01*
X131187628Y-106382143D02*
X131101914Y-106382143D01*
X131101914Y-106382143D02*
X130987628Y-106353571D01*
X130987628Y-106353571D02*
X130930485Y-106325000D01*
X130930485Y-106325000D02*
X130873342Y-106267857D01*
X130873342Y-106267857D02*
X130844771Y-106182143D01*
X130844771Y-106182143D02*
X130844771Y-106125000D01*
X130844771Y-106125000D02*
X130873342Y-106039286D01*
X130873342Y-106039286D02*
X130901914Y-106010714D01*
X130901914Y-105782143D02*
X130873342Y-105753571D01*
X130873342Y-105753571D02*
X130844771Y-105696429D01*
X130844771Y-105696429D02*
X130844771Y-105553571D01*
X130844771Y-105553571D02*
X130873342Y-105496429D01*
X130873342Y-105496429D02*
X130901914Y-105467857D01*
X130901914Y-105467857D02*
X130959057Y-105439286D01*
X130959057Y-105439286D02*
X131016200Y-105439286D01*
X131016200Y-105439286D02*
X131101914Y-105467857D01*
X131101914Y-105467857D02*
X131444771Y-105810714D01*
X131444771Y-105810714D02*
X131444771Y-105439286D01*
X130901914Y-105210714D02*
X130873342Y-105182142D01*
X130873342Y-105182142D02*
X130844771Y-105125000D01*
X130844771Y-105125000D02*
X130844771Y-104982142D01*
X130844771Y-104982142D02*
X130873342Y-104925000D01*
X130873342Y-104925000D02*
X130901914Y-104896428D01*
X130901914Y-104896428D02*
X130959057Y-104867857D01*
X130959057Y-104867857D02*
X131016200Y-104867857D01*
X131016200Y-104867857D02*
X131101914Y-104896428D01*
X131101914Y-104896428D02*
X131444771Y-105239285D01*
X131444771Y-105239285D02*
X131444771Y-104867857D01*
X122662628Y-98819999D02*
X122691200Y-98848571D01*
X122691200Y-98848571D02*
X122719771Y-98934285D01*
X122719771Y-98934285D02*
X122719771Y-98991428D01*
X122719771Y-98991428D02*
X122691200Y-99077142D01*
X122691200Y-99077142D02*
X122634057Y-99134285D01*
X122634057Y-99134285D02*
X122576914Y-99162856D01*
X122576914Y-99162856D02*
X122462628Y-99191428D01*
X122462628Y-99191428D02*
X122376914Y-99191428D01*
X122376914Y-99191428D02*
X122262628Y-99162856D01*
X122262628Y-99162856D02*
X122205485Y-99134285D01*
X122205485Y-99134285D02*
X122148342Y-99077142D01*
X122148342Y-99077142D02*
X122119771Y-98991428D01*
X122119771Y-98991428D02*
X122119771Y-98934285D01*
X122119771Y-98934285D02*
X122148342Y-98848571D01*
X122148342Y-98848571D02*
X122176914Y-98819999D01*
X122376914Y-98477142D02*
X122348342Y-98534285D01*
X122348342Y-98534285D02*
X122319771Y-98562856D01*
X122319771Y-98562856D02*
X122262628Y-98591428D01*
X122262628Y-98591428D02*
X122234057Y-98591428D01*
X122234057Y-98591428D02*
X122176914Y-98562856D01*
X122176914Y-98562856D02*
X122148342Y-98534285D01*
X122148342Y-98534285D02*
X122119771Y-98477142D01*
X122119771Y-98477142D02*
X122119771Y-98362856D01*
X122119771Y-98362856D02*
X122148342Y-98305714D01*
X122148342Y-98305714D02*
X122176914Y-98277142D01*
X122176914Y-98277142D02*
X122234057Y-98248571D01*
X122234057Y-98248571D02*
X122262628Y-98248571D01*
X122262628Y-98248571D02*
X122319771Y-98277142D01*
X122319771Y-98277142D02*
X122348342Y-98305714D01*
X122348342Y-98305714D02*
X122376914Y-98362856D01*
X122376914Y-98362856D02*
X122376914Y-98477142D01*
X122376914Y-98477142D02*
X122405485Y-98534285D01*
X122405485Y-98534285D02*
X122434057Y-98562856D01*
X122434057Y-98562856D02*
X122491200Y-98591428D01*
X122491200Y-98591428D02*
X122605485Y-98591428D01*
X122605485Y-98591428D02*
X122662628Y-98562856D01*
X122662628Y-98562856D02*
X122691200Y-98534285D01*
X122691200Y-98534285D02*
X122719771Y-98477142D01*
X122719771Y-98477142D02*
X122719771Y-98362856D01*
X122719771Y-98362856D02*
X122691200Y-98305714D01*
X122691200Y-98305714D02*
X122662628Y-98277142D01*
X122662628Y-98277142D02*
X122605485Y-98248571D01*
X122605485Y-98248571D02*
X122491200Y-98248571D01*
X122491200Y-98248571D02*
X122434057Y-98277142D01*
X122434057Y-98277142D02*
X122405485Y-98305714D01*
X122405485Y-98305714D02*
X122376914Y-98362856D01*
X102551785Y-120487628D02*
X102523213Y-120516200D01*
X102523213Y-120516200D02*
X102437499Y-120544771D01*
X102437499Y-120544771D02*
X102380356Y-120544771D01*
X102380356Y-120544771D02*
X102294642Y-120516200D01*
X102294642Y-120516200D02*
X102237499Y-120459057D01*
X102237499Y-120459057D02*
X102208928Y-120401914D01*
X102208928Y-120401914D02*
X102180356Y-120287628D01*
X102180356Y-120287628D02*
X102180356Y-120201914D01*
X102180356Y-120201914D02*
X102208928Y-120087628D01*
X102208928Y-120087628D02*
X102237499Y-120030485D01*
X102237499Y-120030485D02*
X102294642Y-119973342D01*
X102294642Y-119973342D02*
X102380356Y-119944771D01*
X102380356Y-119944771D02*
X102437499Y-119944771D01*
X102437499Y-119944771D02*
X102523213Y-119973342D01*
X102523213Y-119973342D02*
X102551785Y-120001914D01*
X103123213Y-120544771D02*
X102780356Y-120544771D01*
X102951785Y-120544771D02*
X102951785Y-119944771D01*
X102951785Y-119944771D02*
X102894642Y-120030485D01*
X102894642Y-120030485D02*
X102837499Y-120087628D01*
X102837499Y-120087628D02*
X102780356Y-120116200D01*
X103466071Y-120201914D02*
X103408928Y-120173342D01*
X103408928Y-120173342D02*
X103380357Y-120144771D01*
X103380357Y-120144771D02*
X103351785Y-120087628D01*
X103351785Y-120087628D02*
X103351785Y-120059057D01*
X103351785Y-120059057D02*
X103380357Y-120001914D01*
X103380357Y-120001914D02*
X103408928Y-119973342D01*
X103408928Y-119973342D02*
X103466071Y-119944771D01*
X103466071Y-119944771D02*
X103580357Y-119944771D01*
X103580357Y-119944771D02*
X103637500Y-119973342D01*
X103637500Y-119973342D02*
X103666071Y-120001914D01*
X103666071Y-120001914D02*
X103694642Y-120059057D01*
X103694642Y-120059057D02*
X103694642Y-120087628D01*
X103694642Y-120087628D02*
X103666071Y-120144771D01*
X103666071Y-120144771D02*
X103637500Y-120173342D01*
X103637500Y-120173342D02*
X103580357Y-120201914D01*
X103580357Y-120201914D02*
X103466071Y-120201914D01*
X103466071Y-120201914D02*
X103408928Y-120230485D01*
X103408928Y-120230485D02*
X103380357Y-120259057D01*
X103380357Y-120259057D02*
X103351785Y-120316200D01*
X103351785Y-120316200D02*
X103351785Y-120430485D01*
X103351785Y-120430485D02*
X103380357Y-120487628D01*
X103380357Y-120487628D02*
X103408928Y-120516200D01*
X103408928Y-120516200D02*
X103466071Y-120544771D01*
X103466071Y-120544771D02*
X103580357Y-120544771D01*
X103580357Y-120544771D02*
X103637500Y-120516200D01*
X103637500Y-120516200D02*
X103666071Y-120487628D01*
X103666071Y-120487628D02*
X103694642Y-120430485D01*
X103694642Y-120430485D02*
X103694642Y-120316200D01*
X103694642Y-120316200D02*
X103666071Y-120259057D01*
X103666071Y-120259057D02*
X103637500Y-120230485D01*
X103637500Y-120230485D02*
X103580357Y-120201914D01*
X116214285Y-109699771D02*
X116014285Y-109414057D01*
X115871428Y-109699771D02*
X115871428Y-109099771D01*
X115871428Y-109099771D02*
X116099999Y-109099771D01*
X116099999Y-109099771D02*
X116157142Y-109128342D01*
X116157142Y-109128342D02*
X116185713Y-109156914D01*
X116185713Y-109156914D02*
X116214285Y-109214057D01*
X116214285Y-109214057D02*
X116214285Y-109299771D01*
X116214285Y-109299771D02*
X116185713Y-109356914D01*
X116185713Y-109356914D02*
X116157142Y-109385485D01*
X116157142Y-109385485D02*
X116099999Y-109414057D01*
X116099999Y-109414057D02*
X115871428Y-109414057D01*
X116785713Y-109699771D02*
X116442856Y-109699771D01*
X116614285Y-109699771D02*
X116614285Y-109099771D01*
X116614285Y-109099771D02*
X116557142Y-109185485D01*
X116557142Y-109185485D02*
X116499999Y-109242628D01*
X116499999Y-109242628D02*
X116442856Y-109271200D01*
X117300000Y-109299771D02*
X117300000Y-109699771D01*
X117157142Y-109071200D02*
X117014285Y-109499771D01*
X117014285Y-109499771D02*
X117385714Y-109499771D01*
X110277628Y-125185714D02*
X110306200Y-125214286D01*
X110306200Y-125214286D02*
X110334771Y-125300000D01*
X110334771Y-125300000D02*
X110334771Y-125357143D01*
X110334771Y-125357143D02*
X110306200Y-125442857D01*
X110306200Y-125442857D02*
X110249057Y-125500000D01*
X110249057Y-125500000D02*
X110191914Y-125528571D01*
X110191914Y-125528571D02*
X110077628Y-125557143D01*
X110077628Y-125557143D02*
X109991914Y-125557143D01*
X109991914Y-125557143D02*
X109877628Y-125528571D01*
X109877628Y-125528571D02*
X109820485Y-125500000D01*
X109820485Y-125500000D02*
X109763342Y-125442857D01*
X109763342Y-125442857D02*
X109734771Y-125357143D01*
X109734771Y-125357143D02*
X109734771Y-125300000D01*
X109734771Y-125300000D02*
X109763342Y-125214286D01*
X109763342Y-125214286D02*
X109791914Y-125185714D01*
X109734771Y-124985714D02*
X109734771Y-124614286D01*
X109734771Y-124614286D02*
X109963342Y-124814286D01*
X109963342Y-124814286D02*
X109963342Y-124728571D01*
X109963342Y-124728571D02*
X109991914Y-124671429D01*
X109991914Y-124671429D02*
X110020485Y-124642857D01*
X110020485Y-124642857D02*
X110077628Y-124614286D01*
X110077628Y-124614286D02*
X110220485Y-124614286D01*
X110220485Y-124614286D02*
X110277628Y-124642857D01*
X110277628Y-124642857D02*
X110306200Y-124671429D01*
X110306200Y-124671429D02*
X110334771Y-124728571D01*
X110334771Y-124728571D02*
X110334771Y-124900000D01*
X110334771Y-124900000D02*
X110306200Y-124957143D01*
X110306200Y-124957143D02*
X110277628Y-124985714D01*
X109734771Y-124100000D02*
X109734771Y-124214285D01*
X109734771Y-124214285D02*
X109763342Y-124271428D01*
X109763342Y-124271428D02*
X109791914Y-124300000D01*
X109791914Y-124300000D02*
X109877628Y-124357142D01*
X109877628Y-124357142D02*
X109991914Y-124385714D01*
X109991914Y-124385714D02*
X110220485Y-124385714D01*
X110220485Y-124385714D02*
X110277628Y-124357142D01*
X110277628Y-124357142D02*
X110306200Y-124328571D01*
X110306200Y-124328571D02*
X110334771Y-124271428D01*
X110334771Y-124271428D02*
X110334771Y-124157142D01*
X110334771Y-124157142D02*
X110306200Y-124100000D01*
X110306200Y-124100000D02*
X110277628Y-124071428D01*
X110277628Y-124071428D02*
X110220485Y-124042857D01*
X110220485Y-124042857D02*
X110077628Y-124042857D01*
X110077628Y-124042857D02*
X110020485Y-124071428D01*
X110020485Y-124071428D02*
X109991914Y-124100000D01*
X109991914Y-124100000D02*
X109963342Y-124157142D01*
X109963342Y-124157142D02*
X109963342Y-124271428D01*
X109963342Y-124271428D02*
X109991914Y-124328571D01*
X109991914Y-124328571D02*
X110020485Y-124357142D01*
X110020485Y-124357142D02*
X110077628Y-124385714D01*
X107652500Y-118344771D02*
X107452500Y-118059057D01*
X107309643Y-118344771D02*
X107309643Y-117744771D01*
X107309643Y-117744771D02*
X107538214Y-117744771D01*
X107538214Y-117744771D02*
X107595357Y-117773342D01*
X107595357Y-117773342D02*
X107623928Y-117801914D01*
X107623928Y-117801914D02*
X107652500Y-117859057D01*
X107652500Y-117859057D02*
X107652500Y-117944771D01*
X107652500Y-117944771D02*
X107623928Y-118001914D01*
X107623928Y-118001914D02*
X107595357Y-118030485D01*
X107595357Y-118030485D02*
X107538214Y-118059057D01*
X107538214Y-118059057D02*
X107309643Y-118059057D01*
X108166786Y-117744771D02*
X108052500Y-117744771D01*
X108052500Y-117744771D02*
X107995357Y-117773342D01*
X107995357Y-117773342D02*
X107966786Y-117801914D01*
X107966786Y-117801914D02*
X107909643Y-117887628D01*
X107909643Y-117887628D02*
X107881071Y-118001914D01*
X107881071Y-118001914D02*
X107881071Y-118230485D01*
X107881071Y-118230485D02*
X107909643Y-118287628D01*
X107909643Y-118287628D02*
X107938214Y-118316200D01*
X107938214Y-118316200D02*
X107995357Y-118344771D01*
X107995357Y-118344771D02*
X108109643Y-118344771D01*
X108109643Y-118344771D02*
X108166786Y-118316200D01*
X108166786Y-118316200D02*
X108195357Y-118287628D01*
X108195357Y-118287628D02*
X108223928Y-118230485D01*
X108223928Y-118230485D02*
X108223928Y-118087628D01*
X108223928Y-118087628D02*
X108195357Y-118030485D01*
X108195357Y-118030485D02*
X108166786Y-118001914D01*
X108166786Y-118001914D02*
X108109643Y-117973342D01*
X108109643Y-117973342D02*
X107995357Y-117973342D01*
X107995357Y-117973342D02*
X107938214Y-118001914D01*
X107938214Y-118001914D02*
X107909643Y-118030485D01*
X107909643Y-118030485D02*
X107881071Y-118087628D01*
X126137628Y-99374999D02*
X126166200Y-99403571D01*
X126166200Y-99403571D02*
X126194771Y-99489285D01*
X126194771Y-99489285D02*
X126194771Y-99546428D01*
X126194771Y-99546428D02*
X126166200Y-99632142D01*
X126166200Y-99632142D02*
X126109057Y-99689285D01*
X126109057Y-99689285D02*
X126051914Y-99717856D01*
X126051914Y-99717856D02*
X125937628Y-99746428D01*
X125937628Y-99746428D02*
X125851914Y-99746428D01*
X125851914Y-99746428D02*
X125737628Y-99717856D01*
X125737628Y-99717856D02*
X125680485Y-99689285D01*
X125680485Y-99689285D02*
X125623342Y-99632142D01*
X125623342Y-99632142D02*
X125594771Y-99546428D01*
X125594771Y-99546428D02*
X125594771Y-99489285D01*
X125594771Y-99489285D02*
X125623342Y-99403571D01*
X125623342Y-99403571D02*
X125651914Y-99374999D01*
X125794771Y-98860714D02*
X126194771Y-98860714D01*
X125566200Y-99003571D02*
X125994771Y-99146428D01*
X125994771Y-99146428D02*
X125994771Y-98774999D01*
X102601785Y-119487628D02*
X102573213Y-119516200D01*
X102573213Y-119516200D02*
X102487499Y-119544771D01*
X102487499Y-119544771D02*
X102430356Y-119544771D01*
X102430356Y-119544771D02*
X102344642Y-119516200D01*
X102344642Y-119516200D02*
X102287499Y-119459057D01*
X102287499Y-119459057D02*
X102258928Y-119401914D01*
X102258928Y-119401914D02*
X102230356Y-119287628D01*
X102230356Y-119287628D02*
X102230356Y-119201914D01*
X102230356Y-119201914D02*
X102258928Y-119087628D01*
X102258928Y-119087628D02*
X102287499Y-119030485D01*
X102287499Y-119030485D02*
X102344642Y-118973342D01*
X102344642Y-118973342D02*
X102430356Y-118944771D01*
X102430356Y-118944771D02*
X102487499Y-118944771D01*
X102487499Y-118944771D02*
X102573213Y-118973342D01*
X102573213Y-118973342D02*
X102601785Y-119001914D01*
X103173213Y-119544771D02*
X102830356Y-119544771D01*
X103001785Y-119544771D02*
X103001785Y-118944771D01*
X103001785Y-118944771D02*
X102944642Y-119030485D01*
X102944642Y-119030485D02*
X102887499Y-119087628D01*
X102887499Y-119087628D02*
X102830356Y-119116200D01*
X103458928Y-119544771D02*
X103573214Y-119544771D01*
X103573214Y-119544771D02*
X103630357Y-119516200D01*
X103630357Y-119516200D02*
X103658928Y-119487628D01*
X103658928Y-119487628D02*
X103716071Y-119401914D01*
X103716071Y-119401914D02*
X103744642Y-119287628D01*
X103744642Y-119287628D02*
X103744642Y-119059057D01*
X103744642Y-119059057D02*
X103716071Y-119001914D01*
X103716071Y-119001914D02*
X103687500Y-118973342D01*
X103687500Y-118973342D02*
X103630357Y-118944771D01*
X103630357Y-118944771D02*
X103516071Y-118944771D01*
X103516071Y-118944771D02*
X103458928Y-118973342D01*
X103458928Y-118973342D02*
X103430357Y-119001914D01*
X103430357Y-119001914D02*
X103401785Y-119059057D01*
X103401785Y-119059057D02*
X103401785Y-119201914D01*
X103401785Y-119201914D02*
X103430357Y-119259057D01*
X103430357Y-119259057D02*
X103458928Y-119287628D01*
X103458928Y-119287628D02*
X103516071Y-119316200D01*
X103516071Y-119316200D02*
X103630357Y-119316200D01*
X103630357Y-119316200D02*
X103687500Y-119287628D01*
X103687500Y-119287628D02*
X103716071Y-119259057D01*
X103716071Y-119259057D02*
X103744642Y-119201914D01*
X146484285Y-98944771D02*
X146284285Y-98659057D01*
X146141428Y-98944771D02*
X146141428Y-98344771D01*
X146141428Y-98344771D02*
X146369999Y-98344771D01*
X146369999Y-98344771D02*
X146427142Y-98373342D01*
X146427142Y-98373342D02*
X146455713Y-98401914D01*
X146455713Y-98401914D02*
X146484285Y-98459057D01*
X146484285Y-98459057D02*
X146484285Y-98544771D01*
X146484285Y-98544771D02*
X146455713Y-98601914D01*
X146455713Y-98601914D02*
X146427142Y-98630485D01*
X146427142Y-98630485D02*
X146369999Y-98659057D01*
X146369999Y-98659057D02*
X146141428Y-98659057D01*
X147055713Y-98944771D02*
X146712856Y-98944771D01*
X146884285Y-98944771D02*
X146884285Y-98344771D01*
X146884285Y-98344771D02*
X146827142Y-98430485D01*
X146827142Y-98430485D02*
X146769999Y-98487628D01*
X146769999Y-98487628D02*
X146712856Y-98516200D01*
X147255714Y-98344771D02*
X147627142Y-98344771D01*
X147627142Y-98344771D02*
X147427142Y-98573342D01*
X147427142Y-98573342D02*
X147512857Y-98573342D01*
X147512857Y-98573342D02*
X147570000Y-98601914D01*
X147570000Y-98601914D02*
X147598571Y-98630485D01*
X147598571Y-98630485D02*
X147627142Y-98687628D01*
X147627142Y-98687628D02*
X147627142Y-98830485D01*
X147627142Y-98830485D02*
X147598571Y-98887628D01*
X147598571Y-98887628D02*
X147570000Y-98916200D01*
X147570000Y-98916200D02*
X147512857Y-98944771D01*
X147512857Y-98944771D02*
X147341428Y-98944771D01*
X147341428Y-98944771D02*
X147284285Y-98916200D01*
X147284285Y-98916200D02*
X147255714Y-98887628D01*
X111042856Y-79017771D02*
X111385714Y-79017771D01*
X111214285Y-79617771D02*
X111214285Y-79017771D01*
X111585714Y-79617771D02*
X111585714Y-79017771D01*
X111585714Y-79017771D02*
X111814285Y-79017771D01*
X111814285Y-79017771D02*
X111871428Y-79046342D01*
X111871428Y-79046342D02*
X111899999Y-79074914D01*
X111899999Y-79074914D02*
X111928571Y-79132057D01*
X111928571Y-79132057D02*
X111928571Y-79217771D01*
X111928571Y-79217771D02*
X111899999Y-79274914D01*
X111899999Y-79274914D02*
X111871428Y-79303485D01*
X111871428Y-79303485D02*
X111814285Y-79332057D01*
X111814285Y-79332057D02*
X111585714Y-79332057D01*
X112128571Y-79017771D02*
X112499999Y-79017771D01*
X112499999Y-79017771D02*
X112299999Y-79246342D01*
X112299999Y-79246342D02*
X112385714Y-79246342D01*
X112385714Y-79246342D02*
X112442857Y-79274914D01*
X112442857Y-79274914D02*
X112471428Y-79303485D01*
X112471428Y-79303485D02*
X112499999Y-79360628D01*
X112499999Y-79360628D02*
X112499999Y-79503485D01*
X112499999Y-79503485D02*
X112471428Y-79560628D01*
X112471428Y-79560628D02*
X112442857Y-79589200D01*
X112442857Y-79589200D02*
X112385714Y-79617771D01*
X112385714Y-79617771D02*
X112214285Y-79617771D01*
X112214285Y-79617771D02*
X112157142Y-79589200D01*
X112157142Y-79589200D02*
X112128571Y-79560628D01*
X116762628Y-122460714D02*
X116791200Y-122489286D01*
X116791200Y-122489286D02*
X116819771Y-122575000D01*
X116819771Y-122575000D02*
X116819771Y-122632143D01*
X116819771Y-122632143D02*
X116791200Y-122717857D01*
X116791200Y-122717857D02*
X116734057Y-122775000D01*
X116734057Y-122775000D02*
X116676914Y-122803571D01*
X116676914Y-122803571D02*
X116562628Y-122832143D01*
X116562628Y-122832143D02*
X116476914Y-122832143D01*
X116476914Y-122832143D02*
X116362628Y-122803571D01*
X116362628Y-122803571D02*
X116305485Y-122775000D01*
X116305485Y-122775000D02*
X116248342Y-122717857D01*
X116248342Y-122717857D02*
X116219771Y-122632143D01*
X116219771Y-122632143D02*
X116219771Y-122575000D01*
X116219771Y-122575000D02*
X116248342Y-122489286D01*
X116248342Y-122489286D02*
X116276914Y-122460714D01*
X116819771Y-121889286D02*
X116819771Y-122232143D01*
X116819771Y-122060714D02*
X116219771Y-122060714D01*
X116219771Y-122060714D02*
X116305485Y-122117857D01*
X116305485Y-122117857D02*
X116362628Y-122175000D01*
X116362628Y-122175000D02*
X116391200Y-122232143D01*
X116219771Y-121346428D02*
X116219771Y-121632142D01*
X116219771Y-121632142D02*
X116505485Y-121660714D01*
X116505485Y-121660714D02*
X116476914Y-121632142D01*
X116476914Y-121632142D02*
X116448342Y-121575000D01*
X116448342Y-121575000D02*
X116448342Y-121432142D01*
X116448342Y-121432142D02*
X116476914Y-121375000D01*
X116476914Y-121375000D02*
X116505485Y-121346428D01*
X116505485Y-121346428D02*
X116562628Y-121317857D01*
X116562628Y-121317857D02*
X116705485Y-121317857D01*
X116705485Y-121317857D02*
X116762628Y-121346428D01*
X116762628Y-121346428D02*
X116791200Y-121375000D01*
X116791200Y-121375000D02*
X116819771Y-121432142D01*
X116819771Y-121432142D02*
X116819771Y-121575000D01*
X116819771Y-121575000D02*
X116791200Y-121632142D01*
X116791200Y-121632142D02*
X116762628Y-121660714D01*
X112525000Y-132494771D02*
X112325000Y-132209057D01*
X112182143Y-132494771D02*
X112182143Y-131894771D01*
X112182143Y-131894771D02*
X112410714Y-131894771D01*
X112410714Y-131894771D02*
X112467857Y-131923342D01*
X112467857Y-131923342D02*
X112496428Y-131951914D01*
X112496428Y-131951914D02*
X112525000Y-132009057D01*
X112525000Y-132009057D02*
X112525000Y-132094771D01*
X112525000Y-132094771D02*
X112496428Y-132151914D01*
X112496428Y-132151914D02*
X112467857Y-132180485D01*
X112467857Y-132180485D02*
X112410714Y-132209057D01*
X112410714Y-132209057D02*
X112182143Y-132209057D01*
X112753571Y-131951914D02*
X112782143Y-131923342D01*
X112782143Y-131923342D02*
X112839286Y-131894771D01*
X112839286Y-131894771D02*
X112982143Y-131894771D01*
X112982143Y-131894771D02*
X113039286Y-131923342D01*
X113039286Y-131923342D02*
X113067857Y-131951914D01*
X113067857Y-131951914D02*
X113096428Y-132009057D01*
X113096428Y-132009057D02*
X113096428Y-132066200D01*
X113096428Y-132066200D02*
X113067857Y-132151914D01*
X113067857Y-132151914D02*
X112725000Y-132494771D01*
X112725000Y-132494771D02*
X113096428Y-132494771D01*
X102651785Y-121612628D02*
X102623213Y-121641200D01*
X102623213Y-121641200D02*
X102537499Y-121669771D01*
X102537499Y-121669771D02*
X102480356Y-121669771D01*
X102480356Y-121669771D02*
X102394642Y-121641200D01*
X102394642Y-121641200D02*
X102337499Y-121584057D01*
X102337499Y-121584057D02*
X102308928Y-121526914D01*
X102308928Y-121526914D02*
X102280356Y-121412628D01*
X102280356Y-121412628D02*
X102280356Y-121326914D01*
X102280356Y-121326914D02*
X102308928Y-121212628D01*
X102308928Y-121212628D02*
X102337499Y-121155485D01*
X102337499Y-121155485D02*
X102394642Y-121098342D01*
X102394642Y-121098342D02*
X102480356Y-121069771D01*
X102480356Y-121069771D02*
X102537499Y-121069771D01*
X102537499Y-121069771D02*
X102623213Y-121098342D01*
X102623213Y-121098342D02*
X102651785Y-121126914D01*
X103223213Y-121669771D02*
X102880356Y-121669771D01*
X103051785Y-121669771D02*
X103051785Y-121069771D01*
X103051785Y-121069771D02*
X102994642Y-121155485D01*
X102994642Y-121155485D02*
X102937499Y-121212628D01*
X102937499Y-121212628D02*
X102880356Y-121241200D01*
X103451785Y-121126914D02*
X103480357Y-121098342D01*
X103480357Y-121098342D02*
X103537500Y-121069771D01*
X103537500Y-121069771D02*
X103680357Y-121069771D01*
X103680357Y-121069771D02*
X103737500Y-121098342D01*
X103737500Y-121098342D02*
X103766071Y-121126914D01*
X103766071Y-121126914D02*
X103794642Y-121184057D01*
X103794642Y-121184057D02*
X103794642Y-121241200D01*
X103794642Y-121241200D02*
X103766071Y-121326914D01*
X103766071Y-121326914D02*
X103423214Y-121669771D01*
X103423214Y-121669771D02*
X103794642Y-121669771D01*
D11*
X131832836Y-127615000D02*
X131617164Y-127615000D01*
X131832836Y-128335000D02*
X131617164Y-128335000D01*
X117590000Y-118492164D02*
X117590000Y-118707836D01*
X118310000Y-118492164D02*
X118310000Y-118707836D01*
X124912164Y-103690000D02*
X125127836Y-103690000D01*
X124912164Y-104410000D02*
X125127836Y-104410000D01*
X105998859Y-116370000D02*
X106306141Y-116370000D01*
X105998859Y-117130000D02*
X106306141Y-117130000D01*
X134892164Y-110040000D02*
X135107836Y-110040000D01*
X134892164Y-110760000D02*
X135107836Y-110760000D01*
X104007500Y-106528641D02*
X104007500Y-106221359D01*
X104767500Y-106528641D02*
X104767500Y-106221359D01*
X115020000Y-111996359D02*
X115020000Y-112303641D01*
X115780000Y-111996359D02*
X115780000Y-112303641D01*
X134292164Y-118540000D02*
X134507836Y-118540000D01*
X134292164Y-119260000D02*
X134507836Y-119260000D01*
X127890000Y-101242836D02*
X127890000Y-101027164D01*
X128610000Y-101242836D02*
X128610000Y-101027164D01*
X123065000Y-123217164D02*
X123065000Y-123432836D01*
X123785000Y-123217164D02*
X123785000Y-123432836D01*
X124892164Y-104840000D02*
X125107836Y-104840000D01*
X124892164Y-105560000D02*
X125107836Y-105560000D01*
X134292164Y-119740000D02*
X134507836Y-119740000D01*
X134292164Y-120460000D02*
X134507836Y-120460000D01*
X116790000Y-112282836D02*
X116790000Y-112067164D01*
X117510000Y-112282836D02*
X117510000Y-112067164D01*
X102940000Y-112525000D02*
X102940000Y-111875000D01*
X102940000Y-112525000D02*
X102940000Y-113175000D01*
X106060000Y-112525000D02*
X106060000Y-111875000D01*
X106060000Y-112525000D02*
X106060000Y-113175000D01*
X106340000Y-111602500D02*
X106010000Y-111362500D01*
X106340000Y-111122500D01*
X106340000Y-111602500D01*
G36*
X106340000Y-111602500D02*
G01*
X106010000Y-111362500D01*
X106340000Y-111122500D01*
X106340000Y-111602500D01*
G37*
X132553641Y-98820000D02*
X132246359Y-98820000D01*
X132553641Y-99580000D02*
X132246359Y-99580000D01*
X114440000Y-117892164D02*
X114440000Y-118107836D01*
X115160000Y-117892164D02*
X115160000Y-118107836D01*
X124867164Y-102540000D02*
X125082836Y-102540000D01*
X124867164Y-103260000D02*
X125082836Y-103260000D01*
X104779664Y-109140000D02*
X104995336Y-109140000D01*
X104779664Y-109860000D02*
X104995336Y-109860000D01*
X110675000Y-88650000D02*
X113075000Y-88650000D01*
X110675000Y-91050000D02*
X110675000Y-88650000D01*
X113075000Y-88650000D02*
X113075000Y-91050000D01*
X113075000Y-91050000D02*
X110675000Y-91050000D01*
X127840000Y-123172164D02*
X127840000Y-123387836D01*
X128560000Y-123172164D02*
X128560000Y-123387836D01*
D12*
X137210000Y-77850000D02*
X137210000Y-80350000D01*
X137210000Y-77850000D02*
X137910000Y-77850000D01*
X137210000Y-90750000D02*
X137210000Y-94750000D01*
X137210000Y-94750000D02*
X137910000Y-94750000D01*
X141340000Y-77850000D02*
X144890000Y-77850000D01*
X141340000Y-94750000D02*
X144890000Y-94750000D01*
X147920000Y-77850000D02*
X150580000Y-77850000D01*
X147920000Y-94750000D02*
X150580000Y-94750000D01*
X150580000Y-94750000D02*
X150580000Y-77850000D01*
D13*
X135280000Y-80800000D02*
G75*
G02*
X135080000Y-80800000I-100000J0D01*
G01*
X135080000Y-80800000D02*
G75*
G02*
X135280000Y-80800000I100000J0D01*
G01*
D11*
X123165000Y-100927836D02*
X123165000Y-100712164D01*
X123885000Y-100927836D02*
X123885000Y-100712164D01*
D14*
X120967600Y-109067600D02*
X120967600Y-110077560D01*
X120967600Y-118522440D02*
X120967600Y-119532400D01*
X120967600Y-119532400D02*
X121977560Y-119532400D01*
X121977560Y-109067600D02*
X120967600Y-109067600D01*
X130422440Y-119532400D02*
X131432400Y-119532400D01*
X131432400Y-109067600D02*
X130422440Y-109067600D01*
X131432400Y-110077560D02*
X131432400Y-109067600D01*
X131432400Y-119532400D02*
X131432400Y-118522440D01*
D15*
G36*
X119494400Y-111240499D02*
G01*
X119240400Y-111240499D01*
X119240400Y-110859499D01*
X119494400Y-110859499D01*
X119494400Y-111240499D01*
G37*
G36*
X119494400Y-116240499D02*
G01*
X119240400Y-116240499D01*
X119240400Y-115859499D01*
X119494400Y-115859499D01*
X119494400Y-116240499D01*
G37*
G36*
X126640500Y-107594400D02*
G01*
X126259499Y-107594400D01*
X126259499Y-107340400D01*
X126640500Y-107340400D01*
X126640500Y-107594400D01*
G37*
G36*
X127140501Y-121259600D02*
G01*
X126759501Y-121259600D01*
X126759501Y-121005600D01*
X127140501Y-121005600D01*
X127140501Y-121259600D01*
G37*
G36*
X133159600Y-111740500D02*
G01*
X132905600Y-111740500D01*
X132905600Y-111359500D01*
X133159600Y-111359500D01*
X133159600Y-111740500D01*
G37*
G36*
X133159600Y-116740501D02*
G01*
X132905600Y-116740501D01*
X132905600Y-116359501D01*
X133159600Y-116359501D01*
X133159600Y-116740501D01*
G37*
D16*
X137550000Y-127490000D02*
G75*
G02*
X137450000Y-127490000I-50000J0D01*
G01*
X137450000Y-127490000D02*
G75*
G02*
X137550000Y-127490000I50000J0D01*
G01*
D11*
X126790000Y-101257836D02*
X126790000Y-101042164D01*
X127510000Y-101257836D02*
X127510000Y-101042164D01*
X128340000Y-105757836D02*
X128340000Y-105542164D01*
X129060000Y-105757836D02*
X129060000Y-105542164D01*
X109690000Y-128567164D02*
X109690000Y-128782836D01*
X110410000Y-128567164D02*
X110410000Y-128782836D01*
X119940000Y-100922836D02*
X119940000Y-100707164D01*
X120660000Y-100922836D02*
X120660000Y-100707164D01*
X104879664Y-115140000D02*
X105095336Y-115140000D01*
X104879664Y-115860000D02*
X105095336Y-115860000D01*
X130503641Y-98820000D02*
X130196359Y-98820000D01*
X130503641Y-99580000D02*
X130196359Y-99580000D01*
X110815000Y-128542164D02*
X110815000Y-128757836D01*
X111535000Y-128542164D02*
X111535000Y-128757836D01*
X131540000Y-101182836D02*
X131540000Y-100967164D01*
X132260000Y-101182836D02*
X132260000Y-100967164D01*
X130490000Y-101207836D02*
X130490000Y-100992164D01*
X131210000Y-101207836D02*
X131210000Y-100992164D01*
X135480000Y-126246359D02*
X135480000Y-126553641D01*
X134720000Y-126246359D02*
X134720000Y-126553641D01*
X110600000Y-84400000D02*
X113000000Y-84400000D01*
X110600000Y-86800000D02*
X110600000Y-84400000D01*
X113000000Y-84400000D02*
X113000000Y-86800000D01*
X113000000Y-86800000D02*
X110600000Y-86800000D01*
X110575000Y-80125000D02*
X112975000Y-80125000D01*
X110575000Y-82525000D02*
X110575000Y-80125000D01*
X112975000Y-80125000D02*
X112975000Y-82525000D01*
X112975000Y-82525000D02*
X110575000Y-82525000D01*
X113620000Y-130853641D02*
X113620000Y-130546359D01*
X114380000Y-130853641D02*
X114380000Y-130546359D01*
X144392164Y-97040000D02*
X144607836Y-97040000D01*
X144392164Y-97760000D02*
X144607836Y-97760000D01*
X112040000Y-124340000D02*
X112900000Y-124340000D01*
X112040000Y-125450000D02*
X112040000Y-124340000D01*
X112040000Y-127745000D02*
X112040000Y-128855000D01*
X112900000Y-128855000D02*
X112040000Y-128855000D01*
X116560000Y-124340000D02*
X115700000Y-124340000D01*
X116560000Y-125450000D02*
X116560000Y-124340000D01*
X116560000Y-127750000D02*
X116560000Y-128860000D01*
X116560000Y-128860000D02*
X115700000Y-128860000D01*
X112040000Y-126950000D02*
X111760000Y-126950000D01*
X112040000Y-126670000D01*
X112040000Y-126950000D01*
G36*
X112040000Y-126950000D02*
G01*
X111760000Y-126950000D01*
X112040000Y-126670000D01*
X112040000Y-126950000D01*
G37*
X105054664Y-126602500D02*
X105270336Y-126602500D01*
X105054664Y-127322500D02*
X105270336Y-127322500D01*
X136090000Y-100153641D02*
X136090000Y-99846359D01*
X136850000Y-100153641D02*
X136850000Y-99846359D01*
X129040000Y-101217836D02*
X129040000Y-101002164D01*
X129760000Y-101217836D02*
X129760000Y-101002164D01*
X133240000Y-130210000D02*
X133240000Y-128800000D01*
X135560000Y-130200000D02*
X135560000Y-128800000D01*
X133290000Y-130580000D02*
X132960000Y-130820000D01*
X132960000Y-130340000D01*
X133290000Y-130580000D01*
G36*
X133290000Y-130580000D02*
G01*
X132960000Y-130820000D01*
X132960000Y-130340000D01*
X133290000Y-130580000D01*
G37*
X145675000Y-117675000D02*
X145675000Y-118075000D01*
X145675000Y-118075000D02*
X146075000Y-117875000D01*
X146075000Y-117875000D02*
X145675000Y-117675000D01*
X148265000Y-104300000D02*
X148865000Y-104300000D01*
X148265000Y-104410000D02*
X148265000Y-104300000D01*
X148265000Y-120840000D02*
X148265000Y-120950000D01*
X148265000Y-120950000D02*
X148865000Y-120950000D01*
X119740000Y-107757836D02*
X119740000Y-107542164D01*
X120460000Y-107757836D02*
X120460000Y-107542164D01*
X103115000Y-124012500D02*
X103115000Y-123362500D01*
X103115000Y-124012500D02*
X103115000Y-124662500D01*
X106235000Y-124012500D02*
X106235000Y-123362500D01*
X106235000Y-124012500D02*
X106235000Y-124662500D01*
X106515000Y-123090000D02*
X106185000Y-122850000D01*
X106515000Y-122610000D01*
X106515000Y-123090000D01*
G36*
X106515000Y-123090000D02*
G01*
X106185000Y-122850000D01*
X106515000Y-122610000D01*
X106515000Y-123090000D01*
G37*
X138227836Y-100040000D02*
X138012164Y-100040000D01*
X138227836Y-100760000D02*
X138012164Y-100760000D01*
X121060000Y-100927836D02*
X121060000Y-100712164D01*
X121780000Y-100927836D02*
X121780000Y-100712164D01*
X135920000Y-126553641D02*
X135920000Y-126246359D01*
X136680000Y-126553641D02*
X136680000Y-126246359D01*
X144753641Y-101020000D02*
X144446359Y-101020000D01*
X144753641Y-101780000D02*
X144446359Y-101780000D01*
X130840000Y-107657836D02*
X130840000Y-107442164D01*
X131560000Y-107657836D02*
X131560000Y-107442164D01*
X122140000Y-100927836D02*
X122140000Y-100712164D01*
X122860000Y-100927836D02*
X122860000Y-100712164D01*
X104779664Y-119965000D02*
X104995336Y-119965000D01*
X104779664Y-120685000D02*
X104995336Y-120685000D01*
X116446359Y-110220000D02*
X116753641Y-110220000D01*
X116446359Y-110980000D02*
X116753641Y-110980000D01*
X110865000Y-124907836D02*
X110865000Y-124692164D01*
X111585000Y-124907836D02*
X111585000Y-124692164D01*
X105973859Y-117545000D02*
X106281141Y-117545000D01*
X105973859Y-118305000D02*
X106281141Y-118305000D01*
X125740000Y-101257836D02*
X125740000Y-101042164D01*
X126460000Y-101257836D02*
X126460000Y-101042164D01*
X104754664Y-118940000D02*
X104970336Y-118940000D01*
X104754664Y-119660000D02*
X104970336Y-119660000D01*
X144723641Y-98295000D02*
X144416359Y-98295000D01*
X144723641Y-99055000D02*
X144416359Y-99055000D01*
X110600000Y-76150000D02*
X113000000Y-76150000D01*
X110600000Y-78550000D02*
X110600000Y-76150000D01*
X113000000Y-76150000D02*
X113000000Y-78550000D01*
X113000000Y-78550000D02*
X110600000Y-78550000D01*
X115990000Y-118934420D02*
X115990000Y-119215580D01*
X117010000Y-118934420D02*
X117010000Y-119215580D01*
X112295000Y-130853641D02*
X112295000Y-130546359D01*
X113055000Y-130853641D02*
X113055000Y-130546359D01*
X104779664Y-121015000D02*
X104995336Y-121015000D01*
X104779664Y-121735000D02*
X104995336Y-121735000D01*
M02*
